  0
SECTION
  2
HEADER
  9
$ACADVER
  1
AC1021
  9
$ACADMAINTVER
 70
    25
  9
$DWGCODEPAGE
  3
ANSI_1252
  9
$INSBASE
 10
0.0
 20
0.0
 30
0.0
  9
$EXTMIN
 10
-14.52804
 20
-1.60969
 30
0.0
  9
$EXTMAX
 10
11.28469
 20
6.95674
 30
0.0
  9
$LIMMIN
 10
0.0
 20
0.0
  9
$LIMMAX
 10
12.0
 20
9.0
  9
$ORTHOMODE
 70
     0
  9
$REGENMODE
 70
     1
  9
$FILLMODE
 70
     1
  9
$QTEXTMODE
 70
     0
  9
$MIRRTEXT
 70
     1
  9
$LTSCALE
 40
1.0
  9
$ATTMODE
 70
     1
  9
$TEXTSIZE
 40
0.2
  9
$TRACEWID
 40
0.05
  9
$TEXTSTYLE
  7
Standard
  9
$CLAYER
  8
0
  9
$CELTYPE
  6
ByLayer
  9
$CECOLOR
 62
   256
  9
$CELTSCALE
 40
1.0
  9
$DISPSILH
 70
     0
  9
$DIMSCALE
 40
1.0
  9
$DIMASZ
 40
0.18
  9
$DIMEXO
 40
0.0625
  9
$DIMDLI
 40
0.38
  9
$DIMRND
 40
0.0
  9
$DIMDLE
 40
0.0
  9
$DIMEXE
 40
0.18
  9
$DIMTP
 40
0.0
  9
$DIMTM
 40
0.0
  9
$DIMTXT
 40
0.18
  9
$DIMCEN
 40
0.09
  9
$DIMTSZ
 40
0.0
  9
$DIMTOL
 70
     0
  9
$DIMLIM
 70
     0
  9
$DIMTIH
 70
     1
  9
$DIMTOH
 70
     1
  9
$DIMSE1
 70
     0
  9
$DIMSE2
 70
     0
  9
$DIMTAD
 70
     0
  9
$DIMZIN
 70
     0
  9
$DIMBLK
  1

  9
$DIMASO
 70
     1
  9
$DIMSHO
 70
     1
  9
$DIMPOST
  1

  9
$DIMAPOST
  1

  9
$DIMALT
 70
     0
  9
$DIMALTD
 70
     2
  9
$DIMALTF
 40
25.4
  9
$DIMLFAC
 40
1.0
  9
$DIMTOFL
 70
     0
  9
$DIMTVP
 40
0.0
  9
$DIMTIX
 70
     0
  9
$DIMSOXD
 70
     0
  9
$DIMSAH
 70
     0
  9
$DIMBLK1
  1

  9
$DIMBLK2
  1

  9
$DIMSTYLE
  2
Standard
  9
$DIMCLRD
 70
     0
  9
$DIMCLRE
 70
     0
  9
$DIMCLRT
 70
     0
  9
$DIMTFAC
 40
1.0
  9
$DIMGAP
 40
0.09
  9
$DIMJUST
 70
     0
  9
$DIMSD1
 70
     0
  9
$DIMSD2
 70
     0
  9
$DIMTOLJ
 70
     1
  9
$DIMTZIN
 70
     0
  9
$DIMALTZ
 70
     0
  9
$DIMALTTZ
 70
     0
  9
$DIMUPT
 70
     0
  9
$DIMDEC
 70
     4
  9
$DIMTDEC
 70
     4
  9
$DIMALTU
 70
     2
  9
$DIMALTTD
 70
     2
  9
$DIMTXSTY
  7
Standard
  9
$DIMAUNIT
 70
     0
  9
$DIMADEC
 70
     0
  9
$DIMALTRND
 40
0.0
  9
$DIMAZIN
 70
     0
  9
$DIMDSEP
 70
    46
  9
$DIMATFIT
 70
     3
  9
$DIMFRAC
 70
     0
  9
$DIMLDRBLK
  1

  9
$DIMLUNIT
 70
     2
  9
$DIMLWD
 70
    -2
  9
$DIMLWE
 70
    -2
  9
$DIMTMOVE
 70
     0
  9
$DIMFXL
 40
1.0
  9
$DIMFXLON
 70
     0
  9
$DIMJOGANG
 40
0.7853981633974483
  9
$DIMTFILL
 70
     0
  9
$DIMTFILLCLR
 70
     0
  9
$DIMARCSYM
 70
     0
  9
$DIMLTYPE
  6

  9
$DIMLTEX1
  6

  9
$DIMLTEX2
  6

  9
$LUNITS
 70
     2
  9
$LUPREC
 70
     4
  9
$SKETCHINC
 40
0.1
  9
$FILLETRAD
 40
0.5
  9
$AUNITS
 70
     0
  9
$AUPREC
 70
     0
  9
$MENU
  1
.
  9
$ELEVATION
 40
0.0
  9
$PELEVATION
 40
0.0
  9
$THICKNESS
 40
0.0
  9
$LIMCHECK
 70
     0
  9
$CHAMFERA
 40
0.5
  9
$CHAMFERB
 40
0.5
  9
$CHAMFERC
 40
1.0
  9
$CHAMFERD
 40
0.0
  9
$SKPOLY
 70
     0
  9
$TDCREATE
 40
2457546.009129294
  9
$TDUCREATE
 40
2457546.134129294
  9
$TDUPDATE
 40
2457546.009129456
  9
$TDUUPDATE
 40
2457546.134129456
  9
$TDINDWG
 40
0.0000000116
  9
$TDUSRTIMER
 40
0.0000000116
  9
$USRTIMER
 70
     1
  9
$ANGBASE
 50
0.0
  9
$ANGDIR
 70
     0
  9
$PDMODE
 70
     0
  9
$PDSIZE
 40
0.0
  9
$PLINEWID
 40
0.0
  9
$SPLFRAME
 70
     0
  9
$SPLINETYPE
 70
     6
  9
$SPLINESEGS
 70
     8
  9
$HANDSEED
  5
74
  9
$SURFTAB1
 70
     6
  9
$SURFTAB2
 70
     6
  9
$SURFTYPE
 70
     6
  9
$SURFU
 70
     6
  9
$SURFV
 70
     6
  9
$UCSBASE
  2

  9
$UCSNAME
  2

  9
$UCSORG
 10
0.0
 20
0.0
 30
0.0
  9
$UCSXDIR
 10
1.0
 20
0.0
 30
0.0
  9
$UCSYDIR
 10
0.0
 20
1.0
 30
0.0
  9
$UCSORTHOREF
  2

  9
$UCSORTHOVIEW
 70
     0
  9
$UCSORGTOP
 10
0.0
 20
0.0
 30
0.0
  9
$UCSORGBOTTOM
 10
0.0
 20
0.0
 30
0.0
  9
$UCSORGLEFT
 10
0.0
 20
0.0
 30
0.0
  9
$UCSORGRIGHT
 10
0.0
 20
0.0
 30
0.0
  9
$UCSORGFRONT
 10
0.0
 20
0.0
 30
0.0
  9
$UCSORGBACK
 10
0.0
 20
0.0
 30
0.0
  9
$PUCSBASE
  2

  9
$PUCSNAME
  2

  9
$PUCSORG
 10
0.0
 20
0.0
 30
0.0
  9
$PUCSXDIR
 10
1.0
 20
0.0
 30
0.0
  9
$PUCSYDIR
 10
0.0
 20
1.0
 30
0.0
  9
$PUCSORTHOREF
  2

  9
$PUCSORTHOVIEW
 70
     0
  9
$PUCSORGTOP
 10
0.0
 20
0.0
 30
0.0
  9
$PUCSORGBOTTOM
 10
0.0
 20
0.0
 30
0.0
  9
$PUCSORGLEFT
 10
0.0
 20
0.0
 30
0.0
  9
$PUCSORGRIGHT
 10
0.0
 20
0.0
 30
0.0
  9
$PUCSORGFRONT
 10
0.0
 20
0.0
 30
0.0
  9
$PUCSORGBACK
 10
0.0
 20
0.0
 30
0.0
  9
$USERI1
 70
     0
  9
$USERI2
 70
     0
  9
$USERI3
 70
     0
  9
$USERI4
 70
     0
  9
$USERI5
 70
     0
  9
$USERR1
 40
0.0
  9
$USERR2
 40
0.0
  9
$USERR3
 40
0.0
  9
$USERR4
 40
0.0
  9
$USERR5
 40
0.0
  9
$WORLDVIEW
 70
     1
  9
$SHADEDGE
 70
     3
  9
$SHADEDIF
 70
    70
  9
$TILEMODE
 70
     1
  9
$MAXACTVP
 70
    64
  9
$PINSBASE
 10
0.0
 20
0.0
 30
0.0
  9
$PLIMCHECK
 70
     0
  9
$PEXTMIN
 10
1.000000000000000E+20
 20
1.000000000000000E+20
 30
1.000000000000000E+20
  9
$PEXTMAX
 10
-1.000000000000000E+20
 20
-1.000000000000000E+20
 30
-1.000000000000000E+20
  9
$PLIMMIN
 10
0.0
 20
0.0
  9
$PLIMMAX
 10
12.0
 20
9.0
  9
$UNITMODE
 70
     0
  9
$VISRETAIN
 70
     1
  9
$PLINEGEN
 70
     0
  9
$PSLTSCALE
 70
     1
  9
$TREEDEPTH
 70
  3020
  9
$CMLSTYLE
  2
Standard
  9
$CMLJUST
 70
     0
  9
$CMLSCALE
 40
1.0
  9
$PROXYGRAPHICS
 70
     1
  9
$MEASUREMENT
 70
     0
  9
$CELWEIGHT
370
    -1
  9
$ENDCAPS
280
     0
  9
$JOINSTYLE
280
     0
  9
$LWDISPLAY
290
     0
  9
$INSUNITS
 70
     5
  9
$HYPERLINKBASE
  1

  9
$STYLESHEET
  1

  9
$XEDIT
290
     1
  9
$CEPSNTYPE
380
     0
  9
$PSTYLEMODE
290
     1
  9
$FINGERPRINTGUID
  2
{72CEA5E8-D1AF-42CA-92FB-3C6D0396D7B2}
  9
$VERSIONGUID
  2
{FAEB1C32-E019-11D5-929B-00C0DF256EC4}
  9
$EXTNAMES
290
     1
  9
$PSVPSCALE
 40
0.0
  9
$OLESTARTUP
290
     0
  9
$SORTENTS
280
   127
  9
$INDEXCTL
280
     0
  9
$HIDETEXT
280
     1
  9
$XCLIPFRAME
290
     0
  9
$HALOGAP
280
     0
  9
$OBSCOLOR
 70
   257
  9
$OBSLTYPE
280
     0
  9
$INTERSECTIONDISPLAY
280
     0
  9
$INTERSECTIONCOLOR
 70
   257
  9
$DIMASSOC
280
     2
  9
$PROJECTNAME
  1

  9
$CAMERADISPLAY
290
     0
  9
$LENSLENGTH
 40
50.0
  9
$CAMERAHEIGHT
 40
0.0
  9
$STEPSPERSEC
 40
2.0
  9
$STEPSIZE
 40
6.0
  9
$3DDWFPREC
 40
2.0
  9
$PSOLWIDTH
 40
0.25
  9
$PSOLHEIGHT
 40
4.0
  9
$LOFTANG1
 40
1.570796326794897
  9
$LOFTANG2
 40
1.570796326794897
  9
$LOFTMAG1
 40
0.0
  9
$LOFTMAG2
 40
0.0
  9
$LOFTPARAM
 70
     7
  9
$LOFTNORMALS
280
     1
  9
$LATITUDE
 40
37.795
  9
$LONGITUDE
 40
-122.394
  9
$NORTHDIRECTION
 40
0.0
  9
$TIMEZONE
 70
 -8000
  9
$LIGHTGLYPHDISPLAY
280
     1
  9
$TILEMODELIGHTSYNCH
280
     1
  9
$SOLIDHIST
280
     1
  9
$SHOWHIST
280
     1
  9
$DWFFRAME
280
     2
  9
$DGNFRAME
280
     2
  9
$REALWORLDSCALE
290
     1
  9
$INTERFERECOLOR
 62
   256
  9
$CSHADOW
280
     0
  9
$SHADOWPLANELOCATION
 40
0.0
  0
ENDSEC
  0
SECTION
  2
CLASSES
  0
CLASS
  1
ACDBDICTIONARYWDFLT
  2
AcDbDictionaryWithDefault
  3
ObjectDBX Classes
 90
        0
 91
        4
280
     0
281
     0
  0
CLASS
  1
VISUALSTYLE
  2
AcDbVisualStyle
  3
ObjectDBX Classes
 90
     4095
 91
        4
280
     0
281
     0
  0
CLASS
  1
MATERIAL
  2
AcDbMaterial
  3
ObjectDBX Classes
 90
     1153
 91
        4
280
     0
281
     0
  0
ENDSEC
  0
SECTION
  2
TABLES
  0
TABLE
  2
VPORT
  5
8
330
0
100
AcDbSymbolTable
 70
     1
  0
VPORT
  5
29
330
8
100
AcDbSymbolTableRecord
100
AcDbViewportTableRecord
  2
*Active
 70
     0
 10
0.0
 20
0.0
 11
1.0
 21
1.0
 12
10.42990654205607
 22
4.5
 13
0.0
 23
0.0
 14
0.5
 24
0.5
 15
0.5
 25
0.5
 16
0.0
 26
0.0
 36
1.0
 17
0.0
 27
0.0
 37
0.0
 40
9.0
 41
1.972972972850329
 42
50.0
 43
0.0
 44
0.0
 50
0.0
 51
0.0
 71
     0
 72
   100
 73
     1
 74
     3
 75
     0
 76
     0
 77
     0
 78
     0
281
     0
 65
     1
110
0.0
120
0.0
130
0.0
111
1.0
121
0.0
131
0.0
112
0.0
122
1.0
132
0.0
 79
     0
146
0.0
 60
     3
 61
     5
292
     1
282
     1
141
0.0
142
0.0
 63
   250
  0
ENDTAB
  0
TABLE
  2
LTYPE
  5
5
330
0
100
AcDbSymbolTable
 70
     1
  0
LTYPE
  5
14
330
5
100
AcDbSymbolTableRecord
100
AcDbLinetypeTableRecord
  2
ByBlock
 70
     0
  3

 72
    65
 73
     0
 40
0.0
  0
LTYPE
  5
15
330
5
100
AcDbSymbolTableRecord
100
AcDbLinetypeTableRecord
  2
ByLayer
 70
     0
  3

 72
    65
 73
     0
 40
0.0
  0
LTYPE
  5
16
330
5
100
AcDbSymbolTableRecord
100
AcDbLinetypeTableRecord
  2
Continuous
 70
     0
  3
Solid line
 72
    65
 73
     0
 40
0.0
  0
ENDTAB
  0
TABLE
  2
LAYER
  5
2
330
0
100
AcDbSymbolTable
 70
     2
  0
LAYER
  5
10
330
2
100
AcDbSymbolTableRecord
100
AcDbLayerTableRecord
  2
0
 70
     0
 62
     7
  6
Continuous
370
    -3
390
F
347
3E
  0
LAYER
  5
40
330
2
100
AcDbSymbolTableRecord
100
AcDbLayerTableRecord
  2
Camada 1
 70
     0
 62
     7
  6
Continuous
370
    -3
390
F
347
3E
  0
ENDTAB
  0
TABLE
  2
STYLE
  5
3
330
0
100
AcDbSymbolTable
 70
     1
  0
STYLE
  5
11
330
3
100
AcDbSymbolTableRecord
100
AcDbTextStyleTableRecord
  2
Standard
 70
     0
 40
0.0
 41
1.0
 50
0.0
 71
     0
 42
0.2
  3
txt
  4

  0
ENDTAB
  0
TABLE
  2
VIEW
  5
6
330
0
100
AcDbSymbolTable
 70
     0
  0
ENDTAB
  0
TABLE
  2
UCS
  5
7
330
0
100
AcDbSymbolTable
 70
     0
  0
ENDTAB
  0
TABLE
  2
APPID
  5
9
330
0
100
AcDbSymbolTable
 70
     2
  0
APPID
  5
12
330
9
100
AcDbSymbolTableRecord
100
AcDbRegAppTableRecord
  2
ACAD
 70
     0
  0
APPID
  5
3F
330
9
100
AcDbSymbolTableRecord
100
AcDbRegAppTableRecord
  2
ODA
 70
     0
  0
ENDTAB
  0
TABLE
  2
DIMSTYLE
  5
A
330
0
100
AcDbSymbolTable
 70
     1
100
AcDbDimStyleTable
  0
DIMSTYLE
105
27
330
A
100
AcDbSymbolTableRecord
100
AcDbDimStyleTableRecord
  2
Standard
 70
     0
178
     0
340
11
  0
ENDTAB
  0
TABLE
  2
BLOCK_RECORD
  5
1
330
0
100
AcDbSymbolTable
 70
     1
  0
BLOCK_RECORD
  5
1F
330
1
100
AcDbSymbolTableRecord
100
AcDbBlockTableRecord
  2
*Model_Space
340
22
 70
     0
280
     1
281
     0
  0
BLOCK_RECORD
  5
1B
330
1
100
AcDbSymbolTableRecord
100
AcDbBlockTableRecord
  2
*Paper_Space
340
1E
 70
     0
280
     1
281
     0
  0
BLOCK_RECORD
  5
23
330
1
100
AcDbSymbolTableRecord
100
AcDbBlockTableRecord
  2
*Paper_Space0
340
26
 70
     0
280
     1
281
     0
  0
ENDTAB
  0
ENDSEC
  0
SECTION
  2
BLOCKS
  0
BLOCK
  5
20
330
1F
100
AcDbEntity
  8
0
100
AcDbBlockBegin
  2
*Model_Space
 70
     0
 10
0.0
 20
0.0
 30
0.0
  3
*Model_Space
  1

  0
ENDBLK
  5
21
330
1F
100
AcDbEntity
  8
0
100
AcDbBlockEnd
  0
BLOCK
  5
1C
330
1B
100
AcDbEntity
 67
     1
  8
0
100
AcDbBlockBegin
  2
*Paper_Space
 70
     0
 10
0.0
 20
0.0
 30
0.0
  3
*Paper_Space
  1

  0
ENDBLK
  5
1D
330
1B
100
AcDbEntity
 67
     1
  8
0
100
AcDbBlockEnd
  0
BLOCK
  5
24
330
23
100
AcDbEntity
  8
0
100
AcDbBlockBegin
  2
*Paper_Space0
 70
     0
 10
0.0
 20
0.0
 30
0.0
  3
*Paper_Space0
  1

  0
ENDBLK
  5
25
330
23
100
AcDbEntity
  8
0
100
AcDbBlockEnd
  0
ENDSEC
  0
SECTION
  2
ENTITIES
  0
SPLINE
  5
41
330
1F
100
AcDbEntity
  8
Camada 1
 62
    40
100
AcDbSpline
210
0.0
220
0.0
230
1.0
 70
    11
 71
     3
 72
    36
 73
    32
 74
     0
 42
0.0000000001
 43
0.0000000001
 12
1.0
 22
0.0
 32
0.0
 13
1.0
 23
0.0
 33
0.0
 40
0.0
 40
0.0
 40
0.0
 40
0.0
 40
0.1111111111111111
 40
0.1111111111111111
 40
0.1111111111111111
 40
0.1111111111111111
 40
0.2222222222222222
 40
0.2222222222222222
 40
0.2222222222222222
 40
0.2222222222222222
 40
0.3333333333333333
 40
0.3333333333333333
 40
0.3333333333333333
 40
0.3333333333333333
 40
0.4444444444444444
 40
0.4444444444444444
 40
0.4444444444444444
 40
0.4444444444444444
 40
0.5555555555555556
 40
0.5555555555555556
 40
0.5555555555555556
 40
0.5555555555555556
 40
0.6666666666666666
 40
0.6666666666666666
 40
0.6666666666666666
 40
0.6666666666666666
 40
0.7777777777777778
 40
0.7777777777777778
 40
0.7777777777777778
 40
0.7777777777777778
 40
1.0
 40
1.0
 40
1.0
 40
1.0
 10
4.53661
 20
0.92925
 30
0.0
 10
4.53661
 20
1.30302
 30
0.0
 10
4.36133
 20
1.7032
 30
0.0
 10
4.06521
 20
1.90811
 30
0.0
 10
4.06521
 20
1.90811
 30
0.0
 10
3.86351
 20
2.04767
 30
0.0
 10
3.70861
 20
2.12568
 30
0.0
 10
3.42832
 20
2.12514
 30
0.0
 10
3.42832
 20
2.12514
 30
0.0
 10
3.04698
 20
2.12442
 30
0.0
 10
2.68857
 20
1.96953
 30
0.0
 10
2.48173
 20
1.64326
 30
0.0
 10
2.48173
 20
1.64326
 30
0.0
 10
2.43687
 20
1.57252
 30
0.0
 10
2.41768
 20
1.53753
 30
0.0
 10
2.37869
 20
1.45666
 30
0.0
 10
2.37869
 20
1.45666
 30
0.0
 10
2.22332
 20
1.13428
 30
0.0
 10
2.24368
 20
0.80351
 30
0.0
 10
2.36541
 20
0.47997
 30
0.0
 10
2.36541
 20
0.47997
 30
0.0
 10
2.6246
 20
-0.20887
 30
0.0
 10
3.55483
 20
-0.46853
 30
0.0
 10
4.11868
 20
0.04167
 30
0.0
 10
4.11868
 20
0.04167
 30
0.0
 10
4.2482
 20
0.15886
 30
0.0
 10
4.14079
 20
0.03784
 30
0.0
 10
4.26001
 20
0.18824
 30
0.0
 10
4.26001
 20
0.18824
 30
0.0
 10
4.41711
 20
0.38645
 30
0.0
 10
4.53661
 20
0.674
 30
0.0
 10
4.53661
 20
0.92925
 30
0.0
  0
SPLINE
  5
42
330
1F
100
AcDbEntity
  8
Camada 1
 62
    40
100
AcDbSpline
210
0.0
220
0.0
230
1.0
 70
    11
 71
     3
 72
   228
 73
   224
 74
     0
 42
0.0000000001
 43
0.0000000001
 12
1.0
 22
0.0
 32
0.0
 13
1.0
 23
0.0
 33
0.0
 40
0.0
 40
0.0
 40
0.0
 40
0.0
 40
0.0175438596491228
 40
0.0175438596491228
 40
0.0175438596491228
 40
0.0175438596491228
 40
0.0350877192982456
 40
0.0350877192982456
 40
0.0350877192982456
 40
0.0350877192982456
 40
0.0526315789473684
 40
0.0526315789473684
 40
0.0526315789473684
 40
0.0526315789473684
 40
0.0701754385964912
 40
0.0701754385964912
 40
0.0701754385964912
 40
0.0701754385964912
 40
0.087719298245614
 40
0.087719298245614
 40
0.087719298245614
 40
0.087719298245614
 40
0.1052631578947368
 40
0.1052631578947368
 40
0.1052631578947368
 40
0.1052631578947368
 40
0.1228070175438596
 40
0.1228070175438596
 40
0.1228070175438596
 40
0.1228070175438596
 40
0.1403508771929824
 40
0.1403508771929824
 40
0.1403508771929824
 40
0.1403508771929824
 40
0.1578947368421053
 40
0.1578947368421053
 40
0.1578947368421053
 40
0.1578947368421053
 40
0.1754385964912281
 40
0.1754385964912281
 40
0.1754385964912281
 40
0.1754385964912281
 40
0.1929824561403509
 40
0.1929824561403509
 40
0.1929824561403509
 40
0.1929824561403509
 40
0.2105263157894737
 40
0.2105263157894737
 40
0.2105263157894737
 40
0.2105263157894737
 40
0.2280701754385965
 40
0.2280701754385965
 40
0.2280701754385965
 40
0.2280701754385965
 40
0.2456140350877193
 40
0.2456140350877193
 40
0.2456140350877193
 40
0.2456140350877193
 40
0.2631578947368421
 40
0.2631578947368421
 40
0.2631578947368421
 40
0.2631578947368421
 40
0.2807017543859649
 40
0.2807017543859649
 40
0.2807017543859649
 40
0.2807017543859649
 40
0.2982456140350877
 40
0.2982456140350877
 40
0.2982456140350877
 40
0.2982456140350877
 40
0.3157894736842105
 40
0.3157894736842105
 40
0.3157894736842105
 40
0.3157894736842105
 40
0.3333333333333333
 40
0.3333333333333333
 40
0.3333333333333333
 40
0.3333333333333333
 40
0.3508771929824561
 40
0.3508771929824561
 40
0.3508771929824561
 40
0.3508771929824561
 40
0.3684210526315789
 40
0.3684210526315789
 40
0.3684210526315789
 40
0.3684210526315789
 40
0.3859649122807017
 40
0.3859649122807017
 40
0.3859649122807017
 40
0.3859649122807017
 40
0.4035087719298245
 40
0.4035087719298245
 40
0.4035087719298245
 40
0.4035087719298245
 40
0.4210526315789473
 40
0.4210526315789473
 40
0.4210526315789473
 40
0.4210526315789473
 40
0.4385964912280702
 40
0.4385964912280702
 40
0.4385964912280702
 40
0.4385964912280702
 40
0.456140350877193
 40
0.456140350877193
 40
0.456140350877193
 40
0.456140350877193
 40
0.4736842105263158
 40
0.4736842105263158
 40
0.4736842105263158
 40
0.4736842105263158
 40
0.4912280701754386
 40
0.4912280701754386
 40
0.4912280701754386
 40
0.4912280701754386
 40
0.5087719298245614
 40
0.5087719298245614
 40
0.5087719298245614
 40
0.5087719298245614
 40
0.5263157894736842
 40
0.5263157894736842
 40
0.5263157894736842
 40
0.5263157894736842
 40
0.543859649122807
 40
0.543859649122807
 40
0.543859649122807
 40
0.543859649122807
 40
0.5614035087719298
 40
0.5614035087719298
 40
0.5614035087719298
 40
0.5614035087719298
 40
0.5789473684210527
 40
0.5789473684210527
 40
0.5789473684210527
 40
0.5789473684210527
 40
0.5964912280701754
 40
0.5964912280701754
 40
0.5964912280701754
 40
0.5964912280701754
 40
0.6140350877192983
 40
0.6140350877192983
 40
0.6140350877192983
 40
0.6140350877192983
 40
0.631578947368421
 40
0.631578947368421
 40
0.631578947368421
 40
0.631578947368421
 40
0.6491228070175439
 40
0.6491228070175439
 40
0.6491228070175439
 40
0.6491228070175439
 40
0.6666666666666666
 40
0.6666666666666666
 40
0.6666666666666666
 40
0.6666666666666666
 40
0.6842105263157895
 40
0.6842105263157895
 40
0.6842105263157895
 40
0.6842105263157895
 40
0.7017543859649122
 40
0.7017543859649122
 40
0.7017543859649122
 40
0.7017543859649122
 40
0.7192982456140351
 40
0.7192982456140351
 40
0.7192982456140351
 40
0.7192982456140351
 40
0.7368421052631579
 40
0.7368421052631579
 40
0.7368421052631579
 40
0.7368421052631579
 40
0.7543859649122807
 40
0.7543859649122807
 40
0.7543859649122807
 40
0.7543859649122807
 40
0.7719298245614035
 40
0.7719298245614035
 40
0.7719298245614035
 40
0.7719298245614035
 40
0.7894736842105263
 40
0.7894736842105263
 40
0.7894736842105263
 40
0.7894736842105263
 40
0.8070175438596491
 40
0.8070175438596491
 40
0.8070175438596491
 40
0.8070175438596491
 40
0.8245614035087719
 40
0.8245614035087719
 40
0.8245614035087719
 40
0.8245614035087719
 40
0.8421052631578947
 40
0.8421052631578947
 40
0.8421052631578947
 40
0.8421052631578947
 40
0.8596491228070176
 40
0.8596491228070176
 40
0.8596491228070176
 40
0.8596491228070176
 40
0.8771929824561403
 40
0.8771929824561403
 40
0.8771929824561403
 40
0.8771929824561403
 40
0.8947368421052632
 40
0.8947368421052632
 40
0.8947368421052632
 40
0.8947368421052632
 40
0.9122807017543859
 40
0.9122807017543859
 40
0.9122807017543859
 40
0.9122807017543859
 40
0.9298245614035088
 40
0.9298245614035088
 40
0.9298245614035088
 40
0.9298245614035088
 40
0.9473684210526315
 40
0.9473684210526315
 40
0.9473684210526315
 40
0.9473684210526315
 40
0.9649122807017544
 40
0.9649122807017544
 40
0.9649122807017544
 40
0.9649122807017544
 40
1.0
 40
1.0
 40
1.0
 40
1.0
 10
4.20236
 20
2.69549
 30
0.0
 10
4.27882
 20
2.81489
 30
0.0
 10
4.55737
 20
3.07141
 30
0.0
 10
4.67734
 20
3.15543
 30
0.0
 10
4.67734
 20
3.15543
 30
0.0
 10
4.67734
 20
3.15543
 30
0.0
 10
4.9764
 20
2.93465
 30
0.0
 10
4.9764
 20
2.93465
 30
0.0
 10
4.9764
 20
2.93465
 30
0.0
 10
4.96931
 20
2.84553
 30
0.0
 10
4.91016
 20
2.68254
 30
0.0
 10
4.87792
 20
2.5961
 30
0.0
 10
4.87792
 20
2.5961
 30
0.0
 10
4.87792
 20
2.5961
 30
0.0
 10
4.74771
 20
2.27233
 30
0.0
 10
4.74771
 20
2.27233
 30
0.0
 10
4.74771
 20
2.27233
 30
0.0
 10
4.79826
 20
2.23693
 30
0.0
 10
4.78806
 20
2.24001
 30
0.0
 10
4.82521
 20
2.18779
 30
0.0
 10
4.82521
 20
2.18779
 30
0.0
 10
4.87673
 20
2.11538
 30
0.0
 10
4.98983
 20
1.98362
 30
0.0
 10
5.01159
 20
1.88596
 30
0.0
 10
5.01159
 20
1.88596
 30
0.0
 10
5.01159
 20
1.88596
 30
0.0
 10
5.32097
 20
1.93035
 30
0.0
 10
5.32097
 20
1.93035
 30
0.0
 10
5.32097
 20
1.93035
 30
0.0
 10
5.40277
 20
1.9452
 30
0.0
 10
5.58093
 20
1.95956
 30
0.0
 10
5.66248
 20
1.95956
 30
0.0
 10
5.66248
 20
1.95956
 30
0.0
 10
5.70146
 20
1.88251
 30
0.0
 10
5.76438
 20
1.68696
 30
0.0
 10
5.78563
 20
1.5916
 30
0.0
 10
5.78563
 20
1.5916
 30
0.0
 10
5.75375
 20
1.5418
 30
0.0
 10
5.71306
 20
1.51528
 30
0.0
 10
5.6655
 20
1.47806
 30
0.0
 10
5.6655
 20
1.47806
 30
0.0
 10
5.6655
 20
1.47806
 30
0.0
 10
5.46523
 20
1.33819
 30
0.0
 10
5.46523
 20
1.33819
 30
0.0
 10
5.46523
 20
1.33819
 30
0.0
 10
5.44101
 20
1.32246
 30
0.0
 10
5.4167
 20
1.30205
 30
0.0
 10
5.39168
 20
1.28606
 30
0.0
 10
5.39168
 20
1.28606
 30
0.0
 10
5.33975
 20
1.25288
 30
0.0
 10
5.2901
 20
1.23279
 30
0.0
 10
5.24028
 20
1.20523
 30
0.0
 10
5.24028
 20
1.20523
 30
0.0
 10
5.24028
 20
1.20523
 30
0.0
 10
5.25787
 20
0.91086
 30
0.0
 10
5.25787
 20
0.91086
 30
0.0
 10
5.25787
 20
0.91086
 30
0.0
 10
5.25787
 20
0.80871
 30
0.0
 10
5.24028
 20
0.80176
 30
0.0
 10
5.24028
 20
0.70847
 30
0.0
 10
5.24028
 20
0.70847
 30
0.0
 10
5.33904
 20
0.65382
 30
0.0
 10
5.42993
 20
0.61368
 30
0.0
 10
5.52894
 20
0.55042
 30
0.0
 10
5.52894
 20
0.55042
 30
0.0
 10
5.76621
 20
0.3988
 30
0.0
 10
5.883
 20
0.43324
 30
0.0
 10
5.68008
 20
-0.00904
 30
0.0
 10
5.68008
 20
-0.00904
 30
0.0
 10
5.47349
 20
-0.00904
 30
0.0
 10
5.21884
 20
-0.01846
 30
0.0
 10
5.02918
 20
0.02774
 30
0.0
 10
5.02918
 20
0.02774
 30
0.0
 10
4.90124
 20
-0.22513
 30
0.0
 10
4.80061
 20
-0.29439
 30
0.0
 10
4.74771
 20
-0.37702
 30
0.0
 10
4.74771
 20
-0.37702
 30
0.0
 10
4.804
 20
-0.46493
 30
0.0
 10
4.85063
 20
-0.56144
 30
0.0
 10
4.89086
 20
-0.66885
 30
0.0
 10
4.89086
 20
-0.66885
 30
0.0
 10
4.93063
 20
-0.77503
 30
0.0
 10
4.98358
 20
-0.87681
 30
0.0
 10
5.01159
 20
-1.00255
 30
0.0
 10
5.01159
 20
-1.00255
 30
0.0
 10
4.95134
 20
-1.01938
 30
0.0
 10
4.97831
 20
-1.01126
 30
0.0
 10
4.93671
 20
-1.05303
 30
0.0
 10
4.93671
 20
-1.05303
 30
0.0
 10
4.93671
 20
-1.05303
 30
0.0
 10
4.71252
 20
-1.22333
 30
0.0
 10
4.71252
 20
-1.22333
 30
0.0
 10
4.71252
 20
-1.22333
 30
0.0
 10
4.65308
 20
-1.19044
 30
0.0
 10
4.63191
 20
-1.16709
 30
0.0
 10
4.57524
 20
-1.12774
 30
0.0
 10
4.57524
 20
-1.12774
 30
0.0
 10
4.40554
 20
-1.00991
 30
0.0
 10
4.30922
 20
-0.88733
 30
0.0
 10
4.18477
 20
-0.80016
 30
0.0
 10
4.18477
 20
-0.80016
 30
0.0
 10
4.1016
 20
-0.84619
 30
0.0
 10
3.85861
 20
-0.93747
 30
0.0
 10
3.74497
 20
-0.94736
 30
0.0
 10
3.74497
 20
-0.94736
 30
0.0
 10
3.74202
 20
-1.08603
 30
0.0
 10
3.64795
 20
-1.51443
 30
0.0
 10
3.60424
 20
-1.60969
 30
0.0
 10
3.60424
 20
-1.60969
 30
0.0
 10
3.60424
 20
-1.60969
 30
0.0
 10
3.23481
 20
-1.60969
 30
0.0
 10
3.23481
 20
-1.60969
 30
0.0
 10
3.23481
 20
-1.60969
 30
0.0
 10
3.1795
 20
-1.48914
 30
0.0
 10
3.07168
 20
-1.10805
 30
0.0
 10
3.05889
 20
-0.94736
 30
0.0
 10
3.05889
 20
-0.94736
 30
0.0
 10
2.93724
 20
-0.93677
 30
0.0
 10
2.70798
 20
-0.84936
 30
0.0
 10
2.6191
 20
-0.80016
 30
0.0
 10
2.6191
 20
-0.80016
 30
0.0
 10
2.53494
 20
-0.85911
 30
0.0
 10
2.47476
 20
-0.95455
 30
0.0
 10
2.37987
 20
-1.02834
 30
0.0
 10
2.37987
 20
-1.02834
 30
0.0
 10
2.32845
 20
-1.06831
 30
0.0
 10
2.31373
 20
-1.09401
 30
0.0
 10
2.25678
 20
-1.13877
 30
0.0
 10
2.25678
 20
-1.13877
 30
0.0
 10
2.25678
 20
-1.13877
 30
0.0
 10
2.12652
 20
-1.24173
 30
0.0
 10
2.12652
 20
-1.24173
 30
0.0
 10
2.12652
 20
-1.24173
 30
0.0
 10
1.98887
 20
-1.16556
 30
0.0
 10
1.88829
 20
-1.05634
 30
0.0
 10
1.82746
 20
-1.03934
 30
0.0
 10
1.82746
 20
-1.03934
 30
0.0
 10
1.83109
 20
-0.86905
 30
0.0
 10
1.99272
 20
-0.50238
 30
0.0
 10
2.05615
 20
-0.37702
 30
0.0
 10
2.05615
 20
-0.37702
 30
0.0
 10
2.05615
 20
-0.37702
 30
0.0
 10
1.9026
 20
-0.18805
 30
0.0
 10
1.9026
 20
-0.18805
 30
0.0
 10
1.9026
 20
-0.18805
 30
0.0
 10
1.85533
 20
-0.12341
 30
0.0
 10
1.81021
 20
-0.04248
 30
0.0
 10
1.77469
 20
0.02774
 30
0.0
 10
1.77469
 20
0.02774
 30
0.0
 10
1.55471
 20
-0.02585
 30
0.0
 10
1.37327
 20
-0.04585
 30
0.0
 10
1.12378
 20
-0.04585
 30
0.0
 10
1.12378
 20
-0.04585
 30
0.0
 10
1.11882
 20
0.01657
 30
0.0
 10
1.08836
 20
0.07362
 30
0.0
 10
1.06873
 20
0.13575
 30
0.0
 10
1.06873
 20
0.13575
 30
0.0
 10
1.005
 20
0.33746
 30
0.0
 10
0.94725
 20
0.29945
 30
0.0
 10
1.27469
 20
0.53226
 30
0.0
 10
1.27469
 20
0.53226
 30
0.0
 10
1.27469
 20
0.53226
 30
0.0
 10
1.56358
 20
0.70847
 30
0.0
 10
1.56358
 20
0.70847
 30
0.0
 10
1.56358
 20
0.70847
 30
0.0
 10
1.5379
 20
1.03121
 30
0.0
 10
1.5379
 20
0.8825
 30
0.0
 10
1.56358
 20
1.20523
 30
0.0
 10
1.56358
 20
1.20523
 30
0.0
 10
1.43897
 20
1.2356
 30
0.0
 10
1.1149
 20
1.45638
 30
0.0
 10
1.00064
 20
1.5364
 30
0.0
 10
1.00064
 20
1.5364
 30
0.0
 10
1.02699
 20
1.59381
 30
0.0
 10
1.04978
 20
1.76146
 30
0.0
 10
1.12378
 20
1.92275
 30
0.0
 10
1.12378
 20
1.92275
 30
0.0
 10
1.12378
 20
1.92275
 30
0.0
 10
1.52974
 20
1.90576
 30
0.0
 10
1.52974
 20
1.90576
 30
0.0
 10
1.52974
 20
1.90576
 30
0.0
 10
1.56898
 20
1.90114
 30
0.0
 10
1.61096
 20
1.90756
 30
0.0
 10
1.6502
 20
1.90295
 30
0.0
 10
1.6502
 20
1.90295
 30
0.0
 10
1.70395
 20
1.89664
 30
0.0
 10
1.69611
 20
1.88596
 30
0.0
 10
1.77469
 20
1.88596
 30
0.0
 10
1.77469
 20
1.88596
 30
0.0
 10
1.83438
 20
1.9792
 30
0.0
 10
1.96336
 20
2.20734
 30
0.0
 10
2.05615
 20
2.27233
 30
0.0
 10
2.05615
 20
2.27233
 30
0.0
 10
1.89738
 20
2.58613
 30
0.0
 10
1.90262
 20
2.63896
 30
0.0
 10
1.79228
 20
2.87947
 30
0.0
 10
1.79228
 20
2.87947
 30
0.0
 10
1.82285
 20
2.92721
 30
0.0
 10
2.03648
 20
3.11864
 30
0.0
 10
2.09134
 20
3.11864
 30
0.0
 10
2.09134
 20
3.11864
 30
0.0
 10
2.14536
 20
3.11864
 30
0.0
 10
2.53421
 20
2.80057
 30
0.0
 10
2.6015
 20
2.69549
 30
0.0
 10
2.6015
 20
2.69549
 30
0.0
 10
3.18386
 20
3.01775
 30
0.0
 10
2.98159
 20
2.58412
 30
0.0
 10
3.11872
 20
3.24005
 30
0.0
 10
3.11872
 20
3.24005
 30
0.0
 10
3.1386
 20
3.33516
 30
0.0
 10
3.1665
 20
3.4512
 30
0.0
 10
3.19963
 20
3.52339
 30
0.0
 10
3.19963
 20
3.52339
 30
0.0
 10
3.19963
 20
3.52339
 30
0.0
 10
3.56906
 20
3.52339
 30
0.0
 10
3.56906
 20
3.52339
 30
0.0
 10
3.56906
 20
3.52339
 30
0.0
 10
3.59084
 20
3.4256
 30
0.0
 10
3.63072
 20
3.35148
 30
0.0
 10
3.65702
 20
3.24744
 30
0.0
 10
3.65702
 20
3.24744
 30
0.0
 10
3.82602
 20
2.57883
 30
0.0
 10
3.63586
 20
3.00898
 30
0.0
 10
4.20236
 20
2.69549
 30
0.0
  0
SPLINE
  5
43
330
1F
100
AcDbEntity
  8
Camada 1
 62
   242
100
AcDbSpline
210
0.0
220
0.0
230
1.0
 70
    11
 71
     3
 72
    24
 73
    20
 74
     0
 42
0.0000000001
 43
0.0000000001
 12
1.0
 22
0.0
 32
0.0
 13
1.0
 23
0.0
 33
0.0
 40
0.0
 40
0.0
 40
0.0
 40
0.0
 40
0.1666666666666667
 40
0.1666666666666667
 40
0.1666666666666667
 40
0.1666666666666667
 40
0.3333333333333333
 40
0.3333333333333333
 40
0.3333333333333333
 40
0.3333333333333333
 40
0.5
 40
0.5
 40
0.5
 40
0.5
 40
0.6666666666666666
 40
0.6666666666666666
 40
0.6666666666666666
 40
0.6666666666666666
 40
1.0
 40
1.0
 40
1.0
 40
1.0
 10
1.28211
 20
4.22253
 30
0.0
 10
1.28211
 20
4.39736
 30
0.0
 10
1.22661
 20
4.51097
 30
0.0
 10
1.14042
 20
4.60789
 30
0.0
 10
1.14042
 20
4.60789
 30
0.0
 10
1.14042
 20
4.60789
 30
0.0
 10
1.00058
 20
4.7192
 30
0.0
 10
1.00058
 20
4.7192
 30
0.0
 10
1.00058
 20
4.7192
 30
0.0
 10
0.68869
 20
4.89222
 30
0.0
 10
0.26179
 20
4.6455
 30
0.0
 10
0.26179
 20
4.29613
 30
0.0
 10
0.26179
 20
4.29613
 30
0.0
 10
0.26179
 20
4.06794
 30
0.0
 10
0.30334
 20
3.87966
 30
0.0
 10
0.5252
 20
3.76208
 30
0.0
 10
0.5252
 20
3.76208
 30
0.0
 10
0.85534
 20
3.58713
 30
0.0
 10
1.28211
 20
3.80971
 30
0.0
 10
1.28211
 20
4.22253
 30
0.0
  0
SPLINE
  5
44
330
1F
100
AcDbEntity
  8
Camada 1
 62
   242
100
AcDbSpline
210
0.0
220
0.0
230
1.0
 70
    11
 71
     3
 72
   148
 73
   144
 74
     0
 42
0.0000000001
 43
0.0000000001
 12
1.0
 22
0.0
 32
0.0
 13
1.0
 23
0.0
 33
0.0
 40
0.0
 40
0.0
 40
0.0
 40
0.0
 40
0.027027027027027
 40
0.027027027027027
 40
0.027027027027027
 40
0.027027027027027
 40
0.0540540540540541
 40
0.0540540540540541
 40
0.0540540540540541
 40
0.0540540540540541
 40
0.0810810810810811
 40
0.0810810810810811
 40
0.0810810810810811
 40
0.0810810810810811
 40
0.1081081081081081
 40
0.1081081081081081
 40
0.1081081081081081
 40
0.1081081081081081
 40
0.1351351351351351
 40
0.1351351351351351
 40
0.1351351351351351
 40
0.1351351351351351
 40
0.1621621621621622
 40
0.1621621621621622
 40
0.1621621621621622
 40
0.1621621621621622
 40
0.1891891891891892
 40
0.1891891891891892
 40
0.1891891891891892
 40
0.1891891891891892
 40
0.2162162162162162
 40
0.2162162162162162
 40
0.2162162162162162
 40
0.2162162162162162
 40
0.2432432432432433
 40
0.2432432432432433
 40
0.2432432432432433
 40
0.2432432432432433
 40
0.2702702702702703
 40
0.2702702702702703
 40
0.2702702702702703
 40
0.2702702702702703
 40
0.2972972972972973
 40
0.2972972972972973
 40
0.2972972972972973
 40
0.2972972972972973
 40
0.3243243243243243
 40
0.3243243243243243
 40
0.3243243243243243
 40
0.3243243243243243
 40
0.3513513513513514
 40
0.3513513513513514
 40
0.3513513513513514
 40
0.3513513513513514
 40
0.3783783783783784
 40
0.3783783783783784
 40
0.3783783783783784
 40
0.3783783783783784
 40
0.4054054054054054
 40
0.4054054054054054
 40
0.4054054054054054
 40
0.4054054054054054
 40
0.4324324324324325
 40
0.4324324324324325
 40
0.4324324324324325
 40
0.4324324324324325
 40
0.4594594594594595
 40
0.4594594594594595
 40
0.4594594594594595
 40
0.4594594594594595
 40
0.4864864864864865
 40
0.4864864864864865
 40
0.4864864864864865
 40
0.4864864864864865
 40
0.5135135135135135
 40
0.5135135135135135
 40
0.5135135135135135
 40
0.5135135135135135
 40
0.5405405405405406
 40
0.5405405405405406
 40
0.5405405405405406
 40
0.5405405405405406
 40
0.5675675675675675
 40
0.5675675675675675
 40
0.5675675675675675
 40
0.5675675675675675
 40
0.5945945945945946
 40
0.5945945945945946
 40
0.5945945945945946
 40
0.5945945945945946
 40
0.6216216216216216
 40
0.6216216216216216
 40
0.6216216216216216
 40
0.6216216216216216
 40
0.6486486486486487
 40
0.6486486486486487
 40
0.6486486486486487
 40
0.6486486486486487
 40
0.6756756756756757
 40
0.6756756756756757
 40
0.6756756756756757
 40
0.6756756756756757
 40
0.7027027027027027
 40
0.7027027027027027
 40
0.7027027027027027
 40
0.7027027027027027
 40
0.7297297297297297
 40
0.7297297297297297
 40
0.7297297297297297
 40
0.7297297297297297
 40
0.7567567567567568
 40
0.7567567567567568
 40
0.7567567567567568
 40
0.7567567567567568
 40
0.7837837837837838
 40
0.7837837837837838
 40
0.7837837837837838
 40
0.7837837837837838
 40
0.8108108108108109
 40
0.8108108108108109
 40
0.8108108108108109
 40
0.8108108108108109
 40
0.8378378378378378
 40
0.8378378378378378
 40
0.8378378378378378
 40
0.8378378378378378
 40
0.8648648648648649
 40
0.8648648648648649
 40
0.8648648648648649
 40
0.8648648648648649
 40
0.8918918918918919
 40
0.8918918918918919
 40
0.8918918918918919
 40
0.8918918918918919
 40
0.918918918918919
 40
0.918918918918919
 40
0.918918918918919
 40
0.918918918918919
 40
0.9459459459459459
 40
0.9459459459459459
 40
0.9459459459459459
 40
0.9459459459459459
 40
1.0
 40
1.0
 40
1.0
 40
1.0
 10
0.77196
 20
6.17272
 30
0.0
 10
0.77196
 20
6.17272
 30
0.0
 10
0.7719
 20
6.17272
 30
0.0
 10
0.7719
 20
6.17272
 30
0.0
 10
0.7719
 20
6.17272
 30
0.0
 10
0.7719
 20
6.17272
 30
0.0
 10
0.52941
 20
6.15042
 30
0.0
 10
0.52941
 20
6.15042
 30
0.0
 10
0.52941
 20
6.15042
 30
0.0
 10
0.47306
 20
6.14172
 30
0.0
 10
0.36303
 20
6.12346
 30
0.0
 10
0.31456
 20
6.09914
 30
0.0
 10
0.31456
 20
6.09914
 30
0.0
 10
0.25259
 20
6.03432
 30
0.0
 10
0.26179
 20
5.51434
 30
0.0
 10
0.26179
 20
5.4184
 30
0.0
 10
0.26179
 20
5.4184
 30
0.0
 10
0.13601
 20
5.34881
 30
0.0
 10
-0.07475
 20
5.22104
 30
0.0
 10
-0.16042
 20
5.08724
 30
0.0
 10
-0.16042
 20
5.08724
 30
0.0
 10
-0.3532
 20
5.18398
 30
0.0
 10
-0.60111
 20
5.19763
 30
0.0
 10
-0.82891
 20
5.19763
 30
0.0
 10
-0.82891
 20
5.19763
 30
0.0
 10
-0.88445
 20
5.1109
 30
0.0
 10
-0.99466
 20
4.86545
 30
0.0
 10
-1.00483
 20
4.73767
 30
0.0
 10
-1.00483
 20
4.73767
 30
0.0
 10
-0.66869
 20
4.50227
 30
0.0
 10
-0.84949
 20
4.58554
 30
0.0
 10
-0.45948
 20
4.36971
 30
0.0
 10
-0.45948
 20
4.36971
 30
0.0
 10
-0.50289
 20
4.17485
 30
0.0
 10
-0.44706
 20
3.99892
 30
0.0
 10
-0.40671
 20
3.81776
 30
0.0
 10
-0.40671
 20
3.81776
 30
0.0
 10
-0.47984
 20
3.76655
 30
0.0
 10
-0.58644
 20
3.64816
 30
0.0
 10
-0.64278
 20
3.5679
 30
0.0
 10
-0.64278
 20
3.5679
 30
0.0
 10
-0.84055
 20
3.28613
 30
0.0
 10
-0.89516
 20
3.31053
 30
0.0
 10
-0.70096
 20
3.06847
 30
0.0
 10
-0.70096
 20
3.06847
 30
0.0
 10
-0.5356
 20
2.86237
 30
0.0
 10
-0.59038
 20
2.85423
 30
0.0
 10
-0.30111
 20
2.9898
 30
0.0
 10
-0.30111
 20
2.9898
 30
0.0
 10
-0.30111
 20
2.9898
 30
0.0
 10
0.00469
 20
3.16675
 30
0.0
 10
0.00469
 20
3.16675
 30
0.0
 10
0.00469
 20
3.16675
 30
0.0
 10
0.05038
 20
3.20276
 30
0.0
 10
0.00091
 20
3.16297
 30
0.0
 10
0.03309
 20
3.19224
 30
0.0
 10
0.03309
 20
3.19224
 30
0.0
 10
0.10559
 20
3.14146
 30
0.0
 10
0.16568
 20
3.09789
 30
0.0
 10
0.25613
 20
3.05754
 30
0.0
 10
0.25613
 20
3.05754
 30
0.0
 10
0.3331
 20
3.02319
 30
0.0
 10
0.43482
 20
2.97936
 30
0.0
 10
0.52566
 20
2.97145
 30
0.0
 10
0.52566
 20
2.97145
 30
0.0
 10
0.54774
 20
2.694
 30
0.0
 10
0.7381
 20
2.37279
 30
0.0
 10
0.75436
 20
2.30911
 30
0.0
 10
0.75436
 20
2.30911
 30
0.0
 10
0.98846
 20
2.30911
 30
0.0
 10
1.08486
 20
2.35173
 30
0.0
 10
1.22934
 20
2.36431
 30
0.0
 10
1.22934
 20
2.36431
 30
0.0
 10
1.24153
 20
2.51763
 30
0.0
 10
1.33685
 20
2.90579
 30
0.0
 10
1.26452
 20
3.06345
 30
0.0
 10
1.26452
 20
3.06345
 30
0.0
 10
1.37092
 20
3.0727
 30
0.0
 10
1.53146
 20
3.20729
 30
0.0
 10
1.61237
 20
3.2884
 30
0.0
 10
1.61237
 20
3.2884
 30
0.0
 10
1.65075
 20
3.32685
 30
0.0
 10
1.66086
 20
3.34579
 30
0.0
 10
1.70432
 20
3.37622
 30
0.0
 10
1.70432
 20
3.37622
 30
0.0
 10
1.80826
 20
3.35088
 30
0.0
 10
1.89174
 20
3.31901
 30
0.0
 10
2.01324
 20
3.29453
 30
0.0
 10
2.01324
 20
3.29453
 30
0.0
 10
2.13236
 20
3.27053
 30
0.0
 10
2.23894
 20
3.26582
 30
0.0
 10
2.37281
 20
3.26582
 30
0.0
 10
2.37281
 20
3.26582
 30
0.0
 10
2.39201
 20
3.35205
 30
0.0
 10
2.43852
 20
3.4096
 30
0.0
 10
2.47132
 20
3.49396
 30
0.0
 10
2.47132
 20
3.49396
 30
0.0
 10
2.47132
 20
3.49396
 30
0.0
 10
2.54872
 20
3.72578
 30
0.0
 10
2.54872
 20
3.72578
 30
0.0
 10
2.54872
 20
3.72578
 30
0.0
 10
2.54872
 20
3.72578
 30
0.0
 10
2.42103
 20
3.83141
 30
0.0
 10
2.42103
 20
3.83141
 30
0.0
 10
2.42103
 20
3.83141
 30
0.0
 10
2.35598
 20
3.88984
 30
0.0
 10
2.07937
 20
4.07522
 30
0.0
 10
2.00338
 20
4.09374
 30
0.0
 10
2.00338
 20
4.09374
 30
0.0
 10
2.00338
 20
4.26884
 30
0.0
 10
2.01347
 20
4.35126
 30
0.0
 10
1.97569
 20
4.52474
 30
0.0
 10
1.97569
 20
4.52474
 30
0.0
 10
1.92154
 20
4.77344
 30
0.0
 10
1.97734
 20
4.6148
 30
0.0
 10
2.17945
 20
4.9031
 30
0.0
 10
2.17945
 20
4.9031
 30
0.0
 10
2.17945
 20
4.9031
 30
0.0
 10
2.37281
 20
5.19763
 30
0.0
 10
2.37281
 20
5.19763
 30
0.0
 10
2.37281
 20
5.19763
 30
0.0
 10
2.37281
 20
5.19763
 30
0.0
 10
2.30272
 20
5.30831
 30
0.0
 10
2.30272
 20
5.30831
 30
0.0
 10
2.30272
 20
5.30831
 30
0.0
 10
2.24589
 20
5.39292
 30
0.0
 10
2.14947
 20
5.53097
 30
0.0
 10
2.07374
 20
5.584
 30
0.0
 10
2.07374
 20
5.584
 30
0.0
 10
1.97395
 20
5.53391
 30
0.0
 10
1.8676
 20
5.50415
 30
0.0
 10
1.76298
 20
5.44906
 30
0.0
 10
1.76298
 20
5.44906
 30
0.0
 10
1.65709
 20
5.39329
 30
0.0
 10
1.59195
 20
5.34425
 30
0.0
 10
1.49321
 20
5.28962
 30
0.0
 10
1.49321
 20
5.28962
 30
0.0
 10
1.37609
 20
5.35443
 30
0.0
 10
1.18495
 20
5.48811
 30
0.0
 10
1.01823
 20
5.492
 30
0.0
 10
1.01823
 20
5.492
 30
0.0
 10
0.95624
 20
5.77031
 30
0.0
 10
0.88476
 20
5.94975
 30
0.0
 10
0.77196
 20
6.17272
 30
0.0
  0
SPLINE
  5
45
330
1F
100
AcDbEntity
  8
Camada 1
 62
   250
100
AcDbSpline
210
0.0
220
0.0
230
1.0
 70
    11
 71
     3
 72
    96
 73
    92
 74
     0
 42
0.0000000001
 43
0.0000000001
 12
1.0
 22
0.0
 32
0.0
 13
1.0
 23
0.0
 33
0.0
 40
0.0
 40
0.0
 40
0.0
 40
0.0
 40
0.0416666666666667
 40
0.0416666666666667
 40
0.0416666666666667
 40
0.0416666666666667
 40
0.0833333333333333
 40
0.0833333333333333
 40
0.0833333333333333
 40
0.0833333333333333
 40
0.125
 40
0.125
 40
0.125
 40
0.125
 40
0.1666666666666667
 40
0.1666666666666667
 40
0.1666666666666667
 40
0.1666666666666667
 40
0.2083333333333333
 40
0.2083333333333333
 40
0.2083333333333333
 40
0.2083333333333333
 40
0.25
 40
0.25
 40
0.25
 40
0.25
 40
0.2916666666666667
 40
0.2916666666666667
 40
0.2916666666666667
 40
0.2916666666666667
 40
0.3333333333333333
 40
0.3333333333333333
 40
0.3333333333333333
 40
0.3333333333333333
 40
0.375
 40
0.375
 40
0.375
 40
0.375
 40
0.4166666666666667
 40
0.4166666666666667
 40
0.4166666666666667
 40
0.4166666666666667
 40
0.4583333333333333
 40
0.4583333333333333
 40
0.4583333333333333
 40
0.4583333333333333
 40
0.5
 40
0.5
 40
0.5
 40
0.5
 40
0.5416666666666666
 40
0.5416666666666666
 40
0.5416666666666666
 40
0.5416666666666666
 40
0.5833333333333334
 40
0.5833333333333334
 40
0.5833333333333334
 40
0.5833333333333334
 40
0.625
 40
0.625
 40
0.625
 40
0.625
 40
0.6666666666666666
 40
0.6666666666666666
 40
0.6666666666666666
 40
0.6666666666666666
 40
0.7083333333333334
 40
0.7083333333333334
 40
0.7083333333333334
 40
0.7083333333333334
 40
0.75
 40
0.75
 40
0.75
 40
0.75
 40
0.7916666666666666
 40
0.7916666666666666
 40
0.7916666666666666
 40
0.7916666666666666
 40
0.8333333333333334
 40
0.8333333333333334
 40
0.8333333333333334
 40
0.8333333333333334
 40
0.875
 40
0.875
 40
0.875
 40
0.875
 40
0.9166666666666666
 40
0.9166666666666666
 40
0.9166666666666666
 40
0.9166666666666666
 40
1.0
 40
1.0
 40
1.0
 40
1.0
 10
-12.14151
 20
2.80808
 30
0.0
 10
-11.80284
 20
2.80808
 30
0.0
 10
-11.40067
 20
2.84512
 30
0.0
 10
-11.18901
 20
2.92979
 30
0.0
 10
-11.18901
 20
2.92979
 30
0.0
 10
-11.09376
 20
2.97212
 30
0.0
 10
-11.08317
 20
2.98271
 30
0.0
 10
-11.05142
 20
3.08325
 30
0.0
 10
-11.05142
 20
3.08325
 30
0.0
 10
-10.99851
 20
3.26316
 30
0.0
 10
-10.93501
 20
3.72354
 30
0.0
 10
-10.93501
 20
3.76058
 30
0.0
 10
-10.93501
 20
3.76058
 30
0.0
 10
-10.93501
 20
3.80291
 30
0.0
 10
-10.94559
 20
3.83996
 30
0.0
 10
-10.97205
 20
3.83996
 30
0.0
 10
-10.97205
 20
3.83996
 30
0.0
 10
-11.0038
 20
3.83996
 30
0.0
 10
-11.01438
 20
3.81879
 30
0.0
 10
-11.02496
 20
3.76058
 30
0.0
 10
-11.02496
 20
3.76058
 30
0.0
 10
-11.04084
 20
3.66533
 30
0.0
 10
-11.10963
 20
3.4325
 30
0.0
 10
-11.22076
 20
3.31608
 30
0.0
 10
-11.22076
 20
3.31608
 30
0.0
 10
-11.43242
 20
3.09912
 30
0.0
 10
-11.74463
 20
3.0515
 30
0.0
 10
-12.14151
 20
3.0515
 30
0.0
 10
-12.14151
 20
3.0515
 30
0.0
 10
-13.27392
 20
3.0515
 30
0.0
 10
-14.05179
 20
3.97754
 30
0.0
 10
-14.05179
 20
4.98825
 30
0.0
 10
-14.05179
 20
4.98825
 30
0.0
 10
-14.05179
 20
5.52799
 30
0.0
 10
-13.96184
 20
5.99895
 30
0.0
 10
-13.57554
 20
6.36937
 30
0.0
 10
-13.57554
 20
6.36937
 30
0.0
 10
-13.39034
 20
6.54929
 30
0.0
 10
-13.06225
 20
6.75566
 30
0.0
 10
-12.35846
 20
6.75566
 30
0.0
 10
-12.35846
 20
6.75566
 30
0.0
 10
-11.8928
 20
6.75566
 30
0.0
 10
-11.48534
 20
6.61279
 30
0.0
 10
-11.30013
 20
6.45404
 30
0.0
 10
-11.30013
 20
6.45404
 30
0.0
 10
-11.16255
 20
6.33762
 30
0.0
 10
-11.07788
 20
6.12066
 30
0.0
 10
-11.07788
 20
5.91429
 30
0.0
 10
-11.07788
 20
5.91429
 30
0.0
 10
-11.07788
 20
5.8402
 30
0.0
 10
-11.07259
 20
5.80316
 30
0.0
 10
-11.03555
 20
5.80316
 30
0.0
 10
-11.03555
 20
5.80316
 30
0.0
 10
-11.0038
 20
5.80316
 30
0.0
 10
-10.99321
 20
5.83491
 30
0.0
 10
-10.98792
 20
5.91429
 30
0.0
 10
-10.98792
 20
5.91429
 30
0.0
 10
-10.98263
 20
5.99366
 30
0.0
 10
-10.98263
 20
6.2847
 30
0.0
 10
-10.97205
 20
6.45933
 30
0.0
 10
-10.97205
 20
6.45933
 30
0.0
 10
-10.96146
 20
6.64983
 30
0.0
 10
-10.94559
 20
6.71333
 30
0.0
 10
-10.94559
 20
6.75566
 30
0.0
 10
-10.94559
 20
6.75566
 30
0.0
 10
-10.94559
 20
6.78741
 30
0.0
 10
-10.95617
 20
6.80858
 30
0.0
 10
-10.99321
 20
6.81387
 30
0.0
 10
-10.99321
 20
6.81387
 30
0.0
 10
-11.18901
 20
6.84033
 30
0.0
 10
-11.35305
 20
6.8562
 30
0.0
 10
-11.55413
 20
6.89324
 30
0.0
 10
-11.55413
 20
6.89324
 30
0.0
 10
-11.81342
 20
6.94087
 30
0.0
 10
-12.10976
 20
6.95674
 30
0.0
 10
-12.32142
 20
6.95674
 30
0.0
 10
-12.32142
 20
6.95674
 30
0.0
 10
-13.13634
 20
6.95674
 30
0.0
 10
-13.61788
 20
6.70804
 30
0.0
 10
-13.93538
 20
6.39054
 30
0.0
 10
-13.93538
 20
6.39054
 30
0.0
 10
-14.40634
 20
5.91958
 30
0.0
 10
-14.52804
 20
5.30045
 30
0.0
 10
-14.52804
 20
4.94591
 30
0.0
 10
-14.52804
 20
4.94591
 30
0.0
 10
-14.52804
 20
4.4432
 30
0.0
 10
-14.40104
 20
3.83996
 30
0.0
 10
-13.88775
 20
3.37958
 30
0.0
 10
-13.88775
 20
3.37958
 30
0.0
 10
-13.46971
 20
3.00387
 30
0.0
 10
-12.93525
 20
2.80808
 30
0.0
 10
-12.14151
 20
2.80808
 30
0.0
  0
SPLINE
  5
46
330
1F
100
AcDbEntity
  8
Camada 1
 62
   250
100
AcDbSpline
210
0.0
220
0.0
230
1.0
 70
    11
 71
     3
 72
   116
 73
   112
 74
     0
 42
0.0000000001
 43
0.0000000001
 12
1.0
 22
0.0
 32
0.0
 13
1.0
 23
0.0
 33
0.0
 40
0.0
 40
0.0
 40
0.0
 40
0.0
 40
0.0344827586206897
 40
0.0344827586206897
 40
0.0344827586206897
 40
0.0344827586206897
 40
0.0689655172413793
 40
0.0689655172413793
 40
0.0689655172413793
 40
0.0689655172413793
 40
0.103448275862069
 40
0.103448275862069
 40
0.103448275862069
 40
0.103448275862069
 40
0.1379310344827586
 40
0.1379310344827586
 40
0.1379310344827586
 40
0.1379310344827586
 40
0.1724137931034483
 40
0.1724137931034483
 40
0.1724137931034483
 40
0.1724137931034483
 40
0.2068965517241379
 40
0.2068965517241379
 40
0.2068965517241379
 40
0.2068965517241379
 40
0.2413793103448276
 40
0.2413793103448276
 40
0.2413793103448276
 40
0.2413793103448276
 40
0.2758620689655172
 40
0.2758620689655172
 40
0.2758620689655172
 40
0.2758620689655172
 40
0.3103448275862069
 40
0.3103448275862069
 40
0.3103448275862069
 40
0.3103448275862069
 40
0.3448275862068966
 40
0.3448275862068966
 40
0.3448275862068966
 40
0.3448275862068966
 40
0.3793103448275862
 40
0.3793103448275862
 40
0.3793103448275862
 40
0.3793103448275862
 40
0.4137931034482759
 40
0.4137931034482759
 40
0.4137931034482759
 40
0.4137931034482759
 40
0.4482758620689655
 40
0.4482758620689655
 40
0.4482758620689655
 40
0.4482758620689655
 40
0.4827586206896552
 40
0.4827586206896552
 40
0.4827586206896552
 40
0.4827586206896552
 40
0.5172413793103449
 40
0.5172413793103449
 40
0.5172413793103449
 40
0.5172413793103449
 40
0.5517241379310345
 40
0.5517241379310345
 40
0.5517241379310345
 40
0.5517241379310345
 40
0.5862068965517241
 40
0.5862068965517241
 40
0.5862068965517241
 40
0.5862068965517241
 40
0.6206896551724138
 40
0.6206896551724138
 40
0.6206896551724138
 40
0.6206896551724138
 40
0.6551724137931034
 40
0.6551724137931034
 40
0.6551724137931034
 40
0.6551724137931034
 40
0.6896551724137931
 40
0.6896551724137931
 40
0.6896551724137931
 40
0.6896551724137931
 40
0.7241379310344828
 40
0.7241379310344828
 40
0.7241379310344828
 40
0.7241379310344828
 40
0.7586206896551724
 40
0.7586206896551724
 40
0.7586206896551724
 40
0.7586206896551724
 40
0.7931034482758621
 40
0.7931034482758621
 40
0.7931034482758621
 40
0.7931034482758621
 40
0.8275862068965517
 40
0.8275862068965517
 40
0.8275862068965517
 40
0.8275862068965517
 40
0.8620689655172413
 40
0.8620689655172413
 40
0.8620689655172413
 40
0.8620689655172413
 40
0.896551724137931
 40
0.896551724137931
 40
0.896551724137931
 40
0.896551724137931
 40
0.9310344827586207
 40
0.9310344827586207
 40
0.9310344827586207
 40
0.9310344827586207
 40
1.0
 40
1.0
 40
1.0
 40
1.0
 10
-8.43205
 20
4.17333
 30
0.0
 10
-8.41088
 20
4.17333
 30
0.0
 10
-8.4003
 20
4.16275
 30
0.0
 10
-8.38971
 20
4.14687
 30
0.0
 10
-8.38971
 20
4.14687
 30
0.0
 10
-8.38971
 20
4.14687
 30
0.0
 10
-7.97167
 20
3.08325
 30
0.0
 10
-7.97167
 20
3.08325
 30
0.0
 10
-7.97167
 20
3.08325
 30
0.0
 10
-7.93992
 20
3.00387
 30
0.0
 10
-7.97167
 20
2.97741
 30
0.0
 10
-7.99284
 20
2.96683
 30
0.0
 10
-7.99284
 20
2.96683
 30
0.0
 10
-8.01401
 20
2.96154
 30
0.0
 10
-8.02988
 20
2.94566
 30
0.0
 10
-8.02988
 20
2.92979
 30
0.0
 10
-8.02988
 20
2.92979
 30
0.0
 10
-8.02988
 20
2.90333
 30
0.0
 10
-7.99813
 20
2.89804
 30
0.0
 10
-7.89759
 20
2.89275
 30
0.0
 10
-7.89759
 20
2.89275
 30
0.0
 10
-7.54305
 20
2.88217
 30
0.0
 10
-7.14617
 20
2.88217
 30
0.0
 10
-7.09326
 20
2.88217
 30
0.0
 10
-7.09326
 20
2.88217
 30
0.0
 10
-7.03505
 20
2.88217
 30
0.0
 10
-7.01388
 20
2.89275
 30
0.0
 10
-7.01388
 20
2.91921
 30
0.0
 10
-7.01388
 20
2.91921
 30
0.0
 10
-7.01388
 20
2.94566
 30
0.0
 10
-7.04034
 20
2.95625
 30
0.0
 10
-7.07738
 20
2.95625
 30
0.0
 10
-7.07738
 20
2.95625
 30
0.0
 10
-7.11442
 20
2.95625
 30
0.0
 10
-7.18851
 20
2.95625
 30
0.0
 10
-7.2573
 20
2.98271
 30
0.0
 10
-7.2573
 20
2.98271
 30
0.0
 10
-7.33138
 20
3.00916
 30
0.0
 10
-7.48484
 20
3.07796
 30
0.0
 10
-7.65947
 20
3.496
 30
0.0
 10
-7.65947
 20
3.496
 30
0.0
 10
-7.93992
 20
4.15746
 30
0.0
 10
-8.65959
 20
6.00424
 30
0.0
 10
-8.73367
 20
6.17887
 30
0.0
 10
-8.73367
 20
6.17887
 30
0.0
 10
-8.79188
 20
6.32704
 30
0.0
 10
-8.81305
 20
6.3482
 30
0.0
 10
-8.83951
 20
6.3482
 30
0.0
 10
-8.83951
 20
6.3482
 30
0.0
 10
-8.87655
 20
6.3482
 30
0.0
 10
-8.89242
 20
6.32174
 30
0.0
 10
-8.95063
 20
6.16829
 30
0.0
 10
-8.95063
 20
6.16829
 30
0.0
 10
-8.95063
 20
6.16829
 30
0.0
 10
-10.00896
 20
3.37958
 30
0.0
 10
-10.00896
 20
3.37958
 30
0.0
 10
-10.00896
 20
3.37958
 30
0.0
 10
-10.09892
 20
3.15733
 30
0.0
 10
-10.18888
 20
2.98271
 30
0.0
 10
-10.41642
 20
2.96154
 30
0.0
 10
-10.41642
 20
2.96154
 30
0.0
 10
-10.44817
 20
2.95625
 30
0.0
 10
-10.49579
 20
2.95625
 30
0.0
 10
-10.52225
 20
2.95625
 30
0.0
 10
-10.52225
 20
2.95625
 30
0.0
 10
-10.56459
 20
2.95625
 30
0.0
 10
-10.58575
 20
2.94037
 30
0.0
 10
-10.58575
 20
2.91921
 30
0.0
 10
-10.58575
 20
2.91921
 30
0.0
 10
-10.58575
 20
2.89275
 30
0.0
 10
-10.55929
 20
2.88217
 30
0.0
 10
-10.50109
 20
2.88217
 30
0.0
 10
-10.50109
 20
2.88217
 30
0.0
 10
-10.27884
 20
2.88217
 30
0.0
 10
-10.046
 20
2.89804
 30
0.0
 10
-9.99309
 20
2.89804
 30
0.0
 10
-9.99309
 20
2.89804
 30
0.0
 10
-9.93488
 20
2.89804
 30
0.0
 10
-9.69146
 20
2.88217
 30
0.0
 10
-9.57505
 20
2.88217
 30
0.0
 10
-9.57505
 20
2.88217
 30
0.0
 10
-9.538
 20
2.88217
 30
0.0
 10
-9.49567
 20
2.89275
 30
0.0
 10
-9.49567
 20
2.91921
 30
0.0
 10
-9.49567
 20
2.91921
 30
0.0
 10
-9.49567
 20
2.94037
 30
0.0
 10
-9.51155
 20
2.95625
 30
0.0
 10
-9.55917
 20
2.95625
 30
0.0
 10
-9.55917
 20
2.95625
 30
0.0
 10
-9.57505
 20
2.95625
 30
0.0
 10
-9.58034
 20
2.95625
 30
0.0
 10
-9.59621
 20
2.95625
 30
0.0
 10
-9.59621
 20
2.95625
 30
0.0
 10
-9.71263
 20
2.95625
 30
0.0
 10
-9.77084
 20
2.99858
 30
0.0
 10
-9.77084
 20
3.09383
 30
0.0
 10
-9.77084
 20
3.09383
 30
0.0
 10
-9.77084
 20
3.1785
 30
0.0
 10
-9.7338
 20
3.32137
 30
0.0
 10
-9.68088
 20
3.46954
 30
0.0
 10
-9.68088
 20
3.46954
 30
0.0
 10
-9.68088
 20
3.46954
 30
0.0
 10
-9.44805
 20
4.131
 30
0.0
 10
-9.44805
 20
4.131
 30
0.0
 10
-9.44805
 20
4.131
 30
0.0
 10
-9.43746
 20
4.15746
 30
0.0
 10
-9.42159
 20
4.17333
 30
0.0
 10
-9.39513
 20
4.17333
 30
0.0
 10
-9.39513
 20
4.17333
 30
0.0
 10
-9.39513
 20
4.17333
 30
0.0
 10
-8.43205
 20
4.17333
 30
0.0
 10
-8.43205
 20
4.17333
 30
0.0
  0
SPLINE
  5
47
330
1F
100
AcDbEntity
  8
Camada 1
 62
   250
100
AcDbSpline
210
0.0
220
0.0
230
1.0
 70
    11
 71
     3
 72
    28
 73
    24
 74
     0
 42
0.0000000001
 43
0.0000000001
 12
1.0
 22
0.0
 32
0.0
 13
1.0
 23
0.0
 33
0.0
 40
0.0
 40
0.0
 40
0.0
 40
0.0
 40
0.1428571428571428
 40
0.1428571428571428
 40
0.1428571428571428
 40
0.1428571428571428
 40
0.2857142857142857
 40
0.2857142857142857
 40
0.2857142857142857
 40
0.2857142857142857
 40
0.4285714285714285
 40
0.4285714285714285
 40
0.4285714285714285
 40
0.4285714285714285
 40
0.5714285714285714
 40
0.5714285714285714
 40
0.5714285714285714
 40
0.5714285714285714
 40
0.7142857142857143
 40
0.7142857142857143
 40
0.7142857142857143
 40
0.7142857142857143
 40
1.0
 40
1.0
 40
1.0
 40
1.0
 10
-9.34221
 20
4.35854
 30
0.0
 10
-9.3528
 20
4.35854
 30
0.0
 10
-9.36338
 20
4.36912
 30
0.0
 10
-9.3528
 20
4.39029
 30
0.0
 10
-9.3528
 20
4.39029
 30
0.0
 10
-9.3528
 20
4.39029
 30
0.0
 10
-8.95592
 20
5.55974
 30
0.0
 10
-8.95592
 20
5.55974
 30
0.0
 10
-8.95592
 20
5.55974
 30
0.0
 10
-8.92946
 20
5.63383
 30
0.0
 10
-8.92417
 20
5.63383
 30
0.0
 10
-8.89771
 20
5.55974
 30
0.0
 10
-8.89771
 20
5.55974
 30
0.0
 10
-8.89771
 20
5.55974
 30
0.0
 10
-8.47967
 20
4.39029
 30
0.0
 10
-8.47967
 20
4.39029
 30
0.0
 10
-8.47967
 20
4.39029
 30
0.0
 10
-8.47438
 20
4.37441
 30
0.0
 10
-8.47438
 20
4.35854
 30
0.0
 10
-8.49555
 20
4.35854
 30
0.0
 10
-8.49555
 20
4.35854
 30
0.0
 10
-8.49555
 20
4.35854
 30
0.0
 10
-9.34221
 20
4.35854
 30
0.0
 10
-9.34221
 20
4.35854
 30
0.0
  0
SPLINE
  5
48
330
1F
100
AcDbEntity
  8
Camada 1
 62
   250
100
AcDbSpline
210
0.0
220
0.0
230
1.0
 70
    11
 71
     3
 72
   148
 73
   144
 74
     0
 42
0.0000000001
 43
0.0000000001
 12
1.0
 22
0.0
 32
0.0
 13
1.0
 23
0.0
 33
0.0
 40
0.0
 40
0.0
 40
0.0
 40
0.0
 40
0.027027027027027
 40
0.027027027027027
 40
0.027027027027027
 40
0.027027027027027
 40
0.0540540540540541
 40
0.0540540540540541
 40
0.0540540540540541
 40
0.0540540540540541
 40
0.0810810810810811
 40
0.0810810810810811
 40
0.0810810810810811
 40
0.0810810810810811
 40
0.1081081081081081
 40
0.1081081081081081
 40
0.1081081081081081
 40
0.1081081081081081
 40
0.1351351351351351
 40
0.1351351351351351
 40
0.1351351351351351
 40
0.1351351351351351
 40
0.1621621621621622
 40
0.1621621621621622
 40
0.1621621621621622
 40
0.1621621621621622
 40
0.1891891891891892
 40
0.1891891891891892
 40
0.1891891891891892
 40
0.1891891891891892
 40
0.2162162162162162
 40
0.2162162162162162
 40
0.2162162162162162
 40
0.2162162162162162
 40
0.2432432432432433
 40
0.2432432432432433
 40
0.2432432432432433
 40
0.2432432432432433
 40
0.2702702702702703
 40
0.2702702702702703
 40
0.2702702702702703
 40
0.2702702702702703
 40
0.2972972972972973
 40
0.2972972972972973
 40
0.2972972972972973
 40
0.2972972972972973
 40
0.3243243243243243
 40
0.3243243243243243
 40
0.3243243243243243
 40
0.3243243243243243
 40
0.3513513513513514
 40
0.3513513513513514
 40
0.3513513513513514
 40
0.3513513513513514
 40
0.3783783783783784
 40
0.3783783783783784
 40
0.3783783783783784
 40
0.3783783783783784
 40
0.4054054054054054
 40
0.4054054054054054
 40
0.4054054054054054
 40
0.4054054054054054
 40
0.4324324324324325
 40
0.4324324324324325
 40
0.4324324324324325
 40
0.4324324324324325
 40
0.4594594594594595
 40
0.4594594594594595
 40
0.4594594594594595
 40
0.4594594594594595
 40
0.4864864864864865
 40
0.4864864864864865
 40
0.4864864864864865
 40
0.4864864864864865
 40
0.5135135135135135
 40
0.5135135135135135
 40
0.5135135135135135
 40
0.5135135135135135
 40
0.5405405405405406
 40
0.5405405405405406
 40
0.5405405405405406
 40
0.5405405405405406
 40
0.5675675675675675
 40
0.5675675675675675
 40
0.5675675675675675
 40
0.5675675675675675
 40
0.5945945945945946
 40
0.5945945945945946
 40
0.5945945945945946
 40
0.5945945945945946
 40
0.6216216216216216
 40
0.6216216216216216
 40
0.6216216216216216
 40
0.6216216216216216
 40
0.6486486486486487
 40
0.6486486486486487
 40
0.6486486486486487
 40
0.6486486486486487
 40
0.6756756756756757
 40
0.6756756756756757
 40
0.6756756756756757
 40
0.6756756756756757
 40
0.7027027027027027
 40
0.7027027027027027
 40
0.7027027027027027
 40
0.7027027027027027
 40
0.7297297297297297
 40
0.7297297297297297
 40
0.7297297297297297
 40
0.7297297297297297
 40
0.7567567567567568
 40
0.7567567567567568
 40
0.7567567567567568
 40
0.7567567567567568
 40
0.7837837837837838
 40
0.7837837837837838
 40
0.7837837837837838
 40
0.7837837837837838
 40
0.8108108108108109
 40
0.8108108108108109
 40
0.8108108108108109
 40
0.8108108108108109
 40
0.8378378378378378
 40
0.8378378378378378
 40
0.8378378378378378
 40
0.8378378378378378
 40
0.8648648648648649
 40
0.8648648648648649
 40
0.8648648648648649
 40
0.8648648648648649
 40
0.8918918918918919
 40
0.8918918918918919
 40
0.8918918918918919
 40
0.8918918918918919
 40
0.918918918918919
 40
0.918918918918919
 40
0.918918918918919
 40
0.918918918918919
 40
0.9459459459459459
 40
0.9459459459459459
 40
0.9459459459459459
 40
0.9459459459459459
 40
1.0
 40
1.0
 40
1.0
 40
1.0
 10
-6.36301
 20
4.18921
 30
0.0
 10
-6.36301
 20
3.79233
 30
0.0
 10
-6.35772
 20
3.35841
 30
0.0
 10
-6.38418
 20
3.16791
 30
0.0
 10
-6.38418
 20
3.16791
 30
0.0
 10
-6.40005
 20
3.04091
 30
0.0
 10
-6.4318
 20
2.98271
 30
0.0
 10
-6.52176
 20
2.96683
 30
0.0
 10
-6.52176
 20
2.96683
 30
0.0
 10
-6.56409
 20
2.95625
 30
0.0
 10
-6.60114
 20
2.95625
 30
0.0
 10
-6.63818
 20
2.95625
 30
0.0
 10
-6.63818
 20
2.95625
 30
0.0
 10
-6.66993
 20
2.95625
 30
0.0
 10
-6.70168
 20
2.94037
 30
0.0
 10
-6.70168
 20
2.9245
 30
0.0
 10
-6.70168
 20
2.9245
 30
0.0
 10
-6.70168
 20
2.89275
 30
0.0
 10
-6.68051
 20
2.88217
 30
0.0
 10
-6.62759
 20
2.88217
 30
0.0
 10
-6.62759
 20
2.88217
 30
0.0
 10
-6.48472
 20
2.88217
 30
0.0
 10
-6.25189
 20
2.89804
 30
0.0
 10
-6.16722
 20
2.89804
 30
0.0
 10
-6.16722
 20
2.89804
 30
0.0
 10
-6.14605
 20
2.89804
 30
0.0
 10
-5.84972
 20
2.88217
 30
0.0
 10
-5.57455
 20
2.88217
 30
0.0
 10
-5.57455
 20
2.88217
 30
0.0
 10
-5.52164
 20
2.88217
 30
0.0
 10
-5.50047
 20
2.89804
 30
0.0
 10
-5.50047
 20
2.9245
 30
0.0
 10
-5.50047
 20
2.9245
 30
0.0
 10
-5.50047
 20
2.94037
 30
0.0
 10
-5.52164
 20
2.95625
 30
0.0
 10
-5.56926
 20
2.95625
 30
0.0
 10
-5.56926
 20
2.95625
 30
0.0
 10
-5.6116
 20
2.95625
 30
0.0
 10
-5.6698
 20
2.96154
 30
0.0
 10
-5.72272
 20
2.96683
 30
0.0
 10
-5.72272
 20
2.96683
 30
0.0
 10
-5.89734
 20
2.988
 30
0.0
 10
-5.91322
 20
3.09383
 30
0.0
 10
-5.92909
 20
3.22083
 30
0.0
 10
-5.92909
 20
3.22083
 30
0.0
 10
-5.95555
 20
3.41133
 30
0.0
 10
-5.95555
 20
3.79762
 30
0.0
 10
-5.95555
 20
4.22095
 30
0.0
 10
-5.95555
 20
4.22095
 30
0.0
 10
-5.95555
 20
4.22095
 30
0.0
 10
-5.95555
 20
4.29504
 30
0.0
 10
-5.95555
 20
4.29504
 30
0.0
 10
-5.95555
 20
4.29504
 30
0.0
 10
-5.95555
 20
4.3162
 30
0.0
 10
-5.95026
 20
4.3215
 30
0.0
 10
-5.92909
 20
4.3215
 30
0.0
 10
-5.92909
 20
4.3215
 30
0.0
 10
-5.92909
 20
4.3215
 30
0.0
 10
-5.38405
 20
4.3162
 30
0.0
 10
-5.38405
 20
4.3162
 30
0.0
 10
-5.38405
 20
4.3162
 30
0.0
 10
-5.3523
 20
4.3162
 30
0.0
 10
-5.34172
 20
4.30562
 30
0.0
 10
-5.32055
 20
4.28445
 30
0.0
 10
-5.32055
 20
4.28445
 30
0.0
 10
-5.2306
 20
4.17333
 30
0.0
 10
-5.01893
 20
3.88758
 30
0.0
 10
-4.81255
 20
3.63358
 30
0.0
 10
-4.81255
 20
3.63358
 30
0.0
 10
-4.53739
 20
3.27904
 30
0.0
 10
-4.37864
 20
3.04091
 30
0.0
 10
-4.15639
 20
2.94566
 30
0.0
 10
-4.15639
 20
2.94566
 30
0.0
 10
-4.03997
 20
2.89804
 30
0.0
 10
-3.92356
 20
2.88217
 30
0.0
 10
-3.67485
 20
2.88217
 30
0.0
 10
-3.67485
 20
2.88217
 30
0.0
 10
-3.67485
 20
2.88217
 30
0.0
 10
-3.30443
 20
2.88217
 30
0.0
 10
-3.30443
 20
2.88217
 30
0.0
 10
-3.30443
 20
2.88217
 30
0.0
 10
-3.23035
 20
2.88217
 30
0.0
 10
-3.20918
 20
2.89275
 30
0.0
 10
-3.20918
 20
2.91921
 30
0.0
 10
-3.20918
 20
2.91921
 30
0.0
 10
-3.20918
 20
2.94037
 30
0.0
 10
-3.22506
 20
2.95625
 30
0.0
 10
-3.26739
 20
2.95625
 30
0.0
 10
-3.26739
 20
2.95625
 30
0.0
 10
-3.28326
 20
2.95625
 30
0.0
 10
-3.39439
 20
2.96154
 30
0.0
 10
-3.43143
 20
2.96683
 30
0.0
 10
-3.43143
 20
2.96683
 30
0.0
 10
-3.5796
 20
2.988
 30
0.0
 10
-3.73835
 20
3.03033
 30
0.0
 10
-3.99235
 20
3.28962
 30
0.0
 10
-3.99235
 20
3.28962
 30
0.0
 10
-4.26222
 20
3.57008
 30
0.0
 10
-4.57972
 20
3.96166
 30
0.0
 10
-4.96601
 20
4.43791
 30
0.0
 10
-4.96601
 20
4.43791
 30
0.0
 10
-4.54797
 20
4.77658
 30
0.0
 10
-4.4051
 20
5.147
 30
0.0
 10
-4.4051
 20
5.43804
 30
0.0
 10
-4.4051
 20
5.43804
 30
0.0
 10
-4.4051
 20
5.79787
 30
0.0
 10
-4.62205
 20
6.00954
 30
0.0
 10
-4.7226
 20
6.08362
 30
0.0
 10
-4.7226
 20
6.08362
 30
0.0
 10
-4.9713
 20
6.25824
 30
0.0
 10
-5.2941
 20
6.2847
 30
0.0
 10
-5.59043
 20
6.2847
 30
0.0
 10
-5.59043
 20
6.2847
 30
0.0
 10
-5.7386
 20
6.2847
 30
0.0
 10
-6.09843
 20
6.26883
 30
0.0
 10
-6.14605
 20
6.26883
 30
0.0
 10
-6.14605
 20
6.26883
 30
0.0
 10
-6.15664
 20
6.26883
 30
0.0
 10
-6.47943
 20
6.2847
 30
0.0
 10
-6.70697
 20
6.2847
 30
0.0
 10
-6.70697
 20
6.2847
 30
0.0
 10
-6.75459
 20
6.2847
 30
0.0
 10
-6.77047
 20
6.26883
 30
0.0
 10
-6.77047
 20
6.24766
 30
0.0
 10
-6.77047
 20
6.24766
 30
0.0
 10
-6.77047
 20
6.22649
 30
0.0
 10
-6.7493
 20
6.21591
 30
0.0
 10
-6.71226
 20
6.21591
 30
0.0
 10
-6.71226
 20
6.21591
 30
0.0
 10
-6.66993
 20
6.21591
 30
0.0
 10
-6.61701
 20
6.21062
 30
0.0
 10
-6.58526
 20
6.20533
 30
0.0
 10
-6.58526
 20
6.20533
 30
0.0
 10
-6.42122
 20
6.17358
 30
0.0
 10
-6.38418
 20
6.0942
 30
0.0
 10
-6.37359
 20
5.95133
 30
0.0
 10
-6.37359
 20
5.95133
 30
0.0
 10
-6.36301
 20
5.80845
 30
0.0
 10
-6.36301
 20
5.68145
 30
0.0
 10
-6.36301
 20
4.98295
 30
0.0
 10
-6.36301
 20
4.98295
 30
0.0
 10
-6.36301
 20
4.98295
 30
0.0
 10
-6.36301
 20
4.18921
 30
0.0
 10
-6.36301
 20
4.18921
 30
0.0
  0
SPLINE
  5
49
330
1F
100
AcDbEntity
  8
Camada 1
 62
   250
100
AcDbSpline
210
0.0
220
0.0
230
1.0
 70
    11
 71
     3
 72
    36
 73
    32
 74
     0
 42
0.0000000001
 43
0.0000000001
 12
1.0
 22
0.0
 32
0.0
 13
1.0
 23
0.0
 33
0.0
 40
0.0
 40
0.0
 40
0.0
 40
0.0
 40
0.1111111111111111
 40
0.1111111111111111
 40
0.1111111111111111
 40
0.1111111111111111
 40
0.2222222222222222
 40
0.2222222222222222
 40
0.2222222222222222
 40
0.2222222222222222
 40
0.3333333333333333
 40
0.3333333333333333
 40
0.3333333333333333
 40
0.3333333333333333
 40
0.4444444444444444
 40
0.4444444444444444
 40
0.4444444444444444
 40
0.4444444444444444
 40
0.5555555555555556
 40
0.5555555555555556
 40
0.5555555555555556
 40
0.5555555555555556
 40
0.6666666666666666
 40
0.6666666666666666
 40
0.6666666666666666
 40
0.6666666666666666
 40
0.7777777777777778
 40
0.7777777777777778
 40
0.7777777777777778
 40
0.7777777777777778
 40
1.0
 40
1.0
 40
1.0
 40
1.0
 10
-5.95555
 20
6.04658
 30
0.0
 10
-5.95555
 20
6.07304
 30
0.0
 10
-5.93968
 20
6.08891
 30
0.0
 10
-5.9238
 20
6.0942
 30
0.0
 10
-5.9238
 20
6.0942
 30
0.0
 10
-5.8603
 20
6.11008
 30
0.0
 10
-5.74918
 20
6.12066
 30
0.0
 10
-5.61689
 20
6.12066
 30
0.0
 10
-5.61689
 20
6.12066
 30
0.0
 10
-5.14593
 20
6.12066
 30
0.0
 10
-4.83901
 20
5.80316
 30
0.0
 10
-4.83901
 20
5.22637
 30
0.0
 10
-4.83901
 20
5.22637
 30
0.0
 10
-4.83901
 20
4.8877
 30
0.0
 10
-4.94485
 20
4.65487
 30
0.0
 10
-5.1036
 20
4.55433
 30
0.0
 10
-5.1036
 20
4.55433
 30
0.0
 10
-5.21472
 20
4.48025
 30
0.0
 10
-5.34701
 20
4.47495
 30
0.0
 10
-5.45814
 20
4.47495
 30
0.0
 10
-5.45814
 20
4.47495
 30
0.0
 10
-5.64864
 20
4.47495
 30
0.0
 10
-5.8603
 20
4.5067
 30
0.0
 10
-5.92909
 20
4.54375
 30
0.0
 10
-5.92909
 20
4.54375
 30
0.0
 10
-5.95026
 20
4.55433
 30
0.0
 10
-5.95555
 20
4.58079
 30
0.0
 10
-5.95555
 20
4.60725
 30
0.0
 10
-5.95555
 20
4.60725
 30
0.0
 10
-5.95555
 20
4.60725
 30
0.0
 10
-5.95555
 20
6.04658
 30
0.0
 10
-5.95555
 20
6.04658
 30
0.0
  0
SPLINE
  5
4A
330
1F
100
AcDbEntity
  8
Camada 1
 62
   250
100
AcDbSpline
210
0.0
220
0.0
230
1.0
 70
    11
 71
     3
 72
    84
 73
    80
 74
     0
 42
0.0000000001
 43
0.0000000001
 12
1.0
 22
0.0
 32
0.0
 13
1.0
 23
0.0
 33
0.0
 40
0.0
 40
0.0
 40
0.0
 40
0.0
 40
0.0476190476190476
 40
0.0476190476190476
 40
0.0476190476190476
 40
0.0476190476190476
 40
0.0952380952380952
 40
0.0952380952380952
 40
0.0952380952380952
 40
0.0952380952380952
 40
0.1428571428571428
 40
0.1428571428571428
 40
0.1428571428571428
 40
0.1428571428571428
 40
0.1904761904761905
 40
0.1904761904761905
 40
0.1904761904761905
 40
0.1904761904761905
 40
0.2380952380952381
 40
0.2380952380952381
 40
0.2380952380952381
 40
0.2380952380952381
 40
0.2857142857142857
 40
0.2857142857142857
 40
0.2857142857142857
 40
0.2857142857142857
 40
0.3333333333333333
 40
0.3333333333333333
 40
0.3333333333333333
 40
0.3333333333333333
 40
0.3809523809523809
 40
0.3809523809523809
 40
0.3809523809523809
 40
0.3809523809523809
 40
0.4285714285714285
 40
0.4285714285714285
 40
0.4285714285714285
 40
0.4285714285714285
 40
0.4761904761904762
 40
0.4761904761904762
 40
0.4761904761904762
 40
0.4761904761904762
 40
0.5238095238095238
 40
0.5238095238095238
 40
0.5238095238095238
 40
0.5238095238095238
 40
0.5714285714285714
 40
0.5714285714285714
 40
0.5714285714285714
 40
0.5714285714285714
 40
0.6190476190476191
 40
0.6190476190476191
 40
0.6190476190476191
 40
0.6190476190476191
 40
0.6666666666666666
 40
0.6666666666666666
 40
0.6666666666666666
 40
0.6666666666666666
 40
0.7142857142857143
 40
0.7142857142857143
 40
0.7142857142857143
 40
0.7142857142857143
 40
0.7619047619047619
 40
0.7619047619047619
 40
0.7619047619047619
 40
0.7619047619047619
 40
0.8095238095238095
 40
0.8095238095238095
 40
0.8095238095238095
 40
0.8095238095238095
 40
0.8571428571428571
 40
0.8571428571428571
 40
0.8571428571428571
 40
0.8571428571428571
 40
0.9047619047619048
 40
0.9047619047619048
 40
0.9047619047619048
 40
0.9047619047619048
 40
1.0
 40
1.0
 40
1.0
 40
1.0
 10
-2.93401
 20
4.18921
 30
0.0
 10
-2.93401
 20
3.77646
 30
0.0
 10
-2.93401
 20
3.41662
 30
0.0
 10
-2.96047
 20
3.22083
 30
0.0
 10
-2.96047
 20
3.22083
 30
0.0
 10
-2.97635
 20
3.09383
 30
0.0
 10
-3.0081
 20
2.98271
 30
0.0
 10
-3.09805
 20
2.96683
 30
0.0
 10
-3.09805
 20
2.96683
 30
0.0
 10
-3.14039
 20
2.95625
 30
0.0
 10
-3.15626
 20
2.95625
 30
0.0
 10
-3.1933
 20
2.95625
 30
0.0
 10
-3.1933
 20
2.95625
 30
0.0
 10
-3.2621
 20
2.95625
 30
0.0
 10
-3.26739
 20
2.92979
 30
0.0
 10
-3.26739
 20
2.91391
 30
0.0
 10
-3.26739
 20
2.91391
 30
0.0
 10
-3.26739
 20
2.89275
 30
0.0
 10
-3.24093
 20
2.88217
 30
0.0
 10
-3.1933
 20
2.88217
 30
0.0
 10
-3.1933
 20
2.88217
 30
0.0
 10
-3.01868
 20
2.88217
 30
0.0
 10
-2.8811
 20
2.89804
 30
0.0
 10
-2.71705
 20
2.89804
 30
0.0
 10
-2.71705
 20
2.89804
 30
0.0
 10
-2.69589
 20
2.89804
 30
0.0
 10
-2.56889
 20
2.89275
 30
0.0
 10
-2.42072
 20
2.88217
 30
0.0
 10
-2.42072
 20
2.88217
 30
0.0
 10
-2.28314
 20
2.88217
 30
0.0
 10
-2.17731
 20
2.87158
 30
0.0
 10
-2.09264
 20
2.87158
 30
0.0
 10
-2.09264
 20
2.87158
 30
0.0
 10
-1.28831
 20
2.87158
 30
0.0
 10
-0.89143
 20
3.36371
 30
0.0
 10
-0.89143
 20
3.85583
 30
0.0
 10
-0.89143
 20
3.85583
 30
0.0
 10
-0.89143
 20
4.37441
 30
0.0
 10
-1.34651
 20
4.6972
 30
0.0
 10
-1.70106
 20
4.80304
 30
0.0
 10
-1.70106
 20
4.80304
 30
0.0
 10
-1.47881
 20
4.97766
 30
0.0
 10
-1.25656
 20
5.22637
 30
0.0
 10
-1.25656
 20
5.61795
 30
0.0
 10
-1.25656
 20
5.61795
 30
0.0
 10
-1.25656
 20
5.84549
 30
0.0
 10
-1.41531
 20
6.2847
 30
0.0
 10
-2.20906
 20
6.2847
 30
0.0
 10
-2.20906
 20
6.2847
 30
0.0
 10
-2.41543
 20
6.2847
 30
0.0
 10
-2.59005
 20
6.26883
 30
0.0
 10
-2.71705
 20
6.26883
 30
0.0
 10
-2.71705
 20
6.26883
 30
0.0
 10
-2.72764
 20
6.26883
 30
0.0
 10
-3.04514
 20
6.2847
 30
0.0
 10
-3.26739
 20
6.2847
 30
0.0
 10
-3.26739
 20
6.2847
 30
0.0
 10
-3.31501
 20
6.2847
 30
0.0
 10
-3.34676
 20
6.27412
 30
0.0
 10
-3.34676
 20
6.24766
 30
0.0
 10
-3.34676
 20
6.24766
 30
0.0
 10
-3.34676
 20
6.22649
 30
0.0
 10
-3.3256
 20
6.21062
 30
0.0
 10
-3.27797
 20
6.21062
 30
0.0
 10
-3.27797
 20
6.21062
 30
0.0
 10
-3.26739
 20
6.21062
 30
0.0
 10
-3.1933
 20
6.20533
 30
0.0
 10
-3.15097
 20
6.20004
 30
0.0
 10
-3.15097
 20
6.20004
 30
0.0
 10
-2.99222
 20
6.16829
 30
0.0
 10
-2.95518
 20
6.0942
 30
0.0
 10
-2.9446
 20
5.95133
 30
0.0
 10
-2.9446
 20
5.95133
 30
0.0
 10
-2.93401
 20
5.80845
 30
0.0
 10
-2.93401
 20
5.67616
 30
0.0
 10
-2.93401
 20
4.98295
 30
0.0
 10
-2.93401
 20
4.98295
 30
0.0
 10
-2.93401
 20
4.98295
 30
0.0
 10
-2.93401
 20
4.18921
 30
0.0
 10
-2.93401
 20
4.18921
 30
0.0
  0
SPLINE
  5
4B
330
1F
100
AcDbEntity
  8
Camada 1
 62
   250
100
AcDbSpline
210
0.0
220
0.0
230
1.0
 70
    11
 71
     3
 72
    36
 73
    32
 74
     0
 42
0.0000000001
 43
0.0000000001
 12
1.0
 22
0.0
 32
0.0
 13
1.0
 23
0.0
 33
0.0
 40
0.0
 40
0.0
 40
0.0
 40
0.0
 40
0.1111111111111111
 40
0.1111111111111111
 40
0.1111111111111111
 40
0.1111111111111111
 40
0.2222222222222222
 40
0.2222222222222222
 40
0.2222222222222222
 40
0.2222222222222222
 40
0.3333333333333333
 40
0.3333333333333333
 40
0.3333333333333333
 40
0.3333333333333333
 40
0.4444444444444444
 40
0.4444444444444444
 40
0.4444444444444444
 40
0.4444444444444444
 40
0.5555555555555556
 40
0.5555555555555556
 40
0.5555555555555556
 40
0.5555555555555556
 40
0.6666666666666666
 40
0.6666666666666666
 40
0.6666666666666666
 40
0.6666666666666666
 40
0.7777777777777778
 40
0.7777777777777778
 40
0.7777777777777778
 40
0.7777777777777778
 40
1.0
 40
1.0
 40
1.0
 40
1.0
 10
-2.52126
 20
6.06774
 30
0.0
 10
-2.52126
 20
6.0942
 30
0.0
 10
-2.50539
 20
6.10479
 30
0.0
 10
-2.45776
 20
6.11537
 30
0.0
 10
-2.45776
 20
6.11537
 30
0.0
 10
-2.41014
 20
6.13124
 30
0.0
 10
-2.29901
 20
6.14183
 30
0.0
 10
-2.25668
 20
6.14183
 30
0.0
 10
-2.25668
 20
6.14183
 30
0.0
 10
-1.80689
 20
6.14183
 30
0.0
 10
-1.64285
 20
5.73437
 30
0.0
 10
-1.64285
 20
5.36925
 30
0.0
 10
-1.64285
 20
5.36925
 30
0.0
 10
-1.64285
 20
5.19462
 30
0.0
 10
-1.69576
 20
5.04645
 30
0.0
 10
-1.78043
 20
4.94591
 30
0.0
 10
-1.78043
 20
4.94591
 30
0.0
 10
-1.88097
 20
4.83479
 30
0.0
 10
-1.96035
 20
4.81891
 30
0.0
 10
-2.23022
 20
4.81891
 30
0.0
 10
-2.23022
 20
4.81891
 30
0.0
 10
-2.40485
 20
4.81891
 30
0.0
 10
-2.46305
 20
4.8295
 30
0.0
 10
-2.4948
 20
4.83479
 30
0.0
 10
-2.4948
 20
4.83479
 30
0.0
 10
-2.51068
 20
4.84537
 30
0.0
 10
-2.52126
 20
4.85066
 30
0.0
 10
-2.52126
 20
4.8877
 30
0.0
 10
-2.52126
 20
4.8877
 30
0.0
 10
-2.52126
 20
4.8877
 30
0.0
 10
-2.52126
 20
6.06774
 30
0.0
 10
-2.52126
 20
6.06774
 30
0.0
  0
SPLINE
  5
4C
330
1F
100
AcDbEntity
  8
Camada 1
 62
   250
100
AcDbSpline
210
0.0
220
0.0
230
1.0
 70
    11
 71
     3
 72
    40
 73
    36
 74
     0
 42
0.0000000001
 43
0.0000000001
 12
1.0
 22
0.0
 32
0.0
 13
1.0
 23
0.0
 33
0.0
 40
0.0
 40
0.0
 40
0.0
 40
0.0
 40
0.1
 40
0.1
 40
0.1
 40
0.1
 40
0.2
 40
0.2
 40
0.2
 40
0.2
 40
0.3
 40
0.3
 40
0.3
 40
0.3
 40
0.4
 40
0.4
 40
0.4
 40
0.4
 40
0.5
 40
0.5
 40
0.5
 40
0.5
 40
0.6
 40
0.6
 40
0.6
 40
0.6
 40
0.7
 40
0.7
 40
0.7
 40
0.7
 40
0.8
 40
0.8
 40
0.8
 40
0.8
 40
1.0
 40
1.0
 40
1.0
 40
1.0
 10
-2.52126
 20
4.639
 30
0.0
 10
-2.52126
 20
4.66545
 30
0.0
 10
-2.51068
 20
4.67075
 30
0.0
 10
-2.4948
 20
4.67075
 30
0.0
 10
-2.4948
 20
4.67075
 30
0.0
 10
-2.42072
 20
4.68133
 30
0.0
 10
-2.23551
 20
4.68133
 30
0.0
 10
-2.14556
 20
4.67075
 30
0.0
 10
-2.14556
 20
4.67075
 30
0.0
 10
-2.03972
 20
4.66016
 30
0.0
 10
-1.94447
 20
4.64958
 30
0.0
 10
-1.78572
 20
4.55433
 30
0.0
 10
-1.78572
 20
4.55433
 30
0.0
 10
-1.42589
 20
4.31091
 30
0.0
 10
-1.33064
 20
3.90346
 30
0.0
 10
-1.33064
 20
3.63358
 30
0.0
 10
-1.33064
 20
3.63358
 30
0.0
 10
-1.33064
 20
3.14675
 30
0.0
 10
-1.72751
 20
3.03562
 30
0.0
 10
-1.95506
 20
3.03562
 30
0.0
 10
-1.95506
 20
3.03562
 30
0.0
 10
-2.00797
 20
3.03562
 30
0.0
 10
-2.21964
 20
3.04091
 30
0.0
 10
-2.34664
 20
3.10441
 30
0.0
 10
-2.34664
 20
3.10441
 30
0.0
 10
-2.50539
 20
3.17321
 30
0.0
 10
-2.5001
 20
3.242
 30
0.0
 10
-2.51597
 20
3.47483
 30
0.0
 10
-2.51597
 20
3.47483
 30
0.0
 10
-2.52126
 20
3.51716
 30
0.0
 10
-2.52126
 20
4.09925
 30
0.0
 10
-2.52126
 20
4.43262
 30
0.0
 10
-2.52126
 20
4.43262
 30
0.0
 10
-2.52126
 20
4.43262
 30
0.0
 10
-2.52126
 20
4.639
 30
0.0
 10
-2.52126
 20
4.639
 30
0.0
  0
SPLINE
  5
4D
330
1F
100
AcDbEntity
  8
Camada 1
 62
   250
100
AcDbSpline
210
0.0
220
0.0
230
1.0
 70
    11
 71
     3
 72
    84
 73
    80
 74
     0
 42
0.0000000001
 43
0.0000000001
 12
1.0
 22
0.0
 32
0.0
 13
1.0
 23
0.0
 33
0.0
 40
0.0
 40
0.0
 40
0.0
 40
0.0
 40
0.0476190476190476
 40
0.0476190476190476
 40
0.0476190476190476
 40
0.0476190476190476
 40
0.0952380952380952
 40
0.0952380952380952
 40
0.0952380952380952
 40
0.0952380952380952
 40
0.1428571428571428
 40
0.1428571428571428
 40
0.1428571428571428
 40
0.1428571428571428
 40
0.1904761904761905
 40
0.1904761904761905
 40
0.1904761904761905
 40
0.1904761904761905
 40
0.2380952380952381
 40
0.2380952380952381
 40
0.2380952380952381
 40
0.2380952380952381
 40
0.2857142857142857
 40
0.2857142857142857
 40
0.2857142857142857
 40
0.2857142857142857
 40
0.3333333333333333
 40
0.3333333333333333
 40
0.3333333333333333
 40
0.3333333333333333
 40
0.3809523809523809
 40
0.3809523809523809
 40
0.3809523809523809
 40
0.3809523809523809
 40
0.4285714285714285
 40
0.4285714285714285
 40
0.4285714285714285
 40
0.4285714285714285
 40
0.4761904761904762
 40
0.4761904761904762
 40
0.4761904761904762
 40
0.4761904761904762
 40
0.5238095238095238
 40
0.5238095238095238
 40
0.5238095238095238
 40
0.5238095238095238
 40
0.5714285714285714
 40
0.5714285714285714
 40
0.5714285714285714
 40
0.5714285714285714
 40
0.6190476190476191
 40
0.6190476190476191
 40
0.6190476190476191
 40
0.6190476190476191
 40
0.6666666666666666
 40
0.6666666666666666
 40
0.6666666666666666
 40
0.6666666666666666
 40
0.7142857142857143
 40
0.7142857142857143
 40
0.7142857142857143
 40
0.7142857142857143
 40
0.7619047619047619
 40
0.7619047619047619
 40
0.7619047619047619
 40
0.7619047619047619
 40
0.8095238095238095
 40
0.8095238095238095
 40
0.8095238095238095
 40
0.8095238095238095
 40
0.8571428571428571
 40
0.8571428571428571
 40
0.8571428571428571
 40
0.8571428571428571
 40
0.9047619047619048
 40
0.9047619047619048
 40
0.9047619047619048
 40
0.9047619047619048
 40
1.0
 40
1.0
 40
1.0
 40
1.0
 10
-1.02901
 20
0.01938
 30
0.0
 10
-1.02901
 20
-0.39337
 30
0.0
 10
-1.02901
 20
-0.75321
 30
0.0
 10
-1.05547
 20
-0.949
 30
0.0
 10
-1.05547
 20
-0.949
 30
0.0
 10
-1.07135
 20
-1.076
 30
0.0
 10
-1.1031
 20
-1.18712
 30
0.0
 10
-1.19305
 20
-1.203
 30
0.0
 10
-1.19305
 20
-1.203
 30
0.0
 10
-1.23539
 20
-1.21358
 30
0.0
 10
-1.25126
 20
-1.21358
 30
0.0
 10
-1.2883
 20
-1.21358
 30
0.0
 10
-1.2883
 20
-1.21358
 30
0.0
 10
-1.3571
 20
-1.21358
 30
0.0
 10
-1.36239
 20
-1.24004
 30
0.0
 10
-1.36239
 20
-1.25592
 30
0.0
 10
-1.36239
 20
-1.25592
 30
0.0
 10
-1.36239
 20
-1.27708
 30
0.0
 10
-1.33593
 20
-1.28766
 30
0.0
 10
-1.2883
 20
-1.28766
 30
0.0
 10
-1.2883
 20
-1.28766
 30
0.0
 10
-1.11368
 20
-1.28766
 30
0.0
 10
-0.9761
 20
-1.27179
 30
0.0
 10
-0.81205
 20
-1.27179
 30
0.0
 10
-0.81205
 20
-1.27179
 30
0.0
 10
-0.79089
 20
-1.27179
 30
0.0
 10
-0.66389
 20
-1.27708
 30
0.0
 10
-0.51572
 20
-1.28766
 30
0.0
 10
-0.51572
 20
-1.28766
 30
0.0
 10
-0.37814
 20
-1.28766
 30
0.0
 10
-0.27231
 20
-1.29825
 30
0.0
 10
-0.18764
 20
-1.29825
 30
0.0
 10
-0.18764
 20
-1.29825
 30
0.0
 10
0.61669
 20
-1.29825
 30
0.0
 10
1.01357
 20
-0.80612
 30
0.0
 10
1.01357
 20
-0.314
 30
0.0
 10
1.01357
 20
-0.314
 30
0.0
 10
1.01357
 20
0.20458
 30
0.0
 10
0.55849
 20
0.52737
 30
0.0
 10
0.20394
 20
0.63321
 30
0.0
 10
0.20394
 20
0.63321
 30
0.0
 10
0.42619
 20
0.80783
 30
0.0
 10
0.64844
 20
1.05654
 30
0.0
 10
0.64844
 20
1.44812
 30
0.0
 10
0.64844
 20
1.44812
 30
0.0
 10
0.64844
 20
1.67566
 30
0.0
 10
0.48969
 20
2.11487
 30
0.0
 10
-0.30406
 20
2.11487
 30
0.0
 10
-0.30406
 20
2.11487
 30
0.0
 10
-0.51043
 20
2.11487
 30
0.0
 10
-0.68505
 20
2.099
 30
0.0
 10
-0.81205
 20
2.099
 30
0.0
 10
-0.81205
 20
2.099
 30
0.0
 10
-0.82264
 20
2.099
 30
0.0
 10
-1.14014
 20
2.11487
 30
0.0
 10
-1.36239
 20
2.11487
 30
0.0
 10
-1.36239
 20
2.11487
 30
0.0
 10
-1.41001
 20
2.11487
 30
0.0
 10
-1.44176
 20
2.10429
 30
0.0
 10
-1.44176
 20
2.07783
 30
0.0
 10
-1.44176
 20
2.07783
 30
0.0
 10
-1.44176
 20
2.05666
 30
0.0
 10
-1.4206
 20
2.04079
 30
0.0
 10
-1.37297
 20
2.04079
 30
0.0
 10
-1.37297
 20
2.04079
 30
0.0
 10
-1.36239
 20
2.04079
 30
0.0
 10
-1.2883
 20
2.0355
 30
0.0
 10
-1.24597
 20
2.03021
 30
0.0
 10
-1.24597
 20
2.03021
 30
0.0
 10
-1.08722
 20
1.99846
 30
0.0
 10
-1.05018
 20
1.92437
 30
0.0
 10
-1.0396
 20
1.7815
 30
0.0
 10
-1.0396
 20
1.7815
 30
0.0
 10
-1.02901
 20
1.63862
 30
0.0
 10
-1.02901
 20
1.50633
 30
0.0
 10
-1.02901
 20
0.81312
 30
0.0
 10
-1.02901
 20
0.81312
 30
0.0
 10
-1.02901
 20
0.81312
 30
0.0
 10
-1.02901
 20
0.01938
 30
0.0
 10
-1.02901
 20
0.01938
 30
0.0
  0
SPLINE
  5
4E
330
1F
100
AcDbEntity
  8
Camada 1
 62
   250
100
AcDbSpline
210
0.0
220
0.0
230
1.0
 70
    11
 71
     3
 72
    36
 73
    32
 74
     0
 42
0.0000000001
 43
0.0000000001
 12
1.0
 22
0.0
 32
0.0
 13
1.0
 23
0.0
 33
0.0
 40
0.0
 40
0.0
 40
0.0
 40
0.0
 40
0.1111111111111111
 40
0.1111111111111111
 40
0.1111111111111111
 40
0.1111111111111111
 40
0.2222222222222222
 40
0.2222222222222222
 40
0.2222222222222222
 40
0.2222222222222222
 40
0.3333333333333333
 40
0.3333333333333333
 40
0.3333333333333333
 40
0.3333333333333333
 40
0.4444444444444444
 40
0.4444444444444444
 40
0.4444444444444444
 40
0.4444444444444444
 40
0.5555555555555556
 40
0.5555555555555556
 40
0.5555555555555556
 40
0.5555555555555556
 40
0.6666666666666666
 40
0.6666666666666666
 40
0.6666666666666666
 40
0.6666666666666666
 40
0.7777777777777778
 40
0.7777777777777778
 40
0.7777777777777778
 40
0.7777777777777778
 40
1.0
 40
1.0
 40
1.0
 40
1.0
 10
-0.61626
 20
1.89791
 30
0.0
 10
-0.61626
 20
1.92437
 30
0.0
 10
-0.60039
 20
1.93496
 30
0.0
 10
-0.55276
 20
1.94554
 30
0.0
 10
-0.55276
 20
1.94554
 30
0.0
 10
-0.50514
 20
1.96141
 30
0.0
 10
-0.39401
 20
1.972
 30
0.0
 10
-0.35168
 20
1.972
 30
0.0
 10
-0.35168
 20
1.972
 30
0.0
 10
0.09811
 20
1.972
 30
0.0
 10
0.26215
 20
1.56454
 30
0.0
 10
0.26215
 20
1.19942
 30
0.0
 10
0.26215
 20
1.19942
 30
0.0
 10
0.26215
 20
1.02479
 30
0.0
 10
0.20924
 20
0.87662
 30
0.0
 10
0.12457
 20
0.77608
 30
0.0
 10
0.12457
 20
0.77608
 30
0.0
 10
0.02403
 20
0.66496
 30
0.0
 10
-0.05535
 20
0.64908
 30
0.0
 10
-0.32522
 20
0.64908
 30
0.0
 10
-0.32522
 20
0.64908
 30
0.0
 10
-0.49985
 20
0.64908
 30
0.0
 10
-0.55805
 20
0.65967
 30
0.0
 10
-0.5898
 20
0.66496
 30
0.0
 10
-0.5898
 20
0.66496
 30
0.0
 10
-0.60568
 20
0.67554
 30
0.0
 10
-0.61626
 20
0.68083
 30
0.0
 10
-0.61626
 20
0.71787
 30
0.0
 10
-0.61626
 20
0.71787
 30
0.0
 10
-0.61626
 20
0.71787
 30
0.0
 10
-0.61626
 20
1.89791
 30
0.0
 10
-0.61626
 20
1.89791
 30
0.0
  0
SPLINE
  5
4F
330
1F
100
AcDbEntity
  8
Camada 1
 62
   250
100
AcDbSpline
210
0.0
220
0.0
230
1.0
 70
    11
 71
     3
 72
    40
 73
    36
 74
     0
 42
0.0000000001
 43
0.0000000001
 12
1.0
 22
0.0
 32
0.0
 13
1.0
 23
0.0
 33
0.0
 40
0.0
 40
0.0
 40
0.0
 40
0.0
 40
0.1
 40
0.1
 40
0.1
 40
0.1
 40
0.2
 40
0.2
 40
0.2
 40
0.2
 40
0.3
 40
0.3
 40
0.3
 40
0.3
 40
0.4
 40
0.4
 40
0.4
 40
0.4
 40
0.5
 40
0.5
 40
0.5
 40
0.5
 40
0.6
 40
0.6
 40
0.6
 40
0.6
 40
0.7
 40
0.7
 40
0.7
 40
0.7
 40
0.8
 40
0.8
 40
0.8
 40
0.8
 40
1.0
 40
1.0
 40
1.0
 40
1.0
 10
-0.61626
 20
0.46917
 30
0.0
 10
-0.61626
 20
0.49562
 30
0.0
 10
-0.60568
 20
0.50092
 30
0.0
 10
-0.5898
 20
0.50092
 30
0.0
 10
-0.5898
 20
0.50092
 30
0.0
 10
-0.51572
 20
0.5115
 30
0.0
 10
-0.33051
 20
0.5115
 30
0.0
 10
-0.24056
 20
0.50092
 30
0.0
 10
-0.24056
 20
0.50092
 30
0.0
 10
-0.13472
 20
0.49033
 30
0.0
 10
-0.03947
 20
0.47975
 30
0.0
 10
0.11928
 20
0.3845
 30
0.0
 10
0.11928
 20
0.3845
 30
0.0
 10
0.47911
 20
0.14108
 30
0.0
 10
0.57436
 20
-0.26637
 30
0.0
 10
0.57436
 20
-0.53625
 30
0.0
 10
0.57436
 20
-0.53625
 30
0.0
 10
0.57436
 20
-1.02308
 30
0.0
 10
0.17749
 20
-1.13421
 30
0.0
 10
-0.05006
 20
-1.13421
 30
0.0
 10
-0.05006
 20
-1.13421
 30
0.0
 10
-0.10297
 20
-1.13421
 30
0.0
 10
-0.31464
 20
-1.12892
 30
0.0
 10
-0.44164
 20
-1.06542
 30
0.0
 10
-0.44164
 20
-1.06542
 30
0.0
 10
-0.60039
 20
-0.99662
 30
0.0
 10
-0.5951
 20
-0.92783
 30
0.0
 10
-0.61097
 20
-0.695
 30
0.0
 10
-0.61097
 20
-0.695
 30
0.0
 10
-0.61626
 20
-0.65267
 30
0.0
 10
-0.61626
 20
-0.07058
 30
0.0
 10
-0.61626
 20
0.26279
 30
0.0
 10
-0.61626
 20
0.26279
 30
0.0
 10
-0.61626
 20
0.26279
 30
0.0
 10
-0.61626
 20
0.46917
 30
0.0
 10
-0.61626
 20
0.46917
 30
0.0
  0
SPLINE
  5
50
330
1F
100
AcDbEntity
  8
Camada 1
 62
   250
100
AcDbSpline
210
0.0
220
0.0
230
1.0
 70
    11
 71
     3
 72
   136
 73
   132
 74
     0
 42
0.0000000001
 43
0.0000000001
 12
1.0
 22
0.0
 32
0.0
 13
1.0
 23
0.0
 33
0.0
 40
0.0
 40
0.0
 40
0.0
 40
0.0
 40
0.0294117647058824
 40
0.0294117647058824
 40
0.0294117647058824
 40
0.0294117647058824
 40
0.0588235294117647
 40
0.0588235294117647
 40
0.0588235294117647
 40
0.0588235294117647
 40
0.0882352941176471
 40
0.0882352941176471
 40
0.0882352941176471
 40
0.0882352941176471
 40
0.1176470588235294
 40
0.1176470588235294
 40
0.1176470588235294
 40
0.1176470588235294
 40
0.1470588235294118
 40
0.1470588235294118
 40
0.1470588235294118
 40
0.1470588235294118
 40
0.1764705882352941
 40
0.1764705882352941
 40
0.1764705882352941
 40
0.1764705882352941
 40
0.2058823529411765
 40
0.2058823529411765
 40
0.2058823529411765
 40
0.2058823529411765
 40
0.2352941176470588
 40
0.2352941176470588
 40
0.2352941176470588
 40
0.2352941176470588
 40
0.2647058823529412
 40
0.2647058823529412
 40
0.2647058823529412
 40
0.2647058823529412
 40
0.2941176470588235
 40
0.2941176470588235
 40
0.2941176470588235
 40
0.2941176470588235
 40
0.3235294117647059
 40
0.3235294117647059
 40
0.3235294117647059
 40
0.3235294117647059
 40
0.3529411764705883
 40
0.3529411764705883
 40
0.3529411764705883
 40
0.3529411764705883
 40
0.3823529411764706
 40
0.3823529411764706
 40
0.3823529411764706
 40
0.3823529411764706
 40
0.4117647058823529
 40
0.4117647058823529
 40
0.4117647058823529
 40
0.4117647058823529
 40
0.4411764705882353
 40
0.4411764705882353
 40
0.4411764705882353
 40
0.4411764705882353
 40
0.4705882352941176
 40
0.4705882352941176
 40
0.4705882352941176
 40
0.4705882352941176
 40
0.5
 40
0.5
 40
0.5
 40
0.5
 40
0.5294117647058824
 40
0.5294117647058824
 40
0.5294117647058824
 40
0.5294117647058824
 40
0.5588235294117647
 40
0.5588235294117647
 40
0.5588235294117647
 40
0.5588235294117647
 40
0.5882352941176471
 40
0.5882352941176471
 40
0.5882352941176471
 40
0.5882352941176471
 40
0.6176470588235294
 40
0.6176470588235294
 40
0.6176470588235294
 40
0.6176470588235294
 40
0.6470588235294118
 40
0.6470588235294118
 40
0.6470588235294118
 40
0.6470588235294118
 40
0.6764705882352942
 40
0.6764705882352942
 40
0.6764705882352942
 40
0.6764705882352942
 40
0.7058823529411765
 40
0.7058823529411765
 40
0.7058823529411765
 40
0.7058823529411765
 40
0.7352941176470589
 40
0.7352941176470589
 40
0.7352941176470589
 40
0.7352941176470589
 40
0.7647058823529411
 40
0.7647058823529411
 40
0.7647058823529411
 40
0.7647058823529411
 40
0.7941176470588235
 40
0.7941176470588235
 40
0.7941176470588235
 40
0.7941176470588235
 40
0.8235294117647058
 40
0.8235294117647058
 40
0.8235294117647058
 40
0.8235294117647058
 40
0.8529411764705882
 40
0.8529411764705882
 40
0.8529411764705882
 40
0.8529411764705882
 40
0.8823529411764706
 40
0.8823529411764706
 40
0.8823529411764706
 40
0.8823529411764706
 40
0.9117647058823529
 40
0.9117647058823529
 40
0.9117647058823529
 40
0.9117647058823529
 40
0.9411764705882353
 40
0.9411764705882353
 40
0.9411764705882353
 40
0.9411764705882353
 40
1.0
 40
1.0
 40
1.0
 40
1.0
 10
7.63873
 20
1.9085
 30
0.0
 10
7.79219
 20
1.9085
 30
0.0
 10
7.95623
 20
1.90321
 30
0.0
 10
8.15731
 20
1.90321
 30
0.0
 10
8.15731
 20
1.90321
 30
0.0
 10
8.69177
 20
1.89791
 30
0.0
 10
8.76056
 20
1.845
 30
0.0
 10
8.78173
 20
1.63333
 30
0.0
 10
8.78173
 20
1.63333
 30
0.0
 10
8.78702
 20
1.58041
 30
0.0
 10
8.78702
 20
1.57512
 30
0.0
 10
8.78702
 20
1.55925
 30
0.0
 10
8.78702
 20
1.55925
 30
0.0
 10
8.78702
 20
1.51691
 30
0.0
 10
8.7976
 20
1.49575
 30
0.0
 10
8.82406
 20
1.49575
 30
0.0
 10
8.82406
 20
1.49575
 30
0.0
 10
8.83994
 20
1.49575
 30
0.0
 10
8.8611
 20
1.51162
 30
0.0
 10
8.8611
 20
1.55925
 30
0.0
 10
8.8611
 20
1.55925
 30
0.0
 10
8.8611
 20
1.60158
 30
0.0
 10
8.87169
 20
1.95083
 30
0.0
 10
8.87169
 20
2.099
 30
0.0
 10
8.87169
 20
2.099
 30
0.0
 10
8.87169
 20
2.12016
 30
0.0
 10
8.8611
 20
2.14662
 30
0.0
 10
8.83994
 20
2.14662
 30
0.0
 10
8.83994
 20
2.14662
 30
0.0
 10
8.82406
 20
2.14662
 30
0.0
 10
8.80819
 20
2.14133
 30
0.0
 10
8.7394
 20
2.12546
 30
0.0
 10
8.7394
 20
2.12546
 30
0.0
 10
8.66531
 20
2.10958
 30
0.0
 10
8.50656
 20
2.099
 30
0.0
 10
8.3584
 20
2.099
 30
0.0
 10
8.3584
 20
2.099
 30
0.0
 10
8.3584
 20
2.099
 30
0.0
 10
6.62273
 20
2.099
 30
0.0
 10
6.62273
 20
2.099
 30
0.0
 10
6.62273
 20
2.099
 30
0.0
 10
6.61744
 20
2.099
 30
0.0
 10
6.46927
 20
2.10429
 30
0.0
 10
6.28407
 20
2.12546
 30
0.0
 10
6.28407
 20
2.12546
 30
0.0
 10
6.18882
 20
2.13604
 30
0.0
 10
6.08827
 20
2.18366
 30
0.0
 10
6.05123
 20
2.18366
 30
0.0
 10
6.05123
 20
2.18366
 30
0.0
 10
6.03536
 20
2.18366
 30
0.0
 10
6.01948
 20
2.1625
 30
0.0
 10
6.00361
 20
2.099
 30
0.0
 10
6.00361
 20
2.099
 30
0.0
 10
5.97186
 20
1.95612
 30
0.0
 10
5.89248
 20
1.60687
 30
0.0
 10
5.89777
 20
1.57512
 30
0.0
 10
5.89777
 20
1.57512
 30
0.0
 10
5.89777
 20
1.54866
 30
0.0
 10
5.90307
 20
1.5275
 30
0.0
 10
5.92423
 20
1.5275
 30
0.0
 10
5.92423
 20
1.5275
 30
0.0
 10
5.9454
 20
1.5275
 30
0.0
 10
5.95598
 20
1.53279
 30
0.0
 10
5.97186
 20
1.56983
 30
0.0
 10
5.97186
 20
1.56983
 30
0.0
 10
5.98244
 20
1.59629
 30
0.0
 10
6.00361
 20
1.65979
 30
0.0
 10
6.05123
 20
1.73387
 30
0.0
 10
6.05123
 20
1.73387
 30
0.0
 10
6.12532
 20
1.845
 30
0.0
 10
6.1994
 20
1.89791
 30
0.0
 10
6.53807
 20
1.90321
 30
0.0
 10
6.53807
 20
1.90321
 30
0.0
 10
6.74973
 20
1.9085
 30
0.0
 10
7.03019
 20
1.9085
 30
0.0
 10
7.20481
 20
1.9085
 30
0.0
 10
7.20481
 20
1.9085
 30
0.0
 10
7.20481
 20
1.9085
 30
0.0
 10
7.20481
 20
0.01938
 30
0.0
 10
7.20481
 20
0.01938
 30
0.0
 10
7.20481
 20
0.01938
 30
0.0
 10
7.20481
 20
-0.3775
 30
0.0
 10
7.20481
 20
-0.7585
 30
0.0
 10
7.18365
 20
-0.949
 30
0.0
 10
7.18365
 20
-0.949
 30
0.0
 10
7.16248
 20
-1.12892
 30
0.0
 10
7.14661
 20
-1.19242
 30
0.0
 10
7.04607
 20
-1.20829
 30
0.0
 10
7.04607
 20
-1.20829
 30
0.0
 10
7.00373
 20
-1.21358
 30
0.0
 10
6.97198
 20
-1.21358
 30
0.0
 10
6.92965
 20
-1.21358
 30
0.0
 10
6.92965
 20
-1.21358
 30
0.0
 10
6.88732
 20
-1.21358
 30
0.0
 10
6.87144
 20
-1.23475
 30
0.0
 10
6.87144
 20
-1.25062
 30
0.0
 10
6.87144
 20
-1.25062
 30
0.0
 10
6.87144
 20
-1.27708
 30
0.0
 10
6.89261
 20
-1.28766
 30
0.0
 10
6.95082
 20
-1.28766
 30
0.0
 10
6.95082
 20
-1.28766
 30
0.0
 10
7.0884
 20
-1.28766
 30
0.0
 10
7.40061
 20
-1.27179
 30
0.0
 10
7.42177
 20
-1.27179
 30
0.0
 10
7.42177
 20
-1.27179
 30
0.0
 10
7.44294
 20
-1.27179
 30
0.0
 10
7.75515
 20
-1.28766
 30
0.0
 10
8.02502
 20
-1.28766
 30
0.0
 10
8.02502
 20
-1.28766
 30
0.0
 10
8.07794
 20
-1.28766
 30
0.0
 10
8.09381
 20
-1.27179
 30
0.0
 10
8.09381
 20
-1.24533
 30
0.0
 10
8.09381
 20
-1.24533
 30
0.0
 10
8.09381
 20
-1.22946
 30
0.0
 10
8.07265
 20
-1.21358
 30
0.0
 10
8.03031
 20
-1.21358
 30
0.0
 10
8.03031
 20
-1.21358
 30
0.0
 10
7.98798
 20
-1.21358
 30
0.0
 10
7.88744
 20
-1.20829
 30
0.0
 10
7.82394
 20
-1.19242
 30
0.0
 10
7.82394
 20
-1.19242
 30
0.0
 10
7.69165
 20
-1.16067
 30
0.0
 10
7.68106
 20
-1.08658
 30
0.0
 10
7.66519
 20
-0.95958
 30
0.0
 10
7.66519
 20
-0.95958
 30
0.0
 10
7.64402
 20
-0.76379
 30
0.0
 10
7.63873
 20
-0.38808
 30
0.0
 10
7.63873
 20
0.01938
 30
0.0
 10
7.63873
 20
0.01938
 30
0.0
 10
7.63873
 20
0.01938
 30
0.0
 10
7.63873
 20
1.9085
 30
0.0
 10
7.63873
 20
1.9085
 30
0.0
  0
SPLINE
  5
51
330
1F
100
AcDbEntity
  8
Camada 1
 62
   250
100
AcDbSpline
210
0.0
220
0.0
230
1.0
 70
    11
 71
     3
 72
   108
 73
   104
 74
     0
 42
0.0000000001
 43
0.0000000001
 12
1.0
 22
0.0
 32
0.0
 13
1.0
 23
0.0
 33
0.0
 40
0.0
 40
0.0
 40
0.0
 40
0.0
 40
0.037037037037037
 40
0.037037037037037
 40
0.037037037037037
 40
0.037037037037037
 40
0.0740740740740741
 40
0.0740740740740741
 40
0.0740740740740741
 40
0.0740740740740741
 40
0.1111111111111111
 40
0.1111111111111111
 40
0.1111111111111111
 40
0.1111111111111111
 40
0.1481481481481481
 40
0.1481481481481481
 40
0.1481481481481481
 40
0.1481481481481481
 40
0.1851851851851852
 40
0.1851851851851852
 40
0.1851851851851852
 40
0.1851851851851852
 40
0.2222222222222222
 40
0.2222222222222222
 40
0.2222222222222222
 40
0.2222222222222222
 40
0.2592592592592592
 40
0.2592592592592592
 40
0.2592592592592592
 40
0.2592592592592592
 40
0.2962962962962963
 40
0.2962962962962963
 40
0.2962962962962963
 40
0.2962962962962963
 40
0.3333333333333333
 40
0.3333333333333333
 40
0.3333333333333333
 40
0.3333333333333333
 40
0.3703703703703703
 40
0.3703703703703703
 40
0.3703703703703703
 40
0.3703703703703703
 40
0.4074074074074074
 40
0.4074074074074074
 40
0.4074074074074074
 40
0.4074074074074074
 40
0.4444444444444444
 40
0.4444444444444444
 40
0.4444444444444444
 40
0.4444444444444444
 40
0.4814814814814815
 40
0.4814814814814815
 40
0.4814814814814815
 40
0.4814814814814815
 40
0.5185185185185185
 40
0.5185185185185185
 40
0.5185185185185185
 40
0.5185185185185185
 40
0.5555555555555556
 40
0.5555555555555556
 40
0.5555555555555556
 40
0.5555555555555556
 40
0.5925925925925926
 40
0.5925925925925926
 40
0.5925925925925926
 40
0.5925925925925926
 40
0.6296296296296297
 40
0.6296296296296297
 40
0.6296296296296297
 40
0.6296296296296297
 40
0.6666666666666666
 40
0.6666666666666666
 40
0.6666666666666666
 40
0.6666666666666666
 40
0.7037037037037037
 40
0.7037037037037037
 40
0.7037037037037037
 40
0.7037037037037037
 40
0.7407407407407407
 40
0.7407407407407407
 40
0.7407407407407407
 40
0.7407407407407407
 40
0.7777777777777778
 40
0.7777777777777778
 40
0.7777777777777778
 40
0.7777777777777778
 40
0.8148148148148148
 40
0.8148148148148148
 40
0.8148148148148148
 40
0.8148148148148148
 40
0.8518518518518519
 40
0.8518518518518519
 40
0.8518518518518519
 40
0.8518518518518519
 40
0.8888888888888888
 40
0.8888888888888888
 40
0.8888888888888888
 40
0.8888888888888888
 40
0.9259259259259259
 40
0.9259259259259259
 40
0.9259259259259259
 40
0.9259259259259259
 40
1.0
 40
1.0
 40
1.0
 40
1.0
 10
10.16815
 20
-1.34587
 30
0.0
 10
10.42215
 20
-1.34587
 30
0.0
 10
10.67615
 20
-1.29296
 30
0.0
 10
10.88253
 20
-1.16067
 30
0.0
 10
10.88253
 20
-1.16067
 30
0.0
 10
11.20532
 20
-0.93842
 30
0.0
 10
11.28469
 20
-0.59975
 30
0.0
 10
11.28469
 20
-0.40925
 30
0.0
 10
11.28469
 20
-0.40925
 30
0.0
 10
11.28469
 20
-0.03354
 30
0.0
 10
11.14182
 20
0.24692
 30
0.0
 10
10.59148
 20
0.67025
 30
0.0
 10
10.59148
 20
0.67025
 30
0.0
 10
10.59148
 20
0.67025
 30
0.0
 10
10.46978
 20
0.7655
 30
0.0
 10
10.46978
 20
0.7655
 30
0.0
 10
10.46978
 20
0.7655
 30
0.0
 10
10.03057
 20
1.09887
 30
0.0
 10
9.90357
 20
1.25233
 30
0.0
 10
9.90357
 20
1.50104
 30
0.0
 10
9.90357
 20
1.50104
 30
0.0
 10
9.90357
 20
1.81854
 30
0.0
 10
10.14169
 20
2.00904
 30
0.0
 10
10.45919
 20
2.00904
 30
0.0
 10
10.45919
 20
2.00904
 30
0.0
 10
10.90369
 20
2.00904
 30
0.0
 10
11.0254
 20
1.80796
 30
0.0
 10
11.05186
 20
1.76033
 30
0.0
 10
11.05186
 20
1.76033
 30
0.0
 10
11.09948
 20
1.67037
 30
0.0
 10
11.11007
 20
1.55925
 30
0.0
 10
11.11536
 20
1.51162
 30
0.0
 10
11.11536
 20
1.51162
 30
0.0
 10
11.12065
 20
1.47458
 30
0.0
 10
11.12594
 20
1.45341
 30
0.0
 10
11.1524
 20
1.45341
 30
0.0
 10
11.1524
 20
1.45341
 30
0.0
 10
11.17886
 20
1.45341
 30
0.0
 10
11.18944
 20
1.48516
 30
0.0
 10
11.18944
 20
1.56454
 30
0.0
 10
11.18944
 20
1.56454
 30
0.0
 10
11.18944
 20
1.87146
 30
0.0
 10
11.21061
 20
2.05666
 30
0.0
 10
11.21061
 20
2.07783
 30
0.0
 10
11.21061
 20
2.07783
 30
0.0
 10
11.21061
 20
2.099
 30
0.0
 10
11.20003
 20
2.10958
 30
0.0
 10
11.16298
 20
2.10958
 30
0.0
 10
11.16298
 20
2.10958
 30
0.0
 10
11.12594
 20
2.10958
 30
0.0
 10
11.08361
 20
2.11487
 30
0.0
 10
10.98307
 20
2.13604
 30
0.0
 10
10.98307
 20
2.13604
 30
0.0
 10
10.86665
 20
2.1625
 30
0.0
 10
10.73965
 20
2.17837
 30
0.0
 10
10.55444
 20
2.17837
 30
0.0
 10
10.55444
 20
2.17837
 30
0.0
 10
9.96178
 20
2.17837
 30
0.0
 10
9.57549
 20
1.85029
 30
0.0
 10
9.57549
 20
1.36346
 30
0.0
 10
9.57549
 20
1.36346
 30
0.0
 10
9.57549
 20
1.05125
 30
0.0
 10
9.68132
 20
0.77079
 30
0.0
 10
10.18932
 20
0.36333
 30
0.0
 10
10.18932
 20
0.36333
 30
0.0
 10
10.18932
 20
0.36333
 30
0.0
 10
10.40098
 20
0.19929
 30
0.0
 10
10.40098
 20
0.19929
 30
0.0
 10
10.40098
 20
0.19929
 30
0.0
 10
10.78728
 20
-0.11292
 30
0.0
 10
10.92486
 20
-0.29812
 30
0.0
 10
10.92486
 20
-0.59975
 30
0.0
 10
10.92486
 20
-0.59975
 30
0.0
 10
10.92486
 20
-0.86433
 30
0.0
 10
10.71319
 20
-1.16596
 30
0.0
 10
10.27399
 20
-1.16596
 30
0.0
 10
10.27399
 20
-1.16596
 30
0.0
 10
9.96707
 20
-1.16596
 30
0.0
 10
9.65486
 20
-1.03367
 30
0.0
 10
9.58607
 20
-0.68971
 30
0.0
 10
9.58607
 20
-0.68971
 30
0.0
 10
9.57019
 20
-0.62621
 30
0.0
 10
9.57019
 20
-0.56271
 30
0.0
 10
9.57019
 20
-0.53096
 30
0.0
 10
9.57019
 20
-0.53096
 30
0.0
 10
9.57019
 20
-0.49392
 30
0.0
 10
9.55961
 20
-0.47804
 30
0.0
 10
9.53315
 20
-0.47804
 30
0.0
 10
9.53315
 20
-0.47804
 30
0.0
 10
9.50669
 20
-0.47804
 30
0.0
 10
9.49611
 20
-0.5045
 30
0.0
 10
9.49082
 20
-0.55212
 30
0.0
 10
9.49082
 20
-0.55212
 30
0.0
 10
9.48553
 20
-0.62621
 30
0.0
 10
9.46965
 20
-0.80612
 30
0.0
 10
9.46965
 20
-1.04954
 30
0.0
 10
9.46965
 20
-1.04954
 30
0.0
 10
9.46965
 20
-1.17654
 30
0.0
 10
9.46965
 20
-1.19771
 30
0.0
 10
9.53844
 20
-1.22946
 30
0.0
 10
9.53844
 20
-1.22946
 30
0.0
 10
9.73953
 20
-1.31941
 30
0.0
 10
9.9459
 20
-1.34587
 30
0.0
 10
10.16815
 20
-1.34587
 30
0.0
  0
ENDSEC
  0
SECTION
  2
OBJECTS
  0
DICTIONARY
  5
C
330
0
100
AcDbDictionary
281
     1
  3
ACAD_GROUP
350
D
  3
ACAD_LAYOUT
350
1A
  3
ACAD_MATERIAL
350
3B
  3
ACAD_MLEADERSTYLE
350
73
  3
ACAD_MLINESTYLE
350
17
  3
ACAD_PLOTSETTINGS
350
19
  3
ACAD_PLOTSTYLENAME
350
E
  3
ACAD_TABLESTYLE
350
72
  3
ACAD_VISUALSTYLE
350
2A
  0
DICTIONARY
  5
D
102
{ACAD_REACTORS
330
C
102
}
330
C
100
AcDbDictionary
281
     1
  0
DICTIONARY
  5
1A
102
{ACAD_REACTORS
330
C
102
}
330
C
100
AcDbDictionary
281
     1
  3
Layout1
350
1E
  3
Layout2
350
26
  3
Model
350
22
  0
DICTIONARY
  5
3B
102
{ACAD_REACTORS
330
C
102
}
330
C
100
AcDbDictionary
281
     1
  3
ByBlock
350
3D
  3
ByLayer
350
3C
  3
Global
350
3E
  0
DICTIONARY
  5
73
102
{ACAD_REACTORS
330
C
102
}
330
C
100
AcDbDictionary
281
     1
  0
DICTIONARY
  5
17
102
{ACAD_REACTORS
330
C
102
}
330
C
100
AcDbDictionary
281
     1
  3
Standard
350
18
  0
DICTIONARY
  5
19
102
{ACAD_REACTORS
330
C
102
}
330
C
100
AcDbDictionary
281
     1
  0
ACDBDICTIONARYWDFLT
  5
E
102
{ACAD_REACTORS
330
C
102
}
330
C
100
AcDbDictionary
281
     1
  3
Normal
350
F
100
AcDbDictionaryWithDefault
340
F
  0
DICTIONARY
  5
72
102
{ACAD_REACTORS
330
C
102
}
330
C
100
AcDbDictionary
281
     1
  0
DICTIONARY
  5
2A
102
{ACAD_REACTORS
330
C
102
}
330
C
100
AcDbDictionary
281
     1
  3
2dWireframe
350
2F
  3
3D Hidden
350
31
  3
3dWireframe
350
30
  3
Basic
350
32
  3
Brighten
350
36
  3
ColorChange
350
3A
  3
Conceptual
350
34
  3
Dim
350
35
  3
Facepattern
350
39
  3
Flat
350
2B
  3
FlatWithEdges
350
2C
  3
Gouraud
350
2D
  3
GouraudWithEdges
350
2E
  3
Linepattern
350
38
  3
Realistic
350
33
  3
Thicken
350
37
  0
LAYOUT
  5
1E
102
{ACAD_REACTORS
330
1A
102
}
330
1A
100
AcDbPlotSettings
  1

  2
none_device
  4

  6

 40
0.0
 41
0.0
 42
0.0
 43
0.0
 44
0.0
 45
0.0
 46
0.0
 47
0.0
 48
0.0
 49
0.0
140
0.0
141
0.0
142
1.0
143
1.0
 70
   688
 72
     0
 73
     0
 74
     5
  7

 75
    16
 76
     0
 77
     2
 78
   300
147
1.0
148
0.0
149
0.0
100
AcDbLayout
  1
Layout1
 70
     1
 71
     1
 10
0.0
 20
0.0
 11
12.0
 21
9.0
 12
0.0
 22
0.0
 32
0.0
 14
1.000000000000000E+20
 24
1.000000000000000E+20
 34
1.000000000000000E+20
 15
-1.000000000000000E+20
 25
-1.000000000000000E+20
 35
-1.000000000000000E+20
146
0.0
 13
0.0
 23
0.0
 33
0.0
 16
1.0
 26
0.0
 36
0.0
 17
0.0
 27
1.0
 37
0.0
 76
     0
330
1B
  0
LAYOUT
  5
26
102
{ACAD_REACTORS
330
1A
102
}
330
1A
100
AcDbPlotSettings
  1

  2
none_device
  4

  6

 40
0.0
 41
0.0
 42
0.0
 43
0.0
 44
0.0
 45
0.0
 46
0.0
 47
0.0
 48
0.0
 49
0.0
140
0.0
141
0.0
142
1.0
143
1.0
 70
   688
 72
     0
 73
     0
 74
     5
  7

 75
    16
 76
     0
 77
     2
 78
   300
147
1.0
148
0.0
149
0.0
100
AcDbLayout
  1
Layout2
 70
     1
 71
     2
 10
0.0
 20
0.0
 11
0.0
 21
0.0
 12
0.0
 22
0.0
 32
0.0
 14
0.0
 24
0.0
 34
0.0
 15
0.0
 25
0.0
 35
0.0
146
0.0
 13
0.0
 23
0.0
 33
0.0
 16
1.0
 26
0.0
 36
0.0
 17
0.0
 27
1.0
 37
0.0
 76
     0
330
23
  0
LAYOUT
  5
22
102
{ACAD_REACTORS
330
1A
102
}
330
1A
100
AcDbPlotSettings
  1

  2
none_device
  4

  6

 40
0.0
 41
0.0
 42
0.0
 43
0.0
 44
0.0
 45
0.0
 46
0.0
 47
0.0
 48
0.0
 49
0.0
140
0.0
141
0.0
142
1.0
143
1.0
 70
  1712
 72
     0
 73
     0
 74
     0
  7

 75
     0
 76
     0
 77
     2
 78
   300
147
1.0
148
0.0
149
0.0
100
AcDbLayout
  1
Model
 70
     1
 71
     0
 10
0.0
 20
0.0
 11
12.0
 21
9.0
 12
0.0
 22
0.0
 32
0.0
 14
-14.52804
 24
-1.60969
 34
0.0
 15
11.28469
 25
6.95674
 35
0.0
146
0.0
 13
0.0
 23
0.0
 33
0.0
 16
1.0
 26
0.0
 36
0.0
 17
0.0
 27
1.0
 37
0.0
 76
     0
330
1F
331
29
  0
MATERIAL
  5
3D
102
{ACAD_REACTORS
330
3B
102
}
330
3B
100
AcDbMaterial
  1
ByBlock
 72
     1
 94
      127
  0
MATERIAL
  5
3C
102
{ACAD_REACTORS
330
3B
102
}
330
3B
100
AcDbMaterial
  1
ByLayer
 72
     1
 94
      127
  0
MATERIAL
  5
3E
102
{ACAD_REACTORS
330
3B
102
}
330
3B
100
AcDbMaterial
  1
Global
 72
     1
 94
      127
  0
MLINESTYLE
  5
18
102
{ACAD_REACTORS
330
17
102
}
330
17
100
AcDbMlineStyle
  2
Standard
 70
     0
  3

 62
   256
 51
90.0
 52
90.0
 71
     2
 49
0.5
 62
   256
  6
BYLAYER
 49
-0.5
 62
   256
  6
BYLAYER
  0
ACDBPLACEHOLDER
  5
F
102
{ACAD_REACTORS
330
E
102
}
330
E
  0
VISUALSTYLE
  5
2F
102
{ACAD_REACTORS
330
2A
102
}
102
{ACAD_XDICTIONARY
360
5A
102
}
330
2A
100
AcDbVisualStyle
  2
2dWireframe
 70
     4
 71
     0
 72
     2
 73
     0
 90
        0
 40
-0.6
 41
-30.0
 62
     5
 63
     7
421
 16777215
 74
     1
 91
        4
 64
     7
 65
   257
 75
     1
175
     1
 42
1.0
 92
        0
 66
   257
 43
1.0
 76
     1
 77
     6
 78
     2
 67
     7
 79
     5
170
     0
171
     0
290
     0
174
     0
 93
        1
 44
0.0
173
     0
291
     0
 45
0.0
  0
VISUALSTYLE
  5
31
102
{ACAD_REACTORS
330
2A
102
}
102
{ACAD_XDICTIONARY
360
5E
102
}
330
2A
100
AcDbVisualStyle
  2
3D Hidden
 70
     6
 71
     1
 72
     2
 73
     2
 90
        0
 40
-0.6
 41
-30.0
 62
     5
 63
     7
421
 16777215
 74
     2
 91
        2
 64
     7
 65
   257
 75
     2
175
     1
 42
40.0
 92
        0
 66
   257
 43
1.0
 76
     1
 77
     6
 78
     2
 67
     7
 79
     3
170
     0
171
     0
290
     0
174
     0
 93
        1
 44
0.0
173
     0
291
     0
 45
0.0
  0
VISUALSTYLE
  5
30
102
{ACAD_REACTORS
330
2A
102
}
102
{ACAD_XDICTIONARY
360
5C
102
}
330
2A
100
AcDbVisualStyle
  2
3dWireframe
 70
     5
 71
     0
 72
     2
 73
     0
 90
        0
 40
-0.6
 41
-30.0
 62
     5
 63
     7
421
 16777215
 74
     1
 91
        4
 64
     7
 65
   257
 75
     1
175
     1
 42
1.0
 92
        0
 66
   257
 43
1.0
 76
     1
 77
     6
 78
     2
 67
     7
 79
     5
170
     0
171
     0
290
     0
174
     0
 93
        1
 44
0.0
173
     0
291
     0
 45
0.0
  0
VISUALSTYLE
  5
32
102
{ACAD_REACTORS
330
2A
102
}
102
{ACAD_XDICTIONARY
360
60
102
}
330
2A
100
AcDbVisualStyle
  2
Basic
 70
     7
 71
     1
 72
     0
 73
     1
 90
        0
 40
-0.6
 41
-30.0
 62
     5
 63
     7
421
 16777215
 74
     0
 91
        4
 64
     7
 65
   257
 75
     1
175
     1
 42
1.0
 92
        8
 66
     7
 43
1.0
 76
     1
 77
     6
 78
     2
 67
     7
 79
     5
170
     0
171
     0
290
     0
174
     0
 93
        1
 44
0.0
173
     0
291
     1
 45
0.0
  0
VISUALSTYLE
  5
36
102
{ACAD_REACTORS
330
2A
102
}
102
{ACAD_XDICTIONARY
360
68
102
}
330
2A
100
AcDbVisualStyle
  2
Brighten
 70
    12
 71
     2
 72
     2
 73
     0
 90
        0
 40
-0.6
 41
-30.0
 62
     5
 63
     7
421
 16777215
 74
     1
 91
        4
 64
     7
 65
   257
 75
     1
175
     1
 42
1.0
 92
        8
 66
     7
 43
1.0
 76
     1
 77
     6
 78
     2
 67
     7
 79
     5
170
     0
171
     0
290
     0
174
     0
 93
        1
 44
50.0
173
     0
291
     1
 45
0.0
  0
VISUALSTYLE
  5
3A
102
{ACAD_REACTORS
330
2A
102
}
102
{ACAD_XDICTIONARY
360
70
102
}
330
2A
100
AcDbVisualStyle
  2
ColorChange
 70
    16
 71
     2
 72
     2
 73
     3
 90
        0
 40
-0.6
 41
-30.0
 62
     5
 63
     8
421
  8421504
 74
     1
 91
        4
 64
     7
 65
   257
 75
     1
175
     1
 42
1.0
 92
        8
 66
     8
424
  8421504
 43
1.0
 76
     1
 77
     6
 78
     2
 67
     7
 79
     5
170
     0
171
     0
290
     0
174
     0
 93
        1
 44
0.0
173
     0
291
     1
 45
0.0
  0
VISUALSTYLE
  5
34
102
{ACAD_REACTORS
330
2A
102
}
102
{ACAD_XDICTIONARY
360
64
102
}
330
2A
100
AcDbVisualStyle
  2
Conceptual
 70
     9
 71
     3
 72
     2
 73
     0
 90
        0
 40
-0.6
 41
-30.0
 62
     5
 63
     7
421
 16777215
 74
     2
 91
        2
 64
     7
 65
   257
 75
     1
175
     1
 42
40.0
 92
        8
 66
     7
 43
1.0
 76
     1
 77
     6
 78
     2
 67
     7
 79
     3
170
     0
171
     0
290
     0
174
     0
 93
        1
 44
0.0
173
     0
291
     0
 45
0.0
  0
VISUALSTYLE
  5
35
102
{ACAD_REACTORS
330
2A
102
}
102
{ACAD_XDICTIONARY
360
66
102
}
330
2A
100
AcDbVisualStyle
  2
Dim
 70
    11
 71
     2
 72
     2
 73
     0
 90
        0
 40
-0.6
 41
-30.0
 62
     5
 63
     7
421
 16777215
 74
     1
 91
        4
 64
     7
 65
   257
 75
     1
175
     1
 42
1.0
 92
        8
 66
     7
 43
1.0
 76
     1
 77
     6
 78
     2
 67
     7
 79
     5
170
     0
171
     0
290
     0
174
     0
 93
        1
 44
-50.0
173
     0
291
     1
 45
0.0
  0
VISUALSTYLE
  5
39
102
{ACAD_REACTORS
330
2A
102
}
102
{ACAD_XDICTIONARY
360
6E
102
}
330
2A
100
AcDbVisualStyle
  2
Facepattern
 70
    15
 71
     2
 72
     2
 73
     0
 90
        0
 40
-0.6
 41
-30.0
 62
     5
 63
     7
421
 16777215
 74
     1
 91
        4
 64
     7
 65
   257
 75
     1
175
     1
 42
1.0
 92
        8
 66
     7
 43
1.0
 76
     1
 77
     6
 78
     2
 67
     7
 79
     5
170
     0
171
     0
290
     0
174
     0
 93
        1
 44
0.0
173
     0
291
     1
 45
0.0
  0
VISUALSTYLE
  5
2B
102
{ACAD_REACTORS
330
2A
102
}
102
{ACAD_XDICTIONARY
360
52
102
}
330
2A
100
AcDbVisualStyle
  2
Flat
 70
     0
 71
     2
 72
     1
 73
     1
 90
        2
 40
-0.6
 41
30.0
 62
     5
 63
     7
421
 16777215
 74
     0
 91
        4
 64
     7
 65
   257
 75
     1
175
     1
 42
1.0
 92
        8
 66
     7
 43
1.0
 76
     1
 77
     6
 78
     2
 67
     7
 79
     5
170
     0
171
     0
290
     0
174
     0
 93
       13
 44
0.0
173
     0
291
     1
 45
0.0
  0
VISUALSTYLE
  5
2C
102
{ACAD_REACTORS
330
2A
102
}
102
{ACAD_XDICTIONARY
360
54
102
}
330
2A
100
AcDbVisualStyle
  2
FlatWithEdges
 70
     1
 71
     2
 72
     1
 73
     1
 90
        2
 40
-0.6
 41
30.0
 62
     5
 63
     7
421
 16777215
 74
     1
 91
        4
 64
     7
 65
   257
 75
     1
175
     1
 42
1.0
 92
        0
 66
   257
 43
1.0
 76
     1
 77
     6
 78
     2
 67
     7
 79
     5
170
     0
171
     0
290
     0
174
     0
 93
       13
 44
0.0
173
     0
291
     1
 45
0.0
  0
VISUALSTYLE
  5
2D
102
{ACAD_REACTORS
330
2A
102
}
102
{ACAD_XDICTIONARY
360
56
102
}
330
2A
100
AcDbVisualStyle
  2
Gouraud
 70
     2
 71
     2
 72
     2
 73
     1
 90
        2
 40
-0.6
 41
30.0
 62
     5
 63
     7
421
 16777215
 74
     0
 91
        4
 64
     7
 65
   257
 75
     1
175
     1
 42
1.0
 92
        0
 66
     7
 43
1.0
 76
     1
 77
     6
 78
     2
 67
     7
 79
     5
170
     0
171
     0
290
     0
174
     0
 93
       13
 44
0.0
173
     0
291
     1
 45
0.0
  0
VISUALSTYLE
  5
2E
102
{ACAD_REACTORS
330
2A
102
}
102
{ACAD_XDICTIONARY
360
58
102
}
330
2A
100
AcDbVisualStyle
  2
GouraudWithEdges
 70
     3
 71
     2
 72
     2
 73
     1
 90
        2
 40
-0.6
 41
30.0
 62
     5
 63
     7
421
 16777215
 74
     1
 91
        4
 64
     7
 65
   257
 75
     1
175
     1
 42
1.0
 92
        0
 66
   257
 43
1.0
 76
     1
 77
     6
 78
     2
 67
     7
 79
     5
170
     0
171
     0
290
     0
174
     0
 93
       13
 44
0.0
173
     0
291
     1
 45
0.0
  0
VISUALSTYLE
  5
38
102
{ACAD_REACTORS
330
2A
102
}
102
{ACAD_XDICTIONARY
360
6C
102
}
330
2A
100
AcDbVisualStyle
  2
Linepattern
 70
    14
 71
     2
 72
     2
 73
     0
 90
        0
 40
-0.6
 41
-30.0
 62
     5
 63
     7
421
 16777215
 74
     1
 91
        4
 64
     7
 65
   257
 75
     7
175
     7
 42
1.0
 92
        8
 66
     7
 43
1.0
 76
     1
 77
     6
 78
     2
 67
     7
 79
     5
170
     0
171
     0
290
     0
174
     0
 93
        1
 44
0.0
173
     0
291
     1
 45
0.0
  0
VISUALSTYLE
  5
33
102
{ACAD_REACTORS
330
2A
102
}
102
{ACAD_XDICTIONARY
360
62
102
}
330
2A
100
AcDbVisualStyle
  2
Realistic
 70
     8
 71
     2
 72
     2
 73
     0
 90
        0
 40
-0.6
 41
-30.0
 62
     5
 63
     7
421
 16777215
 74
     1
 91
        0
 64
     7
 65
   257
 75
     1
175
     1
 42
1.0
 92
        8
 66
     8
424
  7895160
 43
1.0
 76
     1
 77
     6
 78
     2
 67
     7
 79
     5
170
     0
171
     0
290
     0
174
     0
 93
       13
 44
0.0
173
     0
291
     0
 45
0.0
  0
VISUALSTYLE
  5
37
102
{ACAD_REACTORS
330
2A
102
}
102
{ACAD_XDICTIONARY
360
6A
102
}
330
2A
100
AcDbVisualStyle
  2
Thicken
 70
    13
 71
     2
 72
     2
 73
     0
 90
        0
 40
-0.6
 41
-30.0
 62
     5
 63
     7
421
 16777215
 74
     1
 91
        4
 64
     7
 65
   257
 75
     1
175
     1
 42
1.0
 92
       12
 66
     7
 43
1.0
 76
     1
 77
     6
 78
     2
 67
     7
 79
     5
170
     0
171
     0
290
     0
174
     0
 93
        1
 44
0.0
173
     0
291
     1
 45
0.0
  0
DICTIONARY
  5
5A
330
2F
100
AcDbDictionary
280
     1
281
     1
  3
ACAD_XREC_ROUNDTRIP
360
5B
  0
DICTIONARY
  5
5E
330
31
100
AcDbDictionary
280
     1
281
     1
  3
ACAD_XREC_ROUNDTRIP
360
5F
  0
DICTIONARY
  5
5C
330
30
100
AcDbDictionary
280
     1
281
     1
  3
ACAD_XREC_ROUNDTRIP
360
5D
  0
DICTIONARY
  5
60
330
32
100
AcDbDictionary
280
     1
281
     1
  3
ACAD_XREC_ROUNDTRIP
360
61
  0
DICTIONARY
  5
68
330
36
100
AcDbDictionary
280
     1
281
     1
  3
ACAD_XREC_ROUNDTRIP
360
69
  0
DICTIONARY
  5
70
330
3A
100
AcDbDictionary
280
     1
281
     1
  3
ACAD_XREC_ROUNDTRIP
360
71
  0
DICTIONARY
  5
64
330
34
100
AcDbDictionary
280
     1
281
     1
  3
ACAD_XREC_ROUNDTRIP
360
65
  0
DICTIONARY
  5
66
330
35
100
AcDbDictionary
280
     1
281
     1
  3
ACAD_XREC_ROUNDTRIP
360
67
  0
DICTIONARY
  5
6E
330
39
100
AcDbDictionary
280
     1
281
     1
  3
ACAD_XREC_ROUNDTRIP
360
6F
  0
DICTIONARY
  5
52
330
2B
100
AcDbDictionary
280
     1
281
     1
  3
ACAD_XREC_ROUNDTRIP
360
53
  0
DICTIONARY
  5
54
330
2C
100
AcDbDictionary
280
     1
281
     1
  3
ACAD_XREC_ROUNDTRIP
360
55
  0
DICTIONARY
  5
56
330
2D
100
AcDbDictionary
280
     1
281
     1
  3
ACAD_XREC_ROUNDTRIP
360
57
  0
DICTIONARY
  5
58
330
2E
100
AcDbDictionary
280
     1
281
     1
  3
ACAD_XREC_ROUNDTRIP
360
59
  0
DICTIONARY
  5
6C
330
38
100
AcDbDictionary
280
     1
281
     1
  3
ACAD_XREC_ROUNDTRIP
360
6D
  0
DICTIONARY
  5
62
330
33
100
AcDbDictionary
280
     1
281
     1
  3
ACAD_XREC_ROUNDTRIP
360
63
  0
DICTIONARY
  5
6A
330
37
100
AcDbDictionary
280
     1
281
     1
  3
ACAD_XREC_ROUNDTRIP
360
6B
  0
XRECORD
  5
5B
102
{ACAD_REACTORS
330
5A
102
}
330
5A
100
AcDbXrecord
280
     1
102
RTVSPropertyOp0
 70
     1
102
RTVSPropertyOp1
 70
     1
102
RTVSPropertyOp2
 70
     1
102
RTVSPropertyOp3
 70
     1
102
RTVSPropertyOp4
 70
     1
102
RTVSPropertyOp5
 70
     1
102
RTVSPropertyOp6
 70
     1
102
RTVSPropertyOp7
 70
     1
102
RTVSPropertyOp8
 70
     1
102
RTVSPropertyOp9
 70
     1
102
RTVSPropertyOp10
 70
     1
102
RTVSPropertyOp11
 70
     1
102
RTVSPropertyOp12
 70
     1
102
RTVSPropertyOp13
 70
     1
102
RTVSPropertyOp14
 70
     1
102
RTVSPropertyOp15
 70
     1
102
RTVSPropertyOp16
 70
     1
102
RTVSPropertyOp17
 70
     1
102
RTVSPropertyOp18
 70
     1
102
RTVSPropertyOp19
 70
     1
102
RTVSPropertyOp20
 70
     1
102
RTVSPropertyOp21
 70
     1
102
RTVSPropertyOp22
 70
     1
102
RTVSPropertyOp23
 70
     1
102
RTVSPropertyOp24
 70
     1
102
RTVSPropertyOp25
 70
     1
102
RTVSPropertyOp26
 70
     1
102
RTVSPropertyOp27
 70
     1
102
RTVSPropertyOp28
 70
     1
102
RTVSPropertyOp29
 70
     1
102
RTVSPropertyOp30
 70
     1
102
RTVSPropertyOp31
 70
     1
102
RTVSPropertyOp32
 70
     1
  0
XRECORD
  5
5F
102
{ACAD_REACTORS
330
5E
102
}
330
5E
100
AcDbXrecord
280
     1
102
RTVSPropertyOp0
 70
     1
102
RTVSPropertyOp1
 70
     1
102
RTVSPropertyOp2
 70
     1
102
RTVSPropertyOp3
 70
     1
102
RTVSPropertyOp4
 70
     1
102
RTVSPropertyOp5
 70
     1
102
RTVSPropertyOp6
 70
     1
102
RTVSPropertyOp7
 70
     1
102
RTVSPropertyOp8
 70
     1
102
RTVSPropertyOp9
 70
     1
102
RTVSPropertyOp10
 70
     1
102
RTVSPropertyOp11
 70
     1
102
RTVSPropertyOp12
 70
     1
102
RTVSPropertyOp13
 70
     1
102
RTVSPropertyOp14
 70
     1
102
RTVSPropertyOp15
 70
     1
102
RTVSPropertyOp16
 70
     1
102
RTVSPropertyOp17
 70
     1
102
RTVSPropertyOp18
 70
     1
102
RTVSPropertyOp19
 70
     1
102
RTVSPropertyOp20
 70
     1
102
RTVSPropertyOp21
 70
     1
102
RTVSPropertyOp22
 70
     1
102
RTVSPropertyOp23
 70
     1
102
RTVSPropertyOp24
 70
     1
102
RTVSPropertyOp25
 70
     1
102
RTVSPropertyOp26
 70
     1
102
RTVSPropertyOp27
 70
     1
102
RTVSPropertyOp28
 70
     1
102
RTVSPropertyOp29
 70
     1
102
RTVSPropertyOp30
 70
     1
102
RTVSPropertyOp31
 70
     1
102
RTVSPropertyOp32
 70
     1
  0
XRECORD
  5
5D
102
{ACAD_REACTORS
330
5C
102
}
330
5C
100
AcDbXrecord
280
     1
102
RTVSPropertyOp0
 70
     1
102
RTVSPropertyOp1
 70
     1
102
RTVSPropertyOp2
 70
     1
102
RTVSPropertyOp3
 70
     1
102
RTVSPropertyOp4
 70
     1
102
RTVSPropertyOp5
 70
     1
102
RTVSPropertyOp6
 70
     1
102
RTVSPropertyOp7
 70
     1
102
RTVSPropertyOp8
 70
     1
102
RTVSPropertyOp9
 70
     1
102
RTVSPropertyOp10
 70
     1
102
RTVSPropertyOp11
 70
     1
102
RTVSPropertyOp12
 70
     1
102
RTVSPropertyOp13
 70
     1
102
RTVSPropertyOp14
 70
     1
102
RTVSPropertyOp15
 70
     1
102
RTVSPropertyOp16
 70
     1
102
RTVSPropertyOp17
 70
     1
102
RTVSPropertyOp18
 70
     1
102
RTVSPropertyOp19
 70
     1
102
RTVSPropertyOp20
 70
     1
102
RTVSPropertyOp21
 70
     1
102
RTVSPropertyOp22
 70
     1
102
RTVSPropertyOp23
 70
     1
102
RTVSPropertyOp24
 70
     1
102
RTVSPropertyOp25
 70
     1
102
RTVSPropertyOp26
 70
     1
102
RTVSPropertyOp27
 70
     1
102
RTVSPropertyOp28
 70
     1
102
RTVSPropertyOp29
 70
     1
102
RTVSPropertyOp30
 70
     1
102
RTVSPropertyOp31
 70
     1
102
RTVSPropertyOp32
 70
     1
  0
XRECORD
  5
61
102
{ACAD_REACTORS
330
60
102
}
330
60
100
AcDbXrecord
280
     1
102
RTVSPropertyOp0
 70
     1
102
RTVSPropertyOp1
 70
     1
102
RTVSPropertyOp2
 70
     1
102
RTVSPropertyOp3
 70
     1
102
RTVSPropertyOp4
 70
     1
102
RTVSPropertyOp5
 70
     1
102
RTVSPropertyOp6
 70
     1
102
RTVSPropertyOp7
 70
     1
102
RTVSPropertyOp8
 70
     1
102
RTVSPropertyOp9
 70
     1
102
RTVSPropertyOp10
 70
     1
102
RTVSPropertyOp11
 70
     1
102
RTVSPropertyOp12
 70
     1
102
RTVSPropertyOp13
 70
     1
102
RTVSPropertyOp14
 70
     1
102
RTVSPropertyOp15
 70
     1
102
RTVSPropertyOp16
 70
     1
102
RTVSPropertyOp17
 70
     1
102
RTVSPropertyOp18
 70
     1
102
RTVSPropertyOp19
 70
     1
102
RTVSPropertyOp20
 70
     1
102
RTVSPropertyOp21
 70
     1
102
RTVSPropertyOp22
 70
     1
102
RTVSPropertyOp23
 70
     1
102
RTVSPropertyOp24
 70
     1
102
RTVSPropertyOp25
 70
     1
102
RTVSPropertyOp26
 70
     1
102
RTVSPropertyOp27
 70
     1
102
RTVSPropertyOp28
 70
     1
102
RTVSPropertyOp29
 70
     1
102
RTVSPropertyOp30
 70
     1
102
RTVSPropertyOp31
 70
     1
102
RTVSPropertyOp32
 70
     1
  0
XRECORD
  5
69
102
{ACAD_REACTORS
330
68
102
}
330
68
100
AcDbXrecord
280
     1
102
RTVSPropertyOp0
 70
     1
102
RTVSPropertyOp1
 70
     1
102
RTVSPropertyOp2
 70
     1
102
RTVSPropertyOp3
 70
     1
102
RTVSPropertyOp4
 70
     1
102
RTVSPropertyOp5
 70
     1
102
RTVSPropertyOp6
 70
     1
102
RTVSPropertyOp7
 70
     1
102
RTVSPropertyOp8
 70
     1
102
RTVSPropertyOp9
 70
     1
102
RTVSPropertyOp10
 70
     1
102
RTVSPropertyOp11
 70
     1
102
RTVSPropertyOp12
 70
     1
102
RTVSPropertyOp13
 70
     1
102
RTVSPropertyOp14
 70
     1
102
RTVSPropertyOp15
 70
     1
102
RTVSPropertyOp16
 70
     1
102
RTVSPropertyOp17
 70
     1
102
RTVSPropertyOp18
 70
     1
102
RTVSPropertyOp19
 70
     1
102
RTVSPropertyOp20
 70
     1
102
RTVSPropertyOp21
 70
     1
102
RTVSPropertyOp22
 70
     1
102
RTVSPropertyOp23
 70
     1
102
RTVSPropertyOp24
 70
     1
102
RTVSPropertyOp25
 70
     1
102
RTVSPropertyOp26
 70
     1
102
RTVSPropertyOp27
 70
     1
102
RTVSPropertyOp28
 70
     1
102
RTVSPropertyOp29
 70
     1
102
RTVSPropertyOp30
 70
     1
102
RTVSPropertyOp31
 70
     1
102
RTVSPropertyOp32
 70
     1
  0
XRECORD
  5
71
102
{ACAD_REACTORS
330
70
102
}
330
70
100
AcDbXrecord
280
     1
102
RTVSPropertyOp0
 70
     1
102
RTVSPropertyOp1
 70
     1
102
RTVSPropertyOp2
 70
     1
102
RTVSPropertyOp3
 70
     1
102
RTVSPropertyOp4
 70
     1
102
RTVSPropertyOp5
 70
     1
102
RTVSPropertyOp6
 70
     1
102
RTVSPropertyOp7
 70
     1
102
RTVSPropertyOp8
 70
     1
102
RTVSPropertyOp9
 70
     1
102
RTVSPropertyOp10
 70
     1
102
RTVSPropertyOp11
 70
     1
102
RTVSPropertyOp12
 70
     1
102
RTVSPropertyOp13
 70
     1
102
RTVSPropertyOp14
 70
     1
102
RTVSPropertyOp15
 70
     1
102
RTVSPropertyOp16
 70
     1
102
RTVSPropertyOp17
 70
     1
102
RTVSPropertyOp18
 70
     1
102
RTVSPropertyOp19
 70
     1
102
RTVSPropertyOp20
 70
     1
102
RTVSPropertyOp21
 70
     1
102
RTVSPropertyOp22
 70
     1
102
RTVSPropertyOp23
 70
     1
102
RTVSPropertyOp24
 70
     1
102
RTVSPropertyOp25
 70
     1
102
RTVSPropertyOp26
 70
     1
102
RTVSPropertyOp27
 70
     1
102
RTVSPropertyOp28
 70
     1
102
RTVSPropertyOp29
 70
     1
102
RTVSPropertyOp30
 70
     1
102
RTVSPropertyOp31
 70
     1
102
RTVSPropertyOp32
 70
     1
  0
XRECORD
  5
65
102
{ACAD_REACTORS
330
64
102
}
330
64
100
AcDbXrecord
280
     1
102
RTVSPropertyOp0
 70
     1
102
RTVSPropertyOp1
 70
     1
102
RTVSPropertyOp2
 70
     1
102
RTVSPropertyOp3
 70
     1
102
RTVSPropertyOp4
 70
     1
102
RTVSPropertyOp5
 70
     1
102
RTVSPropertyOp6
 70
     1
102
RTVSPropertyOp7
 70
     1
102
RTVSPropertyOp8
 70
     1
102
RTVSPropertyOp9
 70
     1
102
RTVSPropertyOp10
 70
     1
102
RTVSPropertyOp11
 70
     1
102
RTVSPropertyOp12
 70
     1
102
RTVSPropertyOp13
 70
     1
102
RTVSPropertyOp14
 70
     1
102
RTVSPropertyOp15
 70
     1
102
RTVSPropertyOp16
 70
     1
102
RTVSPropertyOp17
 70
     1
102
RTVSPropertyOp18
 70
     1
102
RTVSPropertyOp19
 70
     1
102
RTVSPropertyOp20
 70
     1
102
RTVSPropertyOp21
 70
     1
102
RTVSPropertyOp22
 70
     1
102
RTVSPropertyOp23
 70
     1
102
RTVSPropertyOp24
 70
     1
102
RTVSPropertyOp25
 70
     1
102
RTVSPropertyOp26
 70
     1
102
RTVSPropertyOp27
 70
     1
102
RTVSPropertyOp28
 70
     1
102
RTVSPropertyOp29
 70
     1
102
RTVSPropertyOp30
 70
     1
102
RTVSPropertyOp31
 70
     1
102
RTVSPropertyOp32
 70
     1
  0
XRECORD
  5
67
102
{ACAD_REACTORS
330
66
102
}
330
66
100
AcDbXrecord
280
     1
102
RTVSPropertyOp0
 70
     1
102
RTVSPropertyOp1
 70
     1
102
RTVSPropertyOp2
 70
     1
102
RTVSPropertyOp3
 70
     1
102
RTVSPropertyOp4
 70
     1
102
RTVSPropertyOp5
 70
     1
102
RTVSPropertyOp6
 70
     1
102
RTVSPropertyOp7
 70
     1
102
RTVSPropertyOp8
 70
     1
102
RTVSPropertyOp9
 70
     1
102
RTVSPropertyOp10
 70
     1
102
RTVSPropertyOp11
 70
     1
102
RTVSPropertyOp12
 70
     1
102
RTVSPropertyOp13
 70
     1
102
RTVSPropertyOp14
 70
     1
102
RTVSPropertyOp15
 70
     1
102
RTVSPropertyOp16
 70
     1
102
RTVSPropertyOp17
 70
     1
102
RTVSPropertyOp18
 70
     1
102
RTVSPropertyOp19
 70
     1
102
RTVSPropertyOp20
 70
     1
102
RTVSPropertyOp21
 70
     1
102
RTVSPropertyOp22
 70
     1
102
RTVSPropertyOp23
 70
     1
102
RTVSPropertyOp24
 70
     1
102
RTVSPropertyOp25
 70
     1
102
RTVSPropertyOp26
 70
     1
102
RTVSPropertyOp27
 70
     1
102
RTVSPropertyOp28
 70
     1
102
RTVSPropertyOp29
 70
     1
102
RTVSPropertyOp30
 70
     1
102
RTVSPropertyOp31
 70
     1
102
RTVSPropertyOp32
 70
     1
  0
XRECORD
  5
6F
102
{ACAD_REACTORS
330
6E
102
}
330
6E
100
AcDbXrecord
280
     1
102
RTVSPropertyOp0
 70
     1
102
RTVSPropertyOp1
 70
     1
102
RTVSPropertyOp2
 70
     1
102
RTVSPropertyOp3
 70
     1
102
RTVSPropertyOp4
 70
     1
102
RTVSPropertyOp5
 70
     1
102
RTVSPropertyOp6
 70
     1
102
RTVSPropertyOp7
 70
     1
102
RTVSPropertyOp8
 70
     1
102
RTVSPropertyOp9
 70
     1
102
RTVSPropertyOp10
 70
     1
102
RTVSPropertyOp11
 70
     1
102
RTVSPropertyOp12
 70
     1
102
RTVSPropertyOp13
 70
     1
102
RTVSPropertyOp14
 70
     1
102
RTVSPropertyOp15
 70
     1
102
RTVSPropertyOp16
 70
     1
102
RTVSPropertyOp17
 70
     1
102
RTVSPropertyOp18
 70
     1
102
RTVSPropertyOp19
 70
     1
102
RTVSPropertyOp20
 70
     1
102
RTVSPropertyOp21
 70
     1
102
RTVSPropertyOp22
 70
     1
102
RTVSPropertyOp23
 70
     1
102
RTVSPropertyOp24
 70
     1
102
RTVSPropertyOp25
 70
     1
102
RTVSPropertyOp26
 70
     1
102
RTVSPropertyOp27
 70
     1
102
RTVSPropertyOp28
 70
     1
102
RTVSPropertyOp29
 70
     1
102
RTVSPropertyOp30
 70
     1
102
RTVSPropertyOp31
 70
     1
102
RTVSPropertyOp32
 70
     1
  0
XRECORD
  5
53
102
{ACAD_REACTORS
330
52
102
}
330
52
100
AcDbXrecord
280
     1
102
RTVSPropertyOp0
 70
     1
102
RTVSPropertyOp1
 70
     1
102
RTVSPropertyOp2
 70
     1
102
RTVSPropertyOp3
 70
     1
102
RTVSPropertyOp4
 70
     1
102
RTVSPropertyOp5
 70
     1
102
RTVSPropertyOp6
 70
     1
102
RTVSPropertyOp7
 70
     1
102
RTVSPropertyOp8
 70
     1
102
RTVSPropertyOp9
 70
     1
102
RTVSPropertyOp10
 70
     1
102
RTVSPropertyOp11
 70
     1
102
RTVSPropertyOp12
 70
     1
102
RTVSPropertyOp13
 70
     1
102
RTVSPropertyOp14
 70
     1
102
RTVSPropertyOp15
 70
     1
102
RTVSPropertyOp16
 70
     1
102
RTVSPropertyOp17
 70
     1
102
RTVSPropertyOp18
 70
     1
102
RTVSPropertyOp19
 70
     1
102
RTVSPropertyOp20
 70
     1
102
RTVSPropertyOp21
 70
     1
102
RTVSPropertyOp22
 70
     1
102
RTVSPropertyOp23
 70
     1
102
RTVSPropertyOp24
 70
     1
102
RTVSPropertyOp25
 70
     1
102
RTVSPropertyOp26
 70
     1
102
RTVSPropertyOp27
 70
     1
102
RTVSPropertyOp28
 70
     1
102
RTVSPropertyOp29
 70
     1
102
RTVSPropertyOp30
 70
     1
102
RTVSPropertyOp31
 70
     1
102
RTVSPropertyOp32
 70
     1
  0
XRECORD
  5
55
102
{ACAD_REACTORS
330
54
102
}
330
54
100
AcDbXrecord
280
     1
102
RTVSPropertyOp0
 70
     1
102
RTVSPropertyOp1
 70
     1
102
RTVSPropertyOp2
 70
     1
102
RTVSPropertyOp3
 70
     1
102
RTVSPropertyOp4
 70
     1
102
RTVSPropertyOp5
 70
     1
102
RTVSPropertyOp6
 70
     1
102
RTVSPropertyOp7
 70
     1
102
RTVSPropertyOp8
 70
     1
102
RTVSPropertyOp9
 70
     1
102
RTVSPropertyOp10
 70
     1
102
RTVSPropertyOp11
 70
     1
102
RTVSPropertyOp12
 70
     1
102
RTVSPropertyOp13
 70
     1
102
RTVSPropertyOp14
 70
     1
102
RTVSPropertyOp15
 70
     1
102
RTVSPropertyOp16
 70
     1
102
RTVSPropertyOp17
 70
     1
102
RTVSPropertyOp18
 70
     1
102
RTVSPropertyOp19
 70
     1
102
RTVSPropertyOp20
 70
     1
102
RTVSPropertyOp21
 70
     1
102
RTVSPropertyOp22
 70
     1
102
RTVSPropertyOp23
 70
     1
102
RTVSPropertyOp24
 70
     1
102
RTVSPropertyOp25
 70
     1
102
RTVSPropertyOp26
 70
     1
102
RTVSPropertyOp27
 70
     1
102
RTVSPropertyOp28
 70
     1
102
RTVSPropertyOp29
 70
     1
102
RTVSPropertyOp30
 70
     1
102
RTVSPropertyOp31
 70
     1
102
RTVSPropertyOp32
 70
     1
  0
XRECORD
  5
57
102
{ACAD_REACTORS
330
56
102
}
330
56
100
AcDbXrecord
280
     1
102
RTVSPropertyOp0
 70
     1
102
RTVSPropertyOp1
 70
     1
102
RTVSPropertyOp2
 70
     1
102
RTVSPropertyOp3
 70
     1
102
RTVSPropertyOp4
 70
     1
102
RTVSPropertyOp5
 70
     1
102
RTVSPropertyOp6
 70
     1
102
RTVSPropertyOp7
 70
     1
102
RTVSPropertyOp8
 70
     1
102
RTVSPropertyOp9
 70
     1
102
RTVSPropertyOp10
 70
     1
102
RTVSPropertyOp11
 70
     1
102
RTVSPropertyOp12
 70
     1
102
RTVSPropertyOp13
 70
     1
102
RTVSPropertyOp14
 70
     1
102
RTVSPropertyOp15
 70
     1
102
RTVSPropertyOp16
 70
     1
102
RTVSPropertyOp17
 70
     1
102
RTVSPropertyOp18
 70
     1
102
RTVSPropertyOp19
 70
     1
102
RTVSPropertyOp20
 70
     1
102
RTVSPropertyOp21
 70
     1
102
RTVSPropertyOp22
 70
     1
102
RTVSPropertyOp23
 70
     1
102
RTVSPropertyOp24
 70
     1
102
RTVSPropertyOp25
 70
     1
102
RTVSPropertyOp26
 70
     1
102
RTVSPropertyOp27
 70
     1
102
RTVSPropertyOp28
 70
     1
102
RTVSPropertyOp29
 70
     1
102
RTVSPropertyOp30
 70
     1
102
RTVSPropertyOp31
 70
     1
102
RTVSPropertyOp32
 70
     1
  0
XRECORD
  5
59
102
{ACAD_REACTORS
330
58
102
}
330
58
100
AcDbXrecord
280
     1
102
RTVSPropertyOp0
 70
     1
102
RTVSPropertyOp1
 70
     1
102
RTVSPropertyOp2
 70
     1
102
RTVSPropertyOp3
 70
     1
102
RTVSPropertyOp4
 70
     1
102
RTVSPropertyOp5
 70
     1
102
RTVSPropertyOp6
 70
     1
102
RTVSPropertyOp7
 70
     1
102
RTVSPropertyOp8
 70
     1
102
RTVSPropertyOp9
 70
     1
102
RTVSPropertyOp10
 70
     1
102
RTVSPropertyOp11
 70
     1
102
RTVSPropertyOp12
 70
     1
102
RTVSPropertyOp13
 70
     1
102
RTVSPropertyOp14
 70
     1
102
RTVSPropertyOp15
 70
     1
102
RTVSPropertyOp16
 70
     1
102
RTVSPropertyOp17
 70
     1
102
RTVSPropertyOp18
 70
     1
102
RTVSPropertyOp19
 70
     1
102
RTVSPropertyOp20
 70
     1
102
RTVSPropertyOp21
 70
     1
102
RTVSPropertyOp22
 70
     1
102
RTVSPropertyOp23
 70
     1
102
RTVSPropertyOp24
 70
     1
102
RTVSPropertyOp25
 70
     1
102
RTVSPropertyOp26
 70
     1
102
RTVSPropertyOp27
 70
     1
102
RTVSPropertyOp28
 70
     1
102
RTVSPropertyOp29
 70
     1
102
RTVSPropertyOp30
 70
     1
102
RTVSPropertyOp31
 70
     1
102
RTVSPropertyOp32
 70
     1
  0
XRECORD
  5
6D
102
{ACAD_REACTORS
330
6C
102
}
330
6C
100
AcDbXrecord
280
     1
102
RTVSPropertyOp0
 70
     1
102
RTVSPropertyOp1
 70
     1
102
RTVSPropertyOp2
 70
     1
102
RTVSPropertyOp3
 70
     1
102
RTVSPropertyOp4
 70
     1
102
RTVSPropertyOp5
 70
     1
102
RTVSPropertyOp6
 70
     1
102
RTVSPropertyOp7
 70
     1
102
RTVSPropertyOp8
 70
     1
102
RTVSPropertyOp9
 70
     1
102
RTVSPropertyOp10
 70
     1
102
RTVSPropertyOp11
 70
     1
102
RTVSPropertyOp12
 70
     1
102
RTVSPropertyOp13
 70
     1
102
RTVSPropertyOp14
 70
     1
102
RTVSPropertyOp15
 70
     1
102
RTVSPropertyOp16
 70
     1
102
RTVSPropertyOp17
 70
     1
102
RTVSPropertyOp18
 70
     1
102
RTVSPropertyOp19
 70
     1
102
RTVSPropertyOp20
 70
     1
102
RTVSPropertyOp21
 70
     1
102
RTVSPropertyOp22
 70
     1
102
RTVSPropertyOp23
 70
     1
102
RTVSPropertyOp24
 70
     1
102
RTVSPropertyOp25
 70
     1
102
RTVSPropertyOp26
 70
     1
102
RTVSPropertyOp27
 70
     1
102
RTVSPropertyOp28
 70
     1
102
RTVSPropertyOp29
 70
     1
102
RTVSPropertyOp30
 70
     1
102
RTVSPropertyOp31
 70
     1
102
RTVSPropertyOp32
 70
     1
  0
XRECORD
  5
63
102
{ACAD_REACTORS
330
62
102
}
330
62
100
AcDbXrecord
280
     1
102
RTVSPropertyOp0
 70
     1
102
RTVSPropertyOp1
 70
     1
102
RTVSPropertyOp2
 70
     1
102
RTVSPropertyOp3
 70
     1
102
RTVSPropertyOp4
 70
     1
102
RTVSPropertyOp5
 70
     1
102
RTVSPropertyOp6
 70
     1
102
RTVSPropertyOp7
 70
     1
102
RTVSPropertyOp8
 70
     1
102
RTVSPropertyOp9
 70
     1
102
RTVSPropertyOp10
 70
     1
102
RTVSPropertyOp11
 70
     1
102
RTVSPropertyOp12
 70
     1
102
RTVSPropertyOp13
 70
     1
102
RTVSPropertyOp14
 70
     1
102
RTVSPropertyOp15
 70
     1
102
RTVSPropertyOp16
 70
     1
102
RTVSPropertyOp17
 70
     1
102
RTVSPropertyOp18
 70
     1
102
RTVSPropertyOp19
 70
     1
102
RTVSPropertyOp20
 70
     1
102
RTVSPropertyOp21
 70
     1
102
RTVSPropertyOp22
 70
     1
102
RTVSPropertyOp23
 70
     1
102
RTVSPropertyOp24
 70
     1
102
RTVSPropertyOp25
 70
     1
102
RTVSPropertyOp26
 70
     1
102
RTVSPropertyOp27
 70
     1
102
RTVSPropertyOp28
 70
     1
102
RTVSPropertyOp29
 70
     1
102
RTVSPropertyOp30
 70
     1
102
RTVSPropertyOp31
 70
     1
102
RTVSPropertyOp32
 70
     1
  0
XRECORD
  5
6B
102
{ACAD_REACTORS
330
6A
102
}
330
6A
100
AcDbXrecord
280
     1
102
RTVSPropertyOp0
 70
     1
102
RTVSPropertyOp1
 70
     1
102
RTVSPropertyOp2
 70
     1
102
RTVSPropertyOp3
 70
     1
102
RTVSPropertyOp4
 70
     1
102
RTVSPropertyOp5
 70
     1
102
RTVSPropertyOp6
 70
     1
102
RTVSPropertyOp7
 70
     1
102
RTVSPropertyOp8
 70
     1
102
RTVSPropertyOp9
 70
     1
102
RTVSPropertyOp10
 70
     1
102
RTVSPropertyOp11
 70
     1
102
RTVSPropertyOp12
 70
     1
102
RTVSPropertyOp13
 70
     1
102
RTVSPropertyOp14
 70
     1
102
RTVSPropertyOp15
 70
     1
102
RTVSPropertyOp16
 70
     1
102
RTVSPropertyOp17
 70
     1
102
RTVSPropertyOp18
 70
     1
102
RTVSPropertyOp19
 70
     1
102
RTVSPropertyOp20
 70
     1
102
RTVSPropertyOp21
 70
     1
102
RTVSPropertyOp22
 70
     1
102
RTVSPropertyOp23
 70
     1
102
RTVSPropertyOp24
 70
     1
102
RTVSPropertyOp25
 70
     1
102
RTVSPropertyOp26
 70
     1
102
RTVSPropertyOp27
 70
     1
102
RTVSPropertyOp28
 70
     1
102
RTVSPropertyOp29
 70
     1
102
RTVSPropertyOp30
 70
     1
102
RTVSPropertyOp31
 70
     1
102
RTVSPropertyOp32
 70
     1
  0
ENDSEC
  0
EOF
