  0
SECTION
  2
HEADER
  9
$ACADVER
  1
AC1015
  9
$ACADMAINTVER
 70
     6
  9
$DWGCODEPAGE
  3
ANSI_1252
  9
$INSBASE
 10
0.0
 20
0.0
 30
0.0
  9
$EXTMIN
 10
0.0
 20
0.0
 30
0.0
  9
$EXTMAX
 10
8.5
 20
11.0
 30
0.0
  9
$LIMMIN
 10
0.0
 20
0.0
  9
$LIMMAX
 10
8.5
 20
11.0
  9
$ORTHOMODE
 70
     0
  9
$REGENMODE
 70
     1
  9
$FILLMODE
 70
     1
  9
$QTEXTMODE
 70
     0
  9
$MIRRTEXT
 70
     1
  9
$LTSCALE
 40
1.0
  9
$ATTMODE
 70
     1
  9
$TEXTSIZE
 40
0.1377952756
  9
$TRACEWID
 40
0.05
  9
$TEXTSTYLE
  7
Standard
  9
$CLAYER
  8
0
  9
$CELTYPE
  6
ByLayer
  9
$CECOLOR
 62
   256
  9
$CELTSCALE
 40
1.0
  9
$DISPSILH
 70
     0
  9
$DIMSCALE
 40
1.0
  9
$DIMASZ
 40
0.14
  9
$DIMEXO
 40
0.0393700787
  9
$DIMDLI
 40
0.38
  9
$DIMRND
 40
0.0
  9
$DIMDLE
 40
0.0
  9
$DIMEXE
 40
0.0393700787
  9
$DIMTP
 40
0.0
  9
$DIMTM
 40
0.0
  9
$DIMTXT
 40
0.1377952756
  9
$DIMCEN
 40
0.09
  9
$DIMTSZ
 40
0.0
  9
$DIMTOL
 70
     0
  9
$DIMLIM
 70
     0
  9
$DIMTIH
 70
     1
  9
$DIMTOH
 70
     1
  9
$DIMSE1
 70
     0
  9
$DIMSE2
 70
     0
  9
$DIMTAD
 70
     1
  9
$DIMZIN
 70
     1
  9
$DIMBLK
  1

  9
$DIMASO
 70
     1
  9
$DIMSHO
 70
     1
  9
$DIMPOST
  1

  9
$DIMAPOST
  1

  9
$DIMALT
 70
     0
  9
$DIMALTD
 70
     2
  9
$DIMALTF
 40
25.4
  9
$DIMLFAC
 40
1.0
  9
$DIMTOFL
 70
     0
  9
$DIMTVP
 40
0.0
  9
$DIMTIX
 70
     0
  9
$DIMSOXD
 70
     0
  9
$DIMSAH
 70
     0
  9
$DIMBLK1
  1

  9
$DIMBLK2
  1

  9
$DIMSTYLE
  2
Standard
  9
$DIMCLRD
 70
     0
  9
$DIMCLRE
 70
     0
  9
$DIMCLRT
 70
     0
  9
$DIMTFAC
 40
1.0
  9
$DIMGAP
 40
0.06
  9
$DIMJUST
 70
     0
  9
$DIMSD1
 70
     0
  9
$DIMSD2
 70
     0
  9
$DIMTOLJ
 70
     1
  9
$DIMTZIN
 70
     1
  9
$DIMALTZ
 70
     0
  9
$DIMALTTZ
 70
     0
  9
$DIMUPT
 70
     0
  9
$DIMDEC
 70
     4
  9
$DIMTDEC
 70
     4
  9
$DIMALTU
 70
     2
  9
$DIMALTTD
 70
     2
  9
$DIMTXSTY
  7
Standard
  9
$DIMAUNIT
 70
     0
  9
$DIMADEC
 70
     0
  9
$DIMALTRND
 40
0.0
  9
$DIMAZIN
 70
     0
  9
$DIMDSEP
 70
    46
  9
$DIMATFIT
 70
     3
  9
$DIMFRAC
 70
     0
  9
$DIMLDRBLK
  1

  9
$DIMLUNIT
 70
     2
  9
$DIMLWD
 70
    -2
  9
$DIMLWE
 70
    -2
  9
$DIMTMOVE
 70
     0
  9
$LUNITS
 70
     2
  9
$LUPREC
 70
     4
  9
$SKETCHINC
 40
0.1
  9
$FILLETRAD
 40
0.5
  9
$AUNITS
 70
     0
  9
$AUPREC
 70
     0
  9
$MENU
  1
.
  9
$ELEVATION
 40
0.0
  9
$PELEVATION
 40
0.0
  9
$THICKNESS
 40
0.0
  9
$LIMCHECK
 70
     0
  9
$CHAMFERA
 40
0.0
  9
$CHAMFERB
 40
0.0
  9
$CHAMFERC
 40
0.0
  9
$CHAMFERD
 40
0.0
  9
$SKPOLY
 70
     0
  9
$TDCREATE
 40
2457546.025559641
  9
$TDUCREATE
 40
2457546.150559641
  9
$TDUPDATE
 40
2457546.025561377
  9
$TDUUPDATE
 40
2457546.150561377
  9
$TDINDWG
 40
0.0000000116
  9
$TDUSRTIMER
 40
0.0000000116
  9
$USRTIMER
 70
     1
  9
$ANGBASE
 50
0.0
  9
$ANGDIR
 70
     0
  9
$PDMODE
 70
     0
  9
$PDSIZE
 40
-1.0
  9
$PLINEWID
 40
0.0
  9
$SPLFRAME
 70
     0
  9
$SPLINETYPE
 70
     6
  9
$SPLINESEGS
 70
     8
  9
$HANDSEED
  5
1EE
  9
$SURFTAB1
 70
     6
  9
$SURFTAB2
 70
     6
  9
$SURFTYPE
 70
     6
  9
$SURFU
 70
     6
  9
$SURFV
 70
     6
  9
$UCSBASE
  2

  9
$UCSNAME
  2

  9
$UCSORG
 10
0.0
 20
0.0
 30
0.0
  9
$UCSXDIR
 10
1.0
 20
0.0
 30
0.0
  9
$UCSYDIR
 10
0.0
 20
1.0
 30
0.0
  9
$UCSORTHOREF
  2

  9
$UCSORTHOVIEW
 70
     0
  9
$UCSORGTOP
 10
0.0
 20
0.0
 30
0.0
  9
$UCSORGBOTTOM
 10
0.0
 20
0.0
 30
0.0
  9
$UCSORGLEFT
 10
0.0
 20
0.0
 30
0.0
  9
$UCSORGRIGHT
 10
0.0
 20
0.0
 30
0.0
  9
$UCSORGFRONT
 10
0.0
 20
0.0
 30
0.0
  9
$UCSORGBACK
 10
0.0
 20
0.0
 30
0.0
  9
$PUCSBASE
  2

  9
$PUCSNAME
  2

  9
$PUCSORG
 10
0.0
 20
0.0
 30
0.0
  9
$PUCSXDIR
 10
1.0
 20
0.0
 30
0.0
  9
$PUCSYDIR
 10
0.0
 20
1.0
 30
0.0
  9
$PUCSORTHOREF
  2

  9
$PUCSORTHOVIEW
 70
     0
  9
$PUCSORGTOP
 10
0.0
 20
0.0
 30
0.0
  9
$PUCSORGBOTTOM
 10
0.0
 20
0.0
 30
0.0
  9
$PUCSORGLEFT
 10
0.0
 20
0.0
 30
0.0
  9
$PUCSORGRIGHT
 10
0.0
 20
0.0
 30
0.0
  9
$PUCSORGFRONT
 10
0.0
 20
0.0
 30
0.0
  9
$PUCSORGBACK
 10
0.0
 20
0.0
 30
0.0
  9
$USERI1
 70
     0
  9
$USERI2
 70
     0
  9
$USERI3
 70
     0
  9
$USERI4
 70
     0
  9
$USERI5
 70
     0
  9
$USERR1
 40
0.0
  9
$USERR2
 40
0.0
  9
$USERR3
 40
0.0
  9
$USERR4
 40
0.0
  9
$USERR5
 40
0.0
  9
$WORLDVIEW
 70
     1
  9
$SHADEDGE
 70
     3
  9
$SHADEDIF
 70
    70
  9
$TILEMODE
 70
     1
  9
$MAXACTVP
 70
    64
  9
$PINSBASE
 10
0.0
 20
0.0
 30
0.0
  9
$PLIMCHECK
 70
     0
  9
$PEXTMIN
 10
1.0000000000E+20
 20
1.0000000000E+20
 30
1.0000000000E+20
  9
$PEXTMAX
 10
-1.0000000000E+20
 20
-1.0000000000E+20
 30
-1.0000000000E+20
  9
$PLIMMIN
 10
0.0
 20
0.0
  9
$PLIMMAX
 10
12.0
 20
9.0
  9
$UNITMODE
 70
     0
  9
$VISRETAIN
 70
     1
  9
$PLINEGEN
 70
     0
  9
$PSLTSCALE
 70
     1
  9
$TREEDEPTH
 70
  3020
  9
$CMLSTYLE
  2
Standard
  9
$CMLJUST
 70
     0
  9
$CMLSCALE
 40
1.0
  9
$PROXYGRAPHICS
 70
     1
  9
$MEASUREMENT
 70
     0
  9
$CELWEIGHT
370
    -1
  9
$ENDCAPS
280
     0
  9
$JOINSTYLE
280
     0
  9
$LWDISPLAY
290
     1
  9
$INSUNITS
 70
     1
  9
$HYPERLINKBASE
  1

  9
$STYLESHEET
  1

  9
$XEDIT
290
     1
  9
$CEPSNTYPE
380
     0
  9
$PSTYLEMODE
290
     1
  9
$FINGERPRINTGUID
  2
{39AAA302-70B1-4A4B-B434-BBE4934F6F0F}
  9
$VERSIONGUID
  2
{FAEB1C32-E019-11D5-929B-00C0DF256EC4}
  9
$EXTNAMES
290
     1
  9
$PSVPSCALE
 40
0.0
  9
$OLESTARTUP
290
     0
  0
ENDSEC
  0
SECTION
  2
CLASSES
  0
CLASS
  1
ACDBDICTIONARYWDFLT
  2
AcDbDictionaryWithDefault
  3
ObjectDBX Classes
 90
        0
280
     0
281
     0
  0
CLASS
  1
VISUALSTYLE
  2
AcDbVisualStyle
  3
ObjectDBX Classes
 90
     4095
280
     0
281
     0
  0
CLASS
  1
MATERIAL
  2
AcDbMaterial
  3
ObjectDBX Classes
 90
     1153
280
     0
281
     0
  0
CLASS
  1
SCALE
  2
AcDbScale
  3
ObjectDBX Classes
 90
     1153
280
     0
281
     0
  0
CLASS
  1
TABLESTYLE
  2
AcDbTableStyle
  3
ObjectDBX Classes
 90
     4095
280
     0
281
     0
  0
CLASS
  1
MLEADERSTYLE
  2
AcDbMLeaderStyle
  3
ACDB_MLEADERSTYLE_CLASS
 90
     4095
280
     0
281
     0
  0
CLASS
  1
SUN
  2
AcDbSun
  3
SCENEOE
 90
     1153
280
     0
281
     0
  0
CLASS
  1
ACDBPLACEHOLDER
  2
AcDbPlaceHolder
  3
ObjectDBX Classes
 90
        0
280
     0
281
     0
  0
CLASS
  1
LAYOUT
  2
AcDbLayout
  3
ObjectDBX Classes
 90
        0
280
     0
281
     0
  0
ENDSEC
  0
SECTION
  2
TABLES
  0
TABLE
  2
VPORT
  5
8
330
0
100
AcDbSymbolTable
 70
     1
  0
VPORT
  5
29
330
8
100
AcDbSymbolTableRecord
100
AcDbViewportTableRecord
  2
*Active
 70
     0
 10
0.0
 20
0.0
 11
1.0
 21
1.0
 12
4.25
 22
5.5
 13
0.0
 23
0.0
 14
0.5
 24
0.5
 15
0.5
 25
0.5
 16
0.0
 26
0.0
 36
1.0
 17
0.0
 27
0.0
 37
0.0
 40
11.0
 41
0.7727272727
 42
50.0
 43
0.0
 44
0.0
 50
0.0
 51
0.0
 71
     0
 72
  2000
 73
     1
 74
     3
 75
     0
 76
     0
 77
     0
 78
     0
281
     0
 65
     1
110
0.0
120
0.0
130
0.0
111
1.0
121
0.0
131
0.0
112
0.0
122
1.0
132
0.0
 79
     0
146
0.0
  0
ENDTAB
  0
TABLE
  2
LTYPE
  5
5
330
0
100
AcDbSymbolTable
 70
     6
  0
LTYPE
  5
14
330
5
100
AcDbSymbolTableRecord
100
AcDbLinetypeTableRecord
  2
ByBlock
 70
     0
  3

 72
    65
 73
     0
 40
0.0
  0
LTYPE
  5
15
330
5
100
AcDbSymbolTableRecord
100
AcDbLinetypeTableRecord
  2
ByLayer
 70
     0
  3

 72
    65
 73
     0
 40
0.0
  0
LTYPE
  5
16
330
5
100
AcDbSymbolTableRecord
100
AcDbLinetypeTableRecord
  2
Continuous
 70
     0
  3
Solid line
 72
    65
 73
     0
 40
0.0
  0
LTYPE
  5
6E
330
5
100
AcDbSymbolTableRecord
100
AcDbLinetypeTableRecord
  2
HIDDEN
 70
     0
  3
Hidden __ __ __ __ __ __ __ __ __ __ __ __ __ __
 72
    65
 73
     2
 40
0.075
 49
0.05
 74
     0
 49
-0.025
 74
     0
  0
LTYPE
  5
6F
330
5
100
AcDbSymbolTableRecord
100
AcDbLinetypeTableRecord
  2
PHANTOM
 70
     0
  3
Phantom ______  __  __  ______  __  __  ______
 72
    65
 73
     6
 40
0.5
 49
0.25
 74
     0
 49
-0.05
 74
     0
 49
0.05
 74
     0
 49
-0.05
 74
     0
 49
0.05
 74
     0
 49
-0.05
 74
     0
  0
LTYPE
  5
70
330
5
100
AcDbSymbolTableRecord
100
AcDbLinetypeTableRecord
  2
CENTER
 70
     0
  3
Center ____ _ ____ _ ____ _ ____ _ ____ _ ____
 72
    65
 73
     4
 40
0.4
 49
0.25
 74
     0
 49
-0.05
 74
     0
 49
0.05
 74
     0
 49
-0.05
 74
     0
  0
LTYPE
  5
71
330
5
100
AcDbSymbolTableRecord
100
AcDbLinetypeTableRecord
  2
CENTERX2
 70
     0
  3
Center (2x) ________  __  ________  __  _____
 72
    65
 73
     4
 40
0.8
 49
0.5
 74
     0
 49
-0.1
 74
     0
 49
0.1
 74
     0
 49
-0.1
 74
     0
  0
LTYPE
  5
72
330
5
100
AcDbSymbolTableRecord
100
AcDbLinetypeTableRecord
  2
DOT2
 70
     0
  3
Dot (.5x) ........................................
 72
    65
 73
     2
 40
0.025
 49
0.0
 74
     0
 49
-0.025
 74
     0
  0
ENDTAB
  0
TABLE
  2
LAYER
  5
2
330
0
100
AcDbSymbolTable
 70
     3
  0
LAYER
  5
10
330
2
100
AcDbSymbolTableRecord
100
AcDbLayerTableRecord
  2
0
 70
     0
 62
     7
  6
Continuous
370
    -3
390
F
  0
LAYER
  5
73
330
2
100
AcDbSymbolTableRecord
100
AcDbLayerTableRecord
  2
SLD-0
 70
     0
 62
   179
  6
Continuous
370
    -3
390
F
  0
LAYER
  5
74
330
2
100
AcDbSymbolTableRecord
100
AcDbLayerTableRecord
  2
CAMADA_1
 70
     0
 62
   179
  6
Continuous
370
    -3
390
F
  0
ENDTAB
  0
TABLE
  2
STYLE
  5
3
330
0
100
AcDbSymbolTable
 70
     1
  0
STYLE
  5
11
330
3
100
AcDbSymbolTableRecord
100
AcDbTextStyleTableRecord
  2
Standard
 70
     0
 40
0.0
 41
1.0
 50
0.0
 71
     0
 42
0.1377952756
  3
txt
  4

  0
ENDTAB
  0
TABLE
  2
VIEW
  5
6
330
0
100
AcDbSymbolTable
 70
     0
  0
ENDTAB
  0
TABLE
  2
UCS
  5
7
330
0
100
AcDbSymbolTable
 70
     0
  0
ENDTAB
  0
TABLE
  2
APPID
  5
9
330
0
100
AcDbSymbolTable
 70
     1
  0
APPID
  5
12
330
9
100
AcDbSymbolTableRecord
100
AcDbRegAppTableRecord
  2
ACAD
 70
     0
  0
ENDTAB
  0
TABLE
  2
DIMSTYLE
  5
A
330
0
100
AcDbSymbolTable
 70
     1
100
AcDbDimStyleTable
  0
DIMSTYLE
105
27
330
A
100
AcDbSymbolTableRecord
100
AcDbDimStyleTableRecord
  2
Standard
 70
     0
178
     0
340
11
  0
ENDTAB
  0
TABLE
  2
BLOCK_RECORD
  5
1
330
0
100
AcDbSymbolTable
 70
     1
  0
BLOCK_RECORD
  5
1F
330
1
100
AcDbSymbolTableRecord
100
AcDbBlockTableRecord
  2
*Model_Space
340
22
  0
BLOCK_RECORD
  5
1B
330
1
100
AcDbSymbolTableRecord
100
AcDbBlockTableRecord
  2
*Paper_Space
340
1E
  0
BLOCK_RECORD
  5
23
330
1
100
AcDbSymbolTableRecord
100
AcDbBlockTableRecord
  2
*Paper_Space0
340
26
  0
ENDTAB
  0
ENDSEC
  0
SECTION
  2
BLOCKS
  0
BLOCK
  5
20
330
1F
100
AcDbEntity
  8
0
100
AcDbBlockBegin
  2
*Model_Space
 70
     0
 10
0.0
 20
0.0
 30
0.0
  3
*Model_Space
  1

  0
ENDBLK
  5
21
330
1F
100
AcDbEntity
  8
0
100
AcDbBlockEnd
  0
BLOCK
  5
1C
330
1B
100
AcDbEntity
 67
     1
  8
0
100
AcDbBlockBegin
  2
*Paper_Space
 70
     0
 10
0.0
 20
0.0
 30
0.0
  3
*Paper_Space
  1

  0
ENDBLK
  5
1D
330
1B
100
AcDbEntity
 67
     1
  8
0
100
AcDbBlockEnd
  0
BLOCK
  5
24
330
23
100
AcDbEntity
  8
0
100
AcDbBlockBegin
  2
*Paper_Space0
 70
     0
 10
0.0
 20
0.0
 30
0.0
  3
*Paper_Space0
  1

  0
ENDBLK
  5
25
330
23
100
AcDbEntity
  8
0
100
AcDbBlockEnd
  0
ENDSEC
  0
SECTION
  2
ENTITIES
  0
LINE
  5
75
330
1F
100
AcDbEntity
  8
CAMADA_1
 62
    20
100
AcDbLine
 10
-0.55552
 20
-6.68262
 30
0.0
 11
0.1487
 21
-6.67856
 31
0.0
  0
LINE
  5
76
330
1F
100
AcDbEntity
  8
CAMADA_1
 62
    20
100
AcDbLine
 10
-1.96404
 20
-7.09095
 30
0.0
 11
-1.96395
 21
-5.22146
 31
0.0
  0
LINE
  5
77
330
1F
100
AcDbEntity
  8
CAMADA_1
 62
    20
100
AcDbLine
 10
0.15284
 20
-5.36255
 30
0.0
 11
0.15102
 21
-5.83455
 31
0.0
  0
LINE
  5
78
330
1F
100
AcDbEntity
  8
CAMADA_1
 62
    20
100
AcDbLine
 10
-0.57012
 20
-6.35038
 30
0.0
 11
-1.09478
 21
-6.74221
 31
0.0
  0
LINE
  5
79
330
1F
100
AcDbEntity
  8
CAMADA_1
 62
    20
100
AcDbLine
 10
3.65417
 20
-5.63642
 30
0.0
 11
2.95898
 21
-5.63631
 31
0.0
  0
LINE
  5
7A
330
1F
100
AcDbEntity
  8
CAMADA_1
 62
    20
100
AcDbLine
 10
1.90732
 20
-6.67599
 30
0.0
 11
2.59588
 21
-6.67611
 31
0.0
  0
LINE
  5
7B
330
1F
100
AcDbEntity
  8
CAMADA_1
 62
    20
100
AcDbLine
 10
2.59578
 20
-5.63642
 30
0.0
 11
1.90732
 21
-5.63638
 31
0.0
  0
LINE
  5
7C
330
1F
100
AcDbEntity
  8
CAMADA_1
 62
    20
100
AcDbLine
 10
-3.32163
 20
-8.08752
 30
0.0
 11
-3.35691
 21
-8.0786
 31
0.0
  0
LINE
  5
7D
330
1F
100
AcDbEntity
  8
CAMADA_1
 62
    20
100
AcDbLine
 10
-3.35691
 20
-8.0786
 30
0.0
 11
-3.35691
 21
-8.78407
 31
0.0
  0
LINE
  5
7E
330
1F
100
AcDbEntity
  8
CAMADA_1
 62
    20
100
AcDbLine
 10
-3.35691
 20
-8.78407
 30
0.0
 11
-2.51035
 21
-8.78407
 31
0.0
  0
LINE
  5
7F
330
1F
100
AcDbEntity
  8
CAMADA_1
 62
    20
100
AcDbLine
 10
-2.51035
 20
-8.78407
 30
0.0
 11
5.07354
 21
-8.78407
 31
0.0
  0
LINE
  5
80
330
1F
100
AcDbEntity
  8
CAMADA_1
 62
    20
100
AcDbLine
 10
5.07354
 20
-8.78407
 30
0.0
 11
5.07341
 21
-8.08247
 31
0.0
  0
LINE
  5
81
330
1F
100
AcDbEntity
  8
CAMADA_1
 62
    20
100
AcDbLine
 10
5.07341
 20
-8.08247
 30
0.0
 11
5.76239
 21
-8.08303
 31
0.0
  0
LINE
  5
82
330
1F
100
AcDbEntity
  8
CAMADA_1
 62
    20
100
AcDbLine
 10
5.76239
 20
-8.08303
 30
0.0
 11
5.7584
 21
-3.17561
 31
0.0
  0
LINE
  5
83
330
1F
100
AcDbEntity
  8
CAMADA_1
 62
    20
100
AcDbLine
 10
5.7584
 20
-3.17561
 30
0.0
 11
1.89882
 21
-3.17552
 31
0.0
  0
LINE
  5
84
330
1F
100
AcDbEntity
  8
CAMADA_1
 62
    20
100
AcDbLine
 10
1.89882
 20
-3.17552
 30
0.0
 11
-1.25792
 21
-3.18158
 31
0.0
  0
LINE
  5
85
330
1F
100
AcDbEntity
  8
CAMADA_1
 62
    20
100
AcDbLine
 10
-1.25792
 20
-3.18158
 30
0.0
 11
-1.25767
 21
-3.86417
 31
0.0
  0
LINE
  5
86
330
1F
100
AcDbEntity
  8
CAMADA_1
 62
    20
100
AcDbLine
 10
-1.25767
 20
-3.86417
 30
0.0
 11
-2.65994
 21
-3.88223
 31
0.0
  0
LINE
  5
87
330
1F
100
AcDbEntity
  8
CAMADA_1
 62
    20
100
AcDbLine
 10
-2.65994
 20
-3.88223
 30
0.0
 11
-2.65986
 21
-8.07665
 31
0.0
  0
LINE
  5
88
330
1F
100
AcDbEntity
  8
CAMADA_1
 62
    20
100
AcDbLine
 10
-2.65986
 20
-8.07665
 30
0.0
 11
-3.32163
 21
-8.08752
 31
0.0
  0
LINE
  5
89
330
1F
100
AcDbEntity
  8
CAMADA_1
 62
    20
100
AcDbLine
 10
-0.90129
 20
2.44637
 30
0.0
 11
-0.22608
 21
2.45147
 31
0.0
  0
LINE
  5
8A
330
1F
100
AcDbEntity
  8
CAMADA_1
 62
    20
100
AcDbLine
 10
2.94827
 20
3.91434
 30
0.0
 11
2.94827
 21
4.20528
 31
0.0
  0
LINE
  5
8B
330
1F
100
AcDbEntity
  8
CAMADA_1
 62
    20
100
AcDbLine
 10
2.94827
 20
4.20528
 30
0.0
 11
3.66249
 21
4.20535
 31
0.0
  0
LINE
  5
8C
330
1F
100
AcDbEntity
  8
CAMADA_1
 62
    20
100
AcDbLine
 10
3.66249
 20
4.20535
 30
0.0
 11
3.66254
 21
3.91434
 31
0.0
  0
LINE
  5
8D
330
1F
100
AcDbEntity
  8
CAMADA_1
 62
    20
100
AcDbLine
 10
1.54609
 20
3.84379
 30
0.0
 11
1.54597
 21
5.60746
 31
0.0
  0
LINE
  5
8E
330
1F
100
AcDbEntity
  8
CAMADA_1
 62
    20
100
AcDbLine
 10
-3.71386
 20
7.71543
 30
0.0
 11
-3.72698
 21
7.00011
 31
0.0
  0
LINE
  5
8F
330
1F
100
AcDbEntity
  8
CAMADA_1
 62
    20
100
AcDbLine
 10
-4.7675
 20
5.60759
 30
0.0
 11
-4.06237
 21
5.60764
 31
0.0
  0
LINE
  5
90
330
1F
100
AcDbEntity
  8
CAMADA_1
 62
    20
100
AcDbLine
 10
-4.06237
 20
5.60764
 30
0.0
 11
-4.06203
 21
4.89316
 31
0.0
  0
LINE
  5
91
330
1F
100
AcDbEntity
  8
CAMADA_1
 62
    20
100
AcDbLine
 10
-4.06203
 20
4.89316
 30
0.0
 11
-4.75909
 21
4.89324
 31
0.0
  0
LINE
  5
92
330
1F
100
AcDbEntity
  8
CAMADA_1
 62
    20
100
AcDbLine
 10
-3.70959
 20
3.49981
 30
0.0
 11
-3.70989
 21
2.78974
 31
0.0
  0
LINE
  5
93
330
1F
100
AcDbEntity
  8
CAMADA_1
 62
    20
100
AcDbLine
 10
-3.70989
 20
2.78974
 30
0.0
 11
-3.36543
 21
2.78625
 31
0.0
  0
LINE
  5
94
330
1F
100
AcDbEntity
  8
CAMADA_1
 62
    20
100
AcDbLine
 10
-3.36543
 20
2.78625
 30
0.0
 11
-3.36515
 21
6.65734
 31
0.0
  0
LINE
  5
95
330
1F
100
AcDbEntity
  8
CAMADA_1
 62
    20
100
AcDbLine
 10
-1.26732
 20
5.76087
 30
0.0
 11
-1.25893
 21
2.79452
 31
0.0
  0
LINE
  5
96
330
1F
100
AcDbEntity
  8
CAMADA_1
 62
    20
100
AcDbLine
 10
-1.2157
 20
1.03552
 30
0.0
 11
-0.16962
 21
1.01994
 31
0.0
  0
LINE
  5
97
330
1F
100
AcDbEntity
  8
CAMADA_1
 62
    20
100
AcDbLine
 10
0.46274
 20
1.01763
 30
0.0
 11
1.5448
 21
1.03115
 31
0.0
  0
LINE
  5
98
330
1F
100
AcDbEntity
  8
CAMADA_1
 62
    20
100
AcDbLine
 10
1.5448
 20
1.03115
 30
0.0
 11
1.55623
 21
2.07697
 31
0.0
  0
LINE
  5
99
330
1F
100
AcDbEntity
  8
CAMADA_1
 62
    20
100
AcDbLine
 10
1.55623
 20
2.07697
 30
0.0
 11
2.60429
 21
2.08126
 31
0.0
  0
LINE
  5
9A
330
1F
100
AcDbEntity
  8
CAMADA_1
 62
    20
100
AcDbLine
 10
4.35917
 20
2.1154
 30
0.0
 11
4.35975
 21
7.69769
 31
0.0
  0
LINE
  5
9B
330
1F
100
AcDbEntity
  8
CAMADA_1
 62
    20
100
AcDbLine
 10
4.35975
 20
7.69769
 30
0.0
 11
4.4385
 21
7.69769
 31
0.0
  0
LINE
  5
9C
330
1F
100
AcDbEntity
  8
CAMADA_1
 62
    20
100
AcDbLine
 10
-2.6741
 20
8.74679
 30
0.0
 11
-2.66807
 21
7.71572
 31
0.0
  0
LINE
  5
9D
330
1F
100
AcDbEntity
  8
CAMADA_1
 62
    20
100
AcDbLine
 10
-2.66807
 20
7.71572
 30
0.0
 11
-3.71386
 21
7.71543
 31
0.0
  0
LINE
  5
9E
330
1F
100
AcDbEntity
  8
CAMADA_1
 62
    22
100
AcDbLine
 10
-2.65999
 20
-2.81436
 30
0.0
 11
-3.36572
 21
-2.82291
 31
0.0
  0
LINE
  5
9F
330
1F
100
AcDbEntity
  8
CAMADA_1
 62
    22
100
AcDbLine
 10
-3.36572
 20
-2.82291
 30
0.0
 11
-3.3657
 21
2.45034
 31
0.0
  0
LINE
  5
A0
330
1F
100
AcDbEntity
  8
CAMADA_1
 62
    22
100
AcDbLine
 10
-3.3657
 20
2.45034
 30
0.0
 11
-2.65971
 21
2.44051
 31
0.0
  0
LINE
  5
A1
330
1F
100
AcDbEntity
  8
CAMADA_1
 62
    22
100
AcDbLine
 10
-1.25809
 20
-0.001
 30
0.0
 11
-1.25821
 21
-2.82297
 31
0.0
  0
LINE
  5
A2
330
1F
100
AcDbEntity
  8
CAMADA_1
 62
    22
100
AcDbLine
 10
-1.25821
 20
-2.82297
 30
0.0
 11
-1.96434
 21
-2.81015
 31
0.0
  0
LINE
  5
A3
330
1F
100
AcDbEntity
  8
CAMADA_1
 62
    22
100
AcDbLine
 10
-1.96434
 20
-2.81015
 30
0.0
 11
-1.96248
 21
-0.1767
 31
0.0
  0
LINE
  5
A4
330
1F
100
AcDbEntity
  8
CAMADA_1
 62
    22
100
AcDbLine
 10
-2.66
 20
0.33387
 30
0.0
 11
-2.65999
 21
-2.81436
 31
0.0
  0
LINE
  5
A5
330
1F
100
AcDbEntity
  8
CAMADA_1
 62
    22
100
AcDbLine
 10
-3.70964
 20
-2.82287
 30
0.0
 11
-4.42392
 21
-2.82293
 31
0.0
  0
LINE
  5
A6
330
1F
100
AcDbEntity
  8
CAMADA_1
 62
    22
100
AcDbLine
 10
-4.42392
 20
-2.82293
 30
0.0
 11
-4.43275
 21
0.0561
 31
0.0
  0
LINE
  5
A7
330
1F
100
AcDbEntity
  8
CAMADA_1
 62
    22
100
AcDbLine
 10
-5.10309
 20
0.33425
 30
0.0
 11
-5.12109
 21
-2.82295
 31
0.0
  0
LINE
  5
A8
330
1F
100
AcDbEntity
  8
CAMADA_1
 62
    22
100
AcDbLine
 10
-5.12109
 20
-2.82295
 30
0.0
 11
-5.82604
 21
-2.82293
 31
0.0
  0
LINE
  5
A9
330
1F
100
AcDbEntity
  8
CAMADA_1
 62
    22
100
AcDbLine
 10
-5.82604
 20
-2.82293
 30
0.0
 11
-5.82612
 21
1.03921
 31
0.0
  0
LINE
  5
AA
330
1F
100
AcDbEntity
  8
CAMADA_1
 62
    22
100
AcDbLine
 10
-5.82612
 20
1.03921
 30
0.0
 11
-6.53142
 21
1.03898
 31
0.0
  0
LINE
  5
AB
330
1F
100
AcDbEntity
  8
CAMADA_1
 62
    22
100
AcDbLine
 10
-6.53142
 20
1.03898
 30
0.0
 11
-6.52271
 21
-3.88107
 31
0.0
  0
LINE
  5
AC
330
1F
100
AcDbEntity
  8
CAMADA_1
 62
    22
100
AcDbLine
 10
-6.52271
 20
-3.88107
 30
0.0
 11
-4.41511
 21
-3.88107
 31
0.0
  0
LINE
  5
AD
330
1F
100
AcDbEntity
  8
CAMADA_1
 62
    22
100
AcDbLine
 10
-4.41511
 20
-3.88107
 30
0.0
 11
-4.42392
 21
-3.8458
 31
0.0
  0
LINE
  5
AE
330
1F
100
AcDbEntity
  8
CAMADA_1
 62
    22
100
AcDbLine
 10
-4.42392
 20
-3.8458
 30
0.0
 11
-4.42388
 21
-3.16679
 31
0.0
  0
LINE
  5
AF
330
1F
100
AcDbEntity
  8
CAMADA_1
 62
    22
100
AcDbLine
 10
-4.42388
 20
-3.16679
 30
0.0
 11
-1.25792
 21
-3.18158
 31
0.0
  0
LINE
  5
B0
330
1F
100
AcDbEntity
  8
CAMADA_1
 62
    22
100
AcDbLine
 10
-1.25792
 20
-3.18158
 30
0.0
 11
1.89882
 21
-3.17552
 31
0.0
  0
LINE
  5
B1
330
1F
100
AcDbEntity
  8
CAMADA_1
 62
    22
100
AcDbLine
 10
1.89882
 20
-3.17552
 30
0.0
 11
1.89882
 21
-2.0926
 31
0.0
  0
LINE
  5
B2
330
1F
100
AcDbEntity
  8
CAMADA_1
 62
    22
100
AcDbLine
 10
1.19829
 20
0.10547
 30
0.0
 11
1.20838
 21
-1.40662
 31
0.0
  0
LINE
  5
B3
330
1F
100
AcDbEntity
  8
CAMADA_1
 62
    22
100
AcDbLine
 10
-0.78801
 20
0.50614
 30
0.0
 11
-0.74869
 21
0.58019
 31
0.0
  0
LINE
  5
B4
330
1F
100
AcDbEntity
  8
CAMADA_1
 62
    22
100
AcDbLine
 10
-1.25893
 20
2.79452
 30
0.0
 11
-1.96372
 21
2.79814
 31
0.0
  0
LINE
  5
B5
330
1F
100
AcDbEntity
  8
CAMADA_1
 62
    22
100
AcDbLine
 10
-1.96372
 20
2.79814
 30
0.0
 11
-2.66029
 21
2.79393
 31
0.0
  0
LINE
  5
B6
330
1F
100
AcDbEntity
  8
CAMADA_1
 62
    22
100
AcDbLine
 10
-2.66029
 20
2.79393
 30
0.0
 11
-3.36543
 21
2.78625
 31
0.0
  0
LINE
  5
B7
330
1F
100
AcDbEntity
  8
CAMADA_1
 62
    22
100
AcDbLine
 10
-3.36543
 20
2.78625
 30
0.0
 11
-3.70989
 21
2.78974
 31
0.0
  0
LINE
  5
B8
330
1F
100
AcDbEntity
  8
CAMADA_1
 62
    22
100
AcDbLine
 10
-3.70989
 20
2.78974
 30
0.0
 11
-4.6156
 21
2.79572
 31
0.0
  0
LINE
  5
B9
330
1F
100
AcDbEntity
  8
CAMADA_1
 62
    22
100
AcDbLine
 10
-4.6156
 20
2.79572
 30
0.0
 11
-5.82604
 21
2.79441
 31
0.0
  0
LINE
  5
BA
330
1F
100
AcDbEntity
  8
CAMADA_1
 62
    22
100
AcDbLine
 10
-5.82604
 20
2.79441
 30
0.0
 11
-5.82592
 21
1.05078
 31
0.0
  0
LINE
  5
BB
330
1F
100
AcDbEntity
  8
CAMADA_1
 62
    22
100
AcDbLine
 10
-5.82592
 20
1.05078
 30
0.0
 11
-4.62195
 21
1.0338
 31
0.0
  0
LINE
  5
BC
330
1F
100
AcDbEntity
  8
CAMADA_1
 62
    20
100
AcDbLine
 10
-6.52271
 20
-3.88107
 30
0.0
 11
-6.53142
 21
1.03898
 31
0.0
  0
LINE
  5
BD
330
1F
100
AcDbEntity
  8
CAMADA_1
 62
    20
100
AcDbLine
 10
-6.53142
 20
1.03898
 30
0.0
 11
-5.82612
 21
1.03921
 31
0.0
  0
LINE
  5
BE
330
1F
100
AcDbEntity
  8
CAMADA_1
 62
    20
100
AcDbLine
 10
-5.82612
 20
1.03921
 30
0.0
 11
-4.62195
 21
1.0338
 31
0.0
  0
LINE
  5
BF
330
1F
100
AcDbEntity
  8
CAMADA_1
 62
    20
100
AcDbLine
 10
-4.62195
 20
1.0338
 30
0.0
 11
-5.82592
 21
1.05078
 31
0.0
  0
LINE
  5
C0
330
1F
100
AcDbEntity
  8
CAMADA_1
 62
    20
100
AcDbLine
 10
-5.82592
 20
1.05078
 30
0.0
 11
-5.82604
 21
2.79441
 31
0.0
  0
LINE
  5
C1
330
1F
100
AcDbEntity
  8
CAMADA_1
 62
    20
100
AcDbLine
 10
-5.82604
 20
2.79441
 30
0.0
 11
-4.6156
 21
2.79572
 31
0.0
  0
LINE
  5
C2
330
1F
100
AcDbEntity
  8
CAMADA_1
 62
    20
100
AcDbLine
 10
-3.71386
 20
7.71543
 30
0.0
 11
-3.70919
 21
8.74679
 31
0.0
  0
LINE
  5
C3
330
1F
100
AcDbEntity
  8
CAMADA_1
 62
    20
100
AcDbLine
 10
-3.70919
 20
8.74679
 30
0.0
 11
-6.49623
 21
8.74679
 31
0.0
  0
LINE
  5
C4
330
1F
100
AcDbEntity
  8
CAMADA_1
 62
    20
100
AcDbLine
 10
-6.53151
 20
2.78559
 30
0.0
 11
-6.88424
 21
2.78559
 31
0.0
  0
LINE
  5
C5
330
1F
100
AcDbEntity
  8
CAMADA_1
 62
    20
100
AcDbLine
 10
-6.88424
 20
2.78559
 30
0.0
 11
-6.88424
 21
1.02192
 31
0.0
  0
LINE
  5
C6
330
1F
100
AcDbEntity
  8
CAMADA_1
 62
    20
100
AcDbLine
 10
-6.88424
 20
1.02192
 30
0.0
 11
-7.55443
 21
1.02192
 31
0.0
  0
LINE
  5
C7
330
1F
100
AcDbEntity
  8
CAMADA_1
 62
    20
100
AcDbLine
 10
-7.55443
 20
1.02192
 30
0.0
 11
-7.55443
 21
-3.88107
 31
0.0
  0
LINE
  5
C8
330
1F
100
AcDbEntity
  8
CAMADA_1
 62
    20
100
AcDbLine
 10
-7.55443
 20
-3.88107
 30
0.0
 11
-6.52271
 21
-3.88107
 31
0.0
  0
LINE
  5
C9
330
1F
100
AcDbEntity
  8
CAMADA_1
 62
   179
100
AcDbLine
 10
-0.22608
 20
2.45147
 30
0.0
 11
-0.90129
 21
2.44637
 31
0.0
  0
LINE
  5
CA
330
1F
100
AcDbEntity
  8
CAMADA_1
 62
   179
100
AcDbLine
 10
-1.96248
 20
-0.1767
 30
0.0
 11
-1.96434
 21
-2.81015
 31
0.0
  0
LINE
  5
CB
330
1F
100
AcDbEntity
  8
CAMADA_1
 62
   179
100
AcDbLine
 10
-1.96434
 20
-2.81015
 30
0.0
 11
-1.25821
 21
-2.82297
 31
0.0
  0
LINE
  5
CC
330
1F
100
AcDbEntity
  8
CAMADA_1
 62
   179
100
AcDbLine
 10
-1.25821
 20
-2.82297
 30
0.0
 11
-1.25809
 21
-0.001
 31
0.0
  0
LINE
  5
CD
330
1F
100
AcDbEntity
  8
CAMADA_1
 62
   179
100
AcDbLine
 10
-2.65971
 20
2.44051
 30
0.0
 11
-3.3657
 21
2.45034
 31
0.0
  0
LINE
  5
CE
330
1F
100
AcDbEntity
  8
CAMADA_1
 62
   179
100
AcDbLine
 10
-3.3657
 20
2.45034
 30
0.0
 11
-3.36572
 21
-2.82291
 31
0.0
  0
LINE
  5
CF
330
1F
100
AcDbEntity
  8
CAMADA_1
 62
   179
100
AcDbLine
 10
-3.36572
 20
-2.82291
 30
0.0
 11
-2.65999
 21
-2.81436
 31
0.0
  0
LINE
  5
D0
330
1F
100
AcDbEntity
  8
CAMADA_1
 62
   179
100
AcDbLine
 10
-2.65999
 20
-2.81436
 30
0.0
 11
-2.66
 21
0.33387
 31
0.0
  0
LINE
  5
D1
330
1F
100
AcDbEntity
  8
CAMADA_1
 62
   179
100
AcDbLine
 10
4.34995
 20
-6.37046
 30
0.0
 11
4.34993
 21
-7.38155
 31
0.0
  0
LINE
  5
D2
330
1F
100
AcDbEntity
  8
CAMADA_1
 62
   179
100
AcDbLine
 10
2.95898
 20
-5.63631
 30
0.0
 11
3.65417
 21
-5.63642
 31
0.0
  0
LINE
  5
D3
330
1F
100
AcDbEntity
  8
CAMADA_1
 62
    24
100
AcDbLine
 10
4.4385
 20
7.69769
 30
0.0
 11
4.35975
 21
7.69769
 31
0.0
  0
LINE
  5
D4
330
1F
100
AcDbEntity
  8
CAMADA_1
 62
    24
100
AcDbLine
 10
4.35975
 20
7.69769
 30
0.0
 11
4.35917
 21
2.1154
 31
0.0
  0
LINE
  5
D5
330
1F
100
AcDbEntity
  8
CAMADA_1
 62
    24
100
AcDbLine
 10
4.62151
 20
2.10899
 30
0.0
 11
5.42615
 21
2.1154
 31
0.0
  0
LINE
  5
D6
330
1F
100
AcDbEntity
  8
CAMADA_1
 62
    24
100
AcDbLine
 10
5.42615
 20
2.1154
 30
0.0
 11
5.4128
 21
6.95199
 31
0.0
  0
LINE
  5
D7
330
1F
100
AcDbEntity
  8
CAMADA_1
 62
    24
100
AcDbLine
 10
5.20831
 20
7.70145
 30
0.0
 11
4.4385
 21
7.69769
 31
0.0
  0
LINE
  5
D8
330
1F
100
AcDbEntity
  8
CAMADA_1
 62
   179
100
AcDbLine
 10
1.54597
 20
5.60746
 30
0.0
 11
1.54609
 21
3.84379
 31
0.0
  0
LINE
  5
D9
330
1F
100
AcDbEntity
  8
CAMADA_1
 62
   179
100
AcDbLine
 10
3.66254
 20
3.91434
 30
0.0
 11
3.66249
 21
4.20535
 31
0.0
  0
LINE
  5
DA
330
1F
100
AcDbEntity
  8
CAMADA_1
 62
   179
100
AcDbLine
 10
3.66249
 20
4.20535
 30
0.0
 11
2.94827
 21
4.20528
 31
0.0
  0
LINE
  5
DB
330
1F
100
AcDbEntity
  8
CAMADA_1
 62
   179
100
AcDbLine
 10
2.94827
 20
4.20528
 30
0.0
 11
2.94827
 21
3.91434
 31
0.0
  0
LINE
  5
DC
330
1F
100
AcDbEntity
  8
CAMADA_1
 62
   179
100
AcDbLine
 10
-1.09478
 20
-6.74221
 30
0.0
 11
-0.57012
 21
-6.35038
 31
0.0
  0
LINE
  5
DD
330
1F
100
AcDbEntity
  8
CAMADA_1
 62
   179
100
AcDbLine
 10
0.15102
 20
-5.83455
 30
0.0
 11
0.15284
 21
-5.36255
 31
0.0
  0
LINE
  5
DE
330
1F
100
AcDbEntity
  8
CAMADA_1
 62
   179
100
AcDbLine
 10
-1.96395
 20
-5.22146
 30
0.0
 11
-1.96404
 21
-7.09095
 31
0.0
  0
LINE
  5
DF
330
1F
100
AcDbEntity
  8
CAMADA_1
 62
   179
100
AcDbLine
 10
0.1487
 20
-6.67856
 30
0.0
 11
-0.55552
 21
-6.68262
 31
0.0
  0
LINE
  5
E0
330
1F
100
AcDbEntity
  8
CAMADA_1
 62
    24
100
AcDbLine
 10
5.07341
 20
-8.08247
 30
0.0
 11
5.07354
 21
-8.78407
 31
0.0
  0
LINE
  5
E1
330
1F
100
AcDbEntity
  8
CAMADA_1
 62
    24
100
AcDbLine
 10
5.07354
 20
-8.78407
 30
0.0
 11
6.09635
 21
-8.78407
 31
0.0
  0
LINE
  5
E2
330
1F
100
AcDbEntity
  8
CAMADA_1
 62
    24
100
AcDbLine
 10
6.09635
 20
-8.78407
 30
0.0
 11
6.09635
 21
-8.0786
 31
0.0
  0
LINE
  5
E3
330
1F
100
AcDbEntity
  8
CAMADA_1
 62
    24
100
AcDbLine
 10
6.09635
 20
-8.0786
 30
0.0
 11
6.80181
 21
-8.0786
 31
0.0
  0
LINE
  5
E4
330
1F
100
AcDbEntity
  8
CAMADA_1
 62
    24
100
AcDbLine
 10
6.80181
 20
-8.0786
 30
0.0
 11
6.80181
 21
-3.17561
 31
0.0
  0
LINE
  5
E5
330
1F
100
AcDbEntity
  8
CAMADA_1
 62
    24
100
AcDbLine
 10
6.80181
 20
-3.17561
 30
0.0
 11
5.7584
 21
-3.17561
 31
0.0
  0
LINE
  5
E6
330
1F
100
AcDbEntity
  8
CAMADA_1
 62
    24
100
AcDbLine
 10
5.7584
 20
-3.17561
 30
0.0
 11
5.76239
 21
-8.08303
 31
0.0
  0
LINE
  5
E7
330
1F
100
AcDbEntity
  8
CAMADA_1
 62
    24
100
AcDbLine
 10
5.76239
 20
-8.08303
 30
0.0
 11
5.07341
 21
-8.08247
 31
0.0
  0
LINE
  5
E8
330
1F
100
AcDbEntity
  8
CAMADA_1
 62
   179
100
AcDbLine
 10
-4.62195
 20
1.0338
 30
0.0
 11
-5.82612
 21
1.03921
 31
0.0
  0
LINE
  5
E9
330
1F
100
AcDbEntity
  8
CAMADA_1
 62
   179
100
AcDbLine
 10
-5.82612
 20
1.03921
 30
0.0
 11
-5.82604
 21
-2.82293
 31
0.0
  0
LINE
  5
EA
330
1F
100
AcDbEntity
  8
CAMADA_1
 62
   179
100
AcDbLine
 10
-5.82604
 20
-2.82293
 30
0.0
 11
-5.12109
 21
-2.82295
 31
0.0
  0
LINE
  5
EB
330
1F
100
AcDbEntity
  8
CAMADA_1
 62
   179
100
AcDbLine
 10
-5.12109
 20
-2.82295
 30
0.0
 11
-5.10309
 21
0.33425
 31
0.0
  0
LINE
  5
EC
330
1F
100
AcDbEntity
  8
CAMADA_1
 62
   179
100
AcDbLine
 10
-4.43275
 20
0.0561
 30
0.0
 11
-4.42392
 21
-2.82293
 31
0.0
  0
LINE
  5
ED
330
1F
100
AcDbEntity
  8
CAMADA_1
 62
   179
100
AcDbLine
 10
-4.42392
 20
-2.82293
 30
0.0
 11
-3.70964
 21
-2.82287
 31
0.0
  0
LINE
  5
EE
330
1F
100
AcDbEntity
  8
CAMADA_1
 62
   179
100
AcDbLine
 10
-3.36543
 20
2.78625
 30
0.0
 11
-2.66029
 21
2.79393
 31
0.0
  0
LINE
  5
EF
330
1F
100
AcDbEntity
  8
CAMADA_1
 62
   179
100
AcDbLine
 10
-2.66029
 20
2.79393
 30
0.0
 11
-2.65909
 21
5.95145
 31
0.0
  0
LINE
  5
F0
330
1F
100
AcDbEntity
  8
CAMADA_1
 62
   179
100
AcDbLine
 10
-1.96372
 20
2.79814
 30
0.0
 11
-1.25893
 21
2.79452
 31
0.0
  0
LINE
  5
F1
330
1F
100
AcDbEntity
  8
CAMADA_1
 62
   179
100
AcDbLine
 10
-1.25893
 20
2.79452
 30
0.0
 11
-1.26732
 21
5.76087
 31
0.0
  0
LINE
  5
F2
330
1F
100
AcDbEntity
  8
CAMADA_1
 62
   179
100
AcDbLine
 10
-3.36515
 20
6.65734
 30
0.0
 11
-3.36543
 21
2.78625
 31
0.0
  0
LINE
  5
F3
330
1F
100
AcDbEntity
  8
CAMADA_1
 62
   179
100
AcDbLine
 10
-4.37983
 20
-3.88107
 30
0.0
 11
-3.36564
 21
-3.88273
 31
0.0
  0
LINE
  5
F4
330
1F
100
AcDbEntity
  8
CAMADA_1
 62
   179
100
AcDbLine
 10
-3.36564
 20
-3.88273
 30
0.0
 11
-3.36566
 21
-8.04333
 31
0.0
  0
LINE
  5
F5
330
1F
100
AcDbEntity
  8
CAMADA_1
 62
   179
100
AcDbLine
 10
-3.32163
 20
-8.08752
 30
0.0
 11
-2.65986
 21
-8.07665
 31
0.0
  0
LINE
  5
F6
330
1F
100
AcDbEntity
  8
CAMADA_1
 62
   179
100
AcDbLine
 10
-2.65986
 20
-8.07665
 30
0.0
 11
-2.65994
 21
-3.88223
 31
0.0
  0
LINE
  5
F7
330
1F
100
AcDbEntity
  8
CAMADA_1
 62
   179
100
AcDbLine
 10
-2.65994
 20
-3.88223
 30
0.0
 11
-1.25767
 21
-3.86417
 31
0.0
  0
LINE
  5
F8
330
1F
100
AcDbEntity
  8
CAMADA_1
 62
   179
100
AcDbLine
 10
-1.25767
 20
-3.86417
 30
0.0
 11
-1.25792
 21
-3.18158
 31
0.0
  0
LINE
  5
F9
330
1F
100
AcDbEntity
  8
CAMADA_1
 62
   179
100
AcDbLine
 10
-1.25792
 20
-3.18158
 30
0.0
 11
-4.42388
 21
-3.16679
 31
0.0
  0
LINE
  5
FA
330
1F
100
AcDbEntity
  8
CAMADA_1
 62
   179
100
AcDbLine
 10
-4.42388
 20
-3.16679
 30
0.0
 11
-4.42392
 21
-3.8458
 31
0.0
  0
LINE
  5
FB
330
1F
100
AcDbEntity
  8
CAMADA_1
 62
   179
100
AcDbLine
 10
-4.6156
 20
2.79572
 30
0.0
 11
-3.70989
 21
2.78974
 31
0.0
  0
LINE
  5
FC
330
1F
100
AcDbEntity
  8
CAMADA_1
 62
   179
100
AcDbLine
 10
-3.70989
 20
2.78974
 30
0.0
 11
-3.70959
 21
3.49981
 31
0.0
  0
LINE
  5
FD
330
1F
100
AcDbEntity
  8
CAMADA_1
 62
   179
100
AcDbLine
 10
-4.75909
 20
4.89324
 30
0.0
 11
-4.06203
 21
4.89316
 31
0.0
  0
LINE
  5
FE
330
1F
100
AcDbEntity
  8
CAMADA_1
 62
   179
100
AcDbLine
 10
-4.06203
 20
4.89316
 30
0.0
 11
-4.06237
 21
5.60764
 31
0.0
  0
LINE
  5
FF
330
1F
100
AcDbEntity
  8
CAMADA_1
 62
   179
100
AcDbLine
 10
-4.06237
 20
5.60764
 30
0.0
 11
-4.7675
 21
5.60759
 31
0.0
  0
LINE
  5
100
330
1F
100
AcDbEntity
  8
CAMADA_1
 62
   179
100
AcDbLine
 10
-3.72698
 20
7.00011
 30
0.0
 11
-3.71386
 21
7.71543
 31
0.0
  0
LINE
  5
101
330
1F
100
AcDbEntity
  8
CAMADA_1
 62
   179
100
AcDbLine
 10
1.90732
 20
-5.63638
 30
0.0
 11
2.59578
 21
-5.63642
 31
0.0
  0
LINE
  5
102
330
1F
100
AcDbEntity
  8
CAMADA_1
 62
   179
100
AcDbLine
 10
2.59588
 20
-6.67611
 30
0.0
 11
1.90732
 21
-6.67599
 31
0.0
  0
LINE
  5
103
330
1F
100
AcDbEntity
  8
CAMADA_1
 62
    20
100
AcDbLine
 10
-3.35691
 20
-8.0786
 30
0.0
 11
-3.36566
 21
-8.04333
 31
0.0
  0
LINE
  5
104
330
1F
100
AcDbEntity
  8
CAMADA_1
 62
    20
100
AcDbLine
 10
-3.36566
 20
-8.04333
 30
0.0
 11
-3.36564
 21
-3.88273
 31
0.0
  0
LINE
  5
105
330
1F
100
AcDbEntity
  8
CAMADA_1
 62
    20
100
AcDbLine
 10
-3.36564
 20
-3.88273
 30
0.0
 11
-4.37983
 21
-3.88107
 31
0.0
  0
LINE
  5
106
330
1F
100
AcDbEntity
  8
CAMADA_1
 62
    20
100
AcDbLine
 10
-4.37983
 20
-3.88107
 30
0.0
 11
-4.41511
 21
-3.88107
 31
0.0
  0
LINE
  5
107
330
1F
100
AcDbEntity
  8
CAMADA_1
 62
    20
100
AcDbLine
 10
-4.41511
 20
-3.88107
 30
0.0
 11
-4.41511
 21
-8.0786
 31
0.0
  0
LINE
  5
108
330
1F
100
AcDbEntity
  8
CAMADA_1
 62
    20
100
AcDbLine
 10
-4.41511
 20
-8.0786
 30
0.0
 11
-3.35691
 21
-8.0786
 31
0.0
  0
LINE
  5
109
330
1F
100
AcDbEntity
  8
CAMADA_1
 62
    24
100
AcDbLine
 10
2.60429
 20
1.0572
 30
0.0
 11
2.60429
 21
2.08126
 31
0.0
  0
LINE
  5
10A
330
1F
100
AcDbEntity
  8
CAMADA_1
 62
    24
100
AcDbLine
 10
2.60429
 20
2.08126
 30
0.0
 11
1.55623
 21
2.07697
 31
0.0
  0
LINE
  5
10B
330
1F
100
AcDbEntity
  8
CAMADA_1
 62
    24
100
AcDbLine
 10
1.55623
 20
2.07697
 30
0.0
 11
1.5448
 21
1.03115
 31
0.0
  0
LINE
  5
10C
330
1F
100
AcDbEntity
  8
CAMADA_1
 62
    24
100
AcDbLine
 10
1.5448
 20
1.03115
 30
0.0
 11
0.46274
 21
1.01763
 31
0.0
  0
LINE
  5
10D
330
1F
100
AcDbEntity
  8
CAMADA_1
 62
     9
100
AcDbLine
 10
-0.16962
 20
1.01994
 30
0.0
 11
-0.36183
 21
0.92076
 31
0.0
  0
LINE
  5
10E
330
1F
100
AcDbEntity
  8
CAMADA_1
 62
     9
100
AcDbLine
 10
-0.74869
 20
0.58019
 30
0.0
 11
-0.78801
 21
0.50614
 31
0.0
  0
LINE
  5
10F
330
1F
100
AcDbEntity
  8
CAMADA_1
 62
     9
100
AcDbLine
 10
-0.19089
 20
-1.86348
 30
0.0
 11
-0.19027
 21
-0.0459
 31
0.0
  0
LINE
  5
110
330
1F
100
AcDbEntity
  8
CAMADA_1
 62
     9
100
AcDbLine
 10
0.48764
 20
-0.68082
 30
0.0
 11
0.48638
 21
-0.7366
 31
0.0
  0
LINE
  5
111
330
1F
100
AcDbEntity
  8
CAMADA_1
 62
     9
100
AcDbLine
 10
1.20838
 20
-1.40662
 30
0.0
 11
1.19829
 21
0.10547
 31
0.0
  0
LINE
  5
112
330
1F
100
AcDbEntity
  8
CAMADA_1
 62
    20
100
AcDbLine
 10
-2.66029
 20
2.79393
 30
0.0
 11
-1.96372
 21
2.79814
 31
0.0
  0
LINE
  5
113
330
1F
100
AcDbEntity
  8
CAMADA_1
 62
    20
100
AcDbLine
 10
-2.65909
 20
5.95145
 30
0.0
 11
-2.66029
 21
2.79393
 31
0.0
  0
LINE
  5
114
330
1F
100
AcDbEntity
  8
CAMADA_1
 62
    22
100
AcDbLine
 10
0.48638
 20
-0.7366
 30
0.0
 11
0.48764
 21
-0.68082
 31
0.0
  0
LINE
  5
115
330
1F
100
AcDbEntity
  8
CAMADA_1
 62
    22
100
AcDbLine
 10
0.48764
 20
-0.68082
 30
0.0
 11
-0.19027
 21
-0.0459
 31
0.0
  0
LINE
  5
116
330
1F
100
AcDbEntity
  8
CAMADA_1
 62
    22
100
AcDbLine
 10
-0.19027
 20
-0.0459
 30
0.0
 11
-0.19089
 21
-1.86348
 31
0.0
  0
LINE
  5
117
330
1F
100
AcDbEntity
  8
CAMADA_1
 62
    24
100
AcDbLine
 10
-3.71386
 20
7.71543
 30
0.0
 11
-2.66807
 21
7.71572
 31
0.0
  0
LINE
  5
118
330
1F
100
AcDbEntity
  8
CAMADA_1
 62
    24
100
AcDbLine
 10
-2.66807
 20
7.71572
 30
0.0
 11
-2.6741
 21
8.74679
 31
0.0
  0
LINE
  5
119
330
1F
100
AcDbEntity
  8
CAMADA_1
 62
    24
100
AcDbLine
 10
-2.6741
 20
8.74679
 30
0.0
 11
-3.70919
 21
8.74679
 31
0.0
  0
LINE
  5
11A
330
1F
100
AcDbEntity
  8
CAMADA_1
 62
    24
100
AcDbLine
 10
-3.70919
 20
8.74679
 30
0.0
 11
-3.71386
 21
7.71543
 31
0.0
  0
LINE
  5
11B
330
1F
100
AcDbEntity
  8
CAMADA_1
 62
    20
100
AcDbLine
 10
4.34993
 20
-7.38155
 30
0.0
 11
4.34995
 21
-6.37046
 31
0.0
  0
LINE
  5
11C
330
1F
100
AcDbEntity
  8
CAMADA_1
 62
    24
100
AcDbLine
 10
-0.19027
 20
-0.0459
 30
0.0
 11
0.48764
 21
-0.68082
 31
0.0
  0
LINE
  5
11D
330
1F
100
AcDbEntity
  8
CAMADA_1
 62
    24
100
AcDbLine
 10
-0.36183
 20
0.92076
 30
0.0
 11
-0.16962
 21
1.01994
 31
0.0
  0
LINE
  5
11E
330
1F
100
AcDbEntity
  8
CAMADA_1
 62
    24
100
AcDbLine
 10
-0.16962
 20
1.01994
 30
0.0
 11
-1.2157
 21
1.03552
 31
0.0
  0
SPLINE
  5
11F
330
1F
100
AcDbEntity
  8
CAMADA_1
 62
    20
100
AcDbSpline
210
0.0
220
0.0
230
1.0
 70
     8
 71
     3
 72
     8
 73
     4
 74
     0
 42
0.000000001
 43
0.00000001
 40
0.0
 40
0.0
 40
0.0
 40
0.0
 40
0.0833333333333333
 40
0.0833333333333333
 40
0.0833333333333333
 40
0.0833333333333333
 10
-1.25779
 20
-6.91458
 30
0.0
 10
-1.25621
 20
-7.0775
 30
0.0
 10
-1.2438
 20
-7.19976
 30
0.0
 10
-1.15071
 20
-7.28426
 30
0.0
  0
SPLINE
  5
120
330
1F
100
AcDbEntity
  8
CAMADA_1
 62
    20
100
AcDbSpline
210
0.0
220
0.0
230
1.0
 70
     8
 71
     3
 72
     8
 73
     4
 74
     0
 42
0.000000001
 43
0.00000001
 40
0.0833333333333333
 40
0.0833333333333333
 40
0.0833333333333333
 40
0.0833333333333333
 40
0.1666666666666667
 40
0.1666666666666667
 40
0.1666666666666667
 40
0.1666666666666667
 10
-1.15071
 20
-7.28426
 30
0.0
 10
-1.08004
 20
-7.348409999999999
 30
0.0
 10
-0.9419799999999999
 20
-7.40265
 30
0.0
 10
-0.7983599999999998
 20
-7.36026
 30
0.0
  0
SPLINE
  5
121
330
1F
100
AcDbEntity
  8
CAMADA_1
 62
    20
100
AcDbSpline
210
0.0
220
0.0
230
1.0
 70
     8
 71
     3
 72
     8
 73
     4
 74
     0
 42
0.000000001
 43
0.00000001
 40
0.1666666666666667
 40
0.1666666666666667
 40
0.1666666666666667
 40
0.1666666666666667
 40
0.25
 40
0.25
 40
0.25
 40
0.25
 10
-0.7983599999999998
 20
-7.36026
 30
0.0
 10
-0.52103
 20
-7.278389999999999
 30
0.0
 10
-0.57861
 20
-6.98384
 30
0.0
 10
-0.55552
 20
-6.68262
 30
0.0
  0
SPLINE
  5
122
330
1F
100
AcDbEntity
  8
CAMADA_1
 62
    20
100
AcDbSpline
210
0.0
220
0.0
230
1.0
 70
     8
 71
     3
 72
     8
 73
     4
 74
     0
 42
0.000000001
 43
0.00000001
 40
0.3333333333333333
 40
0.3333333333333333
 40
0.3333333333333333
 40
0.3333333333333333
 40
0.4166666666666667
 40
0.4166666666666667
 40
0.4166666666666667
 40
0.4166666666666667
 10
0.1487
 20
-6.67856
 30
0.0
 10
0.26369
 20
-8.67355
 30
0.0
 10
-1.96407
 20
-8.29913
 30
0.0
 10
-1.96404
 20
-7.09095
 30
0.0
  0
SPLINE
  5
123
330
1F
100
AcDbEntity
  8
CAMADA_1
 62
    20
100
AcDbSpline
210
0.0
220
0.0
230
1.0
 70
     8
 71
     3
 72
     8
 73
     4
 74
     0
 42
0.000000001
 43
0.00000001
 40
0.5
 40
0.5
 40
0.5
 40
0.5
 40
0.5833333333333334
 40
0.5833333333333334
 40
0.5833333333333334
 40
0.5833333333333334
 10
-1.96395
 20
-5.22146
 30
0.0
 10
-1.96413
 20
-3.9766
 30
0.0
 10
0.15238
 20
-3.77488
 30
0.0
 10
0.15284
 20
-5.36255
 30
0.0
  0
SPLINE
  5
124
330
1F
100
AcDbEntity
  8
CAMADA_1
 62
    20
100
AcDbSpline
210
0.0
220
0.0
230
1.0
 70
     8
 71
     3
 72
     8
 73
     4
 74
     0
 42
0.000000001
 43
0.00000001
 40
0.6666666666666666
 40
0.6666666666666666
 40
0.6666666666666666
 40
0.6666666666666666
 40
0.75
 40
0.75
 40
0.75
 40
0.75
 10
0.15102
 20
-5.83455
 30
0.0
 10
-0.01702
 20
-5.90543
 30
0.0
 10
-0.39921
 20
-6.22198
 30
0.0
 10
-0.57012
 20
-6.35038
 30
0.0
  0
SPLINE
  5
125
330
1F
100
AcDbEntity
  8
CAMADA_1
 62
    20
100
AcDbSpline
210
0.0
220
0.0
230
1.0
 70
     8
 71
     3
 72
     8
 73
     4
 74
     0
 42
0.000000001
 43
0.00000001
 40
0.8333333333333334
 40
0.8333333333333334
 40
0.8333333333333334
 40
0.8333333333333334
 40
1.0
 40
1.0
 40
1.0
 40
1.0
 10
-1.09478
 20
-6.74221
 30
0.0
 10
-1.20596
 20
-6.82344
 30
0.0
 10
-1.21268
 20
-6.81104
 30
0.0
 10
-1.25779
 20
-6.91458
 30
0.0
  0
SPLINE
  5
126
330
1F
100
AcDbEntity
  8
CAMADA_1
 62
    20
100
AcDbSpline
210
0.0
220
0.0
230
1.0
 70
     8
 71
     3
 72
     8
 73
     4
 74
     0
 42
0.000000001
 43
0.00000001
 40
0.0
 40
0.0
 40
0.0
 40
0.0
 40
0.1
 40
0.1
 40
0.1
 40
0.1
 10
5.07341
 20
-8.08247
 30
0.0
 10
3.49718
 20
-8.15189
 30
0.0
 10
2.9185
 20
-8.11231
 30
0.0
 10
2.95039
 20
-6.48255
 30
0.0
  0
SPLINE
  5
127
330
1F
100
AcDbEntity
  8
CAMADA_1
 62
    20
100
AcDbSpline
210
0.0
220
0.0
230
1.0
 70
     8
 71
     3
 72
     8
 73
     4
 74
     0
 42
0.000000001
 43
0.00000001
 40
0.1
 40
0.1
 40
0.1
 40
0.1
 40
0.2
 40
0.2
 40
0.2
 40
0.2
 10
2.95039
 20
-6.48255
 30
0.0
 10
3.11242
 20
-6.40928
 30
0.0
 10
3.91927
 20
-5.774020000000001
 30
0.0
 10
4.19213
 20
-5.5748
 30
0.0
  0
SPLINE
  5
128
330
1F
100
AcDbEntity
  8
CAMADA_1
 62
    20
100
AcDbSpline
210
0.0
220
0.0
230
1.0
 70
     8
 71
     3
 72
     8
 73
     4
 74
     0
 42
0.000000001
 43
0.00000001
 40
0.2
 40
0.2
 40
0.2
 40
0.2
 40
0.3
 40
0.3
 40
0.3
 40
0.3
 10
4.19213
 20
-5.5748
 30
0.0
 10
4.31127
 20
-5.48782
 30
0.0
 10
4.30876
 20
-5.51096
 30
0.0
 10
4.35001
 20
-5.39783
 30
0.0
  0
SPLINE
  5
129
330
1F
100
AcDbEntity
  8
CAMADA_1
 62
    20
100
AcDbSpline
210
0.0
220
0.0
230
1.0
 70
     8
 71
     3
 72
     8
 73
     4
 74
     0
 42
0.000000001
 43
0.00000001
 40
0.3
 40
0.3
 40
0.3
 40
0.3
 40
0.4
 40
0.4
 40
0.4
 40
0.4
 10
4.35001
 20
-5.39783
 30
0.0
 10
4.34892
 20
-5.10734
 30
0.0
 10
4.22287
 20
-4.84379
 30
0.0
 10
3.89281
 20
-4.95472
 30
0.0
  0
SPLINE
  5
12A
330
1F
100
AcDbEntity
  8
CAMADA_1
 62
    20
100
AcDbSpline
210
0.0
220
0.0
230
1.0
 70
     8
 71
     3
 72
     8
 73
     4
 74
     0
 42
0.000000001
 43
0.00000001
 40
0.4
 40
0.4
 40
0.4
 40
0.4
 40
0.5
 40
0.5
 40
0.5
 40
0.5
 10
3.89281
 20
-4.95472
 30
0.0
 10
3.6185
 20
-5.04691
 30
0.0
 10
3.68272
 20
-5.33253
 30
0.0
 10
3.65417
 20
-5.63642
 30
0.0
  0
SPLINE
  5
12B
330
1F
100
AcDbEntity
  8
CAMADA_1
 62
    20
100
AcDbSpline
210
0.0
220
0.0
230
1.0
 70
     8
 71
     3
 72
     8
 73
     4
 74
     0
 42
0.000000001
 43
0.00000001
 40
0.6
 40
0.6
 40
0.6
 40
0.6
 40
0.7
 40
0.7
 40
0.7
 40
0.7
 10
2.95898
 20
-5.636310000000001
 30
0.0
 10
2.78141
 20
-4.15923
 30
0.0
 10
4.24755
 20
-3.87491
 30
0.0
 10
4.83153
 20
-4.61761
 30
0.0
  0
SPLINE
  5
12C
330
1F
100
AcDbEntity
  8
CAMADA_1
 62
    20
100
AcDbSpline
210
0.0
220
0.0
230
1.0
 70
     8
 71
     3
 72
     8
 73
     4
 74
     0
 42
0.000000001
 43
0.00000001
 40
0.7
 40
0.7
 40
0.7
 40
0.7
 40
0.8
 40
0.8
 40
0.8
 40
0.8
 10
4.83153
 20
-4.61761
 30
0.0
 10
5.15719
 20
-5.03178
 30
0.0
 10
5.065250000000001
 20
-5.617899999999999
 30
0.0
 10
5.06497
 20
-6.209110000000001
 30
0.0
  0
SPLINE
  5
12D
330
1F
100
AcDbEntity
  8
CAMADA_1
 62
    20
100
AcDbSpline
210
0.0
220
0.0
230
1.0
 70
     8
 71
     3
 72
     8
 73
     4
 74
     0
 42
0.000000001
 43
0.00000001
 40
0.8
 40
0.8
 40
0.8
 40
0.8
 40
1.0
 40
1.0
 40
1.0
 40
1.0
 10
5.06497
 20
-6.209110000000001
 30
0.0
 10
5.064709999999999
 20
-6.78314
 30
0.0
 10
5.02425
 20
-7.52963
 30
0.0
 10
5.07341
 20
-8.08247
 30
0.0
  0
SPLINE
  5
12E
330
1F
100
AcDbEntity
  8
CAMADA_1
 62
    20
100
AcDbSpline
210
0.0
220
0.0
230
1.0
 70
     8
 71
     3
 72
     8
 73
     4
 74
     0
 42
0.000000001
 43
0.00000001
 40
0.0769230769230769
 40
0.0769230769230769
 40
0.0769230769230769
 40
0.0769230769230769
 40
0.1538461538461539
 40
0.1538461538461539
 40
0.1538461538461539
 40
0.1538461538461539
 10
2.59588
 20
-6.67611
 30
0.0
 10
2.75441
 20
-8.33846
 30
0.0
 10
1.02125
 20
-8.4556
 30
0.0
 10
0.57791
 20
-7.45954
 30
0.0
  0
SPLINE
  5
12F
330
1F
100
AcDbEntity
  8
CAMADA_1
 62
    20
100
AcDbSpline
210
0.0
220
0.0
230
1.0
 70
     8
 71
     3
 72
     8
 73
     4
 74
     0
 42
0.000000001
 43
0.00000001
 40
0.1538461538461539
 40
0.1538461538461539
 40
0.1538461538461539
 40
0.1538461538461539
 40
0.2307692307692308
 40
0.2307692307692308
 40
0.2307692307692308
 40
0.2307692307692308
 10
0.57791
 20
-7.45954
 30
0.0
 10
0.43045
 20
-7.128239999999999
 30
0.0
 10
0.48783
 20
-6.56894
 30
0.0
 10
0.48787
 20
-6.17384
 30
0.0
  0
SPLINE
  5
130
330
1F
100
AcDbEntity
  8
CAMADA_1
 62
    20
100
AcDbSpline
210
0.0
220
0.0
230
1.0
 70
     8
 71
     3
 72
     8
 73
     4
 74
     0
 42
0.000000001
 43
0.00000001
 40
0.2307692307692308
 40
0.2307692307692308
 40
0.2307692307692308
 40
0.2307692307692308
 40
0.3076923076923077
 40
0.3076923076923077
 40
0.3076923076923077
 40
0.3076923076923077
 10
0.48787
 20
-6.17384
 30
0.0
 10
0.48791
 20
-5.79249
 30
0.0
 10
0.44032
 20
-5.23133
 30
0.0
 10
0.5578
 20
-4.9029
 30
0.0
  0
SPLINE
  5
131
330
1F
100
AcDbEntity
  8
CAMADA_1
 62
    20
100
AcDbSpline
210
0.0
220
0.0
230
1.0
 70
     8
 71
     3
 72
     8
 73
     4
 74
     0
 42
0.000000001
 43
0.00000001
 40
0.3076923076923077
 40
0.3076923076923077
 40
0.3076923076923077
 40
0.3076923076923077
 40
0.3846153846153846
 40
0.3846153846153846
 40
0.3846153846153846
 40
0.3846153846153846
 10
0.5578
 20
-4.9029
 30
0.0
 10
0.9171499999999999
 20
-3.89836
 30
0.0
 10
2.76108
 20
-3.89806
 30
0.0
 10
2.59578
 20
-5.63642
 30
0.0
  0
SPLINE
  5
132
330
1F
100
AcDbEntity
  8
CAMADA_1
 62
    20
100
AcDbSpline
210
0.0
220
0.0
230
1.0
 70
     8
 71
     3
 72
     8
 73
     4
 74
     0
 42
0.000000001
 43
0.00000001
 40
0.4615384615384616
 40
0.4615384615384616
 40
0.4615384615384616
 40
0.4615384615384616
 40
0.5384615384615384
 40
0.5384615384615384
 40
0.5384615384615384
 40
0.5384615384615384
 10
1.90732
 20
-5.63638
 30
0.0
 10
1.88722
 20
-5.428069999999999
 30
0.0
 10
1.93207
 20
-5.2306
 30
0.0
 10
1.82701
 20
-5.08156
 30
0.0
  0
SPLINE
  5
133
330
1F
100
AcDbEntity
  8
CAMADA_1
 62
    20
100
AcDbSpline
210
0.0
220
0.0
230
1.0
 70
     8
 71
     3
 72
     8
 73
     4
 74
     0
 42
0.000000001
 43
0.00000001
 40
0.5384615384615384
 40
0.5384615384615384
 40
0.5384615384615384
 40
0.5384615384615384
 40
0.6153846153846154
 40
0.6153846153846154
 40
0.6153846153846154
 40
0.6153846153846154
 10
1.82701
 20
-5.08156
 30
0.0
 10
1.7313
 20
-4.94581
 30
0.0
 10
1.52141
 20
-4.87384
 30
0.0
 10
1.35303
 20
-4.99376
 30
0.0
  0
SPLINE
  5
134
330
1F
100
AcDbEntity
  8
CAMADA_1
 62
    20
100
AcDbSpline
210
0.0
220
0.0
230
1.0
 70
     8
 71
     3
 72
     8
 73
     4
 74
     0
 42
0.000000001
 43
0.00000001
 40
0.6153846153846154
 40
0.6153846153846154
 40
0.6153846153846154
 40
0.6153846153846154
 40
0.6923076923076923
 40
0.6923076923076923
 40
0.6923076923076923
 40
0.6923076923076923
 10
1.35303
 20
-4.99376
 30
0.0
 10
1.11201
 20
-5.16541
 30
0.0
 10
1.20211
 20
-5.81427
 30
0.0
 10
1.20213
 20
-6.13857
 30
0.0
  0
SPLINE
  5
135
330
1F
100
AcDbEntity
  8
CAMADA_1
 62
    20
100
AcDbSpline
210
0.0
220
0.0
230
1.0
 70
     8
 71
     3
 72
     8
 73
     4
 74
     0
 42
0.000000001
 43
0.00000001
 40
0.6923076923076923
 40
0.6923076923076923
 40
0.6923076923076923
 40
0.6923076923076923
 40
0.7692307692307693
 40
0.7692307692307693
 40
0.7692307692307693
 40
0.7692307692307693
 10
1.20213
 20
-6.13857
 30
0.0
 10
1.20214
 20
-6.46905
 30
0.0
 10
1.117
 20
-7.11774
 30
0.0
 10
1.33322
 20
-7.303019999999999
 30
0.0
  0
SPLINE
  5
136
330
1F
100
AcDbEntity
  8
CAMADA_1
 62
    20
100
AcDbSpline
210
0.0
220
0.0
230
1.0
 70
     8
 71
     3
 72
     8
 73
     4
 74
     0
 42
0.000000001
 43
0.00000001
 40
0.7692307692307693
 40
0.7692307692307693
 40
0.7692307692307693
 40
0.7692307692307693
 40
0.8461538461538461
 40
0.8461538461538461
 40
0.8461538461538461
 40
0.8461538461538461
 10
1.33322
 20
-7.303019999999999
 30
0.0
 10
1.49004
 20
-7.43738
 30
0.0
 10
1.7088
 20
-7.381869999999999
 30
0.0
 10
1.81392
 20
-7.25281
 30
0.0
  0
SPLINE
  5
137
330
1F
100
AcDbEntity
  8
CAMADA_1
 62
    20
100
AcDbSpline
210
0.0
220
0.0
230
1.0
 70
     8
 71
     3
 72
     8
 73
     4
 74
     0
 42
0.000000001
 43
0.00000001
 40
0.8461538461538461
 40
0.8461538461538461
 40
0.8461538461538461
 40
0.8461538461538461
 40
1.0
 40
1.0
 40
1.0
 40
1.0
 10
1.81392
 20
-7.25281
 30
0.0
 10
1.93827
 20
-7.10014
 30
0.0
 10
1.88714
 20
-6.88784
 30
0.0
 10
1.90732
 20
-6.67599
 30
0.0
  0
SPLINE
  5
138
330
1F
100
AcDbEntity
  8
CAMADA_1
 62
    20
100
AcDbSpline
210
0.0
220
0.0
230
1.0
 70
     8
 71
     3
 72
     8
 73
     4
 74
     0
 42
0.000000001
 43
0.00000001
 40
0.1
 40
0.1
 40
0.1
 40
0.1
 40
0.2
 40
0.2
 40
0.2
 40
0.2
 10
-0.22608
 20
2.45147
 30
0.0
 10
-0.13484
 20
2.27259
 30
0.0
 10
-0.07141
 20
2.01562
 30
0.0
 10
0.26768
 20
2.11869
 30
0.0
  0
SPLINE
  5
139
330
1F
100
AcDbEntity
  8
CAMADA_1
 62
    20
100
AcDbSpline
210
0.0
220
0.0
230
1.0
 70
     8
 71
     3
 72
     8
 73
     4
 74
     0
 42
0.000000001
 43
0.00000001
 40
0.2
 40
0.2
 40
0.2
 40
0.2
 40
0.3
 40
0.3
 40
0.3
 40
0.3
 10
0.26768
 20
2.11869
 30
0.0
 10
0.5254
 20
2.19702
 30
0.0
 10
0.48754
 20
2.49982
 30
0.0
 10
0.48789
 20
2.78559
 30
0.0
  0
SPLINE
  5
13A
330
1F
100
AcDbEntity
  8
CAMADA_1
 62
    20
100
AcDbSpline
210
0.0
220
0.0
230
1.0
 70
     8
 71
     3
 72
     8
 73
     4
 74
     0
 42
0.000000001
 43
0.00000001
 40
0.3
 40
0.3
 40
0.3
 40
0.3
 40
0.4
 40
0.4
 40
0.4
 40
0.4
 10
0.48789
 20
2.78559
 30
0.0
 10
-0.01296
 20
2.78534
 30
0.0
 10
-0.57492
 20
2.8088
 30
0.0
 10
-0.83351
 20
3.439
 30
0.0
  0
SPLINE
  5
13B
330
1F
100
AcDbEntity
  8
CAMADA_1
 62
    20
100
AcDbSpline
210
0.0
220
0.0
230
1.0
 70
     8
 71
     3
 72
     8
 73
     4
 74
     0
 42
0.000000001
 43
0.00000001
 40
0.4
 40
0.4
 40
0.4
 40
0.4
 40
0.5
 40
0.5
 40
0.5
 40
0.5
 10
-0.83351
 20
3.439
 30
0.0
 10
-0.97398
 20
3.78134
 30
0.0
 10
-0.91361
 20
4.8741
 30
0.0
 10
-0.91463
 20
5.325329999999999
 30
0.0
  0
SPLINE
  5
13C
330
1F
100
AcDbEntity
  8
CAMADA_1
 62
    20
100
AcDbSpline
210
0.0
220
0.0
230
1.0
 70
     8
 71
     3
 72
     8
 73
     4
 74
     0
 42
0.000000001
 43
0.00000001
 40
0.5
 40
0.5
 40
0.5
 40
0.5
 40
0.6
 40
0.6
 40
0.6
 40
0.6
 10
-0.91463
 20
5.325329999999999
 30
0.0
 10
-0.91847
 20
7.021229999999999
 30
0.0
 10
0.68587
 20
6.92892
 30
0.0
 10
1.1024
 20
6.04422
 30
0.0
  0
SPLINE
  5
13D
330
1F
100
AcDbEntity
  8
CAMADA_1
 62
    20
100
AcDbSpline
210
0.0
220
0.0
230
1.0
 70
     8
 71
     3
 72
     8
 73
     4
 74
     0
 42
0.000000001
 43
0.00000001
 40
0.6
 40
0.6
 40
0.6
 40
0.6
 40
0.7
 40
0.7
 40
0.7
 40
0.7
 10
1.1024
 20
6.04422
 30
0.0
 10
1.27895
 20
5.669229999999999
 30
0.0
 10
1.20227
 20
4.64205
 30
0.0
 10
1.20219
 20
4.16125
 30
0.0
  0
SPLINE
  5
13E
330
1F
100
AcDbEntity
  8
CAMADA_1
 62
    20
100
AcDbSpline
210
0.0
220
0.0
230
1.0
 70
     8
 71
     3
 72
     8
 73
     4
 74
     0
 42
0.000000001
 43
0.00000001
 40
0.7
 40
0.7
 40
0.7
 40
0.7
 40
0.8
 40
0.8
 40
0.8
 40
0.8
 10
1.20219
 20
4.16125
 30
0.0
 10
1.20211
 20
3.71659
 30
0.0
 10
1.25585
 20
2.53371
 30
0.0
 10
1.1691
 20
2.17259
 30
0.0
  0
SPLINE
  5
13F
330
1F
100
AcDbEntity
  8
CAMADA_1
 62
    20
100
AcDbSpline
210
0.0
220
0.0
230
1.0
 70
     8
 71
     3
 72
     8
 73
     4
 74
     0
 42
0.000000001
 43
0.00000001
 40
0.8
 40
0.8
 40
0.8
 40
0.8
 40
1.0
 40
1.0
 40
1.0
 40
1.0
 10
1.1691
 20
2.17259
 30
0.0
 10
0.86584
 20
0.91007
 30
0.0
 10
-1.06016
 20
1.32758
 30
0.0
 10
-0.9012899999999999
 20
2.44637
 30
0.0
  0
SPLINE
  5
140
330
1F
100
AcDbEntity
  8
CAMADA_1
 62
    20
100
AcDbSpline
210
0.0
220
0.0
230
1.0
 70
     8
 71
     3
 72
     8
 73
     4
 74
     0
 42
0.000000001
 43
0.00000001
 40
0.0
 40
0.0
 40
0.0
 40
0.0
 40
0.1
 40
0.1
 40
0.1
 40
0.1
 10
2.25164
 20
3.94961
 30
0.0
 10
2.25127
 20
3.33211
 30
0.0
 10
2.94807
 20
3.36944
 30
0.0
 10
2.94827
 20
3.91434
 30
0.0
  0
SPLINE
  5
141
330
1F
100
AcDbEntity
  8
CAMADA_1
 62
    20
100
AcDbSpline
210
0.0
220
0.0
230
1.0
 70
     8
 71
     3
 72
     8
 73
     4
 74
     0
 42
0.000000001
 43
0.00000001
 40
0.4
 40
0.4
 40
0.4
 40
0.4
 40
0.5
 40
0.5
 40
0.5
 40
0.5
 10
3.66254
 20
3.91434
 30
0.0
 10
3.662669999999999
 20
2.40045
 30
0.0
 10
1.54614
 20
2.47217
 30
0.0
 10
1.54609
 20
3.84379
 30
0.0
  0
SPLINE
  5
142
330
1F
100
AcDbEntity
  8
CAMADA_1
 62
    20
100
AcDbSpline
210
0.0
220
0.0
230
1.0
 70
     8
 71
     3
 72
     8
 73
     4
 74
     0
 42
0.000000001
 43
0.00000001
 40
0.6
 40
0.6
 40
0.6
 40
0.6
 40
0.7
 40
0.7
 40
0.7
 40
0.7
 10
1.54597
 20
5.60746
 30
0.0
 10
1.54595
 20
6.96663
 30
0.0
 10
3.6612
 20
7.05314
 30
0.0
 10
3.66249
 20
5.53691
 30
0.0
  0
SPLINE
  5
143
330
1F
100
AcDbEntity
  8
CAMADA_1
 62
    20
100
AcDbSpline
210
0.0
220
0.0
230
1.0
 70
     8
 71
     3
 72
     8
 73
     4
 74
     0
 42
0.000000001
 43
0.00000001
 40
0.7
 40
0.7
 40
0.7
 40
0.7
 40
0.8
 40
0.8
 40
0.8
 40
0.8
 10
3.66249
 20
5.53691
 30
0.0
 10
3.66301
 20
4.91968
 30
0.0
 10
3.81013
 20
5.1865
 30
0.0
 10
2.5945
 20
4.27622
 30
0.0
  0
SPLINE
  5
144
330
1F
100
AcDbEntity
  8
CAMADA_1
 62
    20
100
AcDbSpline
210
0.0
220
0.0
230
1.0
 70
     8
 71
     3
 72
     8
 73
     4
 74
     0
 42
0.000000001
 43
0.00000001
 40
0.8
 40
0.8
 40
0.8
 40
0.8
 40
1.0
 40
1.0
 40
1.0
 40
1.0
 10
2.5945
 20
4.27622
 30
0.0
 10
2.50089
 20
4.20612
 30
0.0
 10
2.25172
 20
4.07021
 30
0.0
 10
2.25164
 20
3.94961
 30
0.0
  0
SPLINE
  5
145
330
1F
100
AcDbEntity
  8
CAMADA_1
 62
    20
100
AcDbSpline
210
0.0
220
0.0
230
1.0
 70
     8
 71
     3
 72
     8
 73
     4
 74
     0
 42
0.000000001
 43
0.00000001
 40
0.0357142857142857
 40
0.0357142857142857
 40
0.0357142857142857
 40
0.0357142857142857
 40
0.0714285714285714
 40
0.0714285714285714
 40
0.0714285714285714
 40
0.0714285714285714
 10
-3.72698
 20
7.000109999999999
 30
0.0
 10
-4.91511
 20
7.00399
 30
0.0
 10
-4.77055
 20
7.10228
 30
0.0
 10
-4.7675
 20
5.60759
 30
0.0
  0
SPLINE
  5
146
330
1F
100
AcDbEntity
  8
CAMADA_1
 62
    20
100
AcDbSpline
210
0.0
220
0.0
230
1.0
 70
     8
 71
     3
 72
     8
 73
     4
 74
     0
 42
0.000000001
 43
0.00000001
 40
0.1785714285714286
 40
0.1785714285714286
 40
0.1785714285714286
 40
0.1785714285714286
 40
0.2142857142857143
 40
0.2142857142857143
 40
0.2142857142857143
 40
0.2142857142857143
 10
-4.75909
 20
4.89324
 30
0.0
 10
-4.7795
 20
4.68408
 30
0.0
 10
-4.79337
 20
3.85261
 30
0.0
 10
-4.7316
 20
3.70306
 30
0.0
  0
SPLINE
  5
147
330
1F
100
AcDbEntity
  8
CAMADA_1
 62
    20
100
AcDbSpline
210
0.0
220
0.0
230
1.0
 70
     8
 71
     3
 72
     8
 73
     4
 74
     0
 42
0.000000001
 43
0.00000001
 40
0.2142857142857143
 40
0.2142857142857143
 40
0.2142857142857143
 40
0.2142857142857143
 40
0.25
 40
0.25
 40
0.25
 40
0.25
 10
-4.7316
 20
3.70306
 30
0.0
 10
-4.6113
 20
3.41182
 30
0.0
 10
-4.08819
 20
3.5001
 30
0.0
 10
-3.70959
 20
3.49981
 30
0.0
  0
SPLINE
  5
148
330
1F
100
AcDbEntity
  8
CAMADA_1
 62
    20
100
AcDbSpline
210
0.0
220
0.0
230
1.0
 70
     8
 71
     3
 72
     8
 73
     4
 74
     0
 42
0.000000001
 43
0.00000001
 40
0.3571428571428572
 40
0.3571428571428572
 40
0.3571428571428572
 40
0.3571428571428572
 40
0.3928571428571428
 40
0.3928571428571428
 40
0.3928571428571428
 40
0.3928571428571428
 10
-3.36515
 20
6.65734
 30
0.0
 10
-2.62314
 20
6.65563
 30
0.0
 10
-1.42312
 20
6.86328
 30
0.0
 10
-1.26732
 20
5.76087
 30
0.0
  0
SPLINE
  5
149
330
1F
100
AcDbEntity
  8
CAMADA_1
 62
    20
100
AcDbSpline
210
0.0
220
0.0
230
1.0
 70
     8
 71
     3
 72
     8
 73
     4
 74
     0
 42
0.000000001
 43
0.00000001
 40
0.4285714285714285
 40
0.4285714285714285
 40
0.4285714285714285
 40
0.4285714285714285
 40
0.4642857142857143
 40
0.4642857142857143
 40
0.4642857142857143
 40
0.4642857142857143
 10
-1.25893
 20
2.79452
 30
0.0
 10
-1.2582
 20
2.50781
 30
0.0
 10
-1.31213
 20
1.15657
 30
0.0
 10
-1.2157
 20
1.03552
 30
0.0
  0
SPLINE
  5
14A
330
1F
100
AcDbEntity
  8
CAMADA_1
 62
    20
100
AcDbSpline
210
0.0
220
0.0
230
1.0
 70
     8
 71
     3
 72
     8
 73
     4
 74
     0
 42
0.000000001
 43
0.00000001
 40
0.5
 40
0.5
 40
0.5
 40
0.5
 40
0.5357142857142857
 40
0.5357142857142857
 40
0.5357142857142857
 40
0.5357142857142857
 10
-0.16962
 20
1.01994
 30
0.0
 10
0.11889
 20
1.03355
 30
0.0
 10
0.1555
 20
1.04758
 30
0.0
 10
0.46274
 20
1.01763
 30
0.0
  0
SPLINE
  5
14B
330
1F
100
AcDbEntity
  8
CAMADA_1
 62
    20
100
AcDbSpline
210
0.0
220
0.0
230
1.0
 70
     8
 71
     3
 72
     8
 73
     4
 74
     0
 42
0.000000001
 43
0.00000001
 40
0.6428571428571429
 40
0.6428571428571429
 40
0.6428571428571429
 40
0.6428571428571429
 40
0.6785714285714286
 40
0.6785714285714286
 40
0.6785714285714286
 40
0.6785714285714286
 10
2.60429
 20
2.08126
 30
0.0
 10
2.72834
 20
2.07971
 30
0.0
 10
4.19113
 20
2.05991
 30
0.0
 10
4.31422
 20
2.09491
 30
0.0
  0
SPLINE
  5
14C
330
1F
100
AcDbEntity
  8
CAMADA_1
 62
    20
100
AcDbSpline
210
0.0
220
0.0
230
1.0
 70
     8
 71
     3
 72
     8
 73
     4
 74
     0
 42
0.000000001
 43
0.00000001
 40
0.6785714285714286
 40
0.6785714285714286
 40
0.6785714285714286
 40
0.6785714285714286
 40
0.7142857142857143
 40
0.7142857142857143
 40
0.7142857142857143
 40
0.7142857142857143
 10
4.31422
 20
2.09491
 30
0.0
 10
4.32073
 20
2.09677
 30
0.0
 10
4.33233
 20
2.10293
 30
0.0
 10
4.33734
 20
2.10465
 30
0.0
  0
SPLINE
  5
14D
330
1F
100
AcDbEntity
  8
CAMADA_1
 62
    20
100
AcDbSpline
210
0.0
220
0.0
230
1.0
 70
     8
 71
     3
 72
     8
 73
     4
 74
     0
 42
0.000000001
 43
0.00000001
 40
0.7142857142857143
 40
0.7142857142857143
 40
0.7142857142857143
 40
0.7142857142857143
 40
0.75
 40
0.75
 40
0.75
 40
0.75
 10
4.33734
 20
2.10465
 30
0.0
 10
4.3422
 20
2.10631
 30
0.0
 10
4.35269
 20
2.11052
 30
0.0
 10
4.35917
 20
2.1154
 30
0.0
  0
SPLINE
  5
14E
330
1F
100
AcDbEntity
  8
CAMADA_1
 62
    20
100
AcDbSpline
210
0.0
220
0.0
230
1.0
 70
     8
 71
     3
 72
     8
 73
     4
 74
     0
 42
0.000000001
 43
0.00000001
 40
0.8214285714285714
 40
0.8214285714285714
 40
0.8214285714285714
 40
0.8214285714285714
 40
0.8571428571428571
 40
0.8571428571428571
 40
0.8571428571428571
 40
0.8571428571428571
 10
4.4385
 20
7.69769
 30
0.0
 10
4.23697
 20
7.79257
 30
0.0
 10
-1.85272
 20
7.72386
 30
0.0
 10
-2.65144
 20
7.72386
 30
0.0
  0
SPLINE
  5
14F
330
1F
100
AcDbEntity
  8
CAMADA_1
 62
    20
100
AcDbSpline
210
0.0
220
0.0
230
1.0
 70
     8
 71
     3
 72
     8
 73
     4
 74
     0
 42
0.000000001
 43
0.00000001
 40
0.8571428571428571
 40
0.8571428571428571
 40
0.8571428571428571
 40
0.8571428571428571
 40
0.8928571428571429
 40
0.8928571428571429
 40
0.8928571428571429
 40
0.8928571428571429
 10
-2.65144
 20
7.72386
 30
0.0
 10
-2.65144
 20
7.968239999999999
 30
0.0
 10
-2.60302
 20
8.57243
 30
0.0
 10
-2.6741
 20
8.74679
 30
0.0
  0
SPLINE
  5
150
330
1F
100
AcDbEntity
  8
CAMADA_1
 62
    22
100
AcDbSpline
210
0.0
220
0.0
230
1.0
 70
     8
 71
     3
 72
     8
 73
     4
 74
     0
 42
0.000000001
 43
0.00000001
 40
0.25
 40
0.25
 40
0.25
 40
0.25
 40
0.3333333333333333
 40
0.3333333333333333
 40
0.3333333333333333
 40
0.3333333333333333
 10
-2.65971
 20
2.44051
 30
0.0
 10
-2.65992
 20
2.15152
 30
0.0
 10
-2.69698
 20
1.25266
 30
0.0
 10
-2.63791
 20
1.03956
 30
0.0
  0
SPLINE
  5
151
330
1F
100
AcDbEntity
  8
CAMADA_1
 62
    22
100
AcDbSpline
210
0.0
220
0.0
230
1.0
 70
     8
 71
     3
 72
     8
 73
     4
 74
     0
 42
0.000000001
 43
0.00000001
 40
0.3333333333333333
 40
0.3333333333333333
 40
0.3333333333333333
 40
0.3333333333333333
 40
0.4166666666666667
 40
0.4166666666666667
 40
0.4166666666666667
 40
0.4166666666666667
 10
-2.63791
 20
1.03956
 30
0.0
 10
-2.1958
 20
1.03898
 30
0.0
 10
-1.96541
 20
1.06121
 30
0.0
 10
-1.65623
 20
0.81797
 30
0.0
  0
SPLINE
  5
152
330
1F
100
AcDbEntity
  8
CAMADA_1
 62
    22
100
AcDbSpline
210
0.0
220
0.0
230
1.0
 70
     8
 71
     3
 72
     8
 73
     4
 74
     0
 42
0.000000001
 43
0.00000001
 40
0.4166666666666667
 40
0.4166666666666667
 40
0.4166666666666667
 40
0.4166666666666667
 40
0.5
 40
0.5
 40
0.5
 40
0.5
 10
-1.65623
 20
0.81797
 30
0.0
 10
-1.46121
 20
0.66455
 30
0.0
 10
-1.25809
 20
0.3881
 30
0.0
 10
-1.25809
 20
-0.001
 30
0.0
  0
SPLINE
  5
153
330
1F
100
AcDbEntity
  8
CAMADA_1
 62
    22
100
AcDbSpline
210
0.0
220
0.0
230
1.0
 70
     8
 71
     3
 72
     8
 73
     4
 74
     0
 42
0.000000001
 43
0.00000001
 40
0.75
 40
0.75
 40
0.75
 40
0.75
 40
0.8333333333333334
 40
0.8333333333333334
 40
0.8333333333333334
 40
0.8333333333333334
 10
-1.96248
 20
-0.1767
 30
0.0
 10
-1.96332
 20
0.3781599999999999
 30
0.0
 10
-2.19966
 20
0.33396
 30
0.0
 10
-2.66
 20
0.3338699999999999
 30
0.0
  0
SPLINE
  5
154
330
1F
100
AcDbEntity
  8
CAMADA_1
 62
    22
100
AcDbSpline
210
0.0
220
0.0
230
1.0
 70
     8
 71
     3
 72
     8
 73
     4
 74
     0
 42
0.000000001
 43
0.00000001
 40
0.0
 40
0.0
 40
0.0
 40
0.0
 40
0.0263157894736842
 40
0.0263157894736842
 40
0.0263157894736842
 40
0.0263157894736842
 10
-4.62195
 20
1.0338
 30
0.0
 10
-3.75386
 20
0.88004
 30
0.0
 10
-3.70928
 20
0.22176
 30
0.0
 10
-3.70961
 20
-0.42428
 30
0.0
  0
SPLINE
  5
155
330
1F
100
AcDbEntity
  8
CAMADA_1
 62
    22
100
AcDbSpline
210
0.0
220
0.0
230
1.0
 70
     8
 71
     3
 72
     8
 73
     4
 74
     0
 42
0.000000001
 43
0.00000001
 40
0.0263157894736842
 40
0.0263157894736842
 40
0.0263157894736842
 40
0.0263157894736842
 40
0.0526315789473684
 40
0.0526315789473684
 40
0.0526315789473684
 40
0.0526315789473684
 10
-3.70961
 20
-0.42428
 30
0.0
 10
-3.71002
 20
-1.22381
 30
0.0
 10
-3.7092
 20
-2.02334
 30
0.0
 10
-3.70964
 20
-2.82287
 30
0.0
  0
SPLINE
  5
156
330
1F
100
AcDbEntity
  8
CAMADA_1
 62
    22
100
AcDbSpline
210
0.0
220
0.0
230
1.0
 70
     8
 71
     3
 72
     8
 73
     4
 74
     0
 42
0.000000001
 43
0.00000001
 40
0.1052631578947368
 40
0.1052631578947368
 40
0.1052631578947368
 40
0.1052631578947368
 40
0.131578947368421
 40
0.131578947368421
 40
0.131578947368421
 40
0.131578947368421
 10
-4.43275
 20
0.0561
 30
0.0
 10
-4.49322
 20
0.35995
 30
0.0
 10
-4.79901
 20
0.33369
 30
0.0
 10
-5.10309
 20
0.33425
 30
0.0
  0
SPLINE
  5
157
330
1F
100
AcDbEntity
  8
CAMADA_1
 62
    22
100
AcDbSpline
210
0.0
220
0.0
230
1.0
 70
     8
 71
     3
 72
     8
 73
     4
 74
     0
 42
0.000000001
 43
0.00000001
 40
0.4210526315789473
 40
0.4210526315789473
 40
0.4210526315789473
 40
0.4210526315789473
 40
0.4473684210526316
 40
0.4473684210526316
 40
0.4473684210526316
 40
0.4473684210526316
 10
1.89882
 20
-2.0926
 30
0.0
 10
1.76669
 20
-2.0175
 30
0.0
 10
1.49966
 20
-1.72059
 30
0.0
 10
1.34911
 20
-1.57258
 30
0.0
  0
SPLINE
  5
158
330
1F
100
AcDbEntity
  8
CAMADA_1
 62
    22
100
AcDbSpline
210
0.0
220
0.0
230
1.0
 70
     8
 71
     3
 72
     8
 73
     4
 74
     0
 42
0.000000001
 43
0.00000001
 40
0.4473684210526316
 40
0.4473684210526316
 40
0.4473684210526316
 40
0.4473684210526316
 40
0.4736842105263158
 40
0.4736842105263158
 40
0.4736842105263158
 40
0.4736842105263158
 10
1.34911
 20
-1.57258
 30
0.0
 10
1.23959
 20
-1.46491
 30
0.0
 10
1.25438
 20
-1.50461
 30
0.0
 10
1.25431
 20
-1.30955
 30
0.0
  0
SPLINE
  5
159
330
1F
100
AcDbEntity
  8
CAMADA_1
 62
    22
100
AcDbSpline
210
0.0
220
0.0
230
1.0
 70
     8
 71
     3
 72
     8
 73
     4
 74
     0
 42
0.000000001
 43
0.00000001
 40
0.4736842105263158
 40
0.4736842105263158
 40
0.4736842105263158
 40
0.4736842105263158
 40
0.5
 40
0.5
 40
0.5
 40
0.5
 10
1.25431
 20
-1.30955
 30
0.0
 10
1.25422
 20
-1.03017
 30
0.0
 10
1.33416
 20
-0.05167
 30
0.0
 10
1.19829
 20
0.10547
 30
0.0
  0
SPLINE
  5
15A
330
1F
100
AcDbEntity
  8
CAMADA_1
 62
    22
100
AcDbSpline
210
0.0
220
0.0
230
1.0
 70
     8
 71
     3
 72
     8
 73
     4
 74
     0
 42
0.000000001
 43
0.00000001
 40
0.5263157894736842
 40
0.5263157894736842
 40
0.5263157894736842
 40
0.5263157894736842
 40
0.5526315789473685
 40
0.5526315789473685
 40
0.5526315789473685
 40
0.5526315789473685
 10
1.20838
 20
-1.40662
 30
0.0
 10
1.16558
 20
-2.06473
 30
0.0
 10
1.16747
 20
-2.38796
 30
0.0
 10
0.714
 20
-2.66161
 30
0.0
  0
SPLINE
  5
15B
330
1F
100
AcDbEntity
  8
CAMADA_1
 62
    22
100
AcDbSpline
210
0.0
220
0.0
230
1.0
 70
     8
 71
     3
 72
     8
 73
     4
 74
     0
 42
0.000000001
 43
0.00000001
 40
0.5526315789473685
 40
0.5526315789473685
 40
0.5526315789473685
 40
0.5526315789473685
 40
0.5789473684210527
 40
0.5789473684210527
 40
0.5789473684210527
 40
0.5789473684210527
 10
0.714
 20
-2.66161
 30
0.0
 10
0.26535
 20
-2.93235
 30
0.0
 10
-0.26647
 20
-2.84842
 30
0.0
 10
-0.59058
 20
-2.52565
 30
0.0
  0
SPLINE
  5
15C
330
1F
100
AcDbEntity
  8
CAMADA_1
 62
    22
100
AcDbSpline
210
0.0
220
0.0
230
1.0
 70
     8
 71
     3
 72
     8
 73
     4
 74
     0
 42
0.000000001
 43
0.00000001
 40
0.5789473684210527
 40
0.5789473684210527
 40
0.5789473684210527
 40
0.5789473684210527
 40
0.6052631578947368
 40
0.6052631578947368
 40
0.6052631578947368
 40
0.6052631578947368
 10
-0.59058
 20
-2.52565
 30
0.0
 10
-0.98315
 20
-2.13471
 30
0.0
 10
-0.91438
 20
-1.77691
 30
0.0
 10
-0.91444
 20
-1.12975
 30
0.0
  0
SPLINE
  5
15D
330
1F
100
AcDbEntity
  8
CAMADA_1
 62
    22
100
AcDbSpline
210
0.0
220
0.0
230
1.0
 70
     8
 71
     3
 72
     8
 73
     4
 74
     0
 42
0.000000001
 43
0.00000001
 40
0.6052631578947368
 40
0.6052631578947368
 40
0.6052631578947368
 40
0.6052631578947368
 40
0.631578947368421
 40
0.631578947368421
 40
0.631578947368421
 40
0.631578947368421
 10
-0.91444
 20
-1.12975
 30
0.0
 10
-0.9144999999999999
 20
-0.49502
 30
0.0
 10
-0.9734
 20
-0.05109
 30
0.0
 10
-0.78801
 20
0.50614
 30
0.0
  0
SPLINE
  5
15E
330
1F
100
AcDbEntity
  8
CAMADA_1
 62
    22
100
AcDbSpline
210
0.0
220
0.0
230
1.0
 70
     8
 71
     3
 72
     8
 73
     4
 74
     0
 42
0.000000001
 43
0.00000001
 40
0.6578947368421053
 40
0.6578947368421053
 40
0.6578947368421053
 40
0.6578947368421053
 40
0.6842105263157895
 40
0.6842105263157895
 40
0.6842105263157895
 40
0.6842105263157895
 10
-0.74869
 20
0.58019
 30
0.0
 10
-0.87079
 20
0.607
 30
0.0
 10
-0.91375
 20
0.6929699999999999
 30
0.0
 10
-0.99463
 20
0.77391
 30
0.0
  0
SPLINE
  5
15F
330
1F
100
AcDbEntity
  8
CAMADA_1
 62
    22
100
AcDbSpline
210
0.0
220
0.0
230
1.0
 70
     8
 71
     3
 72
     8
 73
     4
 74
     0
 42
0.000000001
 43
0.00000001
 40
0.6842105263157895
 40
0.6842105263157895
 40
0.6842105263157895
 40
0.6842105263157895
 40
0.7105263157894737
 40
0.7105263157894737
 40
0.7105263157894737
 40
0.7105263157894737
 10
-0.99463
 20
0.77391
 30
0.0
 10
-1.03686
 20
0.81618
 30
0.0
 10
-1.0609
 20
0.83566
 30
0.0
 10
-1.10125
 20
0.87709
 30
0.0
  0
SPLINE
  5
160
330
1F
100
AcDbEntity
  8
CAMADA_1
 62
    22
100
AcDbSpline
210
0.0
220
0.0
230
1.0
 70
     8
 71
     3
 72
     8
 73
     4
 74
     0
 42
0.000000001
 43
0.00000001
 40
0.7105263157894737
 40
0.7105263157894737
 40
0.7105263157894737
 40
0.7105263157894737
 40
0.7368421052631579
 40
0.7368421052631579
 40
0.7368421052631579
 40
0.7368421052631579
 10
-1.10125
 20
0.87709
 30
0.0
 10
-1.18786
 20
0.9659899999999999
 30
0.0
 10
-1.16466
 20
0.92586
 30
0.0
 10
-1.2157
 20
1.03552
 30
0.0
  0
SPLINE
  5
161
330
1F
100
AcDbEntity
  8
CAMADA_1
 62
    22
100
AcDbSpline
210
0.0
220
0.0
230
1.0
 70
     8
 71
     3
 72
     8
 73
     4
 74
     0
 42
0.000000001
 43
0.00000001
 40
0.7368421052631579
 40
0.7368421052631579
 40
0.7368421052631579
 40
0.7368421052631579
 40
0.7631578947368421
 40
0.7631578947368421
 40
0.7631578947368421
 40
0.7631578947368421
 10
-1.2157
 20
1.03552
 30
0.0
 10
-1.31213
 20
1.15657
 30
0.0
 10
-1.2582
 20
2.50781
 30
0.0
 10
-1.25893
 20
2.79452
 30
0.0
  0
SPLINE
  5
162
330
1F
100
AcDbEntity
  8
CAMADA_1
 62
    20
100
AcDbSpline
210
0.0
220
0.0
230
1.0
 70
     8
 71
     3
 72
     8
 73
     4
 74
     0
 42
0.000000001
 43
0.00000001
 40
0.2857142857142857
 40
0.2857142857142857
 40
0.2857142857142857
 40
0.2857142857142857
 40
0.3333333333333333
 40
0.3333333333333333
 40
0.3333333333333333
 40
0.3333333333333333
 10
-4.6156
 20
2.79572
 30
0.0
 10
-4.9505
 20
2.93839
 30
0.0
 10
-4.98544
 20
2.90975
 30
0.0
 10
-5.21369
 20
3.15147
 30
0.0
  0
SPLINE
  5
163
330
1F
100
AcDbEntity
  8
CAMADA_1
 62
    20
100
AcDbSpline
210
0.0
220
0.0
230
1.0
 70
     8
 71
     3
 72
     8
 73
     4
 74
     0
 42
0.000000001
 43
0.00000001
 40
0.3333333333333333
 40
0.3333333333333333
 40
0.3333333333333333
 40
0.3333333333333333
 40
0.3809523809523809
 40
0.3809523809523809
 40
0.3809523809523809
 40
0.3809523809523809
 10
-5.21369
 20
3.15147
 30
0.0
 10
-5.376429999999999
 20
3.32382
 30
0.0
 10
-5.466339999999999
 20
3.54288
 30
0.0
 10
-5.47378
 20
3.84214
 30
0.0
  0
SPLINE
  5
164
330
1F
100
AcDbEntity
  8
CAMADA_1
 62
    20
100
AcDbSpline
210
0.0
220
0.0
230
1.0
 70
     8
 71
     3
 72
     8
 73
     4
 74
     0
 42
0.000000001
 43
0.00000001
 40
0.3809523809523809
 40
0.3809523809523809
 40
0.3809523809523809
 40
0.3809523809523809
 40
0.4285714285714285
 40
0.4285714285714285
 40
0.4285714285714285
 40
0.4285714285714285
 10
-5.47378
 20
3.84214
 30
0.0
 10
-5.48908
 20
4.45738
 30
0.0
 10
-5.473409999999999
 20
5.09545
 30
0.0
 10
-5.47344
 20
5.71328
 30
0.0
  0
SPLINE
  5
165
330
1F
100
AcDbEntity
  8
CAMADA_1
 62
    20
100
AcDbSpline
210
0.0
220
0.0
230
1.0
 70
     8
 71
     3
 72
     8
 73
     4
 74
     0
 42
0.000000001
 43
0.00000001
 40
0.4285714285714285
 40
0.4285714285714285
 40
0.4285714285714285
 40
0.4285714285714285
 40
0.4761904761904762
 40
0.4761904761904762
 40
0.4761904761904762
 40
0.4761904761904762
 10
-5.47344
 20
5.71328
 30
0.0
 10
-5.47348
 20
6.34421
 30
0.0
 10
-5.57928
 20
6.94415
 30
0.0
 10
-5.20774
 20
7.35187
 30
0.0
  0
SPLINE
  5
166
330
1F
100
AcDbEntity
  8
CAMADA_1
 62
    20
100
AcDbSpline
210
0.0
220
0.0
230
1.0
 70
     8
 71
     3
 72
     8
 73
     4
 74
     0
 42
0.000000001
 43
0.00000001
 40
0.4761904761904762
 40
0.4761904761904762
 40
0.4761904761904762
 40
0.4761904761904762
 40
0.5238095238095238
 40
0.5238095238095238
 40
0.5238095238095238
 40
0.5238095238095238
 10
-5.20774
 20
7.35187
 30
0.0
 10
-4.80726
 20
7.791359999999999
 30
0.0
 10
-4.42669
 20
7.714429999999999
 30
0.0
 10
-3.713859999999999
 20
7.71543
 30
0.0
  0
SPLINE
  5
167
330
1F
100
AcDbEntity
  8
CAMADA_1
 62
    20
100
AcDbSpline
210
0.0
220
0.0
230
1.0
 70
    24
 71
     3
 72
     8
 73
     4
 74
     0
 42
0.000000001
 43
0.00000001
 40
0.6190476190476191
 40
0.6190476190476191
 40
0.6190476190476191
 40
0.6190476190476191
 40
0.6666666666666666
 40
0.6666666666666666
 40
0.6666666666666666
 40
0.6666666666666666
 10
-6.49623
 20
8.74679
 30
0.0
 10
-6.49623
 20
7.74738
 30
0.0
 10
-6.49623
 20
6.74797
 30
0.0
 10
-6.49623
 20
5.74855
 30
0.0
  0
SPLINE
  5
168
330
1F
100
AcDbEntity
  8
CAMADA_1
 62
    20
100
AcDbSpline
210
0.0
220
0.0
230
1.0
 70
     8
 71
     3
 72
     8
 73
     4
 74
     0
 42
0.000000001
 43
0.00000001
 40
0.6666666666666666
 40
0.6666666666666666
 40
0.6666666666666666
 40
0.6666666666666666
 40
0.7142857142857143
 40
0.7142857142857143
 40
0.7142857142857143
 40
0.7142857142857143
 10
-6.49623
 20
5.74855
 30
0.0
 10
-6.49623
 20
4.71838
 30
0.0
 10
-6.53151
 20
3.79672
 30
0.0
 10
-6.53151
 20
2.78559
 30
0.0
  0
SPLINE
  5
169
330
1F
100
AcDbEntity
  8
CAMADA_1
 62
   179
100
AcDbSpline
210
0.0
220
0.0
230
1.0
 70
     8
 71
     3
 72
     8
 73
     4
 74
     0
 42
0.000000001
 43
0.00000001
 40
0.0
 40
0.0
 40
0.0
 40
0.0
 40
0.2
 40
0.2
 40
0.2
 40
0.2
 10
0.47914
 20
3.49981
 30
0.0
 10
-0.29763
 20
3.50034
 30
0.0
 10
-0.19963
 20
3.6418
 30
0.0
 10
-0.19951
 20
4.37289
 30
0.0
  0
SPLINE
  5
16A
330
1F
100
AcDbEntity
  8
CAMADA_1
 62
   179
100
AcDbSpline
210
0.0
220
0.0
230
1.0
 70
     8
 71
     3
 72
     8
 73
     4
 74
     0
 42
0.000000001
 43
0.00000001
 40
0.2
 40
0.2
 40
0.2
 40
0.2
 40
0.4
 40
0.4
 40
0.4
 40
0.4
 10
-0.19951
 20
4.37289
 30
0.0
 10
-0.19945
 20
4.71681
 30
0.0
 10
-0.29253
 20
5.6761
 30
0.0
 10
-0.08138
 20
5.86008
 30
0.0
  0
SPLINE
  5
16B
330
1F
100
AcDbEntity
  8
CAMADA_1
 62
   179
100
AcDbSpline
210
0.0
220
0.0
230
1.0
 70
     8
 71
     3
 72
     8
 73
     4
 74
     0
 42
0.000000001
 43
0.00000001
 40
0.4
 40
0.4
 40
0.4
 40
0.4
 40
0.6
 40
0.6
 40
0.6
 40
0.6
 10
-0.08138
 20
5.86008
 30
0.0
 10
0.09005
 20
6.00944
 30
0.0
 10
0.34337
 20
5.93987
 30
0.0
 10
0.43305
 20
5.80007
 30
0.0
  0
SPLINE
  5
16C
330
1F
100
AcDbEntity
  8
CAMADA_1
 62
   179
100
AcDbSpline
210
0.0
220
0.0
230
1.0
 70
     8
 71
     3
 72
     8
 73
     4
 74
     0
 42
0.000000001
 43
0.00000001
 40
0.6
 40
0.6
 40
0.6
 40
0.6
 40
1.0
 40
1.0
 40
1.0
 40
1.0
 10
0.43305
 20
5.80007
 30
0.0
 10
0.54241
 20
5.62959
 30
0.0
 10
0.50017
 20
3.71496
 30
0.0
 10
0.47914
 20
3.49981
 30
0.0
  0
SPLINE
  5
16D
330
1F
100
AcDbEntity
  8
CAMADA_1
 62
   179
100
AcDbSpline
210
0.0
220
0.0
230
1.0
 70
     8
 71
     3
 72
     8
 73
     4
 74
     0
 42
0.000000001
 43
0.00000001
 40
0.0
 40
0.0
 40
0.0
 40
0.0
 40
0.1
 40
0.1
 40
0.1
 40
0.1
 10
-0.9012899999999999
 20
2.44637
 30
0.0
 10
-1.06016
 20
1.32758
 30
0.0
 10
0.86584
 20
0.91007
 30
0.0
 10
1.1691
 20
2.17259
 30
0.0
  0
SPLINE
  5
16E
330
1F
100
AcDbEntity
  8
CAMADA_1
 62
   179
100
AcDbSpline
210
0.0
220
0.0
230
1.0
 70
     8
 71
     3
 72
     8
 73
     4
 74
     0
 42
0.000000001
 43
0.00000001
 40
0.1
 40
0.1
 40
0.1
 40
0.1
 40
0.2
 40
0.2
 40
0.2
 40
0.2
 10
1.1691
 20
2.17259
 30
0.0
 10
1.25585
 20
2.53371
 30
0.0
 10
1.20211
 20
3.71659
 30
0.0
 10
1.20219
 20
4.16125
 30
0.0
  0
SPLINE
  5
16F
330
1F
100
AcDbEntity
  8
CAMADA_1
 62
   179
100
AcDbSpline
210
0.0
220
0.0
230
1.0
 70
     8
 71
     3
 72
     8
 73
     4
 74
     0
 42
0.000000001
 43
0.00000001
 40
0.2
 40
0.2
 40
0.2
 40
0.2
 40
0.3
 40
0.3
 40
0.3
 40
0.3
 10
1.20219
 20
4.16125
 30
0.0
 10
1.20227
 20
4.64205
 30
0.0
 10
1.27895
 20
5.669229999999999
 30
0.0
 10
1.1024
 20
6.04422
 30
0.0
  0
SPLINE
  5
170
330
1F
100
AcDbEntity
  8
CAMADA_1
 62
   179
100
AcDbSpline
210
0.0
220
0.0
230
1.0
 70
     8
 71
     3
 72
     8
 73
     4
 74
     0
 42
0.000000001
 43
0.00000001
 40
0.3
 40
0.3
 40
0.3
 40
0.3
 40
0.4
 40
0.4
 40
0.4
 40
0.4
 10
1.1024
 20
6.04422
 30
0.0
 10
0.68587
 20
6.92892
 30
0.0
 10
-0.91847
 20
7.021229999999999
 30
0.0
 10
-0.91463
 20
5.325329999999999
 30
0.0
  0
SPLINE
  5
171
330
1F
100
AcDbEntity
  8
CAMADA_1
 62
   179
100
AcDbSpline
210
0.0
220
0.0
230
1.0
 70
     8
 71
     3
 72
     8
 73
     4
 74
     0
 42
0.000000001
 43
0.00000001
 40
0.4
 40
0.4
 40
0.4
 40
0.4
 40
0.5
 40
0.5
 40
0.5
 40
0.5
 10
-0.91463
 20
5.325329999999999
 30
0.0
 10
-0.91361
 20
4.8741
 30
0.0
 10
-0.97398
 20
3.78134
 30
0.0
 10
-0.83351
 20
3.439
 30
0.0
  0
SPLINE
  5
172
330
1F
100
AcDbEntity
  8
CAMADA_1
 62
   179
100
AcDbSpline
210
0.0
220
0.0
230
1.0
 70
     8
 71
     3
 72
     8
 73
     4
 74
     0
 42
0.000000001
 43
0.00000001
 40
0.5
 40
0.5
 40
0.5
 40
0.5
 40
0.6
 40
0.6
 40
0.6
 40
0.6
 10
-0.83351
 20
3.439
 30
0.0
 10
-0.57492
 20
2.8088
 30
0.0
 10
-0.01296
 20
2.78534
 30
0.0
 10
0.48789
 20
2.78559
 30
0.0
  0
SPLINE
  5
173
330
1F
100
AcDbEntity
  8
CAMADA_1
 62
   179
100
AcDbSpline
210
0.0
220
0.0
230
1.0
 70
     8
 71
     3
 72
     8
 73
     4
 74
     0
 42
0.000000001
 43
0.00000001
 40
0.6
 40
0.6
 40
0.6
 40
0.6
 40
0.7
 40
0.7
 40
0.7
 40
0.7
 10
0.48789
 20
2.78559
 30
0.0
 10
0.48754
 20
2.49982
 30
0.0
 10
0.5254
 20
2.19702
 30
0.0
 10
0.26768
 20
2.11869
 30
0.0
  0
SPLINE
  5
174
330
1F
100
AcDbEntity
  8
CAMADA_1
 62
   179
100
AcDbSpline
210
0.0
220
0.0
230
1.0
 70
     8
 71
     3
 72
     8
 73
     4
 74
     0
 42
0.000000001
 43
0.00000001
 40
0.7
 40
0.7
 40
0.7
 40
0.7
 40
0.8
 40
0.8
 40
0.8
 40
0.8
 10
0.26768
 20
2.11869
 30
0.0
 10
-0.07141
 20
2.01562
 30
0.0
 10
-0.13484
 20
2.27259
 30
0.0
 10
-0.22608
 20
2.45147
 30
0.0
  0
SPLINE
  5
175
330
1F
100
AcDbEntity
  8
CAMADA_1
 62
   179
100
AcDbSpline
210
0.0
220
0.0
230
1.0
 70
     8
 71
     3
 72
     8
 73
     4
 74
     0
 42
0.000000001
 43
0.00000001
 40
0.0
 40
0.0
 40
0.0
 40
0.0
 40
0.0833333333333333
 40
0.0833333333333333
 40
0.0833333333333333
 40
0.0833333333333333
 10
-2.66
 20
0.3338699999999999
 30
0.0
 10
-2.19966
 20
0.33396
 30
0.0
 10
-1.96332
 20
0.3781599999999999
 30
0.0
 10
-1.96248
 20
-0.1767
 30
0.0
  0
SPLINE
  5
176
330
1F
100
AcDbEntity
  8
CAMADA_1
 62
   179
100
AcDbSpline
210
0.0
220
0.0
230
1.0
 70
     8
 71
     3
 72
     8
 73
     4
 74
     0
 42
0.000000001
 43
0.00000001
 40
0.3333333333333333
 40
0.3333333333333333
 40
0.3333333333333333
 40
0.3333333333333333
 40
0.4166666666666667
 40
0.4166666666666667
 40
0.4166666666666667
 40
0.4166666666666667
 10
-1.25809
 20
-0.001
 30
0.0
 10
-1.25809
 20
0.3881
 30
0.0
 10
-1.46121
 20
0.66455
 30
0.0
 10
-1.65623
 20
0.81797
 30
0.0
  0
SPLINE
  5
177
330
1F
100
AcDbEntity
  8
CAMADA_1
 62
   179
100
AcDbSpline
210
0.0
220
0.0
230
1.0
 70
     8
 71
     3
 72
     8
 73
     4
 74
     0
 42
0.000000001
 43
0.00000001
 40
0.4166666666666667
 40
0.4166666666666667
 40
0.4166666666666667
 40
0.4166666666666667
 40
0.5
 40
0.5
 40
0.5
 40
0.5
 10
-1.65623
 20
0.81797
 30
0.0
 10
-1.96541
 20
1.06121
 30
0.0
 10
-2.1958
 20
1.03898
 30
0.0
 10
-2.63791
 20
1.03956
 30
0.0
  0
SPLINE
  5
178
330
1F
100
AcDbEntity
  8
CAMADA_1
 62
   179
100
AcDbSpline
210
0.0
220
0.0
230
1.0
 70
     8
 71
     3
 72
     8
 73
     4
 74
     0
 42
0.000000001
 43
0.00000001
 40
0.5
 40
0.5
 40
0.5
 40
0.5
 40
0.5833333333333334
 40
0.5833333333333334
 40
0.5833333333333334
 40
0.5833333333333334
 10
-2.63791
 20
1.03956
 30
0.0
 10
-2.69698
 20
1.25266
 30
0.0
 10
-2.65992
 20
2.15152
 30
0.0
 10
-2.65971
 20
2.44051
 30
0.0
  0
SPLINE
  5
179
330
1F
100
AcDbEntity
  8
CAMADA_1
 62
   179
100
AcDbSpline
210
0.0
220
0.0
230
1.0
 70
     8
 71
     3
 72
     8
 73
     4
 74
     0
 42
0.000000001
 43
0.00000001
 40
0.0
 40
0.0
 40
0.0
 40
0.0
 40
0.2
 40
0.2
 40
0.2
 40
0.2
 10
3.66249
 20
-6.91458
 30
0.0
 10
3.71351
 20
-6.77445
 30
0.0
 10
3.86007
 20
-6.70987
 30
0.0
 10
3.97267
 20
-6.625459999999999
 30
0.0
  0
SPLINE
  5
17A
330
1F
100
AcDbEntity
  8
CAMADA_1
 62
   179
100
AcDbSpline
210
0.0
220
0.0
230
1.0
 70
     8
 71
     3
 72
     8
 73
     4
 74
     0
 42
0.000000001
 43
0.00000001
 40
0.2
 40
0.2
 40
0.2
 40
0.2
 40
0.4
 40
0.4
 40
0.4
 40
0.4
 10
3.97267
 20
-6.625459999999999
 30
0.0
 10
4.11553
 20
-6.51838
 30
0.0
 10
4.18982
 20
-6.44419
 30
0.0
 10
4.34995
 20
-6.37046
 30
0.0
  0
SPLINE
  5
17B
330
1F
100
AcDbEntity
  8
CAMADA_1
 62
   179
100
AcDbSpline
210
0.0
220
0.0
230
1.0
 70
     8
 71
     3
 72
     8
 73
     4
 74
     0
 42
0.000000001
 43
0.00000001
 40
0.6
 40
0.6
 40
0.6
 40
0.6
 40
1.0
 40
1.0
 40
1.0
 40
1.0
 10
4.34993
 20
-7.38155
 30
0.0
 10
3.93045
 20
-7.38175
 30
0.0
 10
3.66315
 20
-7.422729999999999
 30
0.0
 10
3.66249
 20
-6.91458
 30
0.0
  0
SPLINE
  5
17C
330
1F
100
AcDbEntity
  8
CAMADA_1
 62
   179
100
AcDbSpline
210
0.0
220
0.0
230
1.0
 70
     8
 71
     3
 72
     8
 73
     4
 74
     0
 42
0.000000001
 43
0.00000001
 40
0.0
 40
0.0
 40
0.0
 40
0.0
 40
0.1
 40
0.1
 40
0.1
 40
0.1
 10
5.07341
 20
-8.08247
 30
0.0
 10
5.02425
 20
-7.52963
 30
0.0
 10
5.064709999999999
 20
-6.78314
 30
0.0
 10
5.06497
 20
-6.209110000000001
 30
0.0
  0
SPLINE
  5
17D
330
1F
100
AcDbEntity
  8
CAMADA_1
 62
   179
100
AcDbSpline
210
0.0
220
0.0
230
1.0
 70
     8
 71
     3
 72
     8
 73
     4
 74
     0
 42
0.000000001
 43
0.00000001
 40
0.1
 40
0.1
 40
0.1
 40
0.1
 40
0.2
 40
0.2
 40
0.2
 40
0.2
 10
5.06497
 20
-6.209110000000001
 30
0.0
 10
5.065250000000001
 20
-5.617899999999999
 30
0.0
 10
5.15719
 20
-5.03178
 30
0.0
 10
4.83153
 20
-4.61761
 30
0.0
  0
SPLINE
  5
17E
330
1F
100
AcDbEntity
  8
CAMADA_1
 62
   179
100
AcDbSpline
210
0.0
220
0.0
230
1.0
 70
     8
 71
     3
 72
     8
 73
     4
 74
     0
 42
0.000000001
 43
0.00000001
 40
0.2
 40
0.2
 40
0.2
 40
0.2
 40
0.3
 40
0.3
 40
0.3
 40
0.3
 10
4.83153
 20
-4.61761
 30
0.0
 10
4.24755
 20
-3.87491
 30
0.0
 10
2.78141
 20
-4.15923
 30
0.0
 10
2.95898
 20
-5.636310000000001
 30
0.0
  0
SPLINE
  5
17F
330
1F
100
AcDbEntity
  8
CAMADA_1
 62
   179
100
AcDbSpline
210
0.0
220
0.0
230
1.0
 70
     8
 71
     3
 72
     8
 73
     4
 74
     0
 42
0.000000001
 43
0.00000001
 40
0.4
 40
0.4
 40
0.4
 40
0.4
 40
0.5
 40
0.5
 40
0.5
 40
0.5
 10
3.65417
 20
-5.63642
 30
0.0
 10
3.68272
 20
-5.33253
 30
0.0
 10
3.6185
 20
-5.04691
 30
0.0
 10
3.89281
 20
-4.95472
 30
0.0
  0
SPLINE
  5
180
330
1F
100
AcDbEntity
  8
CAMADA_1
 62
   179
100
AcDbSpline
210
0.0
220
0.0
230
1.0
 70
     8
 71
     3
 72
     8
 73
     4
 74
     0
 42
0.000000001
 43
0.00000001
 40
0.5
 40
0.5
 40
0.5
 40
0.5
 40
0.6
 40
0.6
 40
0.6
 40
0.6
 10
3.89281
 20
-4.95472
 30
0.0
 10
4.22287
 20
-4.84379
 30
0.0
 10
4.34892
 20
-5.10734
 30
0.0
 10
4.35001
 20
-5.39783
 30
0.0
  0
SPLINE
  5
181
330
1F
100
AcDbEntity
  8
CAMADA_1
 62
   179
100
AcDbSpline
210
0.0
220
0.0
230
1.0
 70
     8
 71
     3
 72
     8
 73
     4
 74
     0
 42
0.000000001
 43
0.00000001
 40
0.6
 40
0.6
 40
0.6
 40
0.6
 40
0.7
 40
0.7
 40
0.7
 40
0.7
 10
4.35001
 20
-5.39783
 30
0.0
 10
4.30876
 20
-5.51096
 30
0.0
 10
4.31127
 20
-5.48782
 30
0.0
 10
4.19213
 20
-5.5748
 30
0.0
  0
SPLINE
  5
182
330
1F
100
AcDbEntity
  8
CAMADA_1
 62
   179
100
AcDbSpline
210
0.0
220
0.0
230
1.0
 70
     8
 71
     3
 72
     8
 73
     4
 74
     0
 42
0.000000001
 43
0.00000001
 40
0.7
 40
0.7
 40
0.7
 40
0.7
 40
0.8
 40
0.8
 40
0.8
 40
0.8
 10
4.19213
 20
-5.5748
 30
0.0
 10
3.91927
 20
-5.774020000000001
 30
0.0
 10
3.11242
 20
-6.40928
 30
0.0
 10
2.95039
 20
-6.48255
 30
0.0
  0
SPLINE
  5
183
330
1F
100
AcDbEntity
  8
CAMADA_1
 62
   179
100
AcDbSpline
210
0.0
220
0.0
230
1.0
 70
     8
 71
     3
 72
     8
 73
     4
 74
     0
 42
0.000000001
 43
0.00000001
 40
0.8
 40
0.8
 40
0.8
 40
0.8
 40
1.0
 40
1.0
 40
1.0
 40
1.0
 10
2.95039
 20
-6.48255
 30
0.0
 10
2.9185
 20
-8.11231
 30
0.0
 10
3.49718
 20
-8.15189
 30
0.0
 10
5.07341
 20
-8.08247
 30
0.0
  0
SPLINE
  5
184
330
1F
100
AcDbEntity
  8
CAMADA_1
 62
    24
100
AcDbSpline
210
0.0
220
0.0
230
1.0
 70
     8
 71
     3
 72
     8
 73
     4
 74
     0
 42
0.000000001
 43
0.00000001
 40
0.2
 40
0.2
 40
0.2
 40
0.2
 40
0.3
 40
0.3
 40
0.3
 40
0.3
 10
4.35917
 20
2.1154
 30
0.0
 10
4.54148
 20
2.10166
 30
0.0
 10
4.45423
 20
2.09977
 30
0.0
 10
4.62151
 20
2.10899
 30
0.0
  0
SPLINE
  5
185
330
1F
100
AcDbEntity
  8
CAMADA_1
 62
    24
100
AcDbSpline
210
0.0
220
0.0
230
1.0
 70
     8
 71
     3
 72
     8
 73
     4
 74
     0
 42
0.000000001
 43
0.00000001
 40
0.5
 40
0.5
 40
0.5
 40
0.5
 40
0.6
 40
0.6
 40
0.6
 40
0.6
 10
5.4128
 20
6.95199
 30
0.0
 10
5.41044
 20
7.04396
 30
0.0
 10
5.39071
 20
7.08823
 30
0.0
 10
5.3978
 20
7.2867
 30
0.0
  0
SPLINE
  5
186
330
1F
100
AcDbEntity
  8
CAMADA_1
 62
    24
100
AcDbSpline
210
0.0
220
0.0
230
1.0
 70
     8
 71
     3
 72
     8
 73
     4
 74
     0
 42
0.000000001
 43
0.00000001
 40
0.6
 40
0.6
 40
0.6
 40
0.6
 40
0.7
 40
0.7
 40
0.7
 40
0.7
 10
5.3978
 20
7.2867
 30
0.0
 10
5.40128
 20
7.38407
 30
0.0
 10
5.40122
 20
7.29449
 30
0.0
 10
5.40068
 20
7.366359999999999
 30
0.0
  0
SPLINE
  5
187
330
1F
100
AcDbEntity
  8
CAMADA_1
 62
    24
100
AcDbSpline
210
0.0
220
0.0
230
1.0
 70
     8
 71
     3
 72
     8
 73
     4
 74
     0
 42
0.000000001
 43
0.00000001
 40
0.7
 40
0.7
 40
0.7
 40
0.7
 40
0.8
 40
0.8
 40
0.8
 40
0.8
 10
5.40068
 20
7.366359999999999
 30
0.0
 10
5.39767
 20
7.76219
 30
0.0
 10
5.45386
 20
7.7096
 30
0.0
 10
5.208309999999999
 20
7.701449999999999
 30
0.0
  0
SPLINE
  5
188
330
1F
100
AcDbEntity
  8
CAMADA_1
 62
   179
100
AcDbSpline
210
0.0
220
0.0
230
1.0
 70
     8
 71
     3
 72
     8
 73
     4
 74
     0
 42
0.000000001
 43
0.00000001
 40
0.0
 40
0.0
 40
0.0
 40
0.0
 40
0.25
 40
0.25
 40
0.25
 40
0.25
 10
2.25173
 20
4.9224
 30
0.0
 10
2.25119
 20
5.27796
 30
0.0
 10
2.1784
 20
5.7506
 30
0.0
 10
2.42457
 20
5.895929999999999
 30
0.0
  0
SPLINE
  5
189
330
1F
100
AcDbEntity
  8
CAMADA_1
 62
   179
100
AcDbSpline
210
0.0
220
0.0
230
1.0
 70
     8
 71
     3
 72
     8
 73
     4
 74
     0
 42
0.000000001
 43
0.00000001
 40
0.25
 40
0.25
 40
0.25
 40
0.25
 40
0.5
 40
0.5
 40
0.5
 40
0.5
 10
2.42457
 20
5.895929999999999
 30
0.0
 10
2.64704
 20
6.02728
 30
0.0
 10
2.94805
 20
5.96391
 30
0.0
 10
2.94827
 20
5.43338
 30
0.0
  0
SPLINE
  5
18A
330
1F
100
AcDbEntity
  8
CAMADA_1
 62
   179
100
AcDbSpline
210
0.0
220
0.0
230
1.0
 70
     8
 71
     3
 72
     8
 73
     4
 74
     0
 42
0.000000001
 43
0.00000001
 40
0.5
 40
0.5
 40
0.5
 40
0.5
 40
1.0
 40
1.0
 40
1.0
 40
1.0
 10
2.94827
 20
5.43338
 30
0.0
 10
2.727720000000001
 20
5.27378
 30
0.0
 10
2.49971
 20
5.06588
 30
0.0
 10
2.25173
 20
4.9224
 30
0.0
  0
SPLINE
  5
18B
330
1F
100
AcDbEntity
  8
CAMADA_1
 62
   179
100
AcDbSpline
210
0.0
220
0.0
230
1.0
 70
     8
 71
     3
 72
     8
 73
     4
 74
     0
 42
0.000000001
 43
0.00000001
 40
0.0
 40
0.0
 40
0.0
 40
0.0
 40
0.1
 40
0.1
 40
0.1
 40
0.1
 10
2.25164
 20
3.94961
 30
0.0
 10
2.25172
 20
4.07021
 30
0.0
 10
2.50089
 20
4.20612
 30
0.0
 10
2.5945
 20
4.27622
 30
0.0
  0
SPLINE
  5
18C
330
1F
100
AcDbEntity
  8
CAMADA_1
 62
   179
100
AcDbSpline
210
0.0
220
0.0
230
1.0
 70
     8
 71
     3
 72
     8
 73
     4
 74
     0
 42
0.000000001
 43
0.00000001
 40
0.1
 40
0.1
 40
0.1
 40
0.1
 40
0.2
 40
0.2
 40
0.2
 40
0.2
 10
2.5945
 20
4.27622
 30
0.0
 10
3.81013
 20
5.1865
 30
0.0
 10
3.66301
 20
4.91968
 30
0.0
 10
3.66249
 20
5.53691
 30
0.0
  0
SPLINE
  5
18D
330
1F
100
AcDbEntity
  8
CAMADA_1
 62
   179
100
AcDbSpline
210
0.0
220
0.0
230
1.0
 70
     8
 71
     3
 72
     8
 73
     4
 74
     0
 42
0.000000001
 43
0.00000001
 40
0.2
 40
0.2
 40
0.2
 40
0.2
 40
0.3
 40
0.3
 40
0.3
 40
0.3
 10
3.66249
 20
5.53691
 30
0.0
 10
3.6612
 20
7.05314
 30
0.0
 10
1.54595
 20
6.96663
 30
0.0
 10
1.54597
 20
5.60746
 30
0.0
  0
SPLINE
  5
18E
330
1F
100
AcDbEntity
  8
CAMADA_1
 62
   179
100
AcDbSpline
210
0.0
220
0.0
230
1.0
 70
     8
 71
     3
 72
     8
 73
     4
 74
     0
 42
0.000000001
 43
0.00000001
 40
0.4
 40
0.4
 40
0.4
 40
0.4
 40
0.5
 40
0.5
 40
0.5
 40
0.5
 10
1.54609
 20
3.84379
 30
0.0
 10
1.54614
 20
2.47217
 30
0.0
 10
3.662669999999999
 20
2.40045
 30
0.0
 10
3.66254
 20
3.91434
 30
0.0
  0
SPLINE
  5
18F
330
1F
100
AcDbEntity
  8
CAMADA_1
 62
   179
100
AcDbSpline
210
0.0
220
0.0
230
1.0
 70
     8
 71
     3
 72
     8
 73
     4
 74
     0
 42
0.000000001
 43
0.00000001
 40
0.8
 40
0.8
 40
0.8
 40
0.8
 40
1.0
 40
1.0
 40
1.0
 40
1.0
 10
2.94827
 20
3.91434
 30
0.0
 10
2.94807
 20
3.36944
 30
0.0
 10
2.25127
 20
3.33211
 30
0.0
 10
2.25164
 20
3.94961
 30
0.0
  0
SPLINE
  5
190
330
1F
100
AcDbEntity
  8
CAMADA_1
 62
   179
100
AcDbSpline
210
0.0
220
0.0
230
1.0
 70
     8
 71
     3
 72
     8
 73
     4
 74
     0
 42
0.000000001
 43
0.00000001
 40
0.0
 40
0.0
 40
0.0
 40
0.0
 40
0.25
 40
0.25
 40
0.25
 40
0.25
 10
-1.25793
 20
-5.946569999999999
 30
0.0
 10
-1.25743
 20
-5.642859999999999
 30
0.0
 10
-1.33281
 20
-5.14375
 30
0.0
 10
-1.11272
 20
-4.99628
 30
0.0
  0
SPLINE
  5
191
330
1F
100
AcDbEntity
  8
CAMADA_1
 62
   179
100
AcDbSpline
210
0.0
220
0.0
230
1.0
 70
     8
 71
     3
 72
     8
 73
     4
 74
     0
 42
0.000000001
 43
0.00000001
 40
0.25
 40
0.25
 40
0.25
 40
0.25
 40
0.5
 40
0.5
 40
0.5
 40
0.5
 10
-1.11272
 20
-4.99628
 30
0.0
 10
-0.79496
 20
-4.78338
 30
0.0
 10
-0.56311
 20
-5.05705
 30
0.0
 10
-0.56199
 20
-5.39783
 30
0.0
  0
SPLINE
  5
192
330
1F
100
AcDbEntity
  8
CAMADA_1
 62
   179
100
AcDbSpline
210
0.0
220
0.0
230
1.0
 70
     8
 71
     3
 72
     8
 73
     4
 74
     0
 42
0.000000001
 43
0.00000001
 40
0.5
 40
0.5
 40
0.5
 40
0.5
 40
1.0
 40
1.0
 40
1.0
 40
1.0
 10
-0.56199
 20
-5.39783
 30
0.0
 10
-0.58323
 20
-5.51168
 30
0.0
 10
-1.16383
 20
-5.9059
 30
0.0
 10
-1.25793
 20
-5.946569999999999
 30
0.0
  0
SPLINE
  5
193
330
1F
100
AcDbEntity
  8
CAMADA_1
 62
   179
100
AcDbSpline
210
0.0
220
0.0
230
1.0
 70
     8
 71
     3
 72
     8
 73
     4
 74
     0
 42
0.000000001
 43
0.00000001
 40
0.0
 40
0.0
 40
0.0
 40
0.0
 40
0.0833333333333333
 40
0.0833333333333333
 40
0.0833333333333333
 40
0.0833333333333333
 10
-1.25779
 20
-6.91458
 30
0.0
 10
-1.21268
 20
-6.81104
 30
0.0
 10
-1.20596
 20
-6.82344
 30
0.0
 10
-1.09478
 20
-6.74221
 30
0.0
  0
SPLINE
  5
194
330
1F
100
AcDbEntity
  8
CAMADA_1
 62
   179
100
AcDbSpline
210
0.0
220
0.0
230
1.0
 70
     8
 71
     3
 72
     8
 73
     4
 74
     0
 42
0.000000001
 43
0.00000001
 40
0.1666666666666667
 40
0.1666666666666667
 40
0.1666666666666667
 40
0.1666666666666667
 40
0.25
 40
0.25
 40
0.25
 40
0.25
 10
-0.57012
 20
-6.35038
 30
0.0
 10
-0.39921
 20
-6.22198
 30
0.0
 10
-0.01702
 20
-5.90543
 30
0.0
 10
0.15102
 20
-5.83455
 30
0.0
  0
SPLINE
  5
195
330
1F
100
AcDbEntity
  8
CAMADA_1
 62
   179
100
AcDbSpline
210
0.0
220
0.0
230
1.0
 70
     8
 71
     3
 72
     8
 73
     4
 74
     0
 42
0.000000001
 43
0.00000001
 40
0.3333333333333333
 40
0.3333333333333333
 40
0.3333333333333333
 40
0.3333333333333333
 40
0.4166666666666667
 40
0.4166666666666667
 40
0.4166666666666667
 40
0.4166666666666667
 10
0.15284
 20
-5.36255
 30
0.0
 10
0.15238
 20
-3.77488
 30
0.0
 10
-1.96413
 20
-3.9766
 30
0.0
 10
-1.96395
 20
-5.22146
 30
0.0
  0
SPLINE
  5
196
330
1F
100
AcDbEntity
  8
CAMADA_1
 62
   179
100
AcDbSpline
210
0.0
220
0.0
230
1.0
 70
     8
 71
     3
 72
     8
 73
     4
 74
     0
 42
0.000000001
 43
0.00000001
 40
0.5
 40
0.5
 40
0.5
 40
0.5
 40
0.5833333333333334
 40
0.5833333333333334
 40
0.5833333333333334
 40
0.5833333333333334
 10
-1.96404
 20
-7.09095
 30
0.0
 10
-1.96407
 20
-8.29913
 30
0.0
 10
0.26369
 20
-8.67355
 30
0.0
 10
0.1487
 20
-6.67856
 30
0.0
  0
SPLINE
  5
197
330
1F
100
AcDbEntity
  8
CAMADA_1
 62
   179
100
AcDbSpline
210
0.0
220
0.0
230
1.0
 70
     8
 71
     3
 72
     8
 73
     4
 74
     0
 42
0.000000001
 43
0.00000001
 40
0.6666666666666666
 40
0.6666666666666666
 40
0.6666666666666666
 40
0.6666666666666666
 40
0.75
 40
0.75
 40
0.75
 40
0.75
 10
-0.55552
 20
-6.68262
 30
0.0
 10
-0.57861
 20
-6.98384
 30
0.0
 10
-0.52103
 20
-7.278389999999999
 30
0.0
 10
-0.7983599999999998
 20
-7.36026
 30
0.0
  0
SPLINE
  5
198
330
1F
100
AcDbEntity
  8
CAMADA_1
 62
   179
100
AcDbSpline
210
0.0
220
0.0
230
1.0
 70
     8
 71
     3
 72
     8
 73
     4
 74
     0
 42
0.000000001
 43
0.00000001
 40
0.75
 40
0.75
 40
0.75
 40
0.75
 40
0.8333333333333334
 40
0.8333333333333334
 40
0.8333333333333334
 40
0.8333333333333334
 10
-0.7983599999999998
 20
-7.36026
 30
0.0
 10
-0.9419799999999999
 20
-7.40265
 30
0.0
 10
-1.08004
 20
-7.348409999999999
 30
0.0
 10
-1.15071
 20
-7.28426
 30
0.0
  0
SPLINE
  5
199
330
1F
100
AcDbEntity
  8
CAMADA_1
 62
   179
100
AcDbSpline
210
0.0
220
0.0
230
1.0
 70
     8
 71
     3
 72
     8
 73
     4
 74
     0
 42
0.000000001
 43
0.00000001
 40
0.8333333333333334
 40
0.8333333333333334
 40
0.8333333333333334
 40
0.8333333333333334
 40
1.0
 40
1.0
 40
1.0
 40
1.0
 10
-1.15071
 20
-7.28426
 30
0.0
 10
-1.2438
 20
-7.19976
 30
0.0
 10
-1.25621
 20
-7.0775
 30
0.0
 10
-1.25779
 20
-6.91458
 30
0.0
  0
SPLINE
  5
19A
330
1F
100
AcDbEntity
  8
CAMADA_1
 62
   179
100
AcDbSpline
210
0.0
220
0.0
230
1.0
 70
     8
 71
     3
 72
     8
 73
     4
 74
     0
 42
0.000000001
 43
0.00000001
 40
0.4
 40
0.4
 40
0.4
 40
0.4
 40
0.5
 40
0.5
 40
0.5
 40
0.5
 10
-5.10309
 20
0.33425
 30
0.0
 10
-4.79901
 20
0.33369
 30
0.0
 10
-4.49322
 20
0.35995
 30
0.0
 10
-4.43275
 20
0.0561
 30
0.0
  0
SPLINE
  5
19B
330
1F
100
AcDbEntity
  8
CAMADA_1
 62
   179
100
AcDbSpline
210
0.0
220
0.0
230
1.0
 70
     8
 71
     3
 72
     8
 73
     4
 74
     0
 42
0.000000001
 43
0.00000001
 40
0.7
 40
0.7
 40
0.7
 40
0.7
 40
0.8
 40
0.8
 40
0.8
 40
0.8
 10
-3.70964
 20
-2.82287
 30
0.0
 10
-3.7092
 20
-2.02334
 30
0.0
 10
-3.71002
 20
-1.22381
 30
0.0
 10
-3.70961
 20
-0.42428
 30
0.0
  0
SPLINE
  5
19C
330
1F
100
AcDbEntity
  8
CAMADA_1
 62
   179
100
AcDbSpline
210
0.0
220
0.0
230
1.0
 70
     8
 71
     3
 72
     8
 73
     4
 74
     0
 42
0.000000001
 43
0.00000001
 40
0.8
 40
0.8
 40
0.8
 40
0.8
 40
1.0
 40
1.0
 40
1.0
 40
1.0
 10
-3.70961
 20
-0.42428
 30
0.0
 10
-3.70928
 20
0.22176
 30
0.0
 10
-3.75386
 20
0.88004
 30
0.0
 10
-4.62195
 20
1.0338
 30
0.0
  0
SPLINE
  5
19D
330
1F
100
AcDbEntity
  8
CAMADA_1
 62
   179
100
AcDbSpline
210
0.0
220
0.0
230
1.0
 70
     8
 71
     3
 72
     8
 73
     4
 74
     0
 42
0.000000001
 43
0.00000001
 40
0.2222222222222222
 40
0.2222222222222222
 40
0.2222222222222222
 40
0.2222222222222222
 40
0.3333333333333333
 40
0.3333333333333333
 40
0.3333333333333333
 40
0.3333333333333333
 10
-2.65909
 20
5.95145
 30
0.0
 10
-1.82908
 20
5.950869999999999
 30
0.0
 10
-1.96359
 20
5.818509999999999
 30
0.0
 10
-1.96395
 20
4.72563
 30
0.0
  0
SPLINE
  5
19E
330
1F
100
AcDbEntity
  8
CAMADA_1
 62
   179
100
AcDbSpline
210
0.0
220
0.0
230
1.0
 70
     8
 71
     3
 72
     8
 73
     4
 74
     0
 42
0.000000001
 43
0.00000001
 40
0.3333333333333333
 40
0.3333333333333333
 40
0.3333333333333333
 40
0.3333333333333333
 40
0.4444444444444444
 40
0.4444444444444444
 40
0.4444444444444444
 40
0.4444444444444444
 10
-1.96395
 20
4.72563
 30
0.0
 10
-1.96417
 20
4.0833
 30
0.0
 10
-1.96647
 20
3.4404
 30
0.0
 10
-1.96372
 20
2.79814
 30
0.0
  0
SPLINE
  5
19F
330
1F
100
AcDbEntity
  8
CAMADA_1
 62
   179
100
AcDbSpline
210
0.0
220
0.0
230
1.0
 70
     8
 71
     3
 72
     8
 73
     4
 74
     0
 42
0.000000001
 43
0.00000001
 40
0.6666666666666666
 40
0.6666666666666666
 40
0.6666666666666666
 40
0.6666666666666666
 40
0.7777777777777778
 40
0.7777777777777778
 40
0.7777777777777778
 40
0.7777777777777778
 10
-1.26732
 20
5.76087
 30
0.0
 10
-1.42312
 20
6.86328
 30
0.0
 10
-2.62314
 20
6.65563
 30
0.0
 10
-3.36515
 20
6.65734
 30
0.0
  0
SPLINE
  5
1A0
330
1F
100
AcDbEntity
  8
CAMADA_1
 62
   179
100
AcDbSpline
210
0.0
220
0.0
230
1.0
 70
     8
 71
     3
 72
     8
 73
     4
 74
     0
 42
0.000000001
 43
0.00000001
 40
0.0
 40
0.0
 40
0.0
 40
0.0
 40
0.0909090909090909
 40
0.0909090909090909
 40
0.0909090909090909
 40
0.0909090909090909
 10
-4.42392
 20
-3.8458
 30
0.0
 10
-4.36855
 20
-3.8458
 30
0.0
 10
-4.37983
 20
-3.83049
 30
0.0
 10
-4.37983
 20
-3.88107
 30
0.0
  0
SPLINE
  5
1A1
330
1F
100
AcDbEntity
  8
CAMADA_1
 62
   179
100
AcDbSpline
210
0.0
220
0.0
230
1.0
 70
     8
 71
     3
 72
     8
 73
     4
 74
     0
 42
0.000000001
 43
0.00000001
 40
0.2727272727272727
 40
0.2727272727272727
 40
0.2727272727272727
 40
0.2727272727272727
 40
0.3636363636363636
 40
0.3636363636363636
 40
0.3636363636363636
 40
0.3636363636363636
 10
-3.36566
 20
-8.04333
 30
0.0
 10
-3.30689
 20
-8.04333
 30
0.0
 10
-3.32163
 20
-8.02867
 30
0.0
 10
-3.32163
 20
-8.08752
 30
0.0
  0
SPLINE
  5
1A2
330
1F
100
AcDbEntity
  8
CAMADA_1
 62
   179
100
AcDbSpline
210
0.0
220
0.0
230
1.0
 70
     8
 71
     3
 72
     8
 73
     4
 74
     0
 42
0.000000001
 43
0.00000001
 40
0.1333333333333333
 40
0.1333333333333333
 40
0.1333333333333333
 40
0.1333333333333333
 40
0.2
 40
0.2
 40
0.2
 40
0.2
 10
-3.70959
 20
3.49981
 30
0.0
 10
-4.08819
 20
3.5001
 30
0.0
 10
-4.6113
 20
3.41182
 30
0.0
 10
-4.7316
 20
3.70306
 30
0.0
  0
SPLINE
  5
1A3
330
1F
100
AcDbEntity
  8
CAMADA_1
 62
   179
100
AcDbSpline
210
0.0
220
0.0
230
1.0
 70
     8
 71
     3
 72
     8
 73
     4
 74
     0
 42
0.000000001
 43
0.00000001
 40
0.2
 40
0.2
 40
0.2
 40
0.2
 40
0.2666666666666667
 40
0.2666666666666667
 40
0.2666666666666667
 40
0.2666666666666667
 10
-4.7316
 20
3.70306
 30
0.0
 10
-4.79337
 20
3.85261
 30
0.0
 10
-4.7795
 20
4.68408
 30
0.0
 10
-4.75909
 20
4.89324
 30
0.0
  0
SPLINE
  5
1A4
330
1F
100
AcDbEntity
  8
CAMADA_1
 62
   179
100
AcDbSpline
210
0.0
220
0.0
230
1.0
 70
     8
 71
     3
 72
     8
 73
     4
 74
     0
 42
0.000000001
 43
0.00000001
 40
0.4666666666666667
 40
0.4666666666666667
 40
0.4666666666666667
 40
0.4666666666666667
 40
0.5333333333333333
 40
0.5333333333333333
 40
0.5333333333333333
 40
0.5333333333333333
 10
-4.7675
 20
5.60759
 30
0.0
 10
-4.77055
 20
7.10228
 30
0.0
 10
-4.91511
 20
7.00399
 30
0.0
 10
-3.72698
 20
7.000109999999999
 30
0.0
  0
SPLINE
  5
1A5
330
1F
100
AcDbEntity
  8
CAMADA_1
 62
   179
100
AcDbSpline
210
0.0
220
0.0
230
1.0
 70
     8
 71
     3
 72
     8
 73
     4
 74
     0
 42
0.000000001
 43
0.00000001
 40
0.6
 40
0.6
 40
0.6
 40
0.6
 40
0.6666666666666666
 40
0.6666666666666666
 40
0.6666666666666666
 40
0.6666666666666666
 10
-3.713859999999999
 20
7.71543
 30
0.0
 10
-4.42669
 20
7.714429999999999
 30
0.0
 10
-4.80726
 20
7.791359999999999
 30
0.0
 10
-5.20774
 20
7.35187
 30
0.0
  0
SPLINE
  5
1A6
330
1F
100
AcDbEntity
  8
CAMADA_1
 62
   179
100
AcDbSpline
210
0.0
220
0.0
230
1.0
 70
     8
 71
     3
 72
     8
 73
     4
 74
     0
 42
0.000000001
 43
0.00000001
 40
0.6666666666666666
 40
0.6666666666666666
 40
0.6666666666666666
 40
0.6666666666666666
 40
0.7333333333333333
 40
0.7333333333333333
 40
0.7333333333333333
 40
0.7333333333333333
 10
-5.20774
 20
7.35187
 30
0.0
 10
-5.57928
 20
6.94415
 30
0.0
 10
-5.47348
 20
6.34421
 30
0.0
 10
-5.47344
 20
5.71328
 30
0.0
  0
SPLINE
  5
1A7
330
1F
100
AcDbEntity
  8
CAMADA_1
 62
   179
100
AcDbSpline
210
0.0
220
0.0
230
1.0
 70
     8
 71
     3
 72
     8
 73
     4
 74
     0
 42
0.000000001
 43
0.00000001
 40
0.7333333333333333
 40
0.7333333333333333
 40
0.7333333333333333
 40
0.7333333333333333
 40
0.8
 40
0.8
 40
0.8
 40
0.8
 10
-5.47344
 20
5.71328
 30
0.0
 10
-5.473409999999999
 20
5.09545
 30
0.0
 10
-5.48908
 20
4.45738
 30
0.0
 10
-5.47378
 20
3.84214
 30
0.0
  0
SPLINE
  5
1A8
330
1F
100
AcDbEntity
  8
CAMADA_1
 62
   179
100
AcDbSpline
210
0.0
220
0.0
230
1.0
 70
     8
 71
     3
 72
     8
 73
     4
 74
     0
 42
0.000000001
 43
0.00000001
 40
0.8
 40
0.8
 40
0.8
 40
0.8
 40
0.8666666666666667
 40
0.8666666666666667
 40
0.8666666666666667
 40
0.8666666666666667
 10
-5.47378
 20
3.84214
 30
0.0
 10
-5.466339999999999
 20
3.54288
 30
0.0
 10
-5.376429999999999
 20
3.32382
 30
0.0
 10
-5.21369
 20
3.15147
 30
0.0
  0
SPLINE
  5
1A9
330
1F
100
AcDbEntity
  8
CAMADA_1
 62
   179
100
AcDbSpline
210
0.0
220
0.0
230
1.0
 70
     8
 71
     3
 72
     8
 73
     4
 74
     0
 42
0.000000001
 43
0.00000001
 40
0.8666666666666667
 40
0.8666666666666667
 40
0.8666666666666667
 40
0.8666666666666667
 40
1.0
 40
1.0
 40
1.0
 40
1.0
 10
-5.21369
 20
3.15147
 30
0.0
 10
-4.98544
 20
2.90975
 30
0.0
 10
-4.9505
 20
2.93839
 30
0.0
 10
-4.6156
 20
2.79572
 30
0.0
  0
SPLINE
  5
1AA
330
1F
100
AcDbEntity
  8
CAMADA_1
 62
   179
100
AcDbSpline
210
0.0
220
0.0
230
1.0
 70
     8
 71
     3
 72
     8
 73
     4
 74
     0
 42
0.000000001
 43
0.00000001
 40
0.0
 40
0.0
 40
0.0
 40
0.0
 40
0.0769230769230769
 40
0.0769230769230769
 40
0.0769230769230769
 40
0.0769230769230769
 10
1.90732
 20
-6.67599
 30
0.0
 10
1.88714
 20
-6.88784
 30
0.0
 10
1.93827
 20
-7.10014
 30
0.0
 10
1.81392
 20
-7.25281
 30
0.0
  0
SPLINE
  5
1AB
330
1F
100
AcDbEntity
  8
CAMADA_1
 62
   179
100
AcDbSpline
210
0.0
220
0.0
230
1.0
 70
     8
 71
     3
 72
     8
 73
     4
 74
     0
 42
0.000000001
 43
0.00000001
 40
0.0769230769230769
 40
0.0769230769230769
 40
0.0769230769230769
 40
0.0769230769230769
 40
0.1538461538461539
 40
0.1538461538461539
 40
0.1538461538461539
 40
0.1538461538461539
 10
1.81392
 20
-7.25281
 30
0.0
 10
1.7088
 20
-7.381869999999999
 30
0.0
 10
1.49004
 20
-7.43738
 30
0.0
 10
1.33322
 20
-7.303019999999999
 30
0.0
  0
SPLINE
  5
1AC
330
1F
100
AcDbEntity
  8
CAMADA_1
 62
   179
100
AcDbSpline
210
0.0
220
0.0
230
1.0
 70
     8
 71
     3
 72
     8
 73
     4
 74
     0
 42
0.000000001
 43
0.00000001
 40
0.1538461538461539
 40
0.1538461538461539
 40
0.1538461538461539
 40
0.1538461538461539
 40
0.2307692307692308
 40
0.2307692307692308
 40
0.2307692307692308
 40
0.2307692307692308
 10
1.33322
 20
-7.303019999999999
 30
0.0
 10
1.117
 20
-7.11774
 30
0.0
 10
1.20214
 20
-6.46905
 30
0.0
 10
1.20213
 20
-6.13857
 30
0.0
  0
SPLINE
  5
1AD
330
1F
100
AcDbEntity
  8
CAMADA_1
 62
   179
100
AcDbSpline
210
0.0
220
0.0
230
1.0
 70
     8
 71
     3
 72
     8
 73
     4
 74
     0
 42
0.000000001
 43
0.00000001
 40
0.2307692307692308
 40
0.2307692307692308
 40
0.2307692307692308
 40
0.2307692307692308
 40
0.3076923076923077
 40
0.3076923076923077
 40
0.3076923076923077
 40
0.3076923076923077
 10
1.20213
 20
-6.13857
 30
0.0
 10
1.20211
 20
-5.81427
 30
0.0
 10
1.11201
 20
-5.16541
 30
0.0
 10
1.35303
 20
-4.99376
 30
0.0
  0
SPLINE
  5
1AE
330
1F
100
AcDbEntity
  8
CAMADA_1
 62
   179
100
AcDbSpline
210
0.0
220
0.0
230
1.0
 70
     8
 71
     3
 72
     8
 73
     4
 74
     0
 42
0.000000001
 43
0.00000001
 40
0.3076923076923077
 40
0.3076923076923077
 40
0.3076923076923077
 40
0.3076923076923077
 40
0.3846153846153846
 40
0.3846153846153846
 40
0.3846153846153846
 40
0.3846153846153846
 10
1.35303
 20
-4.99376
 30
0.0
 10
1.52141
 20
-4.87384
 30
0.0
 10
1.7313
 20
-4.94581
 30
0.0
 10
1.82701
 20
-5.08156
 30
0.0
  0
SPLINE
  5
1AF
330
1F
100
AcDbEntity
  8
CAMADA_1
 62
   179
100
AcDbSpline
210
0.0
220
0.0
230
1.0
 70
     8
 71
     3
 72
     8
 73
     4
 74
     0
 42
0.000000001
 43
0.00000001
 40
0.3846153846153846
 40
0.3846153846153846
 40
0.3846153846153846
 40
0.3846153846153846
 40
0.4615384615384616
 40
0.4615384615384616
 40
0.4615384615384616
 40
0.4615384615384616
 10
1.82701
 20
-5.08156
 30
0.0
 10
1.93207
 20
-5.2306
 30
0.0
 10
1.88722
 20
-5.428069999999999
 30
0.0
 10
1.90732
 20
-5.63638
 30
0.0
  0
SPLINE
  5
1B0
330
1F
100
AcDbEntity
  8
CAMADA_1
 62
   179
100
AcDbSpline
210
0.0
220
0.0
230
1.0
 70
     8
 71
     3
 72
     8
 73
     4
 74
     0
 42
0.000000001
 43
0.00000001
 40
0.5384615384615384
 40
0.5384615384615384
 40
0.5384615384615384
 40
0.5384615384615384
 40
0.6153846153846154
 40
0.6153846153846154
 40
0.6153846153846154
 40
0.6153846153846154
 10
2.59578
 20
-5.63642
 30
0.0
 10
2.76108
 20
-3.89806
 30
0.0
 10
0.9171499999999999
 20
-3.89836
 30
0.0
 10
0.5578
 20
-4.9029
 30
0.0
  0
SPLINE
  5
1B1
330
1F
100
AcDbEntity
  8
CAMADA_1
 62
   179
100
AcDbSpline
210
0.0
220
0.0
230
1.0
 70
     8
 71
     3
 72
     8
 73
     4
 74
     0
 42
0.000000001
 43
0.00000001
 40
0.6153846153846154
 40
0.6153846153846154
 40
0.6153846153846154
 40
0.6153846153846154
 40
0.6923076923076923
 40
0.6923076923076923
 40
0.6923076923076923
 40
0.6923076923076923
 10
0.5578
 20
-4.9029
 30
0.0
 10
0.44032
 20
-5.23133
 30
0.0
 10
0.48791
 20
-5.79249
 30
0.0
 10
0.48787
 20
-6.17384
 30
0.0
  0
SPLINE
  5
1B2
330
1F
100
AcDbEntity
  8
CAMADA_1
 62
   179
100
AcDbSpline
210
0.0
220
0.0
230
1.0
 70
     8
 71
     3
 72
     8
 73
     4
 74
     0
 42
0.000000001
 43
0.00000001
 40
0.6923076923076923
 40
0.6923076923076923
 40
0.6923076923076923
 40
0.6923076923076923
 40
0.7692307692307693
 40
0.7692307692307693
 40
0.7692307692307693
 40
0.7692307692307693
 10
0.48787
 20
-6.17384
 30
0.0
 10
0.48783
 20
-6.56894
 30
0.0
 10
0.43045
 20
-7.128239999999999
 30
0.0
 10
0.57791
 20
-7.45954
 30
0.0
  0
SPLINE
  5
1B3
330
1F
100
AcDbEntity
  8
CAMADA_1
 62
   179
100
AcDbSpline
210
0.0
220
0.0
230
1.0
 70
     8
 71
     3
 72
     8
 73
     4
 74
     0
 42
0.000000001
 43
0.00000001
 40
0.7692307692307693
 40
0.7692307692307693
 40
0.7692307692307693
 40
0.7692307692307693
 40
0.8461538461538461
 40
0.8461538461538461
 40
0.8461538461538461
 40
0.8461538461538461
 10
0.57791
 20
-7.45954
 30
0.0
 10
1.02125
 20
-8.4556
 30
0.0
 10
2.75441
 20
-8.33846
 30
0.0
 10
2.59588
 20
-6.67611
 30
0.0
  0
SPLINE
  5
1B4
330
1F
100
AcDbEntity
  8
CAMADA_1
 62
   179
100
AcDbSpline
210
0.0
220
0.0
230
1.0
 70
     8
 71
     3
 72
     8
 73
     4
 74
     0
 42
0.000000001
 43
0.00000001
 40
0.0
 40
0.0
 40
0.0
 40
0.0
 40
0.0833333333333333
 40
0.0833333333333333
 40
0.0833333333333333
 40
0.0833333333333333
 10
1.20838
 20
-1.40662
 30
0.0
 10
0.94768
 20
-1.26107
 30
0.0
 10
0.7468000000000001
 20
-0.89129
 30
0.0
 10
0.48638
 20
-0.7366
 30
0.0
  0
SPLINE
  5
1B5
330
1F
100
AcDbEntity
  8
CAMADA_1
 62
   179
100
AcDbSpline
210
0.0
220
0.0
230
1.0
 70
     8
 71
     3
 72
     8
 73
     4
 74
     0
 42
0.000000001
 43
0.00000001
 40
0.0833333333333333
 40
0.0833333333333333
 40
0.0833333333333333
 40
0.0833333333333333
 40
0.1666666666666667
 40
0.1666666666666667
 40
0.1666666666666667
 40
0.1666666666666667
 10
0.48638
 20
-0.7366
 30
0.0
 10
0.4891599999999999
 20
-0.93479
 30
0.0
 10
0.51136
 20
-1.75758
 30
0.0
 10
0.46819
 20
-1.88797
 30
0.0
  0
SPLINE
  5
1B6
330
1F
100
AcDbEntity
  8
CAMADA_1
 62
   179
100
AcDbSpline
210
0.0
220
0.0
230
1.0
 70
     8
 71
     3
 72
     8
 73
     4
 74
     0
 42
0.000000001
 43
0.00000001
 40
0.1666666666666667
 40
0.1666666666666667
 40
0.1666666666666667
 40
0.1666666666666667
 40
0.25
 40
0.25
 40
0.25
 40
0.25
 10
0.46819
 20
-1.88797
 30
0.0
 10
0.42726
 20
-2.01163
 30
0.0
 10
0.28616
 20
-2.11705
 30
0.0
 10
0.13702
 20
-2.11255
 30
0.0
  0
SPLINE
  5
1B7
330
1F
100
AcDbEntity
  8
CAMADA_1
 62
   179
100
AcDbSpline
210
0.0
220
0.0
230
1.0
 70
     8
 71
     3
 72
     8
 73
     4
 74
     0
 42
0.000000001
 43
0.00000001
 40
0.25
 40
0.25
 40
0.25
 40
0.25
 40
0.3333333333333333
 40
0.3333333333333333
 40
0.3333333333333333
 40
0.3333333333333333
 10
0.13702
 20
-2.11255
 30
0.0
 10
-0.05085
 20
-2.10687
 30
0.0
 10
-0.12538
 20
-1.99621
 30
0.0
 10
-0.19089
 20
-1.86348
 30
0.0
  0
SPLINE
  5
1B8
330
1F
100
AcDbEntity
  8
CAMADA_1
 62
   179
100
AcDbSpline
210
0.0
220
0.0
230
1.0
 70
     8
 71
     3
 72
     8
 73
     4
 74
     0
 42
0.000000001
 43
0.00000001
 40
0.3333333333333333
 40
0.3333333333333333
 40
0.3333333333333333
 40
0.3333333333333333
 40
0.4166666666666667
 40
0.4166666666666667
 40
0.4166666666666667
 40
0.4166666666666667
 10
-0.19089
 20
-1.86348
 30
0.0
 10
-0.25874
 20
-1.70585
 30
0.0
 10
-0.22588
 20
-0.54154
 30
0.0
 10
-0.22518
 20
-0.38892
 30
0.0
  0
SPLINE
  5
1B9
330
1F
100
AcDbEntity
  8
CAMADA_1
 62
   179
100
AcDbSpline
210
0.0
220
0.0
230
1.0
 70
     8
 71
     3
 72
     8
 73
     4
 74
     0
 42
0.000000001
 43
0.00000001
 40
0.4166666666666667
 40
0.4166666666666667
 40
0.4166666666666667
 40
0.4166666666666667
 40
0.5
 40
0.5
 40
0.5
 40
0.5
 10
-0.22518
 20
-0.38892
 30
0.0
 10
-0.22332
 20
0.02078
 30
0.0
 10
-0.17541
 20
-0.04425
 30
0.0
 10
-0.39737
 20
0.17179
 30
0.0
  0
SPLINE
  5
1BA
330
1F
100
AcDbEntity
  8
CAMADA_1
 62
   179
100
AcDbSpline
210
0.0
220
0.0
230
1.0
 70
     8
 71
     3
 72
     8
 73
     4
 74
     0
 42
0.000000001
 43
0.00000001
 40
0.5
 40
0.5
 40
0.5
 40
0.5
 40
0.5833333333333334
 40
0.5833333333333334
 40
0.5833333333333334
 40
0.5833333333333334
 10
-0.39737
 20
0.17179
 30
0.0
 10
-0.52005
 20
0.2912
 30
0.0
 10
-0.60877
 20
0.44785
 30
0.0
 10
-0.78801
 20
0.50614
 30
0.0
  0
SPLINE
  5
1BB
330
1F
100
AcDbEntity
  8
CAMADA_1
 62
   179
100
AcDbSpline
210
0.0
220
0.0
230
1.0
 70
     8
 71
     3
 72
     8
 73
     4
 74
     0
 42
0.000000001
 43
0.00000001
 40
0.5833333333333334
 40
0.5833333333333334
 40
0.5833333333333334
 40
0.5833333333333334
 40
0.6666666666666666
 40
0.6666666666666666
 40
0.6666666666666666
 40
0.6666666666666666
 10
-0.78801
 20
0.50614
 30
0.0
 10
-0.9734
 20
-0.05109
 30
0.0
 10
-0.9144999999999999
 20
-0.49502
 30
0.0
 10
-0.91444
 20
-1.12975
 30
0.0
  0
SPLINE
  5
1BC
330
1F
100
AcDbEntity
  8
CAMADA_1
 62
   179
100
AcDbSpline
210
0.0
220
0.0
230
1.0
 70
     8
 71
     3
 72
     8
 73
     4
 74
     0
 42
0.000000001
 43
0.00000001
 40
0.6666666666666666
 40
0.6666666666666666
 40
0.6666666666666666
 40
0.6666666666666666
 40
0.75
 40
0.75
 40
0.75
 40
0.75
 10
-0.91444
 20
-1.12975
 30
0.0
 10
-0.91438
 20
-1.77691
 30
0.0
 10
-0.98315
 20
-2.13471
 30
0.0
 10
-0.59058
 20
-2.52565
 30
0.0
  0
SPLINE
  5
1BD
330
1F
100
AcDbEntity
  8
CAMADA_1
 62
   179
100
AcDbSpline
210
0.0
220
0.0
230
1.0
 70
     8
 71
     3
 72
     8
 73
     4
 74
     0
 42
0.000000001
 43
0.00000001
 40
0.75
 40
0.75
 40
0.75
 40
0.75
 40
0.8333333333333334
 40
0.8333333333333334
 40
0.8333333333333334
 40
0.8333333333333334
 10
-0.59058
 20
-2.52565
 30
0.0
 10
-0.26647
 20
-2.84842
 30
0.0
 10
0.26535
 20
-2.93235
 30
0.0
 10
0.714
 20
-2.66161
 30
0.0
  0
SPLINE
  5
1BE
330
1F
100
AcDbEntity
  8
CAMADA_1
 62
   179
100
AcDbSpline
210
0.0
220
0.0
230
1.0
 70
     8
 71
     3
 72
     8
 73
     4
 74
     0
 42
0.000000001
 43
0.00000001
 40
0.8333333333333334
 40
0.8333333333333334
 40
0.8333333333333334
 40
0.8333333333333334
 40
1.0
 40
1.0
 40
1.0
 40
1.0
 10
0.714
 20
-2.66161
 30
0.0
 10
1.16747
 20
-2.38796
 30
0.0
 10
1.16558
 20
-2.06473
 30
0.0
 10
1.20838
 20
-1.40662
 30
0.0
  0
SPLINE
  5
1BF
330
1F
100
AcDbEntity
  8
CAMADA_1
 62
    24
100
AcDbSpline
210
0.0
220
0.0
230
1.0
 70
     8
 71
     3
 72
     8
 73
     4
 74
     0
 42
0.000000001
 43
0.00000001
 40
0.0
 40
0.0
 40
0.0
 40
0.0
 40
0.0666666666666667
 40
0.0666666666666667
 40
0.0666666666666667
 40
0.0666666666666667
 10
0.46274
 20
1.01763
 30
0.0
 10
0.55579
 20
0.95728
 30
0.0
 10
0.62665
 20
0.94691
 30
0.0
 10
0.73012
 20
0.8773399999999999
 30
0.0
  0
SPLINE
  5
1C0
330
1F
100
AcDbEntity
  8
CAMADA_1
 62
    24
100
AcDbSpline
210
0.0
220
0.0
230
1.0
 70
     8
 71
     3
 72
     8
 73
     4
 74
     0
 42
0.000000001
 43
0.00000001
 40
0.0666666666666667
 40
0.0666666666666667
 40
0.0666666666666667
 40
0.0666666666666667
 40
0.1333333333333333
 40
0.1333333333333333
 40
0.1333333333333333
 40
0.1333333333333333
 10
0.73012
 20
0.8773399999999999
 30
0.0
 10
0.82853
 20
0.81116
 30
0.0
 10
0.8850300000000001
 20
0.76981
 30
0.0
 10
0.95773
 20
0.67985
 30
0.0
  0
SPLINE
  5
1C1
330
1F
100
AcDbEntity
  8
CAMADA_1
 62
    24
100
AcDbSpline
210
0.0
220
0.0
230
1.0
 70
     8
 71
     3
 72
     8
 73
     4
 74
     0
 42
0.000000001
 43
0.00000001
 40
0.1333333333333333
 40
0.1333333333333333
 40
0.1333333333333333
 40
0.1333333333333333
 40
0.2
 40
0.2
 40
0.2
 40
0.2
 10
0.95773
 20
0.67985
 30
0.0
 10
1.07515
 20
0.53454
 30
0.0
 10
1.18006
 20
0.34585
 30
0.0
 10
1.19829
 20
0.10547
 30
0.0
  0
SPLINE
  5
1C2
330
1F
100
AcDbEntity
  8
CAMADA_1
 62
    24
100
AcDbSpline
210
0.0
220
0.0
230
1.0
 70
     8
 71
     3
 72
     8
 73
     4
 74
     0
 42
0.000000001
 43
0.00000001
 40
0.2
 40
0.2
 40
0.2
 40
0.2
 40
0.2666666666666667
 40
0.2666666666666667
 40
0.2666666666666667
 40
0.2666666666666667
 10
1.19829
 20
0.10547
 30
0.0
 10
1.33416
 20
-0.05167
 30
0.0
 10
1.25422
 20
-1.03017
 30
0.0
 10
1.25431
 20
-1.30955
 30
0.0
  0
SPLINE
  5
1C3
330
1F
100
AcDbEntity
  8
CAMADA_1
 62
    24
100
AcDbSpline
210
0.0
220
0.0
230
1.0
 70
     8
 71
     3
 72
     8
 73
     4
 74
     0
 42
0.000000001
 43
0.00000001
 40
0.2666666666666667
 40
0.2666666666666667
 40
0.2666666666666667
 40
0.2666666666666667
 40
0.3333333333333333
 40
0.3333333333333333
 40
0.3333333333333333
 40
0.3333333333333333
 10
1.25431
 20
-1.30955
 30
0.0
 10
1.25438
 20
-1.50461
 30
0.0
 10
1.23959
 20
-1.46491
 30
0.0
 10
1.34911
 20
-1.57258
 30
0.0
  0
SPLINE
  5
1C4
330
1F
100
AcDbEntity
  8
CAMADA_1
 62
    24
100
AcDbSpline
210
0.0
220
0.0
230
1.0
 70
     8
 71
     3
 72
     8
 73
     4
 74
     0
 42
0.000000001
 43
0.00000001
 40
0.3333333333333333
 40
0.3333333333333333
 40
0.3333333333333333
 40
0.3333333333333333
 40
0.4
 40
0.4
 40
0.4
 40
0.4
 10
1.34911
 20
-1.57258
 30
0.0
 10
1.49966
 20
-1.72059
 30
0.0
 10
1.76669
 20
-2.0175
 30
0.0
 10
1.89882
 20
-2.0926
 30
0.0
  0
SPLINE
  5
1C5
330
1F
100
AcDbEntity
  8
CAMADA_1
 62
    24
100
AcDbSpline
210
0.0
220
0.0
230
1.0
 70
     8
 71
     3
 72
     8
 73
     4
 74
     0
 42
0.000000001
 43
0.00000001
 40
0.4
 40
0.4
 40
0.4
 40
0.4
 40
0.4666666666666667
 40
0.4666666666666667
 40
0.4666666666666667
 40
0.4666666666666667
 10
1.89882
 20
-2.0926
 30
0.0
 10
1.89882
 20
-1.85729
 30
0.0
 10
1.8536
 20
0.94307
 30
0.0
 10
1.93034
 20
1.02291
 30
0.0
  0
SPLINE
  5
1C6
330
1F
100
AcDbEntity
  8
CAMADA_1
 62
    24
100
AcDbSpline
210
0.0
220
0.0
230
1.0
 70
     8
 71
     3
 72
     8
 73
     4
 74
     0
 42
0.000000001
 43
0.00000001
 40
0.4666666666666667
 40
0.4666666666666667
 40
0.4666666666666667
 40
0.4666666666666667
 40
0.5333333333333333
 40
0.5333333333333333
 40
0.5333333333333333
 40
0.5333333333333333
 10
1.93034
 20
1.02291
 30
0.0
 10
1.96888
 20
1.063
 30
0.0
 10
2.01645
 20
1.04259
 30
0.0
 10
2.08443
 20
1.04232
 30
0.0
  0
SPLINE
  5
1C7
330
1F
100
AcDbEntity
  8
CAMADA_1
 62
    24
100
AcDbSpline
210
0.0
220
0.0
230
1.0
 70
     8
 71
     3
 72
     8
 73
     4
 74
     0
 42
0.000000001
 43
0.00000001
 40
0.5333333333333333
 40
0.5333333333333333
 40
0.5333333333333333
 40
0.5333333333333333
 40
0.6
 40
0.6
 40
0.6
 40
0.6
 10
2.08443
 20
1.04232
 30
0.0
 10
2.1833
 20
1.04191
 30
0.0
 10
2.16356
 20
1.05105
 30
0.0
 10
2.27774
 20
1.04726
 30
0.0
  0
SPLINE
  5
1C8
330
1F
100
AcDbEntity
  8
CAMADA_1
 62
    24
100
AcDbSpline
210
0.0
220
0.0
230
1.0
 70
     8
 71
     3
 72
     8
 73
     4
 74
     0
 42
0.000000001
 43
0.00000001
 40
0.6
 40
0.6
 40
0.6
 40
0.6
 40
0.6666666666666666
 40
0.6666666666666666
 40
0.6666666666666666
 40
0.6666666666666666
 10
2.27774
 20
1.04726
 30
0.0
 10
2.39976
 20
1.04322
 30
0.0
 10
2.45089
 20
1.02471
 30
0.0
 10
2.60429
 20
1.0572
 30
0.0
  0
SPLINE
  5
1C9
330
1F
100
AcDbEntity
  8
CAMADA_1
 62
     9
100
AcDbSpline
210
0.0
220
0.0
230
1.0
 70
     8
 71
     3
 72
     8
 73
     4
 74
     0
 42
0.000000001
 43
0.00000001
 40
0.0555555555555556
 40
0.0555555555555556
 40
0.0555555555555556
 40
0.0555555555555556
 40
0.1111111111111111
 40
0.1111111111111111
 40
0.1111111111111111
 40
0.1111111111111111
 10
-0.36183
 20
0.92076
 30
0.0
 10
-0.63009
 20
0.78402
 30
0.0
 10
-0.6127
 20
0.71774
 30
0.0
 10
-0.74869
 20
0.58019
 30
0.0
  0
SPLINE
  5
1CA
330
1F
100
AcDbEntity
  8
CAMADA_1
 62
     9
100
AcDbSpline
210
0.0
220
0.0
230
1.0
 70
     8
 71
     3
 72
     8
 73
     4
 74
     0
 42
0.000000001
 43
0.00000001
 40
0.1666666666666667
 40
0.1666666666666667
 40
0.1666666666666667
 40
0.1666666666666667
 40
0.2222222222222222
 40
0.2222222222222222
 40
0.2222222222222222
 40
0.2222222222222222
 10
-0.78801
 20
0.50614
 30
0.0
 10
-0.60877
 20
0.44785
 30
0.0
 10
-0.52005
 20
0.2912
 30
0.0
 10
-0.39737
 20
0.17179
 30
0.0
  0
SPLINE
  5
1CB
330
1F
100
AcDbEntity
  8
CAMADA_1
 62
     9
100
AcDbSpline
210
0.0
220
0.0
230
1.0
 70
     8
 71
     3
 72
     8
 73
     4
 74
     0
 42
0.000000001
 43
0.00000001
 40
0.2222222222222222
 40
0.2222222222222222
 40
0.2222222222222222
 40
0.2222222222222222
 40
0.2777777777777778
 40
0.2777777777777778
 40
0.2777777777777778
 40
0.2777777777777778
 10
-0.39737
 20
0.17179
 30
0.0
 10
-0.17541
 20
-0.04425
 30
0.0
 10
-0.22332
 20
0.02078
 30
0.0
 10
-0.22518
 20
-0.38892
 30
0.0
  0
SPLINE
  5
1CC
330
1F
100
AcDbEntity
  8
CAMADA_1
 62
     9
100
AcDbSpline
210
0.0
220
0.0
230
1.0
 70
     8
 71
     3
 72
     8
 73
     4
 74
     0
 42
0.000000001
 43
0.00000001
 40
0.2777777777777778
 40
0.2777777777777778
 40
0.2777777777777778
 40
0.2777777777777778
 40
0.3333333333333333
 40
0.3333333333333333
 40
0.3333333333333333
 40
0.3333333333333333
 10
-0.22518
 20
-0.38892
 30
0.0
 10
-0.22588
 20
-0.54154
 30
0.0
 10
-0.25874
 20
-1.70585
 30
0.0
 10
-0.19089
 20
-1.86348
 30
0.0
  0
SPLINE
  5
1CD
330
1F
100
AcDbEntity
  8
CAMADA_1
 62
     9
100
AcDbSpline
210
0.0
220
0.0
230
1.0
 70
     8
 71
     3
 72
     8
 73
     4
 74
     0
 42
0.000000001
 43
0.00000001
 40
0.3888888888888889
 40
0.3888888888888889
 40
0.3888888888888889
 40
0.3888888888888889
 40
0.4444444444444444
 40
0.4444444444444444
 40
0.4444444444444444
 40
0.4444444444444444
 10
-0.19027
 20
-0.0459
 30
0.0
 10
-0.17661
 20
0.13787
 30
0.0
 10
-0.14389
 20
0.2266
 30
0.0
 10
-0.01229
 20
0.28695
 30
0.0
  0
SPLINE
  5
1CE
330
1F
100
AcDbEntity
  8
CAMADA_1
 62
     9
100
AcDbSpline
210
0.0
220
0.0
230
1.0
 70
     8
 71
     3
 72
     8
 73
     4
 74
     0
 42
0.000000001
 43
0.00000001
 40
0.4444444444444444
 40
0.4444444444444444
 40
0.4444444444444444
 40
0.4444444444444444
 40
0.5
 40
0.5
 40
0.5
 40
0.5
 10
-0.01229
 20
0.28695
 30
0.0
 10
0.11438
 20
0.3450500000000001
 30
0.0
 10
0.27566
 20
0.31458
 30
0.0
 10
0.36857
 20
0.23329
 30
0.0
  0
SPLINE
  5
1CF
330
1F
100
AcDbEntity
  8
CAMADA_1
 62
     9
100
AcDbSpline
210
0.0
220
0.0
230
1.0
 70
     8
 71
     3
 72
     8
 73
     4
 74
     0
 42
0.000000001
 43
0.00000001
 40
0.5
 40
0.5
 40
0.5
 40
0.5
 40
0.5555555555555556
 40
0.5555555555555556
 40
0.5555555555555556
 40
0.5555555555555556
 10
0.36857
 20
0.23329
 30
0.0
 10
0.562
 20
0.06403
 30
0.0
 10
0.48766
 20
-0.39189
 30
0.0
 10
0.48764
 20
-0.68082
 30
0.0
  0
SPLINE
  5
1D0
330
1F
100
AcDbEntity
  8
CAMADA_1
 62
     9
100
AcDbSpline
210
0.0
220
0.0
230
1.0
 70
     8
 71
     3
 72
     8
 73
     4
 74
     0
 42
0.000000001
 43
0.00000001
 40
0.6111111111111112
 40
0.6111111111111112
 40
0.6111111111111112
 40
0.6111111111111112
 40
0.6666666666666666
 40
0.6666666666666666
 40
0.6666666666666666
 40
0.6666666666666666
 10
0.48638
 20
-0.7366
 30
0.0
 10
0.7468000000000001
 20
-0.89129
 30
0.0
 10
0.94768
 20
-1.26107
 30
0.0
 10
1.20838
 20
-1.40662
 30
0.0
  0
SPLINE
  5
1D1
330
1F
100
AcDbEntity
  8
CAMADA_1
 62
     9
100
AcDbSpline
210
0.0
220
0.0
230
1.0
 70
     8
 71
     3
 72
     8
 73
     4
 74
     0
 42
0.000000001
 43
0.00000001
 40
0.7222222222222222
 40
0.7222222222222222
 40
0.7222222222222222
 40
0.7222222222222222
 40
0.7777777777777778
 40
0.7777777777777778
 40
0.7777777777777778
 40
0.7777777777777778
 10
1.19829
 20
0.10547
 30
0.0
 10
1.18006
 20
0.34585
 30
0.0
 10
1.07515
 20
0.53454
 30
0.0
 10
0.95773
 20
0.67985
 30
0.0
  0
SPLINE
  5
1D2
330
1F
100
AcDbEntity
  8
CAMADA_1
 62
     9
100
AcDbSpline
210
0.0
220
0.0
230
1.0
 70
     8
 71
     3
 72
     8
 73
     4
 74
     0
 42
0.000000001
 43
0.00000001
 40
0.7777777777777778
 40
0.7777777777777778
 40
0.7777777777777778
 40
0.7777777777777778
 40
0.8333333333333334
 40
0.8333333333333334
 40
0.8333333333333334
 40
0.8333333333333334
 10
0.95773
 20
0.67985
 30
0.0
 10
0.8850300000000001
 20
0.76981
 30
0.0
 10
0.82853
 20
0.81116
 30
0.0
 10
0.73012
 20
0.8773399999999999
 30
0.0
  0
SPLINE
  5
1D3
330
1F
100
AcDbEntity
  8
CAMADA_1
 62
     9
100
AcDbSpline
210
0.0
220
0.0
230
1.0
 70
     8
 71
     3
 72
     8
 73
     4
 74
     0
 42
0.000000001
 43
0.00000001
 40
0.8333333333333334
 40
0.8333333333333334
 40
0.8333333333333334
 40
0.8333333333333334
 40
0.8888888888888888
 40
0.8888888888888888
 40
0.8888888888888888
 40
0.8888888888888888
 10
0.73012
 20
0.8773399999999999
 30
0.0
 10
0.62665
 20
0.94691
 30
0.0
 10
0.55579
 20
0.95728
 30
0.0
 10
0.46274
 20
1.01763
 30
0.0
  0
SPLINE
  5
1D4
330
1F
100
AcDbEntity
  8
CAMADA_1
 62
     9
100
AcDbSpline
210
0.0
220
0.0
230
1.0
 70
     8
 71
     3
 72
     8
 73
     4
 74
     0
 42
0.000000001
 43
0.00000001
 40
0.8888888888888888
 40
0.8888888888888888
 40
0.8888888888888888
 40
0.8888888888888888
 40
1.0
 40
1.0
 40
1.0
 40
1.0
 10
0.46274
 20
1.01763
 30
0.0
 10
0.1555
 20
1.04758
 30
0.0
 10
0.11889
 20
1.03355
 30
0.0
 10
-0.16962
 20
1.01994
 30
0.0
  0
SPLINE
  5
1D5
330
1F
100
AcDbEntity
  8
CAMADA_1
 62
    20
100
AcDbSpline
210
0.0
220
0.0
230
1.0
 70
     8
 71
     3
 72
     8
 73
     4
 74
     0
 42
0.000000001
 43
0.00000001
 40
0.2
 40
0.2
 40
0.2
 40
0.2
 40
0.4
 40
0.4
 40
0.4
 40
0.4
 10
-1.96372
 20
2.79814
 30
0.0
 10
-1.96647
 20
3.4404
 30
0.0
 10
-1.96417
 20
4.0833
 30
0.0
 10
-1.96395
 20
4.72563
 30
0.0
  0
SPLINE
  5
1D6
330
1F
100
AcDbEntity
  8
CAMADA_1
 62
    20
100
AcDbSpline
210
0.0
220
0.0
230
1.0
 70
     8
 71
     3
 72
     8
 73
     4
 74
     0
 42
0.000000001
 43
0.00000001
 40
0.4
 40
0.4
 40
0.4
 40
0.4
 40
0.6
 40
0.6
 40
0.6
 40
0.6
 10
-1.96395
 20
4.72563
 30
0.0
 10
-1.96359
 20
5.818509999999999
 30
0.0
 10
-1.82908
 20
5.950869999999999
 30
0.0
 10
-2.65909
 20
5.95145
 30
0.0
  0
SPLINE
  5
1D7
330
1F
100
AcDbEntity
  8
CAMADA_1
 62
    20
100
AcDbSpline
210
0.0
220
0.0
230
1.0
 70
     8
 71
     3
 72
     8
 73
     4
 74
     0
 42
0.000000001
 43
0.00000001
 40
0.0
 40
0.0
 40
0.0
 40
0.0
 40
0.2
 40
0.2
 40
0.2
 40
0.2
 10
0.47914
 20
3.49981
 30
0.0
 10
0.50017
 20
3.71496
 30
0.0
 10
0.54241
 20
5.62959
 30
0.0
 10
0.43305
 20
5.80007
 30
0.0
  0
SPLINE
  5
1D8
330
1F
100
AcDbEntity
  8
CAMADA_1
 62
    20
100
AcDbSpline
210
0.0
220
0.0
230
1.0
 70
     8
 71
     3
 72
     8
 73
     4
 74
     0
 42
0.000000001
 43
0.00000001
 40
0.2
 40
0.2
 40
0.2
 40
0.2
 40
0.4
 40
0.4
 40
0.4
 40
0.4
 10
0.43305
 20
5.80007
 30
0.0
 10
0.34337
 20
5.93987
 30
0.0
 10
0.09005
 20
6.00944
 30
0.0
 10
-0.08138
 20
5.86008
 30
0.0
  0
SPLINE
  5
1D9
330
1F
100
AcDbEntity
  8
CAMADA_1
 62
    20
100
AcDbSpline
210
0.0
220
0.0
230
1.0
 70
     8
 71
     3
 72
     8
 73
     4
 74
     0
 42
0.000000001
 43
0.00000001
 40
0.4
 40
0.4
 40
0.4
 40
0.4
 40
0.6
 40
0.6
 40
0.6
 40
0.6
 10
-0.08138
 20
5.86008
 30
0.0
 10
-0.29253
 20
5.6761
 30
0.0
 10
-0.19945
 20
4.71681
 30
0.0
 10
-0.19951
 20
4.37289
 30
0.0
  0
SPLINE
  5
1DA
330
1F
100
AcDbEntity
  8
CAMADA_1
 62
    20
100
AcDbSpline
210
0.0
220
0.0
230
1.0
 70
     8
 71
     3
 72
     8
 73
     4
 74
     0
 42
0.000000001
 43
0.00000001
 40
0.6
 40
0.6
 40
0.6
 40
0.6
 40
1.0
 40
1.0
 40
1.0
 40
1.0
 10
-0.19951
 20
4.37289
 30
0.0
 10
-0.19963
 20
3.6418
 30
0.0
 10
-0.29763
 20
3.50034
 30
0.0
 10
0.47914
 20
3.49981
 30
0.0
  0
SPLINE
  5
1DB
330
1F
100
AcDbEntity
  8
CAMADA_1
 62
    22
100
AcDbSpline
210
0.0
220
0.0
230
1.0
 70
     8
 71
     3
 72
     8
 73
     4
 74
     0
 42
0.000000001
 43
0.00000001
 40
0.0
 40
0.0
 40
0.0
 40
0.0
 40
0.1428571428571428
 40
0.1428571428571428
 40
0.1428571428571428
 40
0.1428571428571428
 10
-0.19089
 20
-1.86348
 30
0.0
 10
-0.12538
 20
-1.99621
 30
0.0
 10
-0.05085
 20
-2.10687
 30
0.0
 10
0.13702
 20
-2.11255
 30
0.0
  0
SPLINE
  5
1DC
330
1F
100
AcDbEntity
  8
CAMADA_1
 62
    22
100
AcDbSpline
210
0.0
220
0.0
230
1.0
 70
     8
 71
     3
 72
     8
 73
     4
 74
     0
 42
0.000000001
 43
0.00000001
 40
0.1428571428571428
 40
0.1428571428571428
 40
0.1428571428571428
 40
0.1428571428571428
 40
0.2857142857142857
 40
0.2857142857142857
 40
0.2857142857142857
 40
0.2857142857142857
 10
0.13702
 20
-2.11255
 30
0.0
 10
0.28616
 20
-2.11705
 30
0.0
 10
0.42726
 20
-2.01163
 30
0.0
 10
0.46819
 20
-1.88797
 30
0.0
  0
SPLINE
  5
1DD
330
1F
100
AcDbEntity
  8
CAMADA_1
 62
    22
100
AcDbSpline
210
0.0
220
0.0
230
1.0
 70
     8
 71
     3
 72
     8
 73
     4
 74
     0
 42
0.000000001
 43
0.00000001
 40
0.2857142857142857
 40
0.2857142857142857
 40
0.2857142857142857
 40
0.2857142857142857
 40
0.4285714285714285
 40
0.4285714285714285
 40
0.4285714285714285
 40
0.4285714285714285
 10
0.46819
 20
-1.88797
 30
0.0
 10
0.51136
 20
-1.75758
 30
0.0
 10
0.4891599999999999
 20
-0.93479
 30
0.0
 10
0.48638
 20
-0.7366
 30
0.0
  0
SPLINE
  5
1DE
330
1F
100
AcDbEntity
  8
CAMADA_1
 62
    20
100
AcDbSpline
210
0.0
220
0.0
230
1.0
 70
     8
 71
     3
 72
     8
 73
     4
 74
     0
 42
0.000000001
 43
0.00000001
 40
0.0
 40
0.0
 40
0.0
 40
0.0
 40
0.2
 40
0.2
 40
0.2
 40
0.2
 10
3.66249
 20
-6.91458
 30
0.0
 10
3.66315
 20
-7.422729999999999
 30
0.0
 10
3.93045
 20
-7.38175
 30
0.0
 10
4.34993
 20
-7.38155
 30
0.0
  0
SPLINE
  5
1DF
330
1F
100
AcDbEntity
  8
CAMADA_1
 62
    20
100
AcDbSpline
210
0.0
220
0.0
230
1.0
 70
     8
 71
     3
 72
     8
 73
     4
 74
     0
 42
0.000000001
 43
0.00000001
 40
0.4
 40
0.4
 40
0.4
 40
0.4
 40
0.6
 40
0.6
 40
0.6
 40
0.6
 10
4.34995
 20
-6.37046
 30
0.0
 10
4.18982
 20
-6.44419
 30
0.0
 10
4.11553
 20
-6.51838
 30
0.0
 10
3.97267
 20
-6.625459999999999
 30
0.0
  0
SPLINE
  5
1E0
330
1F
100
AcDbEntity
  8
CAMADA_1
 62
    20
100
AcDbSpline
210
0.0
220
0.0
230
1.0
 70
     8
 71
     3
 72
     8
 73
     4
 74
     0
 42
0.000000001
 43
0.00000001
 40
0.6
 40
0.6
 40
0.6
 40
0.6
 40
1.0
 40
1.0
 40
1.0
 40
1.0
 10
3.97267
 20
-6.625459999999999
 30
0.0
 10
3.86007
 20
-6.70987
 30
0.0
 10
3.71351
 20
-6.77445
 30
0.0
 10
3.66249
 20
-6.91458
 30
0.0
  0
SPLINE
  5
1E1
330
1F
100
AcDbEntity
  8
CAMADA_1
 62
    20
100
AcDbSpline
210
0.0
220
0.0
230
1.0
 70
     8
 71
     3
 72
     8
 73
     4
 74
     0
 42
0.000000001
 43
0.00000001
 40
0.0
 40
0.0
 40
0.0
 40
0.0
 40
0.25
 40
0.25
 40
0.25
 40
0.25
 10
-1.25793
 20
-5.946569999999999
 30
0.0
 10
-1.16383
 20
-5.9059
 30
0.0
 10
-0.58323
 20
-5.51168
 30
0.0
 10
-0.56199
 20
-5.39783
 30
0.0
  0
SPLINE
  5
1E2
330
1F
100
AcDbEntity
  8
CAMADA_1
 62
    20
100
AcDbSpline
210
0.0
220
0.0
230
1.0
 70
     8
 71
     3
 72
     8
 73
     4
 74
     0
 42
0.000000001
 43
0.00000001
 40
0.25
 40
0.25
 40
0.25
 40
0.25
 40
0.5
 40
0.5
 40
0.5
 40
0.5
 10
-0.56199
 20
-5.39783
 30
0.0
 10
-0.56311
 20
-5.05705
 30
0.0
 10
-0.79496
 20
-4.78338
 30
0.0
 10
-1.11272
 20
-4.99628
 30
0.0
  0
SPLINE
  5
1E3
330
1F
100
AcDbEntity
  8
CAMADA_1
 62
    20
100
AcDbSpline
210
0.0
220
0.0
230
1.0
 70
     8
 71
     3
 72
     8
 73
     4
 74
     0
 42
0.000000001
 43
0.00000001
 40
0.5
 40
0.5
 40
0.5
 40
0.5
 40
1.0
 40
1.0
 40
1.0
 40
1.0
 10
-1.11272
 20
-4.99628
 30
0.0
 10
-1.33281
 20
-5.14375
 30
0.0
 10
-1.25743
 20
-5.642859999999999
 30
0.0
 10
-1.25793
 20
-5.946569999999999
 30
0.0
  0
SPLINE
  5
1E4
330
1F
100
AcDbEntity
  8
CAMADA_1
 62
    20
100
AcDbSpline
210
0.0
220
0.0
230
1.0
 70
     8
 71
     3
 72
     8
 73
     4
 74
     0
 42
0.000000001
 43
0.00000001
 40
0.0
 40
0.0
 40
0.0
 40
0.0
 40
0.25
 40
0.25
 40
0.25
 40
0.25
 10
2.25173
 20
4.9224
 30
0.0
 10
2.49971
 20
5.06588
 30
0.0
 10
2.727720000000001
 20
5.27378
 30
0.0
 10
2.94827
 20
5.43338
 30
0.0
  0
SPLINE
  5
1E5
330
1F
100
AcDbEntity
  8
CAMADA_1
 62
    20
100
AcDbSpline
210
0.0
220
0.0
230
1.0
 70
     8
 71
     3
 72
     8
 73
     4
 74
     0
 42
0.000000001
 43
0.00000001
 40
0.25
 40
0.25
 40
0.25
 40
0.25
 40
0.5
 40
0.5
 40
0.5
 40
0.5
 10
2.94827
 20
5.43338
 30
0.0
 10
2.94805
 20
5.96391
 30
0.0
 10
2.64704
 20
6.02728
 30
0.0
 10
2.42457
 20
5.895929999999999
 30
0.0
  0
SPLINE
  5
1E6
330
1F
100
AcDbEntity
  8
CAMADA_1
 62
    20
100
AcDbSpline
210
0.0
220
0.0
230
1.0
 70
     8
 71
     3
 72
     8
 73
     4
 74
     0
 42
0.000000001
 43
0.00000001
 40
0.5
 40
0.5
 40
0.5
 40
0.5
 40
1.0
 40
1.0
 40
1.0
 40
1.0
 10
2.42457
 20
5.895929999999999
 30
0.0
 10
2.1784
 20
5.7506
 30
0.0
 10
2.25119
 20
5.27796
 30
0.0
 10
2.25173
 20
4.9224
 30
0.0
  0
SPLINE
  5
1E7
330
1F
100
AcDbEntity
  8
CAMADA_1
 62
    24
100
AcDbSpline
210
0.0
220
0.0
230
1.0
 70
     8
 71
     3
 72
     8
 73
     4
 74
     0
 42
0.000000001
 43
0.00000001
 40
0.2
 40
0.2
 40
0.2
 40
0.2
 40
0.4
 40
0.4
 40
0.4
 40
0.4
 10
0.48764
 20
-0.68082
 30
0.0
 10
0.48766
 20
-0.39189
 30
0.0
 10
0.562
 20
0.06403
 30
0.0
 10
0.36857
 20
0.23329
 30
0.0
  0
SPLINE
  5
1E8
330
1F
100
AcDbEntity
  8
CAMADA_1
 62
    24
100
AcDbSpline
210
0.0
220
0.0
230
1.0
 70
     8
 71
     3
 72
     8
 73
     4
 74
     0
 42
0.000000001
 43
0.00000001
 40
0.4
 40
0.4
 40
0.4
 40
0.4
 40
0.6
 40
0.6
 40
0.6
 40
0.6
 10
0.36857
 20
0.23329
 30
0.0
 10
0.27566
 20
0.31458
 30
0.0
 10
0.11438
 20
0.3450500000000001
 30
0.0
 10
-0.01229
 20
0.28695
 30
0.0
  0
SPLINE
  5
1E9
330
1F
100
AcDbEntity
  8
CAMADA_1
 62
    24
100
AcDbSpline
210
0.0
220
0.0
230
1.0
 70
     8
 71
     3
 72
     8
 73
     4
 74
     0
 42
0.000000001
 43
0.00000001
 40
0.6
 40
0.6
 40
0.6
 40
0.6
 40
1.0
 40
1.0
 40
1.0
 40
1.0
 10
-0.01229
 20
0.28695
 30
0.0
 10
-0.14389
 20
0.2266
 30
0.0
 10
-0.17661
 20
0.13787
 30
0.0
 10
-0.19027
 20
-0.0459
 30
0.0
  0
SPLINE
  5
1EA
330
1F
100
AcDbEntity
  8
CAMADA_1
 62
    24
100
AcDbSpline
210
0.0
220
0.0
230
1.0
 70
     8
 71
     3
 72
     8
 73
     4
 74
     0
 42
0.000000001
 43
0.00000001
 40
0.0
 40
0.0
 40
0.0
 40
0.0
 40
0.1428571428571428
 40
0.1428571428571428
 40
0.1428571428571428
 40
0.1428571428571428
 10
-0.74869
 20
0.58019
 30
0.0
 10
-0.6127
 20
0.71774
 30
0.0
 10
-0.63009
 20
0.78402
 30
0.0
 10
-0.36183
 20
0.92076
 30
0.0
  0
SPLINE
  5
1EB
330
1F
100
AcDbEntity
  8
CAMADA_1
 62
    24
100
AcDbSpline
210
0.0
220
0.0
230
1.0
 70
     8
 71
     3
 72
     8
 73
     4
 74
     0
 42
0.000000001
 43
0.00000001
 40
0.4285714285714285
 40
0.4285714285714285
 40
0.4285714285714285
 40
0.4285714285714285
 40
0.5714285714285714
 40
0.5714285714285714
 40
0.5714285714285714
 40
0.5714285714285714
 10
-1.2157
 20
1.03552
 30
0.0
 10
-1.16466
 20
0.92586
 30
0.0
 10
-1.18786
 20
0.9659899999999999
 30
0.0
 10
-1.10125
 20
0.87709
 30
0.0
  0
SPLINE
  5
1EC
330
1F
100
AcDbEntity
  8
CAMADA_1
 62
    24
100
AcDbSpline
210
0.0
220
0.0
230
1.0
 70
     8
 71
     3
 72
     8
 73
     4
 74
     0
 42
0.000000001
 43
0.00000001
 40
0.5714285714285714
 40
0.5714285714285714
 40
0.5714285714285714
 40
0.5714285714285714
 40
0.7142857142857143
 40
0.7142857142857143
 40
0.7142857142857143
 40
0.7142857142857143
 10
-1.10125
 20
0.87709
 30
0.0
 10
-1.0609
 20
0.83566
 30
0.0
 10
-1.03686
 20
0.81618
 30
0.0
 10
-0.99463
 20
0.77391
 30
0.0
  0
SPLINE
  5
1ED
330
1F
100
AcDbEntity
  8
CAMADA_1
 62
    24
100
AcDbSpline
210
0.0
220
0.0
230
1.0
 70
     8
 71
     3
 72
     8
 73
     4
 74
     0
 42
0.000000001
 43
0.00000001
 40
0.7142857142857143
 40
0.7142857142857143
 40
0.7142857142857143
 40
0.7142857142857143
 40
1.0
 40
1.0
 40
1.0
 40
1.0
 10
-0.99463
 20
0.77391
 30
0.0
 10
-0.91375
 20
0.6929699999999999
 30
0.0
 10
-0.87079
 20
0.607
 30
0.0
 10
-0.74869
 20
0.58019
 30
0.0
  0
ENDSEC
  0
SECTION
  2
OBJECTS
  0
DICTIONARY
  5
C
330
0
100
AcDbDictionary
281
     1
  3
ACAD_GROUP
350
D
  3
ACAD_LAYOUT
350
1A
  3
ACAD_MLINESTYLE
350
17
  3
ACAD_PLOTSETTINGS
350
19
  3
ACAD_PLOTSTYLENAME
350
E
  3
ACAD_SCALELIST
350
47
  0
DICTIONARY
  5
D
102
{ACAD_REACTORS
330
C
102
}
330
C
100
AcDbDictionary
281
     1
  0
DICTIONARY
  5
1A
102
{ACAD_REACTORS
330
C
102
}
330
C
100
AcDbDictionary
281
     1
  3
Layout1
350
1E
  3
Layout2
350
26
  3
Model
350
22
  0
DICTIONARY
  5
17
102
{ACAD_REACTORS
330
C
102
}
330
C
100
AcDbDictionary
281
     1
  3
Standard
350
18
  0
DICTIONARY
  5
19
102
{ACAD_REACTORS
330
C
102
}
330
C
100
AcDbDictionary
281
     1
  0
ACDBDICTIONARYWDFLT
  5
E
102
{ACAD_REACTORS
330
C
102
}
330
C
100
AcDbDictionary
281
     1
  3
Normal
350
F
100
AcDbDictionaryWithDefault
340
F
  0
DICTIONARY
  5
47
102
{ACAD_REACTORS
330
C
102
}
330
C
100
AcDbDictionary
281
     1
  3
A0
350
48
  3
A1
350
49
  3
A2
350
4A
  3
A3
350
4B
  3
A4
350
4C
  3
A5
350
4D
  3
A6
350
4E
  3
A7
350
4F
  3
A8
350
50
  3
A9
350
51
  3
B0
350
52
  3
B1
350
53
  3
B2
350
54
  3
B3
350
55
  3
B4
350
56
  3
B5
350
57
  3
B6
350
58
  3
B7
350
59
  3
B8
350
5A
  3
B9
350
5B
  3
C0
350
5C
  3
C1
350
5D
  3
C2
350
5E
  3
C3
350
5F
  3
C4
350
60
  3
C5
350
61
  3
C6
350
62
  3
C7
350
63
  3
C8
350
64
  3
C9
350
65
  3
D0
350
66
  3
D1
350
67
  3
D2
350
68
  0
LAYOUT
  5
1E
102
{ACAD_REACTORS
330
1A
102
}
330
1A
100
AcDbPlotSettings
  1

  2
none_device
  4

  6

 40
0.0
 41
0.0
 42
0.0
 43
0.0
 44
0.0
 45
0.0
 46
0.0
 47
0.0
 48
0.0
 49
0.0
140
0.0
141
0.0
142
1.0
143
1.0
 70
   688
 72
     0
 73
     0
 74
     5
  7

 75
    16
147
1.0
148
0.0
149
0.0
100
AcDbLayout
  1
Layout1
 70
     1
 71
     1
 10
0.0
 20
0.0
 11
12.0
 21
9.0
 12
0.0
 22
0.0
 32
0.0
 14
1.0000000000E+20
 24
1.0000000000E+20
 34
1.0000000000E+20
 15
-1.0000000000E+20
 25
-1.0000000000E+20
 35
-1.0000000000E+20
146
0.0
 13
0.0
 23
0.0
 33
0.0
 16
1.0
 26
0.0
 36
0.0
 17
0.0
 27
1.0
 37
0.0
 76
     0
330
1B
  0
LAYOUT
  5
26
102
{ACAD_REACTORS
330
1A
102
}
330
1A
100
AcDbPlotSettings
  1

  2
none_device
  4

  6

 40
0.0
 41
0.0
 42
0.0
 43
0.0
 44
0.0
 45
0.0
 46
0.0
 47
0.0
 48
0.0
 49
0.0
140
0.0
141
0.0
142
1.0
143
1.0
 70
   688
 72
     0
 73
     0
 74
     5
  7

 75
    16
147
1.0
148
0.0
149
0.0
100
AcDbLayout
  1
Layout2
 70
     1
 71
     2
 10
0.0
 20
0.0
 11
0.0
 21
0.0
 12
0.0
 22
0.0
 32
0.0
 14
0.0
 24
0.0
 34
0.0
 15
0.0
 25
0.0
 35
0.0
146
0.0
 13
0.0
 23
0.0
 33
0.0
 16
1.0
 26
0.0
 36
0.0
 17
0.0
 27
1.0
 37
0.0
 76
     0
330
23
  0
LAYOUT
  5
22
102
{ACAD_REACTORS
330
1A
102
}
330
1A
100
AcDbPlotSettings
  1

  2
none_device
  4
Letter_(8.50_x_11.00_Inches)
  6

 40
6.35
 41
6.35
 42
6.35000508
 43
6.35000508
 44
215.9
 45
279.4
 46
0.0
 47
0.0
 48
0.0
 49
0.0
140
0.0
141
0.0
142
1.0
143
1.0
 70
  1712
 72
     0
 73
     0
 74
     0
  7

 75
     0
147
1.0
148
0.0
149
0.0
100
AcDbLayout
  1
Model
 70
     1
 71
     0
 10
0.0
 20
0.0
 11
8.5
 21
11.0
 12
0.0
 22
0.0
 32
0.0
 14
0.0
 24
0.0
 34
0.0
 15
8.5
 25
11.0
 35
0.0
146
0.0
 13
0.0
 23
0.0
 33
0.0
 16
1.0
 26
0.0
 36
0.0
 17
0.0
 27
1.0
 37
0.0
 76
     0
330
1F
331
29
  0
MLINESTYLE
  5
18
102
{ACAD_REACTORS
330
17
102
}
330
17
100
AcDbMlineStyle
  2
Standard
 70
     0
  3

 62
   256
 51
90.0
 52
90.0
 71
     2
 49
0.5
 62
   256
  6
BYLAYER
 49
-0.5
 62
   256
  6
BYLAYER
  0
ACDBPLACEHOLDER
  5
F
102
{ACAD_REACTORS
330
E
102
}
330
E
  0
SCALE
  5
48
102
{ACAD_REACTORS
330
47
102
}
330
47
100
AcDbScale
 70
     0
300
1:1
140
1.0
141
1.0
290
     1
  0
SCALE
  5
49
102
{ACAD_REACTORS
330
47
102
}
330
47
100
AcDbScale
 70
     0
300
1:2
140
1.0
141
2.0
290
     0
  0
SCALE
  5
4A
102
{ACAD_REACTORS
330
47
102
}
330
47
100
AcDbScale
 70
     0
300
1:4
140
1.0
141
4.0
290
     0
  0
SCALE
  5
4B
102
{ACAD_REACTORS
330
47
102
}
330
47
100
AcDbScale
 70
     0
300
1:5
140
1.0
141
5.0
290
     0
  0
SCALE
  5
4C
102
{ACAD_REACTORS
330
47
102
}
330
47
100
AcDbScale
 70
     0
300
1:8
140
1.0
141
8.0
290
     0
  0
SCALE
  5
4D
102
{ACAD_REACTORS
330
47
102
}
330
47
100
AcDbScale
 70
     0
300
1:10
140
1.0
141
10.0
290
     0
  0
SCALE
  5
4E
102
{ACAD_REACTORS
330
47
102
}
330
47
100
AcDbScale
 70
     0
300
1:16
140
1.0
141
16.0
290
     0
  0
SCALE
  5
4F
102
{ACAD_REACTORS
330
47
102
}
330
47
100
AcDbScale
 70
     0
300
1:20
140
1.0
141
20.0
290
     0
  0
SCALE
  5
50
102
{ACAD_REACTORS
330
47
102
}
330
47
100
AcDbScale
 70
     0
300
1:30
140
1.0
141
30.0
290
     0
  0
SCALE
  5
51
102
{ACAD_REACTORS
330
47
102
}
330
47
100
AcDbScale
 70
     0
300
1:40
140
1.0
141
40.0
290
     0
  0
SCALE
  5
52
102
{ACAD_REACTORS
330
47
102
}
330
47
100
AcDbScale
 70
     0
300
1:50
140
1.0
141
50.0
290
     0
  0
SCALE
  5
53
102
{ACAD_REACTORS
330
47
102
}
330
47
100
AcDbScale
 70
     0
300
1:100
140
1.0
141
100.0
290
     0
  0
SCALE
  5
54
102
{ACAD_REACTORS
330
47
102
}
330
47
100
AcDbScale
 70
     0
300
2:1
140
2.0
141
1.0
290
     0
  0
SCALE
  5
55
102
{ACAD_REACTORS
330
47
102
}
330
47
100
AcDbScale
 70
     0
300
4:1
140
4.0
141
1.0
290
     0
  0
SCALE
  5
56
102
{ACAD_REACTORS
330
47
102
}
330
47
100
AcDbScale
 70
     0
300
8:1
140
8.0
141
1.0
290
     0
  0
SCALE
  5
57
102
{ACAD_REACTORS
330
47
102
}
330
47
100
AcDbScale
 70
     0
300
10:1
140
10.0
141
1.0
290
     0
  0
SCALE
  5
58
102
{ACAD_REACTORS
330
47
102
}
330
47
100
AcDbScale
 70
     0
300
100:1
140
100.0
141
1.0
290
     0
  0
SCALE
  5
59
102
{ACAD_REACTORS
330
47
102
}
330
47
100
AcDbScale
 70
     0
300
1/128" = 1'-0"
140
0.0078125
141
12.0
290
     0
  0
SCALE
  5
5A
102
{ACAD_REACTORS
330
47
102
}
330
47
100
AcDbScale
 70
     0
300
1/64" = 1'-0"
140
0.015625
141
12.0
290
     0
  0
SCALE
  5
5B
102
{ACAD_REACTORS
330
47
102
}
330
47
100
AcDbScale
 70
     0
300
1/32" = 1'-0"
140
0.03125
141
12.0
290
     0
  0
SCALE
  5
5C
102
{ACAD_REACTORS
330
47
102
}
330
47
100
AcDbScale
 70
     0
300
1/16" = 1'-0"
140
0.0625
141
12.0
290
     0
  0
SCALE
  5
5D
102
{ACAD_REACTORS
330
47
102
}
330
47
100
AcDbScale
 70
     0
300
3/32" = 1'-0"
140
0.09375
141
12.0
290
     0
  0
SCALE
  5
5E
102
{ACAD_REACTORS
330
47
102
}
330
47
100
AcDbScale
 70
     0
300
1/8" = 1'-0"
140
0.125
141
12.0
290
     0
  0
SCALE
  5
5F
102
{ACAD_REACTORS
330
47
102
}
330
47
100
AcDbScale
 70
     0
300
3/16" = 1'-0"
140
0.1875
141
12.0
290
     0
  0
SCALE
  5
60
102
{ACAD_REACTORS
330
47
102
}
330
47
100
AcDbScale
 70
     0
300
1/4" = 1'-0"
140
0.25
141
12.0
290
     0
  0
SCALE
  5
61
102
{ACAD_REACTORS
330
47
102
}
330
47
100
AcDbScale
 70
     0
300
3/8" = 1'-0"
140
0.375
141
12.0
290
     0
  0
SCALE
  5
62
102
{ACAD_REACTORS
330
47
102
}
330
47
100
AcDbScale
 70
     0
300
1/2" = 1'-0"
140
0.5
141
12.0
290
     0
  0
SCALE
  5
63
102
{ACAD_REACTORS
330
47
102
}
330
47
100
AcDbScale
 70
     0
300
3/4" = 1'-0"
140
0.75
141
12.0
290
     0
  0
SCALE
  5
64
102
{ACAD_REACTORS
330
47
102
}
330
47
100
AcDbScale
 70
     0
300
1" = 1'-0"
140
1.0
141
12.0
290
     0
  0
SCALE
  5
65
102
{ACAD_REACTORS
330
47
102
}
330
47
100
AcDbScale
 70
     0
300
1-1/2" = 1'-0"
140
1.5
141
12.0
290
     0
  0
SCALE
  5
66
102
{ACAD_REACTORS
330
47
102
}
330
47
100
AcDbScale
 70
     0
300
3" = 1'-0"
140
3.0
141
12.0
290
     0
  0
SCALE
  5
67
102
{ACAD_REACTORS
330
47
102
}
330
47
100
AcDbScale
 70
     0
300
6" = 1'-0"
140
6.0
141
12.0
290
     0
  0
SCALE
  5
68
102
{ACAD_REACTORS
330
47
102
}
330
47
100
AcDbScale
 70
     0
300
1'-0" = 1'-0"
140
12.0
141
12.0
290
     0
  0
ENDSEC
  0
EOF
